M48
;DRILL file {KiCad 4.0.7} date 03/19/21 15:32:41
;FORMAT={-:-/ absolute / metric / decimal}
FMAT,2
METRIC,TZ
T1C2.000
T2C3.100
%
G90
G05
M71
T1
X147.59Y-34.47
X155.21Y-39.55
X171.99Y-34.52
X179.61Y-39.6
X206.09Y-34.85
X213.71Y-39.93
X241.69Y-34.45
X249.31Y-39.53
X276.19Y-34.65
X283.81Y-39.73
T2
X13.Y-36.
X13.Y-102.
X107.Y-98.
X113.9Y-49.05
X185.Y-98.
X236.3Y-54.4
X290.Y-36.
X290.Y-102.
T1
X53.92Y-36.14G85X53.92Y-36.14
G05
X62.92Y-36.14G85X62.92Y-36.14
G05
X69.2Y-35.9G85X69.2Y-35.9
G05
X78.2Y-35.9G85X78.2Y-35.9
G05
X84.65Y-35.8G85X84.65Y-35.8
G05
X93.65Y-35.8G85X93.65Y-35.8
G05
X99.4Y-35.8G85X99.4Y-35.8
G05
X108.4Y-35.8G85X108.4Y-35.8
G05
X114.3Y-35.8G85X114.3Y-35.8
G05
X123.3Y-35.8G85X123.3Y-35.8
G05
X129.6Y-35.8G85X129.6Y-35.8
G05
X138.6Y-35.8G85X138.6Y-35.8
G05
X188.3Y-35.8G85X188.3Y-35.8
G05
X197.3Y-35.8G85X197.3Y-35.8
G05
X223.7Y-36.3G85X223.7Y-36.3
G05
X232.7Y-36.3G85X232.7Y-36.3
G05
X257.9Y-36.1G85X257.9Y-36.1
G05
X266.9Y-36.1G85X266.9Y-36.1
G05
T0
M30
