M48
;DRILL file {KiCad 4.0.7} date 03/17/21 00:05:16
;FORMAT={-:-/ absolute / metric / decimal}
FMAT,2
METRIC,TZ
T1C2.000
T2C3.100
%
G90
G05
M71
T1
X200.19Y-34.65
X207.81Y-39.73
X238.19Y-34.65
X245.81Y-39.73
X276.19Y-34.65
X283.81Y-39.73
T2
X13.Y-36.
X13.Y-102.
X290.Y-36.
X290.Y-102.
T1
X59.24Y-35.86G85X59.24Y-35.86
G05
X68.24Y-35.86G85X68.24Y-35.86
G05
X74.48Y-35.86G85X74.48Y-35.86
G05
X83.48Y-35.86G85X83.48Y-35.86
G05
X89.72Y-35.86G85X89.72Y-35.86
G05
X98.72Y-35.86G85X98.72Y-35.86
G05
X104.96Y-35.86G85X104.96Y-35.86
G05
X113.96Y-35.86G85X113.96Y-35.86
G05
X120.2Y-35.86G85X120.2Y-35.86
G05
X129.2Y-35.86G85X129.2Y-35.86
G05
X135.44Y-35.86G85X135.44Y-35.86
G05
X144.44Y-35.86G85X144.44Y-35.86
G05
X150.68Y-35.86G85X150.68Y-35.86
G05
X159.68Y-35.86G85X159.68Y-35.86
G05
X165.92Y-35.86G85X165.92Y-35.86
G05
X174.92Y-35.86G85X174.92Y-35.86
G05
X181.9Y-36.G85X181.9Y-36.
G05
X190.9Y-36.G85X190.9Y-36.
G05
X218.5Y-36.5G85X218.5Y-36.5
G05
X227.5Y-36.5G85X227.5Y-36.5
G05
X256.14Y-36.14G85X256.14Y-36.14
G05
X265.14Y-36.14G85X265.14Y-36.14
G05
T0
M30
