M48
;DRILL file {KiCad 4.0.7} date 04/24/21 09:13:58
;FORMAT={-:-/ absolute / metric / decimal}
FMAT,2
METRIC,TZ
T1C0.400
T2C0.800
T3C0.900
T4C1.000
T5C1.100
T6C1.200
T7C1.500
T8C1.520
T9C2.000
%
G90
G05
M71
T1
X98.13Y-110.67
X99.58Y-114.89
X101.17Y-113.88
X107.86Y-80.47
X118.1Y-35.18
X118.88Y-37.64
X130.6Y-121.
X133.62Y-122.22
X159.45Y-35.18
X160.15Y-37.86
X174.3Y-88.8
X179.3Y-35.21
X181.49Y-37.44
X184.1Y-111.1
X184.29Y-121.85
X188.2Y-87.9
X200.69Y-35.26
X203.51Y-37.77
X218.77Y-122.07
X220.7Y-119.89
X221.2Y-104.7
X234.03Y-99.58
X236.43Y-101.31
X244.29Y-74.68
X244.43Y-71.32
X245.73Y-71.27
X245.9Y-74.6
X250.13Y-89.12
X250.24Y-92.56
X257.6Y-35.23
X258.78Y-37.67
X284.92Y-46.85
X285.21Y-48.83
X287.83Y-51.25
X287.95Y-49.84
X303.79Y-116.68
X305.9Y-118.26
X306.05Y-117.1
X308.57Y-118.07
T2
X55.49Y-38.98
X55.49Y-46.6
X61.82Y-64.04
X72.28Y-39.13
X72.28Y-46.75
X74.52Y-64.04
X76.33Y-111.98
X76.33Y-119.6
X79.52Y-111.96
X79.52Y-116.96
X82.59Y-112.13
X82.59Y-119.75
X89.56Y-104.05
X89.8Y-39.15
X89.8Y-46.77
X91.36Y-95.94
X91.36Y-99.44
X92.62Y-112.09
X92.62Y-119.71
X98.98Y-95.94
X98.98Y-99.44
X102.26Y-104.05
X103.49Y-93.71
X103.49Y-98.71
X103.71Y-78.12
X103.71Y-90.82
X107.86Y-39.01
X107.86Y-46.63
X112.28Y-103.
X117.91Y-99.71
X119.9Y-103.
X120.08Y-112.7
X120.18Y-109.4
X120.18Y-116.9
X120.2Y-120.1
X120.28Y-106.2
X121.71Y-93.6
X121.81Y-88.47
X122.91Y-99.71
X125.35Y-39.14
X125.35Y-46.76
X125.39Y-100.81
X127.7Y-112.7
X127.8Y-109.4
X127.8Y-116.9
X127.82Y-120.1
X127.9Y-106.2
X128.24Y-94.72
X128.32Y-89.46
X130.39Y-100.81
X134.85Y-108.1
X134.85Y-110.6
X135.5Y-97.6
X135.5Y-105.22
X138.41Y-59.42
X138.41Y-61.92
X138.9Y-96.7
X138.9Y-101.7
X139.1Y-104.3
X139.1Y-109.3
X140.82Y-89.28
X140.82Y-91.78
X142.5Y-96.7
X142.5Y-99.24
X142.5Y-101.78
X142.5Y-104.32
X142.95Y-38.96
X142.95Y-46.58
X144.76Y-69.68
X144.9Y-92.34
X145.04Y-58.09
X145.04Y-60.63
X145.04Y-63.17
X145.04Y-65.71
X147.56Y-54.8
X147.9Y-113.7
X147.9Y-118.7
X149.76Y-69.68
X149.9Y-92.34
X150.12Y-96.7
X150.12Y-99.24
X150.12Y-101.78
X150.12Y-104.32
X152.56Y-54.8
X152.66Y-58.09
X152.66Y-60.63
X152.66Y-63.17
X152.66Y-65.71
X153.5Y-94.9
X153.5Y-99.9
X153.7Y-112.1
X153.7Y-117.1
X155.78Y-60.39
X155.83Y-63.74
X157.3Y-92.1
X157.3Y-99.72
X160.78Y-60.39
X160.83Y-63.74
X162.5Y-104.7
X162.7Y-94.7
X162.7Y-97.9
X162.7Y-101.3
X164.59Y-89.61
X165.62Y-77.04
X165.62Y-84.66
X166.54Y-71.93
X167.09Y-89.61
X168.29Y-65.06
X168.29Y-67.56
X168.9Y-77.08
X168.9Y-84.7
X170.12Y-104.7
X170.32Y-94.7
X170.32Y-97.9
X170.32Y-101.3
X171.54Y-71.93
X172.3Y-90.7
X174.6Y-64.07
X174.6Y-66.61
X174.6Y-69.15
X174.6Y-71.69
X175.3Y-111.5
X175.3Y-116.5
X177.3Y-90.7
X177.5Y-105.3
X177.56Y-60.88
X178.08Y-94.1
X178.08Y-101.72
X179.1Y-114.1
X179.1Y-119.1
X180.1Y-90.8
X180.62Y-94.1
X180.62Y-101.72
X182.22Y-64.07
X182.22Y-66.61
X182.22Y-69.15
X182.22Y-71.69
X182.5Y-105.3
X182.56Y-60.88
X183.16Y-94.1
X183.16Y-101.72
X184.3Y-117.5
X184.82Y-64.46
X184.85Y-67.98
X185.1Y-90.8
X185.7Y-94.1
X185.7Y-101.72
X186.1Y-104.5
X186.1Y-109.5
X186.8Y-117.5
X189.82Y-64.46
X189.85Y-67.98
X190.9Y-114.3
X190.9Y-119.3
X191.48Y-101.9
X191.5Y-95.3
X191.5Y-98.5
X191.68Y-105.3
X192.985Y-66.62
X192.985Y-74.24
X196.1Y-111.1
X196.1Y-116.1
X199.1Y-101.9
X199.12Y-95.3
X199.12Y-98.5
X199.3Y-105.3
X199.51Y-66.325
X199.51Y-73.945
X202.235Y-65.945
X203.635Y-69.545
X203.685Y-72.745
X204.1Y-100.3
X204.1Y-104.1
X205.935Y-77.145
X207.235Y-65.945
X208.475Y-77.145
X209.1Y-100.3
X209.1Y-104.1
X211.015Y-77.145
X211.255Y-69.545
X211.305Y-72.745
X214.46Y-73.45
X214.46Y-81.07
X216.26Y-84.85
X216.26Y-92.47
X218.7Y-108.5
X219.52Y-88.72
X219.52Y-96.34
X219.98Y-83.6
X220.7Y-99.3
X221.2Y-108.5
X222.88Y-88.71
X222.88Y-96.33
X225.58Y-104.4
X225.7Y-99.3
X226.1Y-90.3
X226.1Y-95.3
X227.6Y-83.6
X229.08Y-91.08
X229.08Y-93.62
X229.08Y-96.16
X229.08Y-98.7
X231.83Y-71.73
X231.83Y-74.27
X231.83Y-76.81
X231.83Y-79.35
X232.18Y-57.68
X232.18Y-67.84
X233.2Y-104.4
X236.49Y-57.58
X236.49Y-67.74
X236.7Y-91.08
X236.7Y-93.62
X236.7Y-96.16
X236.7Y-98.7
X239.45Y-71.73
X239.45Y-74.27
X239.45Y-76.81
X239.45Y-79.35
X239.5Y-90.1
X240.3Y-95.3
X240.3Y-100.3
X242.66Y-76.5
X242.77Y-79.96
X244.5Y-90.1
X244.5Y-93.7
X244.5Y-101.32
X244.9Y-112.6
X244.9Y-120.22
X245.57Y-105.84
X247.66Y-76.5
X247.77Y-79.96
X247.8Y-93.77
X247.8Y-101.39
X248.07Y-105.84
X253.89Y-106.
X253.89Y-108.5
X254.51Y-94.53
X254.51Y-102.15
X257.77Y-97.06
X257.77Y-102.06
X257.94Y-104.42
X257.94Y-109.42
X258.58Y-89.49
X261.08Y-89.49
X261.19Y-94.
X261.19Y-96.54
X261.19Y-99.08
X261.19Y-101.62
X263.89Y-90.75
X268.81Y-94.
X268.81Y-96.54
X268.81Y-99.08
X268.81Y-101.62
X268.89Y-90.75
X272.3Y-83.93
X272.3Y-91.55
X272.3Y-97.26
X272.3Y-102.26
X275.54Y-83.91
X275.54Y-91.53
X275.82Y-97.15
X275.82Y-102.15
X275.82Y-105.43
X275.82Y-113.05
X279.01Y-73.11
X279.01Y-75.65
X279.01Y-78.19
X279.01Y-80.73
X279.29Y-59.74
X279.29Y-69.9
X279.51Y-96.9
X279.51Y-104.52
X282.86Y-96.98
X282.86Y-101.98
X283.17Y-83.71
X283.17Y-88.71
X284.09Y-59.66
X284.09Y-69.82
X286.33Y-85.41
X286.63Y-73.11
X286.63Y-75.65
X286.63Y-78.19
X286.63Y-80.73
X286.93Y-92.51
X286.93Y-95.05
X286.93Y-97.59
X286.93Y-100.13
X291.33Y-85.41
X294.55Y-92.51
X294.55Y-95.05
X294.55Y-97.59
X294.55Y-100.13
X297.4Y-97.
X297.44Y-100.43
X297.73Y-86.72
X297.76Y-90.98
X298.13Y-83.02
X302.4Y-97.
X302.44Y-100.43
X305.75Y-83.02
X307.89Y-86.72
X307.92Y-90.98
X308.63Y-75.33
X308.63Y-82.95
T3
X86.22Y-117.5
X88.76Y-117.5
T4
X59.46Y-77.45
X59.46Y-82.45
X59.46Y-95.22
X59.46Y-100.22
X60.08Y-112.6
X62.62Y-112.6
X65.16Y-112.6
X67.02Y-53.71
X67.02Y-58.71
X75.22Y-98.29
X77.76Y-98.29
X80.3Y-98.29
X121.71Y-96.1
X121.81Y-85.97
X128.24Y-97.22
X128.32Y-86.96
X136.15Y-53.87
X138.69Y-53.87
X162.46Y-68.44
X162.46Y-70.98
X213.13Y-56.55
X213.13Y-59.09
X213.13Y-61.63
T5
X40.48Y-116.8
X40.7Y-52.16
X40.7Y-59.76
X40.74Y-66.13
X40.74Y-73.75
X40.74Y-78.83
X40.74Y-83.91
X40.78Y-120.2
X40.83Y-91.36
X40.9Y-95.52
X40.9Y-100.6
X40.9Y-105.68
X40.9Y-113.3
X40.96Y-87.45
X45.78Y-52.16
X45.78Y-59.76
X48.1Y-116.8
X48.34Y-66.13
X48.34Y-73.75
X48.34Y-78.83
X48.34Y-83.91
X48.4Y-120.2
X48.45Y-91.36
X48.5Y-95.52
X48.5Y-100.6
X48.5Y-105.68
X48.5Y-113.3
X48.58Y-87.45
X50.86Y-52.16
X50.86Y-59.76
X51.47Y-64.21
X51.56Y-72.64
X51.74Y-102.2
X51.74Y-109.82
X51.78Y-68.96
X51.78Y-76.09
X51.78Y-83.71
X51.91Y-91.31
X51.91Y-98.93
X58.48Y-52.16
X58.48Y-59.76
X59.09Y-64.21
X59.18Y-72.64
X59.4Y-68.96
X83.71Y-62.71
X83.71Y-70.33
X86.25Y-52.19
X86.25Y-59.79
X86.59Y-77.64
X86.59Y-85.26
X91.33Y-52.19
X91.33Y-59.79
X91.48Y-92.43
X96.41Y-52.19
X96.41Y-59.79
X99.1Y-92.43
X103.57Y-63.09
X103.57Y-70.69
X104.03Y-52.19
X104.03Y-59.79
X108.18Y-52.34
X108.18Y-59.96
X111.19Y-63.09
X111.19Y-70.69
X113.07Y-52.53
X113.07Y-60.13
X116.27Y-63.09
X116.27Y-70.69
X120.69Y-52.53
X120.69Y-60.13
X121.35Y-63.09
X121.35Y-70.69
X125.77Y-52.53
X125.77Y-60.13
X130.85Y-52.53
X130.85Y-60.13
X178.3Y-78.5
X178.3Y-86.1
X183.38Y-78.5
X183.38Y-86.1
X188.46Y-78.5
X188.46Y-86.1
X194.18Y-62.69
X196.08Y-78.5
X196.08Y-86.1
X196.26Y-66.325
X196.26Y-73.945
X199.8Y-78.49
X199.8Y-86.11
X201.8Y-62.69
X219.16Y-61.26
X219.16Y-66.34
X219.16Y-71.42
X219.16Y-79.04
X226.76Y-61.26
X226.76Y-66.34
X226.76Y-71.42
X226.76Y-79.04
X251.51Y-66.9
X251.51Y-71.98
X251.51Y-77.06
X251.51Y-84.68
X259.11Y-66.9
X259.11Y-71.98
X259.11Y-77.06
X259.11Y-84.68
X291.7Y-60.34
X291.7Y-65.42
X291.7Y-70.5
X291.7Y-78.12
X299.3Y-60.34
X299.3Y-65.42
X299.3Y-70.5
X299.3Y-78.12
X310.49Y-102.2
X310.49Y-109.82
X310.49Y-114.9
X310.49Y-119.98
X314.26Y-79.58
X314.26Y-84.66
X314.26Y-89.74
X314.26Y-97.36
X318.09Y-102.2
X318.09Y-109.82
X318.09Y-114.9
X318.09Y-119.98
X321.86Y-79.58
X321.86Y-84.66
X321.86Y-89.74
X321.86Y-97.36
T6
X89.94Y-68.4
X92.51Y-82.22
X94.94Y-68.4
X97.51Y-82.22
X109.38Y-113.9
X109.38Y-118.9
X159.28Y-108.9
X159.28Y-113.9
X159.28Y-118.9
X164.28Y-113.9
X164.28Y-118.9
X169.28Y-108.9
X169.28Y-113.9
X169.28Y-118.9
X202.46Y-108.9
X202.46Y-113.9
X202.46Y-118.9
X207.46Y-113.9
X207.46Y-118.9
X212.46Y-108.9
X212.46Y-113.9
X212.46Y-118.9
X227.86Y-108.9
X227.86Y-113.9
X227.86Y-118.9
X232.86Y-113.9
X232.86Y-118.9
X237.86Y-108.9
X237.86Y-113.9
X237.86Y-118.9
X261.86Y-108.9
X261.86Y-113.9
X261.86Y-118.9
X266.86Y-113.9
X266.86Y-118.9
X271.86Y-108.9
X271.86Y-113.9
X271.86Y-118.9
X292.34Y-108.9
X292.34Y-113.9
X292.34Y-118.9
X297.34Y-113.9
X297.34Y-118.9
X302.34Y-108.9
X302.34Y-113.9
X302.34Y-118.9
T8
X33.3Y-97.8
X33.3Y-102.88
X33.7Y-79.8
X33.7Y-84.88
X33.7Y-89.96
X34.2Y-67.8
X34.2Y-72.88
X34.42Y-56.1
X34.42Y-61.18
X34.48Y-44.31
X34.48Y-49.39
X76.42Y-54.9
X81.5Y-54.9
X126.26Y-67.045
X131.34Y-67.045
X204.97Y-83.21
X210.05Y-83.21
T9
X164.08Y-43.46
X168.28Y-49.18
X172.33Y-53.63
X176.38Y-49.82
X189.23Y-43.52
X193.43Y-49.24
X197.48Y-53.69
X201.53Y-49.88
X229.33Y-53.34
X233.14Y-48.26
X233.14Y-53.34
X236.95Y-53.34
X267.43Y-53.34
X271.24Y-48.26
X271.24Y-53.34
X275.05Y-53.34
X306.07Y-53.34
X309.88Y-48.26
X309.88Y-53.34
X313.69Y-53.34
T4
X43.25Y-43.83G85X43.25Y-45.83
G05
X48.95Y-41.83G85X46.95Y-41.83
G05
X48.95Y-47.83G85X46.95Y-47.83
G05
T6
X105.505Y-108.74G85X104.205Y-108.74
G05
X105.505Y-113.82G85X104.205Y-113.82
G05
X105.505Y-118.9G85X104.205Y-118.9
G05
X114.395Y-108.74G85X113.095Y-108.74
G05
X114.395Y-113.82G85X113.095Y-113.82
G05
X114.395Y-118.9G85X113.095Y-118.9
G05
T7
X63.Y-42.18G85X64.Y-42.18
G05
X63.5Y-46.68G85X63.5Y-47.68
G05
X80.78Y-42.18G85X81.78Y-42.18
G05
X81.28Y-46.68G85X81.28Y-47.68
G05
X98.56Y-42.18G85X99.56Y-42.18
G05
X99.06Y-46.68G85X99.06Y-47.68
G05
X116.34Y-42.18G85X117.34Y-42.18
G05
X116.84Y-46.68G85X116.84Y-47.68
G05
X134.12Y-42.18G85X135.12Y-42.18
G05
X134.62Y-46.68G85X134.62Y-47.68
G05
X151.9Y-42.18G85X152.9Y-42.18
G05
X152.4Y-46.68G85X152.4Y-47.68
G05
X214.41Y-42.31G85X215.41Y-42.31
G05
X214.91Y-46.81G85X214.91Y-47.81
G05
X251.25Y-42.21G85X252.25Y-42.21
G05
X251.75Y-46.71G85X251.75Y-47.71
G05
X289.06Y-42.18G85X290.06Y-42.18
G05
X289.56Y-46.68G85X289.56Y-47.68
G05
T0
M30
