G04 #@! TF.FileFunction,Soldermask,Bot*
%FSLAX46Y46*%
G04 Gerber Fmt 4.6, Leading zero omitted, Abs format (unit mm)*
G04 Created by KiCad (PCBNEW 4.0.7) date 03/25/21 17:32:30*
%MOMM*%
%LPD*%
G01*
G04 APERTURE LIST*
%ADD10C,0.100000*%
%ADD11O,2.400000X2.400000*%
%ADD12O,3.900000X2.900000*%
%ADD13O,2.900000X3.900000*%
%ADD14C,3.400000*%
%ADD15C,2.400000*%
%ADD16C,2.200000*%
%ADD17R,2.000000X2.000000*%
%ADD18O,2.000000X2.000000*%
%ADD19C,2.000000*%
%ADD20R,2.400000X2.400000*%
%ADD21R,2.600000X2.600000*%
%ADD22O,2.600000X2.600000*%
%ADD23R,3.400000X3.400000*%
%ADD24R,2.200000X2.200000*%
%ADD25O,2.200000X2.200000*%
%ADD26C,3.500000*%
%ADD27R,3.900000X3.900000*%
%ADD28C,2.900000*%
%ADD29R,2.100000X2.100000*%
%ADD30O,2.100000X2.100000*%
G04 APERTURE END LIST*
D10*
D11*
X53920000Y-39315000D03*
X62920000Y-39315000D03*
X53920000Y-36140000D03*
X62920000Y-36140000D03*
D12*
X58420000Y-39640000D03*
D13*
X58420000Y-44640000D03*
D14*
X177300000Y-48160000D03*
X173250000Y-43710000D03*
D15*
X173490000Y-34820000D03*
X181110000Y-39900000D03*
D14*
X181350000Y-44350000D03*
X169050000Y-37990000D03*
X153000000Y-48260000D03*
X148950000Y-43810000D03*
D15*
X149190000Y-34920000D03*
X156810000Y-40000000D03*
D14*
X157050000Y-44450000D03*
X144750000Y-38090000D03*
D16*
X126840000Y-52000000D03*
X137000000Y-52000000D03*
X131920000Y-52000000D03*
X131920000Y-59600000D03*
X126840000Y-59600000D03*
X137000000Y-59600000D03*
X119220000Y-52000000D03*
X119220000Y-59600000D03*
D17*
X203600000Y-81400000D03*
D18*
X195980000Y-73780000D03*
X203600000Y-78860000D03*
X195980000Y-76320000D03*
X203600000Y-76320000D03*
X195980000Y-78860000D03*
X203600000Y-73780000D03*
X195980000Y-81400000D03*
D19*
X272900000Y-65000000D03*
D18*
X280520000Y-65000000D03*
D17*
X267500000Y-76200000D03*
D18*
X275120000Y-83820000D03*
X267500000Y-78740000D03*
X275120000Y-81280000D03*
X267500000Y-81280000D03*
X275120000Y-78740000D03*
X267500000Y-83820000D03*
X275120000Y-76200000D03*
D19*
X133200000Y-63800000D03*
D18*
X133200000Y-71420000D03*
D16*
X99440000Y-64400000D03*
X109600000Y-64400000D03*
X104520000Y-64400000D03*
X104520000Y-72000000D03*
X99440000Y-72000000D03*
X109600000Y-72000000D03*
X91820000Y-64400000D03*
X91820000Y-72000000D03*
D20*
X17600000Y-95400000D03*
D15*
X17600000Y-90400000D03*
D20*
X40000000Y-54000000D03*
D15*
X40000000Y-59000000D03*
D19*
X100900000Y-75050000D03*
X105900000Y-75050000D03*
D17*
X69000000Y-86000000D03*
D19*
X69000000Y-83500000D03*
D17*
X56800000Y-79000000D03*
D19*
X56800000Y-76500000D03*
X82850000Y-85250000D03*
X77850000Y-85250000D03*
X139200000Y-73400000D03*
X144200000Y-73400000D03*
X114800000Y-101400000D03*
X114800000Y-96400000D03*
X146000000Y-101800000D03*
X146000000Y-96800000D03*
X120600000Y-94800000D03*
X120600000Y-99800000D03*
X142200000Y-94200000D03*
X142200000Y-99200000D03*
X157800000Y-102000000D03*
X157800000Y-97000000D03*
D21*
X11800000Y-55200000D03*
D22*
X19420000Y-55200000D03*
D21*
X25800000Y-98600000D03*
D22*
X25800000Y-90980000D03*
D21*
X29800000Y-91000000D03*
D22*
X29800000Y-98620000D03*
D21*
X11800000Y-51600000D03*
D22*
X19420000Y-51600000D03*
D21*
X38200000Y-98600000D03*
D22*
X38200000Y-90980000D03*
D21*
X34000000Y-91000000D03*
D22*
X34000000Y-98620000D03*
D21*
X56200000Y-90200000D03*
D22*
X63820000Y-90200000D03*
D21*
X40600000Y-66600000D03*
D22*
X40600000Y-74220000D03*
D21*
X15600000Y-72600000D03*
D22*
X15600000Y-64980000D03*
D23*
X32800000Y-39300000D03*
D14*
X27720000Y-39300000D03*
X22640000Y-39300000D03*
D23*
X16100000Y-42100000D03*
D14*
X16100000Y-47180000D03*
D19*
X94700000Y-94850000D03*
D18*
X87080000Y-94850000D03*
D19*
X56000000Y-83400000D03*
D18*
X63620000Y-83400000D03*
D19*
X45200000Y-63400000D03*
D18*
X37580000Y-63400000D03*
D19*
X63600000Y-86800000D03*
D18*
X55980000Y-86800000D03*
D19*
X44000000Y-66600000D03*
D18*
X44000000Y-74220000D03*
D19*
X94600000Y-91500000D03*
D18*
X86980000Y-91500000D03*
D19*
X124200000Y-74800000D03*
D18*
X124200000Y-82420000D03*
D19*
X102400000Y-80300000D03*
D18*
X102400000Y-87920000D03*
D19*
X136400000Y-63800000D03*
D18*
X136400000Y-71420000D03*
D19*
X281700000Y-93200000D03*
D18*
X281700000Y-85580000D03*
D19*
X129600000Y-84000000D03*
D18*
X137220000Y-84000000D03*
D19*
X166200000Y-88000000D03*
D18*
X158580000Y-88000000D03*
D19*
X129400000Y-87400000D03*
D18*
X137020000Y-87400000D03*
D19*
X166000000Y-84600000D03*
D18*
X158380000Y-84600000D03*
D19*
X129600000Y-80600000D03*
D18*
X137220000Y-80600000D03*
D19*
X158400000Y-81200000D03*
D18*
X166020000Y-81200000D03*
D19*
X158400000Y-78000000D03*
D18*
X166020000Y-78000000D03*
D19*
X234000000Y-82400000D03*
D18*
X234000000Y-74780000D03*
D19*
X253600000Y-97400000D03*
D18*
X253600000Y-89780000D03*
D19*
X274600000Y-93600000D03*
D18*
X274600000Y-85980000D03*
D19*
X215200000Y-84200000D03*
D18*
X215200000Y-76580000D03*
D19*
X185800000Y-79000000D03*
D18*
X185800000Y-71380000D03*
D16*
X32900000Y-54740000D03*
X32900000Y-64900000D03*
X32900000Y-59820000D03*
X25300000Y-59820000D03*
X25300000Y-54740000D03*
X25300000Y-64900000D03*
X32900000Y-47120000D03*
X25300000Y-47120000D03*
D24*
X52550000Y-96250000D03*
D25*
X50010000Y-96250000D03*
X47470000Y-96250000D03*
D24*
X41750000Y-84350000D03*
D25*
X44290000Y-84350000D03*
X46830000Y-84350000D03*
D19*
X171000000Y-86800000D03*
X176000000Y-86800000D03*
X153000000Y-87200000D03*
X153000000Y-92200000D03*
X106000000Y-92000000D03*
X106000000Y-87000000D03*
X163000000Y-98800000D03*
X163000000Y-93800000D03*
X171000000Y-83000000D03*
X176000000Y-83000000D03*
X152000000Y-73500000D03*
X147000000Y-73500000D03*
X149400000Y-88000000D03*
X144400000Y-88000000D03*
X252900000Y-76500000D03*
X252900000Y-71500000D03*
D23*
X14800000Y-84000000D03*
D14*
X14800000Y-78920000D03*
D19*
X211400000Y-76400000D03*
D18*
X211400000Y-84020000D03*
D19*
X189600000Y-71400000D03*
D18*
X189600000Y-79020000D03*
D19*
X280600000Y-68300000D03*
D18*
X272980000Y-68300000D03*
D19*
X248950000Y-57700000D03*
D18*
X248950000Y-65320000D03*
D19*
X220900000Y-57650000D03*
D18*
X220900000Y-65270000D03*
D19*
X245750000Y-65250000D03*
D18*
X245750000Y-57630000D03*
D19*
X217750000Y-65350000D03*
D18*
X217750000Y-57730000D03*
D19*
X241800000Y-87800000D03*
X241800000Y-82800000D03*
X237800000Y-79600000D03*
X237800000Y-74600000D03*
D26*
X290000000Y-36000000D03*
X13000000Y-102000000D03*
X13000000Y-36000000D03*
X290000000Y-102000000D03*
D19*
X120400000Y-77600000D03*
X120400000Y-82600000D03*
X105800000Y-79400000D03*
X105800000Y-84400000D03*
X258600000Y-80000000D03*
X258600000Y-85000000D03*
X253800000Y-80000000D03*
X253800000Y-85000000D03*
X278200000Y-91900000D03*
X278200000Y-86900000D03*
X206400000Y-72800000D03*
X211400000Y-72800000D03*
X192600000Y-82000000D03*
X187600000Y-82000000D03*
X193000000Y-78000000D03*
X193000000Y-73000000D03*
X207200000Y-83000000D03*
X207200000Y-78000000D03*
X271100000Y-62800000D03*
X266100000Y-62800000D03*
D21*
X11800000Y-58800000D03*
D22*
X19420000Y-58800000D03*
D21*
X19400000Y-64800000D03*
D22*
X19400000Y-72420000D03*
D24*
X281600000Y-100800000D03*
D16*
X279060000Y-100800000D03*
D21*
X166800000Y-61300000D03*
D22*
X166800000Y-68920000D03*
D21*
X109800000Y-52000000D03*
D22*
X109800000Y-59620000D03*
D21*
X87400000Y-64600000D03*
D22*
X87400000Y-72220000D03*
D21*
X63200000Y-75400000D03*
D22*
X70820000Y-75400000D03*
D14*
X211000000Y-48620000D03*
X214810000Y-48620000D03*
D15*
X207190000Y-34650000D03*
X214810000Y-39730000D03*
D14*
X207190000Y-48620000D03*
X211000000Y-43540000D03*
X247000000Y-48620000D03*
X250810000Y-48620000D03*
D15*
X243190000Y-34650000D03*
X250810000Y-39730000D03*
D14*
X243190000Y-48620000D03*
X247000000Y-43540000D03*
X280000000Y-48620000D03*
X283810000Y-48620000D03*
D15*
X276190000Y-34650000D03*
X283810000Y-39730000D03*
D14*
X276190000Y-48620000D03*
X280000000Y-43540000D03*
D27*
X43800000Y-48600000D03*
X43800000Y-42600000D03*
X39100000Y-45600000D03*
D23*
X55400000Y-59200000D03*
D14*
X55400000Y-54120000D03*
D23*
X55400000Y-70800000D03*
D14*
X55400000Y-65720000D03*
D19*
X11800000Y-62000000D03*
D18*
X11800000Y-74700000D03*
D19*
X129600000Y-77400000D03*
D18*
X137220000Y-77400000D03*
D19*
X182400000Y-68500000D03*
D18*
X169700000Y-68500000D03*
D19*
X126750000Y-39850000D03*
D18*
X126750000Y-47470000D03*
D19*
X66150000Y-39600000D03*
D18*
X66150000Y-47220000D03*
D19*
X96750000Y-39800000D03*
D18*
X96750000Y-47420000D03*
D19*
X108050000Y-47950000D03*
D18*
X100430000Y-47950000D03*
D19*
X50800000Y-39370000D03*
D18*
X50800000Y-46990000D03*
D19*
X81750000Y-38900000D03*
D18*
X81750000Y-46520000D03*
D19*
X114800000Y-66000000D03*
D18*
X114800000Y-53300000D03*
D19*
X81800000Y-64300000D03*
D18*
X81800000Y-77000000D03*
D19*
X74600000Y-64000000D03*
D18*
X74600000Y-76700000D03*
D16*
X32900000Y-76740000D03*
X32900000Y-86900000D03*
X32900000Y-81820000D03*
X25300000Y-81820000D03*
X25300000Y-76740000D03*
X25300000Y-86900000D03*
X32900000Y-69120000D03*
X25300000Y-69120000D03*
X155360000Y-68800000D03*
X145200000Y-68800000D03*
X150280000Y-68800000D03*
X150280000Y-61200000D03*
X155360000Y-61200000D03*
X145200000Y-61200000D03*
X162980000Y-68800000D03*
X162980000Y-61200000D03*
X97160000Y-59600000D03*
X87000000Y-59600000D03*
X92080000Y-59600000D03*
X92080000Y-52000000D03*
X97160000Y-52000000D03*
X87000000Y-52000000D03*
X104780000Y-59600000D03*
X104780000Y-52000000D03*
X61400000Y-63760000D03*
X61400000Y-53600000D03*
X61400000Y-58680000D03*
X69000000Y-58680000D03*
X69000000Y-63760000D03*
X69000000Y-53600000D03*
X61400000Y-71380000D03*
X69000000Y-71380000D03*
D28*
X131180000Y-101600000D03*
X126180000Y-101600000D03*
X136180000Y-101600000D03*
X136180000Y-96600000D03*
X131180000Y-96600000D03*
X126180000Y-96600000D03*
X136180000Y-91600000D03*
X126180000Y-91600000D03*
X174360000Y-101600000D03*
X169360000Y-101600000D03*
X179360000Y-101600000D03*
X179360000Y-96600000D03*
X174360000Y-96600000D03*
X169360000Y-96600000D03*
X179360000Y-91600000D03*
X169360000Y-91600000D03*
X199760000Y-101600000D03*
X194760000Y-101600000D03*
X204760000Y-101600000D03*
X204760000Y-96600000D03*
X199760000Y-96600000D03*
X194760000Y-96600000D03*
X204760000Y-91600000D03*
X194760000Y-91600000D03*
X264240000Y-101600000D03*
X259240000Y-101600000D03*
X269240000Y-101600000D03*
X269240000Y-96600000D03*
X264240000Y-96600000D03*
X259240000Y-96600000D03*
X269240000Y-91600000D03*
X259240000Y-91600000D03*
X233760000Y-101600000D03*
X228760000Y-101600000D03*
X238760000Y-101600000D03*
X238760000Y-96600000D03*
X233760000Y-96600000D03*
X228760000Y-96600000D03*
X238760000Y-91600000D03*
X228760000Y-91600000D03*
D23*
X180600000Y-74600000D03*
D14*
X175520000Y-74600000D03*
D23*
X122400000Y-65400000D03*
D14*
X127480000Y-65400000D03*
D23*
X80000000Y-54600000D03*
D14*
X74920000Y-54600000D03*
D19*
X116800000Y-75800000D03*
X111800000Y-75800000D03*
D17*
X116200000Y-70200000D03*
D19*
X113700000Y-70200000D03*
D17*
X151200000Y-100200000D03*
D19*
X153700000Y-100200000D03*
D17*
X101750000Y-93300000D03*
D19*
X101750000Y-90800000D03*
D17*
X212200000Y-88000000D03*
D19*
X209700000Y-88000000D03*
D17*
X192000000Y-86600000D03*
D19*
X189500000Y-86600000D03*
X283000000Y-82300000D03*
X278000000Y-82300000D03*
X271000000Y-65900000D03*
X266000000Y-65900000D03*
X283100000Y-79300000D03*
X278100000Y-79300000D03*
X241000000Y-64900000D03*
X236000000Y-64900000D03*
X241000000Y-61600000D03*
X236000000Y-61600000D03*
X290400000Y-60700000D03*
D18*
X290400000Y-70860000D03*
D19*
X231100000Y-50000000D03*
D18*
X220940000Y-50000000D03*
D19*
X266600000Y-49500000D03*
D18*
X256440000Y-49500000D03*
D19*
X277700000Y-72300000D03*
D18*
X267540000Y-72300000D03*
D19*
X245400000Y-54200000D03*
D18*
X255560000Y-54200000D03*
D19*
X217800000Y-54250000D03*
D18*
X227960000Y-54250000D03*
D17*
X109400000Y-79400000D03*
D18*
X117020000Y-87020000D03*
X109400000Y-81940000D03*
X117020000Y-84480000D03*
X109400000Y-84480000D03*
X117020000Y-81940000D03*
X109400000Y-87020000D03*
X117020000Y-79400000D03*
D17*
X152600000Y-76800000D03*
D18*
X144980000Y-84420000D03*
X150060000Y-76800000D03*
X147520000Y-84420000D03*
X147520000Y-76800000D03*
X150060000Y-84420000D03*
X144980000Y-76800000D03*
X152600000Y-84420000D03*
D17*
X249400000Y-79600000D03*
D18*
X241780000Y-71980000D03*
X249400000Y-77060000D03*
X241780000Y-74520000D03*
X249400000Y-74520000D03*
X241780000Y-77060000D03*
X249400000Y-71980000D03*
X241780000Y-79600000D03*
D17*
X225100000Y-59100000D03*
D18*
X232720000Y-66720000D03*
X225100000Y-61640000D03*
X232720000Y-64180000D03*
X225100000Y-64180000D03*
X232720000Y-61640000D03*
X225100000Y-66720000D03*
X232720000Y-59100000D03*
D17*
X255500000Y-58400000D03*
D18*
X263120000Y-66020000D03*
X255500000Y-60940000D03*
X263120000Y-63480000D03*
X255500000Y-63480000D03*
X263120000Y-60940000D03*
X255500000Y-66020000D03*
X263120000Y-58400000D03*
D26*
X236300000Y-54400000D03*
X185000000Y-98000000D03*
X113900000Y-49050000D03*
X107000000Y-98000000D03*
D19*
X87000000Y-102500000D03*
D18*
X94620000Y-102500000D03*
D19*
X94550000Y-99250000D03*
D18*
X86930000Y-99250000D03*
D19*
X187800000Y-51450000D03*
X192800000Y-51450000D03*
X214500000Y-61000000D03*
X214500000Y-56000000D03*
X195950000Y-66000000D03*
X200950000Y-66000000D03*
X191500000Y-66400000D03*
X186500000Y-66400000D03*
D17*
X177100000Y-63600000D03*
D19*
X177100000Y-61100000D03*
D17*
X197600000Y-61600000D03*
D19*
X197600000Y-59100000D03*
D29*
X179100000Y-56450000D03*
D30*
X176560000Y-56450000D03*
D29*
X199500000Y-54300000D03*
D30*
X196960000Y-54300000D03*
D17*
X191000000Y-63400000D03*
D18*
X183380000Y-55780000D03*
X191000000Y-60860000D03*
X183380000Y-58320000D03*
X191000000Y-58320000D03*
X183380000Y-60860000D03*
X191000000Y-55780000D03*
X183380000Y-63400000D03*
D17*
X211100000Y-64700000D03*
D18*
X203480000Y-57080000D03*
X211100000Y-62160000D03*
X203480000Y-59620000D03*
X211100000Y-59620000D03*
X203480000Y-62160000D03*
X211100000Y-57080000D03*
X203480000Y-64700000D03*
D17*
X95800000Y-81850000D03*
D19*
X95800000Y-84350000D03*
D17*
X87350000Y-82600000D03*
D19*
X87350000Y-85100000D03*
X149600000Y-54350000D03*
X144600000Y-54350000D03*
X185825000Y-47175000D03*
X185825000Y-42175000D03*
X152950000Y-54300000D03*
X157950000Y-54300000D03*
X165400000Y-54600000D03*
X165400000Y-49600000D03*
D17*
X87400000Y-79350000D03*
D19*
X87400000Y-76850000D03*
D17*
X95850000Y-78550000D03*
D19*
X95850000Y-76050000D03*
D28*
X76280000Y-101600000D03*
D12*
X71755000Y-101600000D03*
X80645000Y-101600000D03*
X80645000Y-96520000D03*
D28*
X76280000Y-96600000D03*
D12*
X71755000Y-96520000D03*
X80645000Y-91440000D03*
X71755000Y-91440000D03*
D11*
X223700000Y-39475000D03*
X232700000Y-39475000D03*
X223700000Y-36300000D03*
X232700000Y-36300000D03*
D12*
X228200000Y-39800000D03*
D13*
X228200000Y-44800000D03*
D11*
X188300000Y-38975000D03*
X197300000Y-38975000D03*
X188300000Y-35800000D03*
X197300000Y-35800000D03*
D12*
X192800000Y-39300000D03*
D13*
X192800000Y-44300000D03*
D11*
X114300000Y-38975000D03*
X123300000Y-38975000D03*
X114300000Y-35800000D03*
X123300000Y-35800000D03*
D12*
X118800000Y-39300000D03*
D13*
X118800000Y-44300000D03*
D11*
X129600000Y-38975000D03*
X138600000Y-38975000D03*
X129600000Y-35800000D03*
X138600000Y-35800000D03*
D12*
X134100000Y-39300000D03*
D13*
X134100000Y-44300000D03*
D11*
X69200000Y-39075000D03*
X78200000Y-39075000D03*
X69200000Y-35900000D03*
X78200000Y-35900000D03*
D12*
X73700000Y-39400000D03*
D13*
X73700000Y-44400000D03*
D11*
X84650000Y-38975000D03*
X93650000Y-38975000D03*
X84650000Y-35800000D03*
X93650000Y-35800000D03*
D12*
X89150000Y-39300000D03*
D13*
X89150000Y-44300000D03*
D11*
X99400000Y-38975000D03*
X108400000Y-38975000D03*
X99400000Y-35800000D03*
X108400000Y-35800000D03*
D12*
X103900000Y-39300000D03*
D13*
X103900000Y-44300000D03*
D11*
X257900000Y-39275000D03*
X266900000Y-39275000D03*
X257900000Y-36100000D03*
X266900000Y-36100000D03*
D12*
X262400000Y-39600000D03*
D13*
X262400000Y-44600000D03*
M02*
