M48
;DRILL file {KiCad 4.0.7} date 04/06/21 20:17:06
;FORMAT={-:-/ absolute / metric / decimal}
FMAT,2
METRIC,TZ
T1C2.000
T2C3.100
%
G90
G05
M71
T1
X168.52Y-40.29
X176.14Y-45.37
X191.77Y-40.64
X199.39Y-45.72
X227.33Y-39.37
X234.95Y-44.45
X265.43Y-39.37
X273.05Y-44.45
X306.07Y-39.37
X313.69Y-44.45
T2
X31.Y-38.
X31.1Y-119.3
X137.19Y-72.81
X137.8Y-116.96
X219.47Y-116.06
X252.73Y-57.28
X323.Y-38.
X323.1Y-119.3
T1
X59.Y-38.68G85X59.Y-38.68
G05
X59.Y-41.855G85X59.Y-41.855
G05
X68.Y-38.68G85X68.Y-38.68
G05
X68.Y-41.855G85X68.Y-41.855
G05
X76.78Y-38.68G85X76.78Y-38.68
G05
X76.78Y-41.855G85X76.78Y-41.855
G05
X85.78Y-38.68G85X85.78Y-38.68
G05
X85.78Y-41.855G85X85.78Y-41.855
G05
X94.56Y-38.68G85X94.56Y-38.68
G05
X94.56Y-41.855G85X94.56Y-41.855
G05
X103.56Y-38.68G85X103.56Y-38.68
G05
X103.56Y-41.855G85X103.56Y-41.855
G05
X112.34Y-38.68G85X112.34Y-38.68
G05
X112.34Y-41.855G85X112.34Y-41.855
G05
X121.34Y-38.68G85X121.34Y-38.68
G05
X121.34Y-41.855G85X121.34Y-41.855
G05
X130.12Y-38.68G85X130.12Y-38.68
G05
X130.12Y-41.855G85X130.12Y-41.855
G05
X139.12Y-38.68G85X139.12Y-38.68
G05
X139.12Y-41.855G85X139.12Y-41.855
G05
X147.9Y-38.68G85X147.9Y-38.68
G05
X147.9Y-41.855G85X147.9Y-41.855
G05
X156.9Y-38.68G85X156.9Y-38.68
G05
X156.9Y-41.855G85X156.9Y-41.855
G05
X208.86Y-38.68G85X208.86Y-38.68
G05
X208.86Y-41.855G85X208.86Y-41.855
G05
X217.86Y-38.68G85X217.86Y-38.68
G05
X217.86Y-41.855G85X217.86Y-41.855
G05
X244.42Y-38.68G85X244.42Y-38.68
G05
X244.42Y-41.855G85X244.42Y-41.855
G05
X253.42Y-38.68G85X253.42Y-38.68
G05
X253.42Y-41.855G85X253.42Y-41.855
G05
X285.06Y-38.68G85X285.06Y-38.68
G05
X285.06Y-41.855G85X285.06Y-41.855
G05
X294.06Y-38.68G85X294.06Y-38.68
G05
X294.06Y-41.855G85X294.06Y-41.855
G05
T0
M30
