M48
;DRILL file {KiCad 4.0.7} date 04/04/21 23:29:24
;FORMAT={-:-/ absolute / metric / decimal}
FMAT,2
METRIC,TZ
T1C2.000
T2C3.100
%
G90
G05
M71
T1
X180.84Y-52.02
X188.46Y-57.1
X206.59Y-52.12
X214.21Y-57.2
X240.29Y-51.95
X247.91Y-57.03
X276.29Y-51.95
X283.91Y-57.03
X309.29Y-51.95
X316.91Y-57.03
T2
X31.1Y-53.3
X31.1Y-119.3
X140.1Y-115.3
X173.Y-62.
X218.1Y-115.3
X269.4Y-71.7
X323.1Y-53.3
X323.1Y-119.3
T1
X84.02Y-53.94G85X84.02Y-53.94
G05
X84.02Y-57.115G85X84.02Y-57.115
G05
X93.02Y-53.94G85X93.02Y-53.94
G05
X93.02Y-57.115G85X93.02Y-57.115
G05
X99.3Y-53.7G85X99.3Y-53.7
G05
X99.3Y-56.875G85X99.3Y-56.875
G05
X108.3Y-53.7G85X108.3Y-53.7
G05
X108.3Y-56.875G85X108.3Y-56.875
G05
X115.05Y-53.75G85X115.05Y-53.75
G05
X115.05Y-56.925G85X115.05Y-56.925
G05
X124.05Y-53.75G85X124.05Y-53.75
G05
X124.05Y-56.925G85X124.05Y-56.925
G05
X129.5Y-53.6G85X129.5Y-53.6
G05
X129.5Y-56.775G85X129.5Y-56.775
G05
X138.5Y-53.6G85X138.5Y-53.6
G05
X138.5Y-56.775G85X138.5Y-56.775
G05
X144.4Y-53.6G85X144.4Y-53.6
G05
X144.4Y-56.775G85X144.4Y-56.775
G05
X153.4Y-53.6G85X153.4Y-53.6
G05
X153.4Y-56.775G85X153.4Y-56.775
G05
X160.Y-53.5G85X160.Y-53.5
G05
X160.Y-56.675G85X160.Y-56.675
G05
X169.Y-53.5G85X169.Y-53.5
G05
X169.Y-56.675G85X169.Y-56.675
G05
X221.4Y-53.1G85X221.4Y-53.1
G05
X221.4Y-56.275G85X221.4Y-56.275
G05
X230.4Y-53.1G85X230.4Y-53.1
G05
X230.4Y-56.275G85X230.4Y-56.275
G05
X256.8Y-53.6G85X256.8Y-53.6
G05
X256.8Y-56.775G85X256.8Y-56.775
G05
X265.8Y-53.6G85X265.8Y-53.6
G05
X265.8Y-56.775G85X265.8Y-56.775
G05
X291.Y-53.4G85X291.Y-53.4
G05
X291.Y-56.575G85X291.Y-56.575
G05
X300.Y-53.4G85X300.Y-53.4
G05
X300.Y-56.575G85X300.Y-56.575
G05
T0
M30
