M48
;DRILL file {KiCad 4.0.7} date 04/02/21 12:04:06
;FORMAT={-:-/ absolute / metric / decimal}
FMAT,2
METRIC,TZ
T1C2.000
T2C3.100
%
G90
G05
M71
T1
X149.19Y-34.92
X156.81Y-40.
X173.49Y-34.82
X181.11Y-39.9
X207.19Y-34.65
X214.81Y-39.73
X243.19Y-34.65
X250.81Y-39.73
X276.19Y-34.65
X283.81Y-39.73
T2
X13.Y-36.
X13.Y-102.
X107.Y-98.
X142.4Y-47.2
X185.Y-98.
X236.3Y-54.4
X290.Y-36.
X290.Y-102.
T1
X53.92Y-36.14G85X53.92Y-36.14
G05
X53.92Y-39.315G85X53.92Y-39.315
G05
X62.92Y-36.14G85X62.92Y-36.14
G05
X62.92Y-39.315G85X62.92Y-39.315
G05
X69.2Y-35.9G85X69.2Y-35.9
G05
X69.2Y-39.075G85X69.2Y-39.075
G05
X78.2Y-35.9G85X78.2Y-35.9
G05
X78.2Y-39.075G85X78.2Y-39.075
G05
X84.65Y-35.8G85X84.65Y-35.8
G05
X84.65Y-38.975G85X84.65Y-38.975
G05
X93.65Y-35.8G85X93.65Y-35.8
G05
X93.65Y-38.975G85X93.65Y-38.975
G05
X99.4Y-35.8G85X99.4Y-35.8
G05
X99.4Y-38.975G85X99.4Y-38.975
G05
X108.4Y-35.8G85X108.4Y-35.8
G05
X108.4Y-38.975G85X108.4Y-38.975
G05
X114.3Y-35.8G85X114.3Y-35.8
G05
X114.3Y-38.975G85X114.3Y-38.975
G05
X123.3Y-35.8G85X123.3Y-35.8
G05
X123.3Y-38.975G85X123.3Y-38.975
G05
X129.6Y-35.8G85X129.6Y-35.8
G05
X129.6Y-38.975G85X129.6Y-38.975
G05
X138.6Y-35.8G85X138.6Y-35.8
G05
X138.6Y-38.975G85X138.6Y-38.975
G05
X188.3Y-35.8G85X188.3Y-35.8
G05
X188.3Y-38.975G85X188.3Y-38.975
G05
X197.3Y-35.8G85X197.3Y-35.8
G05
X197.3Y-38.975G85X197.3Y-38.975
G05
X223.7Y-36.3G85X223.7Y-36.3
G05
X223.7Y-39.475G85X223.7Y-39.475
G05
X232.7Y-36.3G85X232.7Y-36.3
G05
X232.7Y-39.475G85X232.7Y-39.475
G05
X257.9Y-36.1G85X257.9Y-36.1
G05
X257.9Y-39.275G85X257.9Y-39.275
G05
X266.9Y-36.1G85X266.9Y-36.1
G05
X266.9Y-39.275G85X266.9Y-39.275
G05
T0
M30
