G04 #@! TF.FileFunction,Soldermask,Bot*
%FSLAX46Y46*%
G04 Gerber Fmt 4.6, Leading zero omitted, Abs format (unit mm)*
G04 Created by KiCad (PCBNEW 4.0.7) date 04/02/21 16:44:20*
%MOMM*%
%LPD*%
G01*
G04 APERTURE LIST*
%ADD10C,0.100000*%
%ADD11R,2.200000X2.200000*%
%ADD12O,2.200000X2.200000*%
%ADD13C,2.200000*%
%ADD14O,2.400000X2.400000*%
%ADD15O,3.900000X2.900000*%
%ADD16O,2.900000X3.900000*%
%ADD17C,3.400000*%
%ADD18C,2.400000*%
%ADD19R,2.000000X2.000000*%
%ADD20O,2.000000X2.000000*%
%ADD21C,2.000000*%
%ADD22R,2.600000X2.600000*%
%ADD23O,2.600000X2.600000*%
%ADD24R,3.400000X3.400000*%
%ADD25C,3.500000*%
%ADD26R,3.900000X3.900000*%
%ADD27C,2.900000*%
%ADD28R,2.100000X2.100000*%
%ADD29O,2.100000X2.100000*%
%ADD30R,2.400000X2.400000*%
G04 APERTURE END LIST*
D10*
D11*
X44900000Y-72700000D03*
D12*
X42360000Y-72700000D03*
X39820000Y-72700000D03*
D13*
X127840000Y-51100000D03*
X138000000Y-51100000D03*
X132920000Y-51100000D03*
X132920000Y-58700000D03*
X127840000Y-58700000D03*
X138000000Y-58700000D03*
X120220000Y-51100000D03*
X120220000Y-58700000D03*
D14*
X53920000Y-39315000D03*
X62920000Y-39315000D03*
X53920000Y-36140000D03*
X62920000Y-36140000D03*
D15*
X58420000Y-39640000D03*
D16*
X58420000Y-44640000D03*
D17*
X177300000Y-48160000D03*
X173250000Y-43710000D03*
D18*
X173490000Y-34820000D03*
X181110000Y-39900000D03*
D17*
X181350000Y-44350000D03*
X169050000Y-37990000D03*
X153000000Y-48260000D03*
X148950000Y-43810000D03*
D18*
X149190000Y-34920000D03*
X156810000Y-40000000D03*
D17*
X157050000Y-44450000D03*
X144750000Y-38090000D03*
D19*
X203600000Y-81400000D03*
D20*
X195980000Y-73780000D03*
X203600000Y-78860000D03*
X195980000Y-76320000D03*
X203600000Y-76320000D03*
X195980000Y-78860000D03*
X203600000Y-73780000D03*
X195980000Y-81400000D03*
D21*
X272900000Y-65000000D03*
D20*
X280520000Y-65000000D03*
D19*
X267500000Y-76200000D03*
D20*
X275120000Y-83820000D03*
X267500000Y-78740000D03*
X275120000Y-81280000D03*
X267500000Y-81280000D03*
X275120000Y-78740000D03*
X267500000Y-83820000D03*
X275120000Y-76200000D03*
D21*
X133200000Y-63800000D03*
D20*
X133200000Y-71420000D03*
D13*
X99440000Y-64400000D03*
X109600000Y-64400000D03*
X104520000Y-64400000D03*
X104520000Y-72000000D03*
X99440000Y-72000000D03*
X109600000Y-72000000D03*
X91820000Y-64400000D03*
X91820000Y-72000000D03*
D21*
X100900000Y-75050000D03*
X105900000Y-75050000D03*
D19*
X51000000Y-88000000D03*
D21*
X51000000Y-85500000D03*
D19*
X64900000Y-74300000D03*
D21*
X62400000Y-74300000D03*
X85500000Y-82500000D03*
X90500000Y-82500000D03*
X139200000Y-73400000D03*
X144200000Y-73400000D03*
X114800000Y-101400000D03*
X114800000Y-96400000D03*
X146000000Y-101800000D03*
X146000000Y-96800000D03*
X120600000Y-94800000D03*
X120600000Y-99800000D03*
X142200000Y-94200000D03*
X142200000Y-99200000D03*
X157800000Y-102000000D03*
X157800000Y-97000000D03*
D22*
X10400000Y-55100000D03*
D23*
X18020000Y-55100000D03*
D22*
X31000000Y-92300000D03*
D23*
X31000000Y-99920000D03*
D22*
X26400000Y-92300000D03*
D23*
X26400000Y-99920000D03*
D22*
X10300000Y-51600000D03*
D23*
X17920000Y-51600000D03*
D22*
X21700000Y-92300000D03*
D23*
X14080000Y-92300000D03*
D22*
X21700000Y-95800000D03*
D23*
X14080000Y-95800000D03*
D22*
X40300000Y-90300000D03*
D23*
X40300000Y-82680000D03*
D22*
X43000000Y-61600000D03*
D23*
X35380000Y-61600000D03*
D22*
X14600000Y-75900000D03*
D23*
X14600000Y-68280000D03*
D24*
X32800000Y-39300000D03*
D17*
X27720000Y-39300000D03*
X22640000Y-39300000D03*
D24*
X16100000Y-42100000D03*
D17*
X16100000Y-47180000D03*
D21*
X94600000Y-95400000D03*
D20*
X86980000Y-95400000D03*
D21*
X56600000Y-88900000D03*
D20*
X64220000Y-88900000D03*
D21*
X46100000Y-57900000D03*
D20*
X46100000Y-65520000D03*
D21*
X45100000Y-83000000D03*
D20*
X45100000Y-90620000D03*
D21*
X35700000Y-65300000D03*
D20*
X43320000Y-65300000D03*
D21*
X94800000Y-88900000D03*
D20*
X87180000Y-88900000D03*
D21*
X124200000Y-74800000D03*
D20*
X124200000Y-82420000D03*
D21*
X102400000Y-80300000D03*
D20*
X102400000Y-87920000D03*
D21*
X136400000Y-63800000D03*
D20*
X136400000Y-71420000D03*
D21*
X281700000Y-93200000D03*
D20*
X281700000Y-85580000D03*
D21*
X129600000Y-84000000D03*
D20*
X137220000Y-84000000D03*
D21*
X166200000Y-88000000D03*
D20*
X158580000Y-88000000D03*
D21*
X129400000Y-87400000D03*
D20*
X137020000Y-87400000D03*
D21*
X166000000Y-84600000D03*
D20*
X158380000Y-84600000D03*
D21*
X129600000Y-80600000D03*
D20*
X137220000Y-80600000D03*
D21*
X158400000Y-81200000D03*
D20*
X166020000Y-81200000D03*
D21*
X158400000Y-78000000D03*
D20*
X166020000Y-78000000D03*
D21*
X234000000Y-82400000D03*
D20*
X234000000Y-74780000D03*
D21*
X253600000Y-97400000D03*
D20*
X253600000Y-89780000D03*
D21*
X274600000Y-93600000D03*
D20*
X274600000Y-85980000D03*
D21*
X215200000Y-84200000D03*
D20*
X215200000Y-76580000D03*
D21*
X185800000Y-79000000D03*
D20*
X185800000Y-71380000D03*
D13*
X22700000Y-57560000D03*
X22700000Y-47400000D03*
X22700000Y-52480000D03*
X30300000Y-52480000D03*
X30300000Y-57560000D03*
X30300000Y-47400000D03*
X22700000Y-65180000D03*
X30300000Y-65180000D03*
D11*
X46900000Y-96600000D03*
D12*
X44360000Y-96600000D03*
X41820000Y-96600000D03*
D21*
X171000000Y-86800000D03*
X176000000Y-86800000D03*
X153000000Y-87200000D03*
X153000000Y-92200000D03*
X106000000Y-92000000D03*
X106000000Y-87000000D03*
X163000000Y-98800000D03*
X163000000Y-93800000D03*
X171000000Y-83000000D03*
X176000000Y-83000000D03*
X152000000Y-73500000D03*
X147000000Y-73500000D03*
X149400000Y-88000000D03*
X144400000Y-88000000D03*
X252900000Y-76500000D03*
X252900000Y-71500000D03*
D24*
X15000000Y-87100000D03*
D17*
X15000000Y-82020000D03*
D21*
X211400000Y-76400000D03*
D20*
X211400000Y-84020000D03*
D21*
X189600000Y-71400000D03*
D20*
X189600000Y-79020000D03*
D21*
X280600000Y-68300000D03*
D20*
X272980000Y-68300000D03*
D21*
X248950000Y-57700000D03*
D20*
X248950000Y-65320000D03*
D21*
X220900000Y-57650000D03*
D20*
X220900000Y-65270000D03*
D21*
X245750000Y-65250000D03*
D20*
X245750000Y-57630000D03*
D21*
X217750000Y-65350000D03*
D20*
X217750000Y-57730000D03*
D21*
X241800000Y-87800000D03*
X241800000Y-82800000D03*
X237800000Y-79600000D03*
X237800000Y-74600000D03*
D25*
X290000000Y-36000000D03*
X13000000Y-102000000D03*
X13000000Y-36000000D03*
X290000000Y-102000000D03*
D21*
X120400000Y-77600000D03*
X120400000Y-82600000D03*
X105800000Y-79400000D03*
X105800000Y-84400000D03*
X258600000Y-80000000D03*
X258600000Y-85000000D03*
X253800000Y-80000000D03*
X253800000Y-85000000D03*
X278200000Y-91900000D03*
X278200000Y-86900000D03*
X206400000Y-72800000D03*
X211400000Y-72800000D03*
X192600000Y-82000000D03*
X187600000Y-82000000D03*
X193000000Y-78000000D03*
X193000000Y-73000000D03*
X207200000Y-83000000D03*
X207200000Y-78000000D03*
X271100000Y-62800000D03*
X266100000Y-62800000D03*
D22*
X10400000Y-60500000D03*
D23*
X18020000Y-60500000D03*
D22*
X18000000Y-75900000D03*
D23*
X18000000Y-68280000D03*
D11*
X281600000Y-100800000D03*
D13*
X279060000Y-100800000D03*
D22*
X166800000Y-61300000D03*
D23*
X166800000Y-68920000D03*
D22*
X116000000Y-51200000D03*
D23*
X116000000Y-58820000D03*
D22*
X88000000Y-63000000D03*
D23*
X88000000Y-55380000D03*
D22*
X79100000Y-68600000D03*
D23*
X79100000Y-60980000D03*
D17*
X211000000Y-48620000D03*
X214810000Y-48620000D03*
D18*
X207190000Y-34650000D03*
X214810000Y-39730000D03*
D17*
X207190000Y-48620000D03*
X211000000Y-43540000D03*
X247000000Y-48620000D03*
X250810000Y-48620000D03*
D18*
X243190000Y-34650000D03*
X250810000Y-39730000D03*
D17*
X243190000Y-48620000D03*
X247000000Y-43540000D03*
X280000000Y-48620000D03*
X283810000Y-48620000D03*
D18*
X276190000Y-34650000D03*
X283810000Y-39730000D03*
D17*
X276190000Y-48620000D03*
X280000000Y-43540000D03*
D26*
X43500000Y-46300000D03*
X43500000Y-40300000D03*
X38800000Y-43300000D03*
D24*
X59100000Y-55800000D03*
D17*
X59100000Y-50720000D03*
D24*
X59000000Y-67000000D03*
D17*
X59000000Y-61920000D03*
D21*
X11000000Y-64500000D03*
D20*
X11000000Y-77200000D03*
D21*
X129600000Y-77400000D03*
D20*
X137220000Y-77400000D03*
D21*
X126750000Y-39850000D03*
D20*
X126750000Y-47470000D03*
D21*
X66150000Y-39600000D03*
D20*
X66150000Y-47220000D03*
D21*
X96750000Y-39800000D03*
D20*
X96750000Y-47420000D03*
D21*
X108050000Y-47950000D03*
D20*
X100430000Y-47950000D03*
D21*
X50700000Y-37600000D03*
D20*
X50700000Y-45220000D03*
D21*
X81750000Y-38900000D03*
D20*
X81750000Y-46520000D03*
D13*
X30300000Y-78540000D03*
X30300000Y-88700000D03*
X30300000Y-83620000D03*
X22700000Y-83620000D03*
X22700000Y-78540000D03*
X22700000Y-88700000D03*
X30300000Y-70920000D03*
X22700000Y-70920000D03*
X155360000Y-68800000D03*
X145200000Y-68800000D03*
X150280000Y-68800000D03*
X150280000Y-61200000D03*
X155360000Y-61200000D03*
X145200000Y-61200000D03*
X162980000Y-68800000D03*
X162980000Y-61200000D03*
X104060000Y-58900000D03*
X93900000Y-58900000D03*
X98980000Y-58900000D03*
X98980000Y-51300000D03*
X104060000Y-51300000D03*
X93900000Y-51300000D03*
X111680000Y-58900000D03*
X111680000Y-51300000D03*
X65700000Y-60560000D03*
X65700000Y-50400000D03*
X65700000Y-55480000D03*
X73300000Y-55480000D03*
X73300000Y-60560000D03*
X73300000Y-50400000D03*
X65700000Y-68180000D03*
X73300000Y-68180000D03*
D27*
X131180000Y-101600000D03*
X126180000Y-101600000D03*
X136180000Y-101600000D03*
X136180000Y-96600000D03*
X131180000Y-96600000D03*
X126180000Y-96600000D03*
X136180000Y-91600000D03*
X126180000Y-91600000D03*
X174360000Y-101600000D03*
X169360000Y-101600000D03*
X179360000Y-101600000D03*
X179360000Y-96600000D03*
X174360000Y-96600000D03*
X169360000Y-96600000D03*
X179360000Y-91600000D03*
X169360000Y-91600000D03*
X199760000Y-101600000D03*
X194760000Y-101600000D03*
X204760000Y-101600000D03*
X204760000Y-96600000D03*
X199760000Y-96600000D03*
X194760000Y-96600000D03*
X204760000Y-91600000D03*
X194760000Y-91600000D03*
X264240000Y-101600000D03*
X259240000Y-101600000D03*
X269240000Y-101600000D03*
X269240000Y-96600000D03*
X264240000Y-96600000D03*
X259240000Y-96600000D03*
X269240000Y-91600000D03*
X259240000Y-91600000D03*
X233760000Y-101600000D03*
X228760000Y-101600000D03*
X238760000Y-101600000D03*
X238760000Y-96600000D03*
X233760000Y-96600000D03*
X228760000Y-96600000D03*
X238760000Y-91600000D03*
X228760000Y-91600000D03*
D24*
X180600000Y-74600000D03*
D17*
X175520000Y-74600000D03*
D24*
X122400000Y-65400000D03*
D17*
X127480000Y-65400000D03*
D24*
X83300000Y-52300000D03*
D17*
X78220000Y-52300000D03*
D21*
X116800000Y-75800000D03*
X111800000Y-75800000D03*
D19*
X116200000Y-70200000D03*
D21*
X113700000Y-70200000D03*
D19*
X151200000Y-100200000D03*
D21*
X153700000Y-100200000D03*
D19*
X101750000Y-93300000D03*
D21*
X101750000Y-90800000D03*
D19*
X212200000Y-88000000D03*
D21*
X209700000Y-88000000D03*
D19*
X188100000Y-91200000D03*
D21*
X185600000Y-91200000D03*
X283000000Y-82300000D03*
X278000000Y-82300000D03*
X271000000Y-65900000D03*
X266000000Y-65900000D03*
X283100000Y-79300000D03*
X278100000Y-79300000D03*
X241000000Y-64900000D03*
X236000000Y-64900000D03*
X241000000Y-61600000D03*
X236000000Y-61600000D03*
X290400000Y-60700000D03*
D20*
X290400000Y-70860000D03*
D21*
X231100000Y-50000000D03*
D20*
X220940000Y-50000000D03*
D21*
X266600000Y-49500000D03*
D20*
X256440000Y-49500000D03*
D21*
X277700000Y-72300000D03*
D20*
X267540000Y-72300000D03*
D21*
X245400000Y-54200000D03*
D20*
X255560000Y-54200000D03*
D21*
X217800000Y-54250000D03*
D20*
X227960000Y-54250000D03*
D19*
X109400000Y-79400000D03*
D20*
X117020000Y-87020000D03*
X109400000Y-81940000D03*
X117020000Y-84480000D03*
X109400000Y-84480000D03*
X117020000Y-81940000D03*
X109400000Y-87020000D03*
X117020000Y-79400000D03*
D19*
X152600000Y-76800000D03*
D20*
X144980000Y-84420000D03*
X150060000Y-76800000D03*
X147520000Y-84420000D03*
X147520000Y-76800000D03*
X150060000Y-84420000D03*
X144980000Y-76800000D03*
X152600000Y-84420000D03*
D19*
X249400000Y-79600000D03*
D20*
X241780000Y-71980000D03*
X249400000Y-77060000D03*
X241780000Y-74520000D03*
X249400000Y-74520000D03*
X241780000Y-77060000D03*
X249400000Y-71980000D03*
X241780000Y-79600000D03*
D19*
X225100000Y-59100000D03*
D20*
X232720000Y-66720000D03*
X225100000Y-61640000D03*
X232720000Y-64180000D03*
X225100000Y-64180000D03*
X232720000Y-61640000D03*
X225100000Y-66720000D03*
X232720000Y-59100000D03*
D19*
X255500000Y-58400000D03*
D20*
X263120000Y-66020000D03*
X255500000Y-60940000D03*
X263120000Y-63480000D03*
X255500000Y-63480000D03*
X263120000Y-60940000D03*
X255500000Y-66020000D03*
X263120000Y-58400000D03*
D25*
X236300000Y-54400000D03*
X185000000Y-98000000D03*
X142400000Y-47200000D03*
X107000000Y-98000000D03*
D21*
X87100000Y-102800000D03*
D20*
X94720000Y-102800000D03*
D21*
X94700000Y-99600000D03*
D20*
X87080000Y-99600000D03*
D21*
X187800000Y-51450000D03*
X192800000Y-51450000D03*
X214500000Y-61000000D03*
X214500000Y-56000000D03*
X195950000Y-66000000D03*
X200950000Y-66000000D03*
X191500000Y-66400000D03*
X186500000Y-66400000D03*
D19*
X177100000Y-63600000D03*
D21*
X177100000Y-61100000D03*
D19*
X197600000Y-61600000D03*
D21*
X197600000Y-59100000D03*
D28*
X179100000Y-56450000D03*
D29*
X176560000Y-56450000D03*
D28*
X199500000Y-54300000D03*
D29*
X196960000Y-54300000D03*
D19*
X191000000Y-63400000D03*
D20*
X183380000Y-55780000D03*
X191000000Y-60860000D03*
X183380000Y-58320000D03*
X191000000Y-58320000D03*
X183380000Y-60860000D03*
X191000000Y-55780000D03*
X183380000Y-63400000D03*
D19*
X211100000Y-64700000D03*
D20*
X203480000Y-57080000D03*
X211100000Y-62160000D03*
X203480000Y-59620000D03*
X211100000Y-59620000D03*
X203480000Y-62160000D03*
X211100000Y-57080000D03*
X203480000Y-64700000D03*
D19*
X95800000Y-81850000D03*
D21*
X95800000Y-84350000D03*
D19*
X79600000Y-81300000D03*
D21*
X82100000Y-81300000D03*
X149600000Y-54350000D03*
X144600000Y-54350000D03*
X185825000Y-47175000D03*
X185825000Y-42175000D03*
X152950000Y-54300000D03*
X157950000Y-54300000D03*
X165400000Y-54600000D03*
X165400000Y-49600000D03*
D19*
X90100000Y-78600000D03*
D21*
X90100000Y-76100000D03*
D19*
X95850000Y-78550000D03*
D21*
X95850000Y-76050000D03*
D27*
X76280000Y-101600000D03*
D15*
X71755000Y-101600000D03*
X80645000Y-101600000D03*
X80645000Y-96520000D03*
D27*
X76280000Y-96600000D03*
D15*
X71755000Y-96520000D03*
X80645000Y-91440000D03*
X71755000Y-91440000D03*
D14*
X223700000Y-39475000D03*
X232700000Y-39475000D03*
X223700000Y-36300000D03*
X232700000Y-36300000D03*
D15*
X228200000Y-39800000D03*
D16*
X228200000Y-44800000D03*
D14*
X188300000Y-38975000D03*
X197300000Y-38975000D03*
X188300000Y-35800000D03*
X197300000Y-35800000D03*
D15*
X192800000Y-39300000D03*
D16*
X192800000Y-44300000D03*
D14*
X114300000Y-38975000D03*
X123300000Y-38975000D03*
X114300000Y-35800000D03*
X123300000Y-35800000D03*
D15*
X118800000Y-39300000D03*
D16*
X118800000Y-44300000D03*
D14*
X129600000Y-38975000D03*
X138600000Y-38975000D03*
X129600000Y-35800000D03*
X138600000Y-35800000D03*
D15*
X134100000Y-39300000D03*
D16*
X134100000Y-44300000D03*
D14*
X69200000Y-39075000D03*
X78200000Y-39075000D03*
X69200000Y-35900000D03*
X78200000Y-35900000D03*
D15*
X73700000Y-39400000D03*
D16*
X73700000Y-44400000D03*
D14*
X84650000Y-38975000D03*
X93650000Y-38975000D03*
X84650000Y-35800000D03*
X93650000Y-35800000D03*
D15*
X89150000Y-39300000D03*
D16*
X89150000Y-44300000D03*
D14*
X99400000Y-38975000D03*
X108400000Y-38975000D03*
X99400000Y-35800000D03*
X108400000Y-35800000D03*
D15*
X103900000Y-39300000D03*
D16*
X103900000Y-44300000D03*
D14*
X257900000Y-39275000D03*
X266900000Y-39275000D03*
X257900000Y-36100000D03*
X266900000Y-36100000D03*
D15*
X262400000Y-39600000D03*
D16*
X262400000Y-44600000D03*
D21*
X94700000Y-92100000D03*
D20*
X87080000Y-92100000D03*
D21*
X86800000Y-85700000D03*
D20*
X79180000Y-85700000D03*
D21*
X200100000Y-87100000D03*
D20*
X192480000Y-87100000D03*
D21*
X211800000Y-95300000D03*
D20*
X211800000Y-102920000D03*
D21*
X61000000Y-81100000D03*
D20*
X73700000Y-81100000D03*
D21*
X60900000Y-85200000D03*
D20*
X73600000Y-85200000D03*
D30*
X60700000Y-95300000D03*
D18*
X60700000Y-100300000D03*
D30*
X38900000Y-51800000D03*
D18*
X38900000Y-56800000D03*
M02*
