M48
;DRILL file {KiCad 4.0.7} date 03/17/21 00:05:16
;FORMAT={-:-/ absolute / metric / decimal}
FMAT,2
METRIC,TZ
T1C0.400
T2C0.800
T3C0.900
T4C1.000
T5C1.100
T6C1.200
T7C1.500
T8C1.520
T9C2.000
%
G90
G05
M71
T1
X71.2Y-90.4
X97.2Y-103.6
X100.Y-101.6
X141.2Y-71.5
X151.Y-93.8
X151.4Y-103.6
X152.9Y-61.6
X155.1Y-70.6
X189.4Y-103.8
X190.4Y-90.6
X200.6Y-83.2
X203.Y-84.8
X207.2Y-104.
X217.8Y-80.8
X222.4Y-80.6
X223.Y-103.
X271.Y-105.
T2
X11.8Y-62.
X11.8Y-74.7
X37.58Y-63.4
X44.Y-66.6
X44.Y-74.22
X45.2Y-63.4
X55.98Y-86.8
X56.Y-83.4
X56.4Y-40.2
X56.4Y-47.82
X56.8Y-76.5
X56.8Y-79.
X63.6Y-86.8
X63.62Y-83.4
X69.Y-83.5
X69.Y-86.
X71.4Y-40.
X71.4Y-47.62
X74.6Y-63.
X74.6Y-75.7
X81.8Y-63.4
X81.8Y-76.1
X86.2Y-76.
X86.8Y-40.
X86.8Y-47.62
X91.2Y-76.
X91.58Y-81.8
X91.78Y-85.4
X99.Y-75.6
X99.2Y-81.8
X99.4Y-85.4
X100.Y-90.8
X101.8Y-39.8
X101.8Y-47.42
X102.Y-79.
X102.Y-86.62
X102.5Y-90.8
X104.Y-75.6
X105.8Y-79.4
X105.8Y-84.4
X106.Y-87.
X106.Y-92.
X109.4Y-79.4
X109.4Y-81.94
X109.4Y-84.48
X109.4Y-87.02
X111.8Y-75.8
X113.7Y-70.2
X114.8Y-51.9
X114.8Y-64.6
X114.8Y-96.4
X114.8Y-101.4
X116.2Y-70.2
X116.8Y-75.8
X117.02Y-79.4
X117.02Y-81.94
X117.02Y-84.48
X117.02Y-87.02
X120.4Y-77.6
X120.4Y-82.6
X120.6Y-94.8
X120.6Y-99.8
X124.2Y-74.8
X124.2Y-82.42
X129.4Y-87.4
X129.6Y-77.4
X129.6Y-80.6
X129.6Y-84.
X132.2Y-40.2
X132.2Y-47.82
X133.2Y-63.8
X133.2Y-71.42
X136.4Y-63.8
X136.4Y-71.42
X137.02Y-87.4
X137.22Y-77.4
X137.22Y-80.6
X137.22Y-84.
X139.2Y-73.4
X142.2Y-94.2
X142.2Y-99.2
X144.2Y-73.4
X144.4Y-88.
X144.98Y-76.8
X144.98Y-84.42
X146.Y-96.8
X146.Y-101.8
X147.Y-73.5
X147.4Y-38.8
X147.4Y-46.42
X147.52Y-76.8
X147.52Y-84.42
X149.4Y-88.
X150.06Y-76.8
X150.06Y-84.42
X151.2Y-100.2
X152.Y-73.5
X152.6Y-76.8
X152.6Y-84.42
X153.Y-87.2
X153.Y-92.2
X153.7Y-100.2
X157.8Y-53.2
X157.8Y-97.
X157.8Y-102.
X158.38Y-84.6
X158.4Y-78.
X158.4Y-81.2
X158.58Y-88.
X162.8Y-38.2
X162.8Y-45.82
X163.Y-93.8
X163.Y-98.8
X166.Y-84.6
X166.02Y-78.
X166.02Y-81.2
X166.2Y-88.
X170.5Y-53.2
X171.Y-83.
X171.Y-86.8
X175.2Y-60.98
X175.2Y-68.6
X176.Y-83.
X176.Y-86.8
X178.4Y-61.
X178.4Y-68.62
X179.Y-39.6
X179.Y-47.22
X181.6Y-60.98
X181.6Y-68.6
X184.8Y-60.98
X184.8Y-68.6
X185.8Y-71.38
X185.8Y-79.
X187.6Y-82.
X189.5Y-86.6
X189.6Y-71.4
X189.6Y-79.02
X191.6Y-60.58
X191.6Y-68.2
X192.Y-86.6
X192.6Y-82.
X193.Y-73.
X193.Y-78.
X194.8Y-60.6
X194.8Y-68.22
X195.98Y-73.78
X195.98Y-76.32
X195.98Y-78.86
X195.98Y-81.4
X198.2Y-60.6
X198.2Y-68.22
X201.4Y-60.58
X201.4Y-68.2
X203.6Y-73.78
X203.6Y-76.32
X203.6Y-78.86
X203.6Y-81.4
X205.8Y-57.38
X205.8Y-65.
X206.4Y-72.8
X207.2Y-78.
X207.2Y-83.
X209.7Y-88.
X211.4Y-72.8
X211.4Y-76.4
X211.4Y-84.02
X211.8Y-57.4
X211.8Y-65.02
X212.2Y-88.
X215.2Y-76.58
X215.2Y-84.2
X215.4Y-60.
X215.4Y-65.
X219.58Y-60.18
X219.58Y-62.72
X219.58Y-65.26
X219.58Y-67.8
X221.8Y-71.6
X222.Y-55.2
X223.1Y-76.4
X223.8Y-50.6
X225.6Y-76.4
X226.3Y-50.6
X226.8Y-71.6
X227.Y-55.2
X227.2Y-60.18
X227.2Y-62.72
X227.2Y-65.26
X227.2Y-67.8
X231.4Y-50.2
X231.4Y-57.82
X231.6Y-64.2
X231.6Y-69.2
X234.Y-74.78
X234.Y-82.4
X235.8Y-61.8
X235.8Y-69.42
X237.8Y-74.6
X237.8Y-79.6
X241.78Y-71.98
X241.78Y-74.52
X241.78Y-77.06
X241.78Y-79.6
X241.8Y-82.8
X241.8Y-87.8
X243.6Y-61.8
X244.2Y-67.2
X246.1Y-61.8
X249.2Y-67.2
X249.4Y-71.98
X249.4Y-74.52
X249.4Y-77.06
X249.4Y-79.6
X251.6Y-50.4
X252.8Y-55.78
X252.8Y-63.4
X253.6Y-89.78
X253.6Y-97.4
X253.8Y-80.
X253.8Y-85.
X254.Y-67.2
X254.Y-74.82
X256.8Y-57.
X256.8Y-62.
X258.6Y-80.
X258.6Y-85.
X259.22Y-50.4
X259.8Y-69.6
X259.8Y-74.6
X260.8Y-58.
X260.8Y-60.54
X260.8Y-63.08
X260.8Y-65.62
X261.8Y-52.4
X264.Y-69.58
X264.Y-77.2
X268.42Y-58.
X268.42Y-60.54
X268.42Y-63.08
X268.42Y-65.62
X269.42Y-52.4
X269.6Y-82.4
X270.Y-69.6
X270.Y-77.22
X271.8Y-57.8
X273.Y-63.4
X274.6Y-82.4
X274.6Y-85.98
X274.6Y-93.6
X275.5Y-63.4
X276.8Y-57.8
X276.8Y-67.78
X276.8Y-75.4
T3
X279.06Y-100.8
X281.6Y-100.8
T4
X17.6Y-90.4
X17.6Y-95.4
X40.Y-54.
X40.Y-59.
X41.2Y-84.2
X43.74Y-84.2
X46.12Y-96.2
X46.28Y-84.2
X48.66Y-96.2
X51.2Y-96.2
T5
X11.8Y-51.6
X11.8Y-55.2
X11.8Y-58.8
X15.6Y-64.98
X15.6Y-72.6
X19.4Y-64.8
X19.4Y-72.42
X19.42Y-51.6
X19.42Y-55.2
X19.42Y-58.8
X25.3Y-47.12
X25.3Y-54.74
X25.3Y-59.82
X25.3Y-64.9
X25.3Y-69.12
X25.3Y-76.74
X25.3Y-81.82
X25.3Y-86.9
X25.8Y-90.98
X25.8Y-98.6
X29.8Y-91.
X29.8Y-98.62
X32.9Y-47.12
X32.9Y-54.74
X32.9Y-59.82
X32.9Y-64.9
X32.9Y-69.12
X32.9Y-76.74
X32.9Y-81.82
X32.9Y-86.9
X34.Y-91.
X34.Y-98.62
X38.2Y-90.98
X38.2Y-98.6
X40.6Y-66.6
X40.6Y-74.22
X56.2Y-90.2
X61.4Y-53.6
X61.4Y-58.68
X61.4Y-63.76
X61.4Y-71.38
X63.2Y-75.4
X63.82Y-90.2
X69.Y-53.6
X69.Y-58.68
X69.Y-63.76
X69.Y-71.38
X70.82Y-75.4
X87.Y-52.
X87.Y-59.6
X87.4Y-64.6
X87.4Y-72.22
X91.82Y-64.4
X91.82Y-72.
X92.08Y-52.
X92.08Y-59.6
X97.16Y-52.
X97.16Y-59.6
X99.44Y-64.4
X99.44Y-72.
X104.52Y-64.4
X104.52Y-72.
X104.78Y-52.
X104.78Y-59.6
X109.6Y-64.4
X109.6Y-72.
X109.8Y-52.
X109.8Y-59.62
X120.02Y-51.2
X120.02Y-58.8
X127.64Y-51.2
X127.64Y-58.8
X132.72Y-51.2
X132.72Y-58.8
X137.8Y-51.2
X137.8Y-58.8
X145.2Y-61.2
X145.2Y-68.8
X150.28Y-61.2
X150.28Y-68.8
X155.36Y-61.2
X155.36Y-68.8
X162.98Y-61.2
X162.98Y-68.8
X167.8Y-61.
X167.8Y-68.62
T6
X77.92Y-91.6
X77.92Y-96.6
X77.92Y-101.6
X82.92Y-96.6
X82.92Y-101.6
X87.92Y-91.6
X87.92Y-96.6
X87.92Y-101.6
X126.18Y-91.6
X126.18Y-96.6
X126.18Y-101.6
X131.18Y-96.6
X131.18Y-101.6
X136.18Y-91.6
X136.18Y-96.6
X136.18Y-101.6
X169.36Y-91.6
X169.36Y-96.6
X169.36Y-101.6
X174.36Y-96.6
X174.36Y-101.6
X179.36Y-91.6
X179.36Y-96.6
X179.36Y-101.6
X194.76Y-91.6
X194.76Y-96.6
X194.76Y-101.6
X199.76Y-96.6
X199.76Y-101.6
X204.76Y-91.6
X204.76Y-96.6
X204.76Y-101.6
X228.76Y-91.6
X228.76Y-96.6
X228.76Y-101.6
X233.76Y-96.6
X233.76Y-101.6
X238.76Y-91.6
X238.76Y-96.6
X238.76Y-101.6
X259.24Y-91.6
X259.24Y-96.6
X259.24Y-101.6
X264.24Y-96.6
X264.24Y-101.6
X269.24Y-91.6
X269.24Y-96.6
X269.24Y-101.6
T8
X14.8Y-78.92
X14.8Y-84.
X18.6Y-41.8
X18.6Y-46.88
X25.59Y-39.1
X30.67Y-39.1
X35.75Y-39.1
X55.4Y-54.12
X55.4Y-59.2
X55.4Y-65.72
X55.4Y-70.8
X74.92Y-54.6
X80.Y-54.6
X122.4Y-65.4
X127.48Y-65.4
X148.4Y-50.92
X148.4Y-56.
T9
X200.19Y-48.62
X204.Y-43.54
X204.Y-48.62
X207.81Y-48.62
X238.19Y-48.62
X242.Y-43.54
X242.Y-48.62
X245.81Y-48.62
X276.19Y-48.62
X280.Y-43.54
X280.Y-48.62
X283.81Y-48.62
T4
X42.3Y-44.8G85X42.3Y-46.8
G05
X48.Y-42.8G85X46.Y-42.8
G05
X48.Y-48.8G85X46.Y-48.8
G05
T7
X63.24Y-39.36G85X64.24Y-39.36
G05
X63.74Y-43.86G85X63.74Y-44.86
G05
X78.48Y-39.36G85X79.48Y-39.36
G05
X78.98Y-43.86G85X78.98Y-44.86
G05
X93.72Y-39.36G85X94.72Y-39.36
G05
X94.22Y-43.86G85X94.22Y-44.86
G05
X108.96Y-39.36G85X109.96Y-39.36
G05
X109.46Y-43.86G85X109.46Y-44.86
G05
X124.2Y-39.36G85X125.2Y-39.36
G05
X124.7Y-43.86G85X124.7Y-44.86
G05
X139.44Y-39.36G85X140.44Y-39.36
G05
X139.94Y-43.86G85X139.94Y-44.86
G05
X154.68Y-39.36G85X155.68Y-39.36
G05
X155.18Y-43.86G85X155.18Y-44.86
G05
X169.92Y-39.36G85X170.92Y-39.36
G05
X170.42Y-43.86G85X170.42Y-44.86
G05
X185.9Y-39.5G85X186.9Y-39.5
G05
X186.4Y-44.G85X186.4Y-45.
G05
X222.5Y-40.G85X223.5Y-40.
G05
X223.Y-44.5G85X223.Y-45.5
G05
X260.14Y-39.64G85X261.14Y-39.64
G05
X260.64Y-44.14G85X260.64Y-45.14
G05
T0
M30
