G04 #@! TF.FileFunction,Soldermask,Top*
%FSLAX46Y46*%
G04 Gerber Fmt 4.6, Leading zero omitted, Abs format (unit mm)*
G04 Created by KiCad (PCBNEW 4.0.7) date 04/11/21 19:22:05*
%MOMM*%
%LPD*%
G01*
G04 APERTURE LIST*
%ADD10C,0.100000*%
%ADD11C,3.400000*%
%ADD12C,2.400000*%
%ADD13C,2.000000*%
%ADD14O,2.000000X2.000000*%
%ADD15R,2.600000X2.600000*%
%ADD16O,2.600000X2.600000*%
%ADD17C,2.200000*%
%ADD18O,2.400000X2.400000*%
%ADD19O,3.900000X2.900000*%
%ADD20O,2.900000X3.900000*%
%ADD21R,2.200000X2.200000*%
%ADD22O,2.200000X2.200000*%
%ADD23R,2.000000X2.000000*%
%ADD24R,3.400000X3.400000*%
%ADD25C,3.500000*%
%ADD26R,3.900000X3.900000*%
%ADD27C,2.900000*%
%ADD28R,2.100000X2.100000*%
%ADD29O,2.100000X2.100000*%
%ADD30R,2.400000X2.400000*%
%ADD31C,1.920000*%
%ADD32R,1.920000X1.920000*%
%ADD33R,2.800000X2.800000*%
%ADD34C,2.800000*%
G04 APERTURE END LIST*
D10*
D11*
X197480000Y-53690000D03*
X193430000Y-49240000D03*
D12*
X193670000Y-40350000D03*
X201290000Y-45430000D03*
D11*
X201530000Y-49880000D03*
X189230000Y-43520000D03*
D13*
X107860000Y-46630000D03*
D14*
X107860000Y-39010000D03*
D15*
X59400000Y-68960000D03*
D16*
X51780000Y-68960000D03*
D15*
X48450000Y-91360000D03*
D16*
X40830000Y-91360000D03*
D17*
X314260000Y-89740000D03*
X314260000Y-79580000D03*
X314260000Y-84660000D03*
X321860000Y-84660000D03*
X321860000Y-89740000D03*
X321860000Y-79580000D03*
X314260000Y-97360000D03*
X321860000Y-97360000D03*
D18*
X76780000Y-41855000D03*
X85780000Y-41855000D03*
X76780000Y-38680000D03*
X85780000Y-38680000D03*
D19*
X81280000Y-42180000D03*
D20*
X81280000Y-47180000D03*
D21*
X80300000Y-98290000D03*
D22*
X77760000Y-98290000D03*
X75220000Y-98290000D03*
D17*
X120690000Y-52530000D03*
X130850000Y-52530000D03*
X125770000Y-52530000D03*
X125770000Y-60130000D03*
X120690000Y-60130000D03*
X130850000Y-60130000D03*
X113070000Y-52530000D03*
X113070000Y-60130000D03*
D18*
X59000000Y-41855000D03*
X68000000Y-41855000D03*
X59000000Y-38680000D03*
X68000000Y-38680000D03*
D19*
X63500000Y-42180000D03*
D20*
X63500000Y-47180000D03*
D11*
X172330000Y-53630000D03*
X168280000Y-49180000D03*
D12*
X168520000Y-40290000D03*
X176140000Y-45370000D03*
D11*
X176380000Y-49820000D03*
X164080000Y-43460000D03*
D23*
X236700000Y-98700000D03*
D14*
X229080000Y-91080000D03*
X236700000Y-96160000D03*
X229080000Y-93620000D03*
X236700000Y-93620000D03*
X229080000Y-96160000D03*
X236700000Y-91080000D03*
X229080000Y-98700000D03*
D13*
X308630000Y-75330000D03*
D14*
X308630000Y-82950000D03*
D23*
X286930000Y-92510000D03*
D14*
X294550000Y-100130000D03*
X286930000Y-95050000D03*
X294550000Y-97590000D03*
X286930000Y-97590000D03*
X294550000Y-95050000D03*
X286930000Y-100130000D03*
X294550000Y-92510000D03*
D13*
X165620000Y-77040000D03*
D14*
X165620000Y-84660000D03*
D17*
X108730000Y-63420000D03*
X118890000Y-63420000D03*
X113810000Y-63420000D03*
X113810000Y-71020000D03*
X108730000Y-71020000D03*
X118890000Y-71020000D03*
X101110000Y-63420000D03*
X101110000Y-71020000D03*
D13*
X120735000Y-97895000D03*
X125735000Y-97895000D03*
X115710000Y-97945000D03*
X110710000Y-97945000D03*
X172300000Y-90700000D03*
X177300000Y-90700000D03*
X147900000Y-118700000D03*
X147900000Y-113700000D03*
X179100000Y-119100000D03*
X179100000Y-114100000D03*
X153700000Y-112100000D03*
X153700000Y-117100000D03*
X175300000Y-111500000D03*
X175300000Y-116500000D03*
X190900000Y-119300000D03*
X190900000Y-114300000D03*
D15*
X48400000Y-120200000D03*
D16*
X40780000Y-120200000D03*
D15*
X51910000Y-91310000D03*
D16*
X51910000Y-98930000D03*
D15*
X51780000Y-76090000D03*
D16*
X51780000Y-83710000D03*
D15*
X48100000Y-116800000D03*
D16*
X40480000Y-116800000D03*
D15*
X40960000Y-87450000D03*
D16*
X48580000Y-87450000D03*
D15*
X55380000Y-102600000D03*
D16*
X63000000Y-102600000D03*
D15*
X91480000Y-92430000D03*
D16*
X99100000Y-92430000D03*
D15*
X59180000Y-72640000D03*
D16*
X51560000Y-72640000D03*
D24*
X33700000Y-79800000D03*
D11*
X33700000Y-84880000D03*
X33700000Y-89960000D03*
D24*
X33300000Y-97800000D03*
D11*
X33300000Y-102880000D03*
D13*
X127700000Y-112700000D03*
D14*
X120080000Y-112700000D03*
D13*
X82590000Y-119750000D03*
D14*
X82590000Y-112130000D03*
D13*
X98980000Y-99440000D03*
D14*
X91360000Y-99440000D03*
D13*
X76330000Y-111980000D03*
D14*
X76330000Y-119600000D03*
D13*
X91360000Y-95940000D03*
D14*
X98980000Y-95940000D03*
D13*
X127900000Y-106200000D03*
D14*
X120280000Y-106200000D03*
D13*
X157300000Y-92100000D03*
D14*
X157300000Y-99720000D03*
D13*
X135500000Y-97600000D03*
D14*
X135500000Y-105220000D03*
D13*
X168900000Y-77080000D03*
D14*
X168900000Y-84700000D03*
D13*
X92620000Y-119710000D03*
D14*
X92620000Y-112090000D03*
D13*
X162700000Y-101300000D03*
D14*
X170320000Y-101300000D03*
D13*
X199300000Y-105300000D03*
D14*
X191680000Y-105300000D03*
D13*
X162500000Y-104700000D03*
D14*
X170120000Y-104700000D03*
D13*
X199100000Y-101900000D03*
D14*
X191480000Y-101900000D03*
D13*
X162700000Y-97900000D03*
D14*
X170320000Y-97900000D03*
D13*
X191500000Y-98500000D03*
D14*
X199120000Y-98500000D03*
D13*
X191500000Y-95300000D03*
D14*
X199120000Y-95300000D03*
D13*
X254510000Y-102150000D03*
D14*
X254510000Y-94530000D03*
D13*
X275820000Y-113050000D03*
D14*
X275820000Y-105430000D03*
D13*
X279510000Y-104520000D03*
D14*
X279510000Y-96900000D03*
D13*
X247800000Y-101390000D03*
D14*
X247800000Y-93770000D03*
D13*
X219520000Y-96340000D03*
D14*
X219520000Y-88720000D03*
D17*
X40900000Y-105680000D03*
X40900000Y-95520000D03*
X40900000Y-100600000D03*
X48500000Y-100600000D03*
X48500000Y-105680000D03*
X48500000Y-95520000D03*
X40900000Y-113300000D03*
X48500000Y-113300000D03*
D21*
X65160000Y-112600000D03*
D22*
X62620000Y-112600000D03*
X60080000Y-112600000D03*
D13*
X204100000Y-104100000D03*
X209100000Y-104100000D03*
X186100000Y-104500000D03*
X186100000Y-109500000D03*
X139100000Y-109300000D03*
X139100000Y-104300000D03*
X196100000Y-116100000D03*
X196100000Y-111100000D03*
X204100000Y-100300000D03*
X209100000Y-100300000D03*
X185100000Y-90800000D03*
X180100000Y-90800000D03*
X182500000Y-105300000D03*
X177500000Y-105300000D03*
X268890000Y-90750000D03*
X263890000Y-90750000D03*
D24*
X34200000Y-67800000D03*
D11*
X34200000Y-72880000D03*
D13*
X244500000Y-93700000D03*
D14*
X244500000Y-101320000D03*
D13*
X222880000Y-88710000D03*
D14*
X222880000Y-96330000D03*
D13*
X305750000Y-83020000D03*
D14*
X298130000Y-83020000D03*
D13*
X272300000Y-83930000D03*
D14*
X272300000Y-91550000D03*
D13*
X216260000Y-84850000D03*
D14*
X216260000Y-92470000D03*
D13*
X275540000Y-91530000D03*
D14*
X275540000Y-83910000D03*
D13*
X227600000Y-83600000D03*
D14*
X219980000Y-83600000D03*
D13*
X257940000Y-109420000D03*
X257940000Y-104420000D03*
X257770000Y-102060000D03*
X257770000Y-97060000D03*
D25*
X323000000Y-38000000D03*
X31100000Y-119300000D03*
X31000000Y-38000000D03*
X323100000Y-119300000D03*
D13*
X153500000Y-94900000D03*
X153500000Y-99900000D03*
X138900000Y-96700000D03*
X138900000Y-101700000D03*
X275820000Y-97150000D03*
X275820000Y-102150000D03*
X272300000Y-97260000D03*
X272300000Y-102260000D03*
X282860000Y-101980000D03*
X282860000Y-96980000D03*
X239500000Y-90100000D03*
X244500000Y-90100000D03*
X225700000Y-99300000D03*
X220700000Y-99300000D03*
X226100000Y-95300000D03*
X226100000Y-90300000D03*
X240300000Y-100300000D03*
X240300000Y-95300000D03*
X283170000Y-88710000D03*
X283170000Y-83710000D03*
D15*
X51470000Y-64210000D03*
D16*
X59090000Y-64210000D03*
D21*
X86220000Y-117500000D03*
D17*
X88760000Y-117500000D03*
D15*
X199800000Y-86110000D03*
D16*
X199800000Y-78490000D03*
D15*
X108180000Y-59960000D03*
D16*
X108180000Y-52340000D03*
D15*
X82600000Y-59550000D03*
D16*
X82600000Y-51930000D03*
D11*
X231140000Y-53340000D03*
X234950000Y-53340000D03*
D12*
X227330000Y-39370000D03*
X234950000Y-44450000D03*
D11*
X227330000Y-53340000D03*
X231140000Y-48260000D03*
X269240000Y-53340000D03*
X273050000Y-53340000D03*
D12*
X265430000Y-39370000D03*
X273050000Y-44450000D03*
D11*
X265430000Y-53340000D03*
X269240000Y-48260000D03*
X309880000Y-53340000D03*
X313690000Y-53340000D03*
D12*
X306070000Y-39370000D03*
X313690000Y-44450000D03*
D11*
X306070000Y-53340000D03*
X309880000Y-48260000D03*
D26*
X47950000Y-47830000D03*
X47950000Y-41830000D03*
X43250000Y-44830000D03*
D24*
X34480000Y-44310000D03*
D11*
X34480000Y-49390000D03*
D24*
X34420000Y-56100000D03*
D11*
X34420000Y-61180000D03*
D13*
X62700000Y-76610000D03*
D14*
X62700000Y-63910000D03*
D13*
X162700000Y-94700000D03*
D14*
X170320000Y-94700000D03*
D13*
X142950000Y-46580000D03*
D14*
X142950000Y-38960000D03*
D13*
X72280000Y-46750000D03*
D14*
X72280000Y-39130000D03*
D13*
X125350000Y-46760000D03*
D14*
X125350000Y-39140000D03*
D13*
X55490000Y-46600000D03*
D14*
X55490000Y-38980000D03*
D13*
X89800000Y-46770000D03*
D14*
X89800000Y-39150000D03*
D17*
X48340000Y-73750000D03*
X48340000Y-83910000D03*
X48340000Y-78830000D03*
X40740000Y-78830000D03*
X40740000Y-73750000D03*
X40740000Y-83910000D03*
X48340000Y-66130000D03*
X40740000Y-66130000D03*
X188460000Y-86100000D03*
X178300000Y-86100000D03*
X183380000Y-86100000D03*
X183380000Y-78500000D03*
X188460000Y-78500000D03*
X178300000Y-78500000D03*
X196080000Y-86100000D03*
X196080000Y-78500000D03*
X96410000Y-59790000D03*
X86250000Y-59790000D03*
X91330000Y-59790000D03*
X91330000Y-52190000D03*
X96410000Y-52190000D03*
X86250000Y-52190000D03*
X104030000Y-59790000D03*
X104030000Y-52190000D03*
X52480000Y-59620000D03*
X42320000Y-59620000D03*
X47400000Y-59620000D03*
X47400000Y-52020000D03*
X52480000Y-52020000D03*
X42320000Y-52020000D03*
X60100000Y-59620000D03*
X60100000Y-52020000D03*
D27*
X164280000Y-118900000D03*
X159280000Y-118900000D03*
X169280000Y-118900000D03*
X169280000Y-113900000D03*
X164280000Y-113900000D03*
X159280000Y-113900000D03*
X169280000Y-108900000D03*
X159280000Y-108900000D03*
X207460000Y-118900000D03*
X202460000Y-118900000D03*
X212460000Y-118900000D03*
X212460000Y-113900000D03*
X207460000Y-113900000D03*
X202460000Y-113900000D03*
X212460000Y-108900000D03*
X202460000Y-108900000D03*
X232860000Y-118900000D03*
X227860000Y-118900000D03*
X237860000Y-118900000D03*
X237860000Y-113900000D03*
X232860000Y-113900000D03*
X227860000Y-113900000D03*
X237860000Y-108900000D03*
X227860000Y-108900000D03*
X297340000Y-118900000D03*
X292340000Y-118900000D03*
X302340000Y-118900000D03*
X302340000Y-113900000D03*
X297340000Y-113900000D03*
X292340000Y-113900000D03*
X302340000Y-108900000D03*
X292340000Y-108900000D03*
X266860000Y-118900000D03*
X261860000Y-118900000D03*
X271860000Y-118900000D03*
X271860000Y-113900000D03*
X266860000Y-113900000D03*
X261860000Y-113900000D03*
X271860000Y-108900000D03*
X261860000Y-108900000D03*
D24*
X210050000Y-83210000D03*
D11*
X204970000Y-83210000D03*
D24*
X126260000Y-67045000D03*
D11*
X131340000Y-67045000D03*
D24*
X77880000Y-55360000D03*
D11*
X72800000Y-55360000D03*
D13*
X149900000Y-92340000D03*
X144900000Y-92340000D03*
D23*
X140820000Y-91780000D03*
D13*
X140820000Y-89280000D03*
D23*
X184300000Y-117500000D03*
D13*
X186800000Y-117500000D03*
D23*
X134850000Y-110600000D03*
D13*
X134850000Y-108100000D03*
D23*
X248070000Y-105840000D03*
D13*
X245570000Y-105840000D03*
D23*
X221200000Y-108500000D03*
D13*
X218700000Y-108500000D03*
X302440000Y-100430000D03*
X297440000Y-100430000D03*
X291330000Y-85410000D03*
X286330000Y-85410000D03*
X302400000Y-97000000D03*
X297400000Y-97000000D03*
X247770000Y-79960000D03*
X242770000Y-79960000D03*
X247660000Y-76500000D03*
X242660000Y-76500000D03*
X307920000Y-90980000D03*
D14*
X297760000Y-90980000D03*
D13*
X236490000Y-67740000D03*
D14*
X236490000Y-57580000D03*
D13*
X284090000Y-69820000D03*
D14*
X284090000Y-59660000D03*
D13*
X307890000Y-86720000D03*
D14*
X297730000Y-86720000D03*
D13*
X279290000Y-59740000D03*
D14*
X279290000Y-69900000D03*
D13*
X232180000Y-57680000D03*
D14*
X232180000Y-67840000D03*
D23*
X142500000Y-96700000D03*
D14*
X150120000Y-104320000D03*
X142500000Y-99240000D03*
X150120000Y-101780000D03*
X142500000Y-101780000D03*
X150120000Y-99240000D03*
X142500000Y-104320000D03*
X150120000Y-96700000D03*
D23*
X185700000Y-94100000D03*
D14*
X178080000Y-101720000D03*
X183160000Y-94100000D03*
X180620000Y-101720000D03*
X180620000Y-94100000D03*
X183160000Y-101720000D03*
X178080000Y-94100000D03*
X185700000Y-101720000D03*
D23*
X268810000Y-101620000D03*
D14*
X261190000Y-94000000D03*
X268810000Y-99080000D03*
X261190000Y-96540000D03*
X268810000Y-96540000D03*
X261190000Y-99080000D03*
X268810000Y-94000000D03*
X261190000Y-101620000D03*
D23*
X231830000Y-71730000D03*
D14*
X239450000Y-79350000D03*
X231830000Y-74270000D03*
X239450000Y-76810000D03*
X231830000Y-76810000D03*
X239450000Y-74270000D03*
X231830000Y-79350000D03*
X239450000Y-71730000D03*
D23*
X279010000Y-73110000D03*
D14*
X286630000Y-80730000D03*
X279010000Y-75650000D03*
X286630000Y-78190000D03*
X279010000Y-78190000D03*
X286630000Y-75650000D03*
X279010000Y-80730000D03*
X286630000Y-73110000D03*
D25*
X252730000Y-57280000D03*
X219470000Y-116060000D03*
X137190000Y-72810000D03*
X137800000Y-116960000D03*
D13*
X120200000Y-120100000D03*
D14*
X127820000Y-120100000D03*
D13*
X127800000Y-116900000D03*
D14*
X120180000Y-116900000D03*
D13*
X147560000Y-54800000D03*
X152560000Y-54800000D03*
X177560000Y-60880000D03*
X182560000Y-60880000D03*
X166540000Y-71930000D03*
X171540000Y-71930000D03*
X149760000Y-69680000D03*
X144760000Y-69680000D03*
D23*
X138410000Y-61920000D03*
D13*
X138410000Y-59420000D03*
D23*
X168290000Y-67560000D03*
D13*
X168290000Y-65060000D03*
D28*
X138690000Y-53870000D03*
D29*
X136150000Y-53870000D03*
D28*
X162460000Y-70980000D03*
D29*
X162460000Y-68440000D03*
D23*
X152660000Y-65710000D03*
D14*
X145040000Y-58090000D03*
X152660000Y-63170000D03*
X145040000Y-60630000D03*
X152660000Y-60630000D03*
X145040000Y-63170000D03*
X152660000Y-58090000D03*
X145040000Y-65710000D03*
D23*
X182220000Y-71690000D03*
D14*
X174600000Y-64070000D03*
X182220000Y-69150000D03*
X174600000Y-66610000D03*
X182220000Y-66610000D03*
X174600000Y-69150000D03*
X182220000Y-64070000D03*
X174600000Y-71690000D03*
D23*
X120735000Y-90370000D03*
D13*
X120735000Y-92870000D03*
D23*
X111460000Y-90520000D03*
D13*
X111460000Y-93020000D03*
X155830000Y-63740000D03*
X160830000Y-63740000D03*
X184850000Y-67980000D03*
X189850000Y-67980000D03*
X160780000Y-60390000D03*
X155780000Y-60390000D03*
X189820000Y-64460000D03*
X184820000Y-64460000D03*
D23*
X111290000Y-79170000D03*
D13*
X111290000Y-76670000D03*
D23*
X120710000Y-78870000D03*
D13*
X120710000Y-76370000D03*
D27*
X109380000Y-118900000D03*
D19*
X104855000Y-118900000D03*
X113745000Y-118900000D03*
X113745000Y-113820000D03*
D27*
X109380000Y-113900000D03*
D19*
X104855000Y-113820000D03*
X113745000Y-108740000D03*
X104855000Y-108740000D03*
D18*
X245250000Y-41885000D03*
X254250000Y-41885000D03*
X245250000Y-38710000D03*
X254250000Y-38710000D03*
D19*
X249750000Y-42210000D03*
D20*
X249750000Y-47210000D03*
D18*
X210410000Y-41985000D03*
X219410000Y-41985000D03*
X210410000Y-38810000D03*
X219410000Y-38810000D03*
D19*
X214910000Y-42310000D03*
D20*
X214910000Y-47310000D03*
D18*
X130120000Y-41855000D03*
X139120000Y-41855000D03*
X130120000Y-38680000D03*
X139120000Y-38680000D03*
D19*
X134620000Y-42180000D03*
D20*
X134620000Y-47180000D03*
D18*
X147900000Y-41855000D03*
X156900000Y-41855000D03*
X147900000Y-38680000D03*
X156900000Y-38680000D03*
D19*
X152400000Y-42180000D03*
D20*
X152400000Y-47180000D03*
D18*
X94560000Y-41855000D03*
X103560000Y-41855000D03*
X94560000Y-38680000D03*
X103560000Y-38680000D03*
D19*
X99060000Y-42180000D03*
D20*
X99060000Y-47180000D03*
D18*
X112340000Y-41855000D03*
X121340000Y-41855000D03*
X112340000Y-38680000D03*
X121340000Y-38680000D03*
D19*
X116840000Y-42180000D03*
D20*
X116840000Y-47180000D03*
D18*
X285060000Y-41855000D03*
X294060000Y-41855000D03*
X285060000Y-38680000D03*
X294060000Y-38680000D03*
D19*
X289560000Y-42180000D03*
D20*
X289560000Y-47180000D03*
D13*
X127800000Y-109400000D03*
D14*
X120180000Y-109400000D03*
D13*
X119900000Y-103000000D03*
D14*
X112280000Y-103000000D03*
D13*
X233200000Y-104400000D03*
D14*
X225580000Y-104400000D03*
D13*
X244900000Y-112600000D03*
D14*
X244900000Y-120220000D03*
D30*
X59400000Y-92620000D03*
D12*
X59400000Y-97620000D03*
D30*
X59780000Y-81340000D03*
D12*
X59780000Y-86340000D03*
D15*
X201800000Y-62690000D03*
D16*
X194180000Y-62690000D03*
D31*
X208475000Y-77145000D03*
X211015000Y-77145000D03*
D32*
X205935000Y-77145000D03*
D13*
X199510000Y-73945000D03*
D14*
X199510000Y-66325000D03*
D13*
X192985000Y-66620000D03*
D14*
X192985000Y-74240000D03*
D15*
X196260000Y-73945000D03*
D16*
X196260000Y-66325000D03*
D21*
X213130000Y-56550000D03*
D22*
X213130000Y-59090000D03*
X213130000Y-61630000D03*
D17*
X318090000Y-109820000D03*
X318090000Y-119980000D03*
X318090000Y-114900000D03*
X310490000Y-114900000D03*
X310490000Y-109820000D03*
X310490000Y-119980000D03*
X318090000Y-102200000D03*
X310490000Y-102200000D03*
X219160000Y-71420000D03*
X219160000Y-61260000D03*
X219160000Y-66340000D03*
X226760000Y-66340000D03*
X226760000Y-71420000D03*
X226760000Y-61260000D03*
X219160000Y-79040000D03*
X226760000Y-79040000D03*
X251510000Y-77060000D03*
X251510000Y-66900000D03*
X251510000Y-71980000D03*
X259110000Y-71980000D03*
X259110000Y-77060000D03*
X259110000Y-66900000D03*
X251510000Y-84680000D03*
X259110000Y-84680000D03*
X291700000Y-70500000D03*
X291700000Y-60340000D03*
X291700000Y-65420000D03*
X299300000Y-65420000D03*
X299300000Y-70500000D03*
X299300000Y-60340000D03*
X291700000Y-78120000D03*
X299300000Y-78120000D03*
D13*
X214460000Y-81070000D03*
D14*
X214460000Y-73450000D03*
D15*
X83740000Y-75390000D03*
D16*
X83740000Y-67770000D03*
D13*
X79520000Y-116960000D03*
X79520000Y-111960000D03*
X103490000Y-93710000D03*
X103490000Y-98710000D03*
X102260000Y-104050000D03*
D14*
X89560000Y-104050000D03*
D13*
X103710000Y-78120000D03*
D14*
X103710000Y-90820000D03*
D33*
X94940000Y-68400000D03*
D34*
X89940000Y-68400000D03*
D33*
X92510000Y-82220000D03*
D34*
X97510000Y-82220000D03*
D23*
X164590000Y-89610000D03*
D13*
X167090000Y-89610000D03*
D23*
X253890000Y-106000000D03*
D13*
X253890000Y-108500000D03*
D23*
X258580000Y-89490000D03*
D13*
X261080000Y-89490000D03*
X203635000Y-69545000D03*
D14*
X211255000Y-69545000D03*
D28*
X67130000Y-53070000D03*
D29*
X64590000Y-53070000D03*
D28*
X67090000Y-56810000D03*
D29*
X64550000Y-56810000D03*
D13*
X66980000Y-74100000D03*
D14*
X66980000Y-61400000D03*
D13*
X207235000Y-65945000D03*
X202235000Y-65945000D03*
X203685000Y-72745000D03*
D14*
X211305000Y-72745000D03*
M02*
