M48
;DRILL file {KiCad 4.0.7} date 05/23/21 23:09:56
;FORMAT={-:-/ absolute / inch / decimal}
FMAT,2
INCH,TZ
T1C0.079
T2C0.122
%
G90
G05
M72
T1
X6.5953Y-1.5862
X6.8953Y-1.7862
X7.5854Y-1.5886
X7.8854Y-1.7886
X9.0287Y-1.55
X9.3287Y-1.75
X10.5287Y-1.55
X10.8287Y-1.75
X12.05Y-1.55
X12.35Y-1.75
T2
X1.2205Y-1.4961
X1.2244Y-4.6969
X5.4012Y-2.8665
X5.4252Y-4.6047
X8.6406Y-4.5693
X9.95Y-2.2551
X12.7165Y-1.4961
X12.7205Y-4.6969
T1
X2.3228Y-1.5228G85X2.3228Y-1.5228
G05
X2.3228Y-1.6478G85X2.3228Y-1.6478
G05
X2.6772Y-1.5228G85X2.6772Y-1.5228
G05
X2.6772Y-1.6478G85X2.6772Y-1.6478
G05
X3.0228Y-1.5228G85X3.0228Y-1.5228
G05
X3.0228Y-1.6478G85X3.0228Y-1.6478
G05
X3.3772Y-1.5228G85X3.3772Y-1.5228
G05
X3.3772Y-1.6478G85X3.3772Y-1.6478
G05
X3.7228Y-1.5228G85X3.7228Y-1.5228
G05
X3.7228Y-1.6478G85X3.7228Y-1.6478
G05
X4.0772Y-1.5228G85X4.0772Y-1.5228
G05
X4.0772Y-1.6478G85X4.0772Y-1.6478
G05
X4.4228Y-1.5228G85X4.4228Y-1.5228
G05
X4.4228Y-1.6478G85X4.4228Y-1.6478
G05
X4.7772Y-1.5228G85X4.7772Y-1.5228
G05
X4.7772Y-1.6478G85X4.7772Y-1.6478
G05
X5.1228Y-1.5228G85X5.1228Y-1.5228
G05
X5.1228Y-1.6478G85X5.1228Y-1.6478
G05
X5.4772Y-1.5228G85X5.4772Y-1.5228
G05
X5.4772Y-1.6478G85X5.4772Y-1.6478
G05
X5.8228Y-1.5228G85X5.8228Y-1.5228
G05
X5.8228Y-1.6478G85X5.8228Y-1.6478
G05
X6.1772Y-1.5228G85X6.1772Y-1.5228
G05
X6.1772Y-1.6478G85X6.1772Y-1.6478
G05
X8.2839Y-1.528G85X8.2839Y-1.528
G05
X8.2839Y-1.653G85X8.2839Y-1.653
G05
X8.6382Y-1.528G85X8.6382Y-1.528
G05
X8.6382Y-1.653G85X8.6382Y-1.653
G05
X9.7343Y-1.524G85X9.7343Y-1.524
G05
X9.7343Y-1.649G85X9.7343Y-1.649
G05
X10.0886Y-1.524G85X10.0886Y-1.524
G05
X10.0886Y-1.649G85X10.0886Y-1.649
G05
X11.2228Y-1.5228G85X11.2228Y-1.5228
G05
X11.2228Y-1.6478G85X11.2228Y-1.6478
G05
X11.5772Y-1.5228G85X11.5772Y-1.5228
G05
X11.5772Y-1.6478G85X11.5772Y-1.6478
G05
T0
M30
