M48
;DRILL file {KiCad 4.0.7} date 03/19/21 15:32:41
;FORMAT={-:-/ absolute / metric / decimal}
FMAT,2
METRIC,TZ
T1C0.400
T2C0.800
T3C0.900
T4C1.000
T5C1.100
T6C1.200
T7C1.500
T8C1.520
T9C2.000
%
G90
G05
M71
T1
X67.65Y-91.15
X67.7Y-96.05
X97.7Y-103.7
X141.2Y-71.5
X151.Y-93.8
X151.4Y-103.6
X152.9Y-61.6
X155.1Y-70.6
X189.4Y-103.8
X190.4Y-90.6
X198.85Y-66.6
X200.6Y-83.2
X203.Y-84.8
X206.7Y-66.75
X218.85Y-70.95
X218.9Y-77.1
X229.85Y-63.95
X272.5Y-103.7
X285.4Y-104.3
T2
X11.8Y-62.
X11.8Y-74.7
X37.58Y-63.4
X44.Y-66.6
X44.Y-74.22
X45.2Y-63.4
X50.8Y-39.37
X50.8Y-46.99
X55.98Y-86.8
X56.Y-83.4
X56.8Y-76.5
X56.8Y-79.
X63.6Y-86.8
X63.62Y-83.4
X66.15Y-39.6
X66.15Y-47.22
X69.Y-83.5
X69.Y-86.
X74.6Y-64.
X74.6Y-76.7
X77.85Y-85.25
X81.75Y-38.9
X81.75Y-46.52
X81.8Y-64.3
X81.8Y-77.
X82.85Y-85.25
X86.93Y-99.25
X86.98Y-91.5
X87.Y-102.5
X87.08Y-94.85
X87.35Y-82.6
X87.35Y-85.1
X87.4Y-76.85
X87.4Y-79.35
X94.55Y-99.25
X94.6Y-91.5
X94.62Y-102.5
X94.7Y-94.85
X95.8Y-81.85
X95.8Y-84.35
X95.85Y-76.05
X95.85Y-78.55
X96.75Y-39.8
X96.75Y-47.42
X100.43Y-47.95
X100.9Y-75.05
X101.8Y-90.55
X101.8Y-93.05
X102.4Y-80.3
X102.4Y-87.92
X105.8Y-79.4
X105.8Y-84.4
X105.9Y-75.05
X106.Y-87.
X106.Y-92.
X108.05Y-47.95
X109.4Y-79.4
X109.4Y-81.94
X109.4Y-84.48
X109.4Y-87.02
X111.8Y-75.8
X113.7Y-70.2
X114.8Y-53.3
X114.8Y-66.
X114.8Y-96.4
X114.8Y-101.4
X116.2Y-70.2
X116.8Y-75.8
X117.02Y-79.4
X117.02Y-81.94
X117.02Y-84.48
X117.02Y-87.02
X120.4Y-77.6
X120.4Y-82.6
X120.6Y-94.8
X120.6Y-99.8
X124.2Y-74.8
X124.2Y-82.42
X126.75Y-39.85
X126.75Y-47.47
X129.4Y-87.4
X129.6Y-77.4
X129.6Y-80.6
X129.6Y-84.
X133.2Y-63.8
X133.2Y-71.42
X136.4Y-63.8
X136.4Y-71.42
X137.02Y-87.4
X137.22Y-77.4
X137.22Y-80.6
X137.22Y-84.
X139.2Y-73.4
X142.2Y-94.2
X142.2Y-99.2
X144.2Y-73.4
X144.4Y-88.
X144.5Y-54.35
X144.98Y-76.8
X144.98Y-84.42
X146.Y-96.8
X146.Y-101.8
X147.Y-73.5
X147.52Y-76.8
X147.52Y-84.42
X149.4Y-88.
X149.5Y-54.35
X150.06Y-76.8
X150.06Y-84.42
X151.2Y-100.2
X152.Y-73.5
X152.6Y-76.8
X152.6Y-84.42
X152.95Y-54.45
X153.Y-87.2
X153.Y-92.2
X153.7Y-100.2
X157.8Y-97.
X157.8Y-102.
X157.95Y-54.45
X158.38Y-84.6
X158.4Y-78.
X158.4Y-81.2
X158.58Y-88.
X163.Y-93.8
X163.Y-98.8
X165.4Y-49.6
X165.4Y-54.6
X166.Y-84.6
X166.02Y-78.
X166.02Y-81.2
X166.2Y-88.
X169.7Y-68.5
X171.Y-83.
X171.Y-86.8
X176.Y-83.
X176.Y-86.8
X177.1Y-61.1
X177.1Y-63.6
X182.4Y-68.5
X183.38Y-55.78
X183.38Y-58.32
X183.38Y-60.86
X183.38Y-63.4
X185.8Y-71.38
X185.8Y-79.
X185.95Y-41.4
X185.95Y-46.4
X186.05Y-51.3
X186.5Y-66.4
X187.6Y-82.
X189.5Y-86.6
X189.6Y-71.4
X189.6Y-79.02
X191.Y-55.78
X191.Y-58.32
X191.Y-60.86
X191.Y-63.4
X191.05Y-51.3
X191.5Y-66.4
X192.Y-86.6
X192.6Y-82.
X193.Y-73.
X193.Y-78.
X195.95Y-66.
X195.98Y-73.78
X195.98Y-76.32
X195.98Y-78.86
X195.98Y-81.4
X197.6Y-59.1
X197.6Y-61.6
X200.95Y-66.
X203.48Y-57.08
X203.48Y-59.62
X203.48Y-62.16
X203.48Y-64.7
X203.6Y-73.78
X203.6Y-76.32
X203.6Y-78.86
X203.6Y-81.4
X206.4Y-72.8
X207.2Y-78.
X207.2Y-83.
X209.7Y-88.
X211.1Y-57.08
X211.1Y-59.62
X211.1Y-62.16
X211.1Y-64.7
X211.4Y-72.8
X211.4Y-76.4
X211.4Y-84.02
X212.2Y-88.
X214.5Y-56.
X214.5Y-61.
X215.2Y-76.58
X215.2Y-84.2
X217.75Y-57.73
X217.75Y-65.35
X217.8Y-54.25
X220.9Y-57.65
X220.9Y-65.27
X220.94Y-50.
X225.1Y-59.1
X225.1Y-61.64
X225.1Y-64.18
X225.1Y-66.72
X227.96Y-54.25
X231.1Y-50.
X232.72Y-59.1
X232.72Y-61.64
X232.72Y-64.18
X232.72Y-66.72
X234.Y-74.78
X234.Y-82.4
X236.Y-61.6
X236.Y-64.9
X237.8Y-74.6
X237.8Y-79.6
X241.Y-61.6
X241.Y-64.9
X241.78Y-71.98
X241.78Y-74.52
X241.78Y-77.06
X241.78Y-79.6
X241.8Y-82.8
X241.8Y-87.8
X245.4Y-54.2
X245.75Y-57.63
X245.75Y-65.25
X248.95Y-57.7
X248.95Y-65.32
X249.4Y-71.98
X249.4Y-74.52
X249.4Y-77.06
X249.4Y-79.6
X252.9Y-71.5
X252.9Y-76.5
X253.6Y-89.78
X253.6Y-97.4
X253.8Y-80.
X253.8Y-85.
X255.5Y-58.4
X255.5Y-60.94
X255.5Y-63.48
X255.5Y-66.02
X255.56Y-54.2
X256.44Y-49.5
X258.6Y-80.
X258.6Y-85.
X263.12Y-58.4
X263.12Y-60.94
X263.12Y-63.48
X263.12Y-66.02
X266.Y-65.9
X266.1Y-62.8
X266.6Y-49.5
X267.5Y-76.2
X267.5Y-78.74
X267.5Y-81.28
X267.5Y-83.82
X267.54Y-72.3
X271.Y-65.9
X271.1Y-62.8
X272.9Y-65.
X272.98Y-68.3
X274.6Y-85.98
X274.6Y-93.6
X275.12Y-76.2
X275.12Y-78.74
X275.12Y-81.28
X275.12Y-83.82
X277.7Y-72.3
X278.Y-82.3
X278.1Y-79.3
X278.2Y-86.9
X278.2Y-91.9
X280.52Y-65.
X280.6Y-68.3
X281.7Y-85.58
X281.7Y-93.2
X283.Y-82.3
X283.1Y-79.3
X290.4Y-60.7
X290.4Y-70.86
T3
X279.06Y-100.8
X281.6Y-100.8
T4
X17.6Y-90.4
X17.6Y-95.4
X40.Y-54.
X40.Y-59.
X41.2Y-84.2
X43.74Y-84.2
X46.12Y-96.2
X46.28Y-84.2
X48.66Y-96.2
X51.2Y-96.2
X176.56Y-56.45
X179.1Y-56.45
X196.96Y-54.3
X199.5Y-54.3
T5
X11.8Y-51.6
X11.8Y-55.2
X11.8Y-58.8
X15.6Y-64.98
X15.6Y-72.6
X19.4Y-64.8
X19.4Y-72.42
X19.42Y-51.6
X19.42Y-55.2
X19.42Y-58.8
X25.3Y-47.12
X25.3Y-54.74
X25.3Y-59.82
X25.3Y-64.9
X25.3Y-69.12
X25.3Y-76.74
X25.3Y-81.82
X25.3Y-86.9
X25.8Y-90.98
X25.8Y-98.6
X29.8Y-91.
X29.8Y-98.62
X32.9Y-47.12
X32.9Y-54.74
X32.9Y-59.82
X32.9Y-64.9
X32.9Y-69.12
X32.9Y-76.74
X32.9Y-81.82
X32.9Y-86.9
X34.Y-91.
X34.Y-98.62
X38.2Y-90.98
X38.2Y-98.6
X40.6Y-66.6
X40.6Y-74.22
X56.2Y-90.2
X61.4Y-53.6
X61.4Y-58.68
X61.4Y-63.76
X61.4Y-71.38
X63.2Y-75.4
X63.82Y-90.2
X69.Y-53.6
X69.Y-58.68
X69.Y-63.76
X69.Y-71.38
X70.82Y-75.4
X87.Y-52.
X87.Y-59.6
X87.4Y-64.6
X87.4Y-72.22
X91.82Y-64.4
X91.82Y-72.
X92.08Y-52.
X92.08Y-59.6
X97.16Y-52.
X97.16Y-59.6
X99.44Y-64.4
X99.44Y-72.
X104.52Y-64.4
X104.52Y-72.
X104.78Y-52.
X104.78Y-59.6
X109.6Y-64.4
X109.6Y-72.
X109.8Y-52.
X109.8Y-59.62
X119.22Y-52.
X119.22Y-59.6
X126.84Y-52.
X126.84Y-59.6
X131.92Y-52.
X131.92Y-59.6
X137.Y-52.
X137.Y-59.6
X145.2Y-61.2
X145.2Y-68.8
X150.28Y-61.2
X150.28Y-68.8
X155.36Y-61.2
X155.36Y-68.8
X162.98Y-61.2
X162.98Y-68.8
X166.8Y-61.3
X166.8Y-68.92
T6
X71.28Y-91.6
X71.28Y-96.6
X71.28Y-101.6
X76.28Y-96.6
X76.28Y-101.6
X81.28Y-91.6
X81.28Y-96.6
X81.28Y-101.6
X126.18Y-91.6
X126.18Y-96.6
X126.18Y-101.6
X131.18Y-96.6
X131.18Y-101.6
X136.18Y-91.6
X136.18Y-96.6
X136.18Y-101.6
X169.36Y-91.6
X169.36Y-96.6
X169.36Y-101.6
X174.36Y-96.6
X174.36Y-101.6
X179.36Y-91.6
X179.36Y-96.6
X179.36Y-101.6
X194.76Y-91.6
X194.76Y-96.6
X194.76Y-101.6
X199.76Y-96.6
X199.76Y-101.6
X204.76Y-91.6
X204.76Y-96.6
X204.76Y-101.6
X228.76Y-91.6
X228.76Y-96.6
X228.76Y-101.6
X233.76Y-96.6
X233.76Y-101.6
X238.76Y-91.6
X238.76Y-96.6
X238.76Y-101.6
X259.24Y-91.6
X259.24Y-96.6
X259.24Y-101.6
X264.24Y-96.6
X264.24Y-101.6
X269.24Y-91.6
X269.24Y-96.6
X269.24Y-101.6
T8
X14.8Y-78.92
X14.8Y-84.
X16.1Y-42.1
X16.1Y-47.18
X22.64Y-39.3
X27.72Y-39.3
X32.8Y-39.3
X55.4Y-54.12
X55.4Y-59.2
X55.4Y-65.72
X55.4Y-70.8
X74.92Y-54.6
X80.Y-54.6
X122.4Y-65.4
X127.48Y-65.4
X175.52Y-74.6
X180.6Y-74.6
T9
X143.15Y-37.64
X147.35Y-43.36
X151.4Y-47.81
X155.45Y-44.
X167.55Y-37.69
X171.75Y-43.41
X175.8Y-47.86
X179.85Y-44.05
X206.09Y-48.82
X209.9Y-43.74
X209.9Y-48.82
X213.71Y-48.82
X241.69Y-48.42
X245.5Y-43.34
X245.5Y-48.42
X249.31Y-48.42
X276.19Y-48.62
X280.Y-43.54
X280.Y-48.62
X283.81Y-48.62
T4
X39.1Y-44.6G85X39.1Y-46.6
G05
X44.8Y-42.6G85X42.8Y-42.6
G05
X44.8Y-48.6G85X42.8Y-48.6
G05
T7
X57.92Y-39.64G85X58.92Y-39.64
G05
X58.42Y-44.14G85X58.42Y-45.14
G05
X73.2Y-39.4G85X74.2Y-39.4
G05
X73.7Y-43.9G85X73.7Y-44.9
G05
X88.65Y-39.3G85X89.65Y-39.3
G05
X89.15Y-43.8G85X89.15Y-44.8
G05
X103.4Y-39.3G85X104.4Y-39.3
G05
X103.9Y-43.8G85X103.9Y-44.8
G05
X118.3Y-39.3G85X119.3Y-39.3
G05
X118.8Y-43.8G85X118.8Y-44.8
G05
X133.6Y-39.3G85X134.6Y-39.3
G05
X134.1Y-43.8G85X134.1Y-44.8
G05
X192.3Y-39.3G85X193.3Y-39.3
G05
X192.8Y-43.8G85X192.8Y-44.8
G05
X227.7Y-39.8G85X228.7Y-39.8
G05
X228.2Y-44.3G85X228.2Y-45.3
G05
X261.9Y-39.6G85X262.9Y-39.6
G05
X262.4Y-44.1G85X262.4Y-45.1
G05
T0
M30
