G04 #@! TF.FileFunction,Copper,L2,Bot,Signal*
%FSLAX46Y46*%
G04 Gerber Fmt 4.6, Leading zero omitted, Abs format (unit mm)*
G04 Created by KiCad (PCBNEW 4.0.7) date 05/04/21 11:15:44*
%MOMM*%
%LPD*%
G01*
G04 APERTURE LIST*
%ADD10C,0.100000*%
%ADD11R,2.400000X2.400000*%
%ADD12C,2.400000*%
%ADD13R,2.200000X2.200000*%
%ADD14O,2.200000X2.200000*%
%ADD15R,1.600000X1.600000*%
%ADD16C,1.600000*%
%ADD17C,3.000000*%
%ADD18O,1.600000X1.600000*%
%ADD19C,1.800000*%
%ADD20O,3.500000X2.500000*%
%ADD21O,2.500000X3.500000*%
%ADD22R,1.800000X1.800000*%
%ADD23O,1.800000X1.800000*%
%ADD24R,3.000000X3.000000*%
%ADD25R,3.500000X3.500000*%
%ADD26C,2.500000*%
%ADD27R,1.700000X1.700000*%
%ADD28O,1.700000X1.700000*%
%ADD29R,2.000000X2.000000*%
%ADD30C,2.000000*%
%ADD31C,1.520000*%
%ADD32R,1.520000X1.520000*%
%ADD33C,0.600000*%
%ADD34C,1.000000*%
%ADD35C,0.500000*%
G04 APERTURE END LIST*
D10*
D11*
X79970000Y-78180000D03*
D12*
X79970000Y-73180000D03*
D13*
X82260000Y-51700000D03*
D14*
X82260000Y-59320000D03*
D15*
X128090000Y-91060000D03*
D16*
X128090000Y-93560000D03*
D17*
X197480000Y-53690000D03*
X193430000Y-49240000D03*
X201530000Y-49880000D03*
X189230000Y-43520000D03*
D16*
X107860000Y-46630000D03*
D18*
X107860000Y-39010000D03*
D13*
X59400000Y-68960000D03*
D14*
X51780000Y-68960000D03*
D13*
X48450000Y-91360000D03*
D14*
X40830000Y-91360000D03*
D19*
X314260000Y-89740000D03*
X314260000Y-79580000D03*
X314260000Y-84660000D03*
X321860000Y-84660000D03*
X321860000Y-89740000D03*
X321860000Y-79580000D03*
X314260000Y-97360000D03*
X321860000Y-97360000D03*
D20*
X81280000Y-42180000D03*
D21*
X81280000Y-47180000D03*
D22*
X86110000Y-98850000D03*
D23*
X83570000Y-98850000D03*
X81030000Y-98850000D03*
D19*
X120690000Y-52530000D03*
X130850000Y-52530000D03*
X125770000Y-52530000D03*
X125770000Y-60130000D03*
X120690000Y-60130000D03*
X130850000Y-60130000D03*
X113070000Y-52530000D03*
X113070000Y-60130000D03*
D20*
X63500000Y-42180000D03*
D21*
X63500000Y-47180000D03*
D17*
X172330000Y-53630000D03*
X168280000Y-49180000D03*
X176380000Y-49820000D03*
X164080000Y-43460000D03*
D15*
X236700000Y-98700000D03*
D18*
X229080000Y-91080000D03*
X236700000Y-96160000D03*
X229080000Y-93620000D03*
X236700000Y-93620000D03*
X229080000Y-96160000D03*
X236700000Y-91080000D03*
X229080000Y-98700000D03*
D16*
X308630000Y-75330000D03*
D18*
X308630000Y-82950000D03*
D15*
X286930000Y-92510000D03*
D18*
X294550000Y-100130000D03*
X286930000Y-95050000D03*
X294550000Y-97590000D03*
X286930000Y-97590000D03*
X294550000Y-95050000D03*
X286930000Y-100130000D03*
X294550000Y-92510000D03*
D16*
X165620000Y-77040000D03*
D18*
X165620000Y-84660000D03*
D19*
X111190000Y-63090000D03*
X121350000Y-63090000D03*
X116270000Y-63090000D03*
X116270000Y-70690000D03*
X111190000Y-70690000D03*
X121350000Y-70690000D03*
X103570000Y-63090000D03*
X103570000Y-70690000D03*
D16*
X132550000Y-93840000D03*
X132550000Y-88840000D03*
X117520000Y-95500000D03*
X117520000Y-90500000D03*
X172300000Y-90700000D03*
X177300000Y-90700000D03*
X147900000Y-118700000D03*
X147900000Y-113700000D03*
X179100000Y-119100000D03*
X179100000Y-114100000D03*
X153700000Y-112100000D03*
X153700000Y-117100000D03*
X175300000Y-111500000D03*
X175300000Y-116500000D03*
X190900000Y-119300000D03*
X190900000Y-114300000D03*
D13*
X48400000Y-120200000D03*
D14*
X40780000Y-120200000D03*
D13*
X51910000Y-91310000D03*
D14*
X51910000Y-98930000D03*
D13*
X51780000Y-76090000D03*
D14*
X51780000Y-83710000D03*
D13*
X48100000Y-116800000D03*
D14*
X40480000Y-116800000D03*
D13*
X40960000Y-87450000D03*
D14*
X48580000Y-87450000D03*
D13*
X51740000Y-102200000D03*
D14*
X51740000Y-109820000D03*
D13*
X73310000Y-89070000D03*
D14*
X80930000Y-89070000D03*
D13*
X59180000Y-72640000D03*
D14*
X51560000Y-72640000D03*
D24*
X33700000Y-79800000D03*
D17*
X33700000Y-84880000D03*
X33700000Y-89960000D03*
D24*
X33300000Y-97800000D03*
D17*
X33300000Y-102880000D03*
D16*
X127700000Y-112700000D03*
D18*
X120080000Y-112700000D03*
D16*
X55710000Y-112880000D03*
D18*
X55710000Y-120500000D03*
D16*
X94440000Y-83370000D03*
D18*
X94440000Y-90990000D03*
D16*
X51970000Y-112820000D03*
D18*
X51970000Y-120440000D03*
D16*
X94490000Y-101030000D03*
D18*
X94490000Y-93410000D03*
D16*
X127900000Y-106200000D03*
D18*
X120280000Y-106200000D03*
D16*
X157300000Y-92100000D03*
D18*
X157300000Y-99720000D03*
D16*
X135500000Y-97600000D03*
D18*
X135500000Y-105220000D03*
D16*
X168900000Y-77080000D03*
D18*
X168900000Y-84700000D03*
D16*
X80810000Y-119790000D03*
D18*
X80810000Y-112170000D03*
D16*
X162700000Y-101300000D03*
D18*
X170320000Y-101300000D03*
D16*
X199300000Y-105300000D03*
D18*
X191680000Y-105300000D03*
D16*
X162500000Y-104700000D03*
D18*
X170120000Y-104700000D03*
D16*
X199100000Y-101900000D03*
D18*
X191480000Y-101900000D03*
D16*
X162700000Y-97900000D03*
D18*
X170320000Y-97900000D03*
D16*
X191500000Y-98500000D03*
D18*
X199120000Y-98500000D03*
D16*
X191500000Y-95300000D03*
D18*
X199120000Y-95300000D03*
D16*
X254510000Y-102150000D03*
D18*
X254510000Y-94530000D03*
D16*
X275820000Y-113050000D03*
D18*
X275820000Y-105430000D03*
D16*
X279520000Y-105140000D03*
D18*
X279520000Y-97520000D03*
D16*
X247800000Y-101390000D03*
D18*
X247800000Y-93770000D03*
D16*
X219520000Y-96340000D03*
D18*
X219520000Y-88720000D03*
D19*
X40900000Y-105680000D03*
X40900000Y-95520000D03*
X40900000Y-100600000D03*
X48500000Y-100600000D03*
X48500000Y-105680000D03*
X48500000Y-95520000D03*
X40900000Y-113300000D03*
X48500000Y-113300000D03*
D22*
X71320000Y-116430000D03*
D23*
X68780000Y-116430000D03*
X66240000Y-116430000D03*
D16*
X204100000Y-104100000D03*
X209100000Y-104100000D03*
X186100000Y-104500000D03*
X186100000Y-109500000D03*
X139100000Y-109300000D03*
X139100000Y-104300000D03*
X196100000Y-116100000D03*
X196100000Y-111100000D03*
X204100000Y-100300000D03*
X209100000Y-100300000D03*
X185100000Y-90800000D03*
X180100000Y-90800000D03*
X182500000Y-105300000D03*
X177500000Y-105300000D03*
X268890000Y-90750000D03*
X263890000Y-90750000D03*
D24*
X34200000Y-67800000D03*
D17*
X34200000Y-72880000D03*
D16*
X244500000Y-93700000D03*
D18*
X244500000Y-101320000D03*
D16*
X222880000Y-88710000D03*
D18*
X222880000Y-96330000D03*
D16*
X305750000Y-83020000D03*
D18*
X298130000Y-83020000D03*
D16*
X272300000Y-83930000D03*
D18*
X272300000Y-91550000D03*
D16*
X216260000Y-84850000D03*
D18*
X216260000Y-92470000D03*
D16*
X275540000Y-91530000D03*
D18*
X275540000Y-83910000D03*
D16*
X227600000Y-83600000D03*
D18*
X219980000Y-83600000D03*
D16*
X257940000Y-109420000D03*
X257940000Y-104420000D03*
X257770000Y-102060000D03*
X257770000Y-97060000D03*
X153500000Y-94900000D03*
X153500000Y-99900000D03*
X138900000Y-96700000D03*
X138900000Y-101700000D03*
X276130000Y-97480000D03*
X276130000Y-102480000D03*
X272630000Y-97560000D03*
X272630000Y-102560000D03*
X282900000Y-102600000D03*
X282900000Y-97600000D03*
X239500000Y-90100000D03*
X244500000Y-90100000D03*
X225700000Y-99300000D03*
X220700000Y-99300000D03*
X226100000Y-95300000D03*
X226100000Y-90300000D03*
X240300000Y-100300000D03*
X240300000Y-95300000D03*
X283170000Y-88710000D03*
X283170000Y-83710000D03*
D13*
X51470000Y-64210000D03*
D14*
X59090000Y-64210000D03*
D22*
X87210000Y-117500000D03*
D19*
X84670000Y-117500000D03*
D13*
X199800000Y-86110000D03*
D14*
X199800000Y-78490000D03*
D13*
X108180000Y-59960000D03*
D14*
X108180000Y-52340000D03*
D17*
X233140000Y-53340000D03*
X236950000Y-53340000D03*
X229330000Y-53340000D03*
X233140000Y-48260000D03*
X271240000Y-53340000D03*
X275050000Y-53340000D03*
X267430000Y-53340000D03*
X271240000Y-48260000D03*
X309880000Y-53340000D03*
X313690000Y-53340000D03*
X306070000Y-53340000D03*
X309880000Y-48260000D03*
D25*
X47950000Y-47830000D03*
X47950000Y-41830000D03*
X43250000Y-44830000D03*
D24*
X34480000Y-44310000D03*
D17*
X34480000Y-49390000D03*
D24*
X34420000Y-56100000D03*
D17*
X34420000Y-61180000D03*
D16*
X74520000Y-64040000D03*
D18*
X61820000Y-64040000D03*
D16*
X162700000Y-94700000D03*
D18*
X170320000Y-94700000D03*
D16*
X142950000Y-46580000D03*
D18*
X142950000Y-38960000D03*
D16*
X72220000Y-45880000D03*
D18*
X72220000Y-38260000D03*
D16*
X125350000Y-46760000D03*
D18*
X125350000Y-39140000D03*
D16*
X55490000Y-46600000D03*
D18*
X55490000Y-38980000D03*
D16*
X89800000Y-46770000D03*
D18*
X89800000Y-39150000D03*
D19*
X48340000Y-73750000D03*
X48340000Y-83910000D03*
X48340000Y-78830000D03*
X40740000Y-78830000D03*
X40740000Y-73750000D03*
X40740000Y-83910000D03*
X48340000Y-66130000D03*
X40740000Y-66130000D03*
X188460000Y-86100000D03*
X178300000Y-86100000D03*
X183380000Y-86100000D03*
X183380000Y-78500000D03*
X188460000Y-78500000D03*
X178300000Y-78500000D03*
X196080000Y-86100000D03*
X196080000Y-78500000D03*
X96410000Y-59790000D03*
X86250000Y-59790000D03*
X91330000Y-59790000D03*
X91330000Y-52190000D03*
X96410000Y-52190000D03*
X86250000Y-52190000D03*
X104030000Y-59790000D03*
X104030000Y-52190000D03*
X50860000Y-59760000D03*
X40700000Y-59760000D03*
X45780000Y-59760000D03*
X45780000Y-52160000D03*
X50860000Y-52160000D03*
X40700000Y-52160000D03*
X58480000Y-59760000D03*
X58480000Y-52160000D03*
D26*
X164280000Y-118900000D03*
X159280000Y-118900000D03*
X169280000Y-118900000D03*
X169280000Y-113900000D03*
X164280000Y-113900000D03*
X159280000Y-113900000D03*
X169280000Y-108900000D03*
X159280000Y-108900000D03*
X207460000Y-118900000D03*
X202460000Y-118900000D03*
X212460000Y-118900000D03*
X212460000Y-113900000D03*
X207460000Y-113900000D03*
X202460000Y-113900000D03*
X212460000Y-108900000D03*
X202460000Y-108900000D03*
X232860000Y-118900000D03*
X227860000Y-118900000D03*
X237860000Y-118900000D03*
X237860000Y-113900000D03*
X232860000Y-113900000D03*
X227860000Y-113900000D03*
X237860000Y-108900000D03*
X227860000Y-108900000D03*
X297340000Y-118900000D03*
X292340000Y-118900000D03*
X302340000Y-118900000D03*
X302340000Y-113900000D03*
X297340000Y-113900000D03*
X292340000Y-113900000D03*
X302340000Y-108900000D03*
X292340000Y-108900000D03*
X266860000Y-118900000D03*
X261860000Y-118900000D03*
X271860000Y-118900000D03*
X271860000Y-113900000D03*
X266860000Y-113900000D03*
X261860000Y-113900000D03*
X271860000Y-108900000D03*
X261860000Y-108900000D03*
D24*
X210050000Y-83210000D03*
D17*
X204970000Y-83210000D03*
D24*
X126340000Y-65950000D03*
D17*
X131420000Y-65950000D03*
D24*
X98290000Y-65830000D03*
D17*
X93210000Y-65830000D03*
D16*
X149900000Y-92340000D03*
X144900000Y-92340000D03*
D15*
X140820000Y-91780000D03*
D16*
X140820000Y-89280000D03*
D15*
X184300000Y-117500000D03*
D16*
X186800000Y-117500000D03*
D15*
X134850000Y-110600000D03*
D16*
X134850000Y-108100000D03*
D15*
X248070000Y-105840000D03*
D16*
X245570000Y-105840000D03*
D15*
X221200000Y-108500000D03*
D16*
X218700000Y-108500000D03*
X302440000Y-100430000D03*
X297440000Y-100430000D03*
X291330000Y-85410000D03*
X286330000Y-85410000D03*
X302400000Y-97000000D03*
X297400000Y-97000000D03*
X247770000Y-79960000D03*
X242770000Y-79960000D03*
X247660000Y-76500000D03*
X242660000Y-76500000D03*
X307920000Y-90980000D03*
D18*
X297760000Y-90980000D03*
D16*
X236490000Y-67740000D03*
D18*
X236490000Y-57580000D03*
D16*
X284090000Y-69820000D03*
D18*
X284090000Y-59660000D03*
D16*
X307890000Y-86720000D03*
D18*
X297730000Y-86720000D03*
D16*
X279290000Y-59740000D03*
D18*
X279290000Y-69900000D03*
D16*
X232180000Y-57680000D03*
D18*
X232180000Y-67840000D03*
D15*
X142500000Y-96700000D03*
D18*
X150120000Y-104320000D03*
X142500000Y-99240000D03*
X150120000Y-101780000D03*
X142500000Y-101780000D03*
X150120000Y-99240000D03*
X142500000Y-104320000D03*
X150120000Y-96700000D03*
D15*
X185700000Y-94100000D03*
D18*
X178080000Y-101720000D03*
X183160000Y-94100000D03*
X180620000Y-101720000D03*
X180620000Y-94100000D03*
X183160000Y-101720000D03*
X178080000Y-94100000D03*
X185700000Y-101720000D03*
D15*
X268810000Y-101620000D03*
D18*
X261190000Y-94000000D03*
X268810000Y-99080000D03*
X261190000Y-96540000D03*
X268810000Y-96540000D03*
X261190000Y-99080000D03*
X268810000Y-94000000D03*
X261190000Y-101620000D03*
D15*
X231830000Y-71730000D03*
D18*
X239450000Y-79350000D03*
X231830000Y-74270000D03*
X239450000Y-76810000D03*
X231830000Y-76810000D03*
X239450000Y-74270000D03*
X231830000Y-79350000D03*
X239450000Y-71730000D03*
D15*
X279010000Y-73110000D03*
D18*
X286630000Y-80730000D03*
X279010000Y-75650000D03*
X286630000Y-78190000D03*
X279010000Y-78190000D03*
X286630000Y-75650000D03*
X279010000Y-80730000D03*
X286630000Y-73110000D03*
D16*
X120200000Y-120100000D03*
D18*
X127820000Y-120100000D03*
D16*
X127800000Y-116900000D03*
D18*
X120180000Y-116900000D03*
D16*
X147560000Y-54800000D03*
X152560000Y-54800000D03*
X177560000Y-60880000D03*
X182560000Y-60880000D03*
X166540000Y-71930000D03*
X171540000Y-71930000D03*
X149760000Y-69680000D03*
X144760000Y-69680000D03*
D15*
X138410000Y-61920000D03*
D16*
X138410000Y-59420000D03*
D15*
X168290000Y-67560000D03*
D16*
X168290000Y-65060000D03*
D27*
X138690000Y-53870000D03*
D28*
X136150000Y-53870000D03*
D27*
X162460000Y-70980000D03*
D28*
X162460000Y-68440000D03*
D15*
X152660000Y-65710000D03*
D18*
X145040000Y-58090000D03*
X152660000Y-63170000D03*
X145040000Y-60630000D03*
X152660000Y-60630000D03*
X145040000Y-63170000D03*
X152660000Y-58090000D03*
X145040000Y-65710000D03*
D15*
X182220000Y-71690000D03*
D18*
X174600000Y-64070000D03*
X182220000Y-69150000D03*
X174600000Y-66610000D03*
X182220000Y-66610000D03*
X174600000Y-69150000D03*
X182220000Y-64070000D03*
X174600000Y-71690000D03*
D15*
X121930000Y-99610000D03*
D16*
X121930000Y-97110000D03*
X155830000Y-63740000D03*
X160830000Y-63740000D03*
X184850000Y-67980000D03*
X189850000Y-67980000D03*
X160780000Y-60390000D03*
X155780000Y-60390000D03*
X189820000Y-64460000D03*
X184820000Y-64460000D03*
D15*
X121960000Y-93500000D03*
D16*
X121960000Y-91000000D03*
D15*
X127940000Y-97120000D03*
D16*
X127940000Y-99620000D03*
D26*
X109380000Y-118900000D03*
D20*
X104855000Y-118900000D03*
X113745000Y-118900000D03*
X113745000Y-113820000D03*
D26*
X109380000Y-113900000D03*
D20*
X104855000Y-113820000D03*
X113745000Y-108740000D03*
X104855000Y-108740000D03*
X251750000Y-42210000D03*
D21*
X251750000Y-47210000D03*
D20*
X214910000Y-42310000D03*
D21*
X214910000Y-47310000D03*
D20*
X134620000Y-42180000D03*
D21*
X134620000Y-47180000D03*
D20*
X152400000Y-42180000D03*
D21*
X152400000Y-47180000D03*
D20*
X99060000Y-42180000D03*
D21*
X99060000Y-47180000D03*
D20*
X116840000Y-42180000D03*
D21*
X116840000Y-47180000D03*
D20*
X289560000Y-42180000D03*
D21*
X289560000Y-47180000D03*
D16*
X127800000Y-109400000D03*
D18*
X120180000Y-109400000D03*
D16*
X119900000Y-103000000D03*
D18*
X112280000Y-103000000D03*
D16*
X233200000Y-104400000D03*
D18*
X225580000Y-104400000D03*
D16*
X244900000Y-112600000D03*
D18*
X244900000Y-120220000D03*
D29*
X64880000Y-105610000D03*
D30*
X69880000Y-105610000D03*
D29*
X104100000Y-93540000D03*
D30*
X99100000Y-93540000D03*
D13*
X201800000Y-62690000D03*
D14*
X194180000Y-62690000D03*
D31*
X208475000Y-77145000D03*
X211015000Y-77145000D03*
D32*
X205935000Y-77145000D03*
D16*
X199510000Y-73945000D03*
D18*
X199510000Y-66325000D03*
D16*
X192985000Y-66620000D03*
D18*
X192985000Y-74240000D03*
D13*
X196260000Y-73945000D03*
D14*
X196260000Y-66325000D03*
D22*
X210940000Y-55250000D03*
D23*
X213480000Y-55250000D03*
X216020000Y-55250000D03*
D19*
X318090000Y-109820000D03*
X318090000Y-119980000D03*
X318090000Y-114900000D03*
X310490000Y-114900000D03*
X310490000Y-109820000D03*
X310490000Y-119980000D03*
X318090000Y-102200000D03*
X310490000Y-102200000D03*
X219160000Y-71420000D03*
X219160000Y-61260000D03*
X219160000Y-66340000D03*
X226760000Y-66340000D03*
X226760000Y-71420000D03*
X226760000Y-61260000D03*
X219160000Y-79040000D03*
X226760000Y-79040000D03*
X251510000Y-77060000D03*
X251510000Y-66900000D03*
X251510000Y-71980000D03*
X259110000Y-71980000D03*
X259110000Y-77060000D03*
X259110000Y-66900000D03*
X251510000Y-84680000D03*
X259110000Y-84680000D03*
X291700000Y-70500000D03*
X291700000Y-60340000D03*
X291700000Y-65420000D03*
X299300000Y-65420000D03*
X299300000Y-70500000D03*
X299300000Y-60340000D03*
X291700000Y-78120000D03*
X299300000Y-78120000D03*
D16*
X214120000Y-76810000D03*
D18*
X214120000Y-69190000D03*
D13*
X63280000Y-52830000D03*
D14*
X63280000Y-60450000D03*
D16*
X59440000Y-99780000D03*
X59440000Y-104780000D03*
X73150000Y-92310000D03*
X78150000Y-92310000D03*
X56160000Y-93760000D03*
D18*
X56160000Y-106460000D03*
D16*
X71510000Y-72540000D03*
D18*
X71510000Y-85240000D03*
D11*
X60910000Y-88120000D03*
D12*
X60910000Y-83120000D03*
D15*
X164590000Y-89610000D03*
D16*
X167090000Y-89610000D03*
D15*
X253890000Y-106000000D03*
D16*
X253890000Y-108500000D03*
D15*
X258580000Y-89490000D03*
D16*
X261080000Y-89490000D03*
X203635000Y-69545000D03*
D18*
X211255000Y-69545000D03*
D16*
X207060000Y-58620000D03*
X207060000Y-63620000D03*
X203685000Y-72745000D03*
D18*
X211305000Y-72745000D03*
D29*
X72280000Y-58790000D03*
D30*
X72280000Y-53790000D03*
D15*
X214240000Y-63680000D03*
D16*
X211740000Y-63680000D03*
D27*
X28900000Y-110870000D03*
D28*
X28900000Y-108330000D03*
D27*
X32490000Y-110890000D03*
D28*
X32490000Y-108350000D03*
D27*
X314660000Y-61800000D03*
D28*
X314660000Y-64340000D03*
D27*
X242890000Y-59020000D03*
D28*
X242890000Y-61560000D03*
D27*
X282750000Y-56270000D03*
D28*
X285290000Y-56270000D03*
D27*
X186040000Y-55440000D03*
D28*
X186040000Y-57980000D03*
D27*
X159410000Y-51700000D03*
D28*
X156870000Y-51700000D03*
D16*
X117010000Y-85800000D03*
D18*
X127170000Y-85800000D03*
D16*
X127250000Y-81530000D03*
D18*
X117090000Y-81530000D03*
D16*
X282640000Y-94770000D03*
D18*
X275020000Y-94770000D03*
D33*
X80360000Y-50240000D03*
X78760000Y-49260000D03*
X76780000Y-48700000D03*
X74770000Y-48780000D03*
X72140000Y-48670000D03*
X69630000Y-48730000D03*
X67500000Y-48640000D03*
X61100000Y-48870000D03*
X59010000Y-48920000D03*
X56660000Y-48530000D03*
X55010000Y-48390000D03*
X53620000Y-47580000D03*
X53420000Y-44980000D03*
X53840000Y-43170000D03*
X54200000Y-41350000D03*
X54940000Y-40360000D03*
X76670000Y-76780000D03*
X74150000Y-76500000D03*
X71810000Y-75940000D03*
X69630000Y-75210000D03*
X68510000Y-73820000D03*
X67450000Y-72310000D03*
X66330000Y-69680000D03*
X64260000Y-69850000D03*
X62080000Y-70130000D03*
X61690000Y-67610000D03*
X60740000Y-65990000D03*
X101760000Y-61660000D03*
X99440000Y-61750000D03*
X97570000Y-61500000D03*
X95830000Y-61500000D03*
X93630000Y-61270000D03*
X91620000Y-61440000D03*
X89300000Y-61410000D03*
X87370000Y-61330000D03*
X85520000Y-61500000D03*
X84550000Y-60380000D03*
X84520000Y-58620000D03*
X84630000Y-56890000D03*
X84570000Y-55270000D03*
X84270000Y-53250000D03*
X113880000Y-100810000D03*
X113440000Y-98570000D03*
X113600000Y-96280000D03*
X113700000Y-93080000D03*
X113530000Y-90680000D03*
X113730000Y-88090000D03*
X113350000Y-85080000D03*
X113460000Y-82490000D03*
X113540000Y-80240000D03*
X113460000Y-77910000D03*
X111090000Y-76500000D03*
X109250000Y-74880000D03*
X107230000Y-72920000D03*
X106560000Y-71080000D03*
X106510000Y-69400000D03*
X105840000Y-67500000D03*
X103940000Y-65660000D03*
X104750000Y-116900000D03*
X104500000Y-115840000D03*
X114220000Y-103650000D03*
X106790000Y-112010000D03*
X107990000Y-110950000D03*
X109500000Y-110730000D03*
X110810000Y-110670000D03*
X112120000Y-110840000D03*
X113690000Y-110780000D03*
X115140000Y-110750000D03*
X116230000Y-110110000D03*
X116930000Y-108880000D03*
X116740000Y-107290000D03*
X116360000Y-105650000D03*
X115600000Y-104390000D03*
X89970000Y-117460000D03*
X91310000Y-115500000D03*
X92590000Y-114000000D03*
X94100000Y-113380000D03*
X93820000Y-110810000D03*
X94880000Y-109190000D03*
X95720000Y-107620000D03*
X96670000Y-106000000D03*
X98350000Y-104500000D03*
X100030000Y-102990000D03*
X101370000Y-101250000D03*
X103320000Y-99580000D03*
X104890000Y-98010000D03*
X106400000Y-96670000D03*
X107790000Y-95280000D03*
X107790000Y-95160000D03*
X107620000Y-92590000D03*
X107290000Y-89690000D03*
X107390000Y-89970000D03*
X105440000Y-87210000D03*
X103300000Y-85080000D03*
X100900000Y-83300000D03*
X98320000Y-81340000D03*
X95120000Y-78590000D03*
X92720000Y-76190000D03*
X86500000Y-76100000D03*
X82320000Y-77610000D03*
X79970000Y-78180000D03*
X96010000Y-112130000D03*
X99630000Y-115820000D03*
X244290000Y-74680000D03*
X244430000Y-71320000D03*
X303790000Y-116680000D03*
X306050000Y-117100000D03*
X285210000Y-48830000D03*
X287830000Y-51250000D03*
X221200000Y-104700000D03*
X184290000Y-121850000D03*
X130600000Y-121000000D03*
X133620000Y-122220000D03*
X220700000Y-119890000D03*
X218770000Y-122070000D03*
X184100000Y-111100000D03*
X159450000Y-35180000D03*
X160150000Y-37860000D03*
X101170000Y-113880000D03*
X98180000Y-108040000D03*
X118100000Y-35180000D03*
X118880000Y-37640000D03*
X257600000Y-35230000D03*
X258780000Y-37670000D03*
X200690000Y-35260000D03*
X203510000Y-37770000D03*
X308570000Y-118070000D03*
X305900000Y-118260000D03*
X179300000Y-35210000D03*
X181490000Y-37440000D03*
X234030000Y-99580000D03*
X236430000Y-101310000D03*
X245900000Y-74600000D03*
X245730000Y-71270000D03*
X284920000Y-46850000D03*
X287950000Y-49840000D03*
X174300000Y-88800000D03*
X188200000Y-87900000D03*
X250130000Y-89120000D03*
X250240000Y-92560000D03*
D34*
X64880000Y-105610000D02*
X64880000Y-115070000D01*
X64880000Y-115070000D02*
X66240000Y-116430000D01*
X64880000Y-105610000D02*
X64880000Y-103110000D01*
X63970000Y-102200000D02*
X51740000Y-102200000D01*
X64880000Y-103110000D02*
X63970000Y-102200000D01*
X51910000Y-91310000D02*
X51910000Y-91580000D01*
X51910000Y-91580000D02*
X54200000Y-93870000D01*
X54200000Y-93870000D02*
X54200000Y-101370000D01*
X54200000Y-101370000D02*
X53370000Y-102200000D01*
X53370000Y-102200000D02*
X51740000Y-102200000D01*
X65160000Y-105890000D02*
X64880000Y-105610000D01*
X51910000Y-91310000D02*
X48500000Y-91310000D01*
X48500000Y-91310000D02*
X48450000Y-91360000D01*
D35*
X104500000Y-115840000D02*
X104500000Y-116650000D01*
X104500000Y-116650000D02*
X104750000Y-116900000D01*
X60740000Y-65990000D02*
X60740000Y-65860000D01*
X60740000Y-65860000D02*
X59090000Y-64210000D01*
X60740000Y-65990000D02*
X60740000Y-66660000D01*
X60740000Y-66660000D02*
X61690000Y-67610000D01*
X64260000Y-69850000D02*
X66160000Y-69850000D01*
X66160000Y-69850000D02*
X66330000Y-69680000D01*
X67450000Y-72310000D02*
X67450000Y-72760000D01*
X67450000Y-72760000D02*
X68510000Y-73820000D01*
X69630000Y-75210000D02*
X71080000Y-75210000D01*
X71080000Y-75210000D02*
X71810000Y-75940000D01*
X74150000Y-76500000D02*
X76390000Y-76500000D01*
X76390000Y-76500000D02*
X76670000Y-76780000D01*
X86500000Y-76100000D02*
X86500000Y-76110000D01*
X86500000Y-76110000D02*
X85000000Y-77610000D01*
X85000000Y-77610000D02*
X82320000Y-77610000D01*
X82260000Y-51700000D02*
X82720000Y-51700000D01*
X82720000Y-51700000D02*
X84270000Y-53250000D01*
X84630000Y-56890000D02*
X84630000Y-55330000D01*
X84630000Y-55330000D02*
X84570000Y-55270000D01*
X84520000Y-58620000D02*
X84520000Y-60350000D01*
X84520000Y-60350000D02*
X84550000Y-60380000D01*
X85520000Y-61500000D02*
X87200000Y-61500000D01*
X87200000Y-61500000D02*
X87370000Y-61330000D01*
X89300000Y-61410000D02*
X91590000Y-61410000D01*
X91590000Y-61410000D02*
X91620000Y-61440000D01*
X93630000Y-61270000D02*
X95600000Y-61270000D01*
X95600000Y-61270000D02*
X95830000Y-61500000D01*
X97570000Y-61500000D02*
X99190000Y-61500000D01*
X99190000Y-61500000D02*
X99440000Y-61750000D01*
X103570000Y-63090000D02*
X103190000Y-63090000D01*
X103190000Y-63090000D02*
X101760000Y-61660000D01*
X103570000Y-63090000D02*
X103570000Y-65290000D01*
X103570000Y-65290000D02*
X103940000Y-65660000D01*
X105840000Y-67500000D02*
X105840000Y-68730000D01*
X105840000Y-68730000D02*
X106510000Y-69400000D01*
X106560000Y-71080000D02*
X106560000Y-72250000D01*
X106560000Y-72250000D02*
X107230000Y-72920000D01*
X111090000Y-76500000D02*
X110870000Y-76500000D01*
X110870000Y-76500000D02*
X109250000Y-74880000D01*
X113540000Y-80240000D02*
X113540000Y-77990000D01*
X113540000Y-77990000D02*
X113460000Y-77910000D01*
X113350000Y-85080000D02*
X113350000Y-82600000D01*
X113350000Y-82600000D02*
X113540000Y-82410000D01*
X113730000Y-88090000D02*
X113730000Y-90480000D01*
X113730000Y-90480000D02*
X113530000Y-90680000D01*
X113700000Y-93080000D02*
X113700000Y-96180000D01*
X113700000Y-96180000D02*
X113600000Y-96280000D01*
X113440000Y-98570000D02*
X113440000Y-100370000D01*
X113440000Y-100370000D02*
X113880000Y-100810000D01*
X115600000Y-104390000D02*
X114960000Y-104390000D01*
X114960000Y-104390000D02*
X114220000Y-103650000D01*
X116360000Y-105650000D02*
X116360000Y-106910000D01*
X116360000Y-106910000D02*
X116740000Y-107290000D01*
X116930000Y-108880000D02*
X116930000Y-109410000D01*
X116930000Y-109410000D02*
X116230000Y-110110000D01*
X109500000Y-110730000D02*
X108210000Y-110730000D01*
X108210000Y-110730000D02*
X107990000Y-110950000D01*
X115140000Y-110750000D02*
X113720000Y-110750000D01*
X113720000Y-110750000D02*
X113690000Y-110780000D01*
X112120000Y-110840000D02*
X110980000Y-110840000D01*
X110980000Y-110840000D02*
X110810000Y-110670000D01*
X104855000Y-113820000D02*
X104980000Y-113820000D01*
X104980000Y-113820000D02*
X106790000Y-112010000D01*
X89970000Y-117460000D02*
X87250000Y-117460000D01*
X87250000Y-117460000D02*
X87210000Y-117500000D01*
X92590000Y-114000000D02*
X92590000Y-114220000D01*
X92590000Y-114220000D02*
X91310000Y-115500000D01*
X94880000Y-109190000D02*
X94880000Y-108460000D01*
X94880000Y-108460000D02*
X95720000Y-107620000D01*
X96670000Y-106000000D02*
X96850000Y-106000000D01*
X96850000Y-106000000D02*
X98350000Y-104500000D01*
X100030000Y-102990000D02*
X100030000Y-102590000D01*
X100030000Y-102590000D02*
X101370000Y-101250000D01*
X103320000Y-99580000D02*
X104890000Y-98010000D01*
X106400000Y-96670000D02*
X107790000Y-95280000D01*
X107620000Y-92590000D02*
X107620000Y-95110000D01*
X107620000Y-95110000D02*
X107790000Y-95280000D01*
X105440000Y-87210000D02*
X105430000Y-87210000D01*
X105430000Y-87210000D02*
X103300000Y-85080000D01*
X100900000Y-83300000D02*
X100280000Y-83300000D01*
X100280000Y-83300000D02*
X98320000Y-81340000D01*
X95120000Y-78590000D02*
X92720000Y-76190000D01*
X82260000Y-51700000D02*
X81820000Y-51700000D01*
X81820000Y-51700000D02*
X80360000Y-50240000D01*
X78760000Y-49260000D02*
X78200000Y-48700000D01*
X78200000Y-48700000D02*
X76780000Y-48700000D01*
X74770000Y-48780000D02*
X74660000Y-48670000D01*
X74660000Y-48670000D02*
X72140000Y-48670000D01*
X69630000Y-48730000D02*
X69540000Y-48640000D01*
X69540000Y-48640000D02*
X67500000Y-48640000D01*
X61100000Y-48870000D02*
X61050000Y-48920000D01*
X61050000Y-48920000D02*
X59010000Y-48920000D01*
X56660000Y-48530000D02*
X56520000Y-48390000D01*
X56520000Y-48390000D02*
X55010000Y-48390000D01*
X53620000Y-47580000D02*
X53420000Y-47380000D01*
X53420000Y-47380000D02*
X53420000Y-44980000D01*
X53840000Y-43170000D02*
X54200000Y-42810000D01*
X54200000Y-42810000D02*
X54200000Y-41350000D01*
X54940000Y-40360000D02*
X55490000Y-39840000D01*
X55490000Y-39840000D02*
X55490000Y-38980000D01*
X79970000Y-78180000D02*
X78070000Y-78180000D01*
X78070000Y-78180000D02*
X76670000Y-76780000D01*
X74150000Y-76500000D02*
X73590000Y-75940000D01*
X73590000Y-75940000D02*
X71810000Y-75940000D01*
X69630000Y-75210000D02*
X68510000Y-74090000D01*
X68510000Y-74090000D02*
X68510000Y-73820000D01*
X67450000Y-72310000D02*
X66330000Y-71190000D01*
X66330000Y-71190000D02*
X66330000Y-69680000D01*
X64260000Y-69850000D02*
X63980000Y-70130000D01*
X63980000Y-70130000D02*
X62080000Y-70130000D01*
X61690000Y-67610000D02*
X60740000Y-66660000D01*
X60740000Y-66660000D02*
X60740000Y-65990000D01*
X101760000Y-61660000D02*
X101670000Y-61750000D01*
X101670000Y-61750000D02*
X99440000Y-61750000D01*
X97570000Y-61500000D02*
X95830000Y-61500000D01*
X93630000Y-61270000D02*
X93460000Y-61440000D01*
X93460000Y-61440000D02*
X91620000Y-61440000D01*
X89300000Y-61410000D02*
X89220000Y-61330000D01*
X89220000Y-61330000D02*
X87370000Y-61330000D01*
X85520000Y-61500000D02*
X84550000Y-60530000D01*
X84550000Y-60530000D02*
X84550000Y-60380000D01*
X84520000Y-58620000D02*
X84630000Y-58510000D01*
X84630000Y-58510000D02*
X84630000Y-56890000D01*
X84570000Y-55270000D02*
X84270000Y-54970000D01*
X84270000Y-54970000D02*
X84270000Y-53250000D01*
X112280000Y-103000000D02*
X112280000Y-102410000D01*
X112280000Y-102410000D02*
X113880000Y-100810000D01*
X113440000Y-98570000D02*
X113600000Y-98410000D01*
X113600000Y-98410000D02*
X113600000Y-96280000D01*
X113700000Y-93080000D02*
X113530000Y-92910000D01*
X113530000Y-92910000D02*
X113530000Y-90680000D01*
X113730000Y-88090000D02*
X113350000Y-87710000D01*
X113350000Y-87710000D02*
X113350000Y-85080000D01*
X113460000Y-82490000D02*
X113540000Y-82410000D01*
X113540000Y-82410000D02*
X113540000Y-80240000D01*
X113460000Y-77910000D02*
X112050000Y-76500000D01*
X112050000Y-76500000D02*
X111090000Y-76500000D01*
X109250000Y-74880000D02*
X107290000Y-72920000D01*
X107290000Y-72920000D02*
X107230000Y-72920000D01*
X106560000Y-71080000D02*
X106510000Y-71030000D01*
X106510000Y-71030000D02*
X106510000Y-69400000D01*
X105840000Y-67500000D02*
X104000000Y-65660000D01*
X104000000Y-65660000D02*
X103940000Y-65660000D01*
X104855000Y-118900000D02*
X104855000Y-117005000D01*
X104855000Y-117005000D02*
X104750000Y-116900000D01*
X104500000Y-115840000D02*
X104855000Y-115485000D01*
X104855000Y-115485000D02*
X104855000Y-113820000D01*
X114220000Y-103650000D02*
X113570000Y-103000000D01*
X113570000Y-103000000D02*
X112280000Y-103000000D01*
X106790000Y-112010000D02*
X107850000Y-110950000D01*
X107850000Y-110950000D02*
X107990000Y-110950000D01*
X109500000Y-110730000D02*
X109560000Y-110670000D01*
X109560000Y-110670000D02*
X110810000Y-110670000D01*
X112120000Y-110840000D02*
X112180000Y-110780000D01*
X112180000Y-110780000D02*
X113690000Y-110780000D01*
X115140000Y-110750000D02*
X115780000Y-110110000D01*
X115780000Y-110110000D02*
X116230000Y-110110000D01*
X116930000Y-108880000D02*
X116740000Y-108690000D01*
X116740000Y-108690000D02*
X116740000Y-107290000D01*
X116360000Y-105650000D02*
X115600000Y-104890000D01*
X115600000Y-104890000D02*
X115600000Y-104390000D01*
X89970000Y-117460000D02*
X91310000Y-116120000D01*
X91310000Y-116120000D02*
X91310000Y-115500000D01*
X92590000Y-114000000D02*
X93210000Y-113380000D01*
X93210000Y-113380000D02*
X94100000Y-113380000D01*
X93820000Y-110810000D02*
X94880000Y-109750000D01*
X94880000Y-109750000D02*
X94880000Y-109190000D01*
X95720000Y-107620000D02*
X96670000Y-106670000D01*
X96670000Y-106670000D02*
X96670000Y-106000000D01*
X98350000Y-104500000D02*
X99860000Y-102990000D01*
X99860000Y-102990000D02*
X100030000Y-102990000D01*
X101370000Y-101250000D02*
X103040000Y-99580000D01*
X103040000Y-99580000D02*
X103320000Y-99580000D01*
X104890000Y-98010000D02*
X106230000Y-96670000D01*
X106230000Y-96670000D02*
X106400000Y-96670000D01*
X107790000Y-95280000D02*
X107790000Y-95160000D01*
X107620000Y-92590000D02*
X107290000Y-92260000D01*
X107290000Y-92260000D02*
X107290000Y-89690000D01*
X107390000Y-89970000D02*
X105440000Y-88020000D01*
X105440000Y-88020000D02*
X105440000Y-87210000D01*
X103300000Y-85080000D02*
X101520000Y-83300000D01*
X101520000Y-83300000D02*
X100900000Y-83300000D01*
X98320000Y-81340000D02*
X95570000Y-78590000D01*
X95570000Y-78590000D02*
X95120000Y-78590000D01*
X92720000Y-76190000D02*
X92630000Y-76100000D01*
X92630000Y-76100000D02*
X86500000Y-76100000D01*
X82320000Y-77610000D02*
X81750000Y-78180000D01*
X81750000Y-78180000D02*
X79970000Y-78180000D01*
D34*
X83570000Y-98850000D02*
X83570000Y-100330000D01*
X99100000Y-96600000D02*
X99100000Y-93540000D01*
X97460000Y-98240000D02*
X99100000Y-96600000D01*
X91310000Y-98240000D02*
X97460000Y-98240000D01*
X88070000Y-101480000D02*
X91310000Y-98240000D01*
X84720000Y-101480000D02*
X88070000Y-101480000D01*
X83570000Y-100330000D02*
X84720000Y-101480000D01*
X51780000Y-83710000D02*
X51780000Y-82280000D01*
X80930000Y-86910000D02*
X80930000Y-89070000D01*
X74150000Y-80130000D02*
X80930000Y-86910000D01*
X53930000Y-80130000D02*
X74150000Y-80130000D01*
X51780000Y-82280000D02*
X53930000Y-80130000D01*
X80930000Y-89070000D02*
X80930000Y-91160000D01*
X80930000Y-91160000D02*
X83570000Y-93800000D01*
X83570000Y-93800000D02*
X83570000Y-98850000D01*
X81470000Y-89610000D02*
X80930000Y-89070000D01*
X51780000Y-83710000D02*
X52470000Y-83710000D01*
X51780000Y-83710000D02*
X51780000Y-83470000D01*
X51780000Y-83710000D02*
X51780000Y-84250000D01*
X51780000Y-84250000D02*
X48580000Y-87450000D01*
D35*
X158880000Y-42580000D02*
X158880000Y-44670000D01*
X149290000Y-53830000D02*
X149310000Y-53830000D01*
X149290000Y-51710000D02*
X149290000Y-53830000D01*
X150510000Y-50490000D02*
X149290000Y-51710000D01*
X153060000Y-50490000D02*
X150510000Y-50490000D01*
X158880000Y-44670000D02*
X153060000Y-50490000D01*
X102450000Y-123220000D02*
X100780000Y-123220000D01*
X95970000Y-112170000D02*
X95810000Y-112170000D01*
X96010000Y-112130000D02*
X95970000Y-112170000D01*
X99630000Y-122070000D02*
X99630000Y-115820000D01*
X100780000Y-123220000D02*
X99630000Y-122070000D01*
X79900000Y-55940000D02*
X79900000Y-54440000D01*
X52275000Y-47765000D02*
X52275000Y-38255000D01*
X54350000Y-49840000D02*
X52275000Y-47765000D01*
X75300000Y-49840000D02*
X54350000Y-49840000D01*
X79900000Y-54440000D02*
X75300000Y-49840000D01*
X80810000Y-112170000D02*
X95810000Y-112170000D01*
X79900000Y-62130000D02*
X79900000Y-55940000D01*
X95810000Y-112170000D02*
X112260000Y-95720000D01*
X112260000Y-95720000D02*
X112260000Y-80520000D01*
X112260000Y-80520000D02*
X104020000Y-72280000D01*
X104020000Y-72280000D02*
X97930000Y-72280000D01*
X97930000Y-72280000D02*
X95610000Y-69960000D01*
X95610000Y-69960000D02*
X95610000Y-64060000D01*
X95610000Y-64060000D02*
X94810000Y-63260000D01*
X94810000Y-63260000D02*
X81030000Y-63260000D01*
X81030000Y-63260000D02*
X79900000Y-62130000D01*
X79900000Y-55940000D02*
X79900000Y-55700000D01*
X102860000Y-123220000D02*
X102450000Y-123220000D01*
D34*
X56160000Y-93760000D02*
X57270000Y-93760000D01*
X57270000Y-93760000D02*
X64260000Y-100750000D01*
X64260000Y-100750000D02*
X70070000Y-100750000D01*
X70070000Y-100750000D02*
X74380000Y-105060000D01*
X74380000Y-105060000D02*
X74380000Y-110920000D01*
X74380000Y-110920000D02*
X75630000Y-112170000D01*
X75630000Y-112170000D02*
X80810000Y-112170000D01*
X56160000Y-93760000D02*
X56160000Y-91810000D01*
X56160000Y-91810000D02*
X59850000Y-88120000D01*
X59850000Y-88120000D02*
X60910000Y-88120000D01*
D35*
X203635000Y-69545000D02*
X204725000Y-69545000D01*
X216370000Y-65810000D02*
X214240000Y-63680000D01*
X216370000Y-73350000D02*
X216370000Y-65810000D01*
X214890000Y-74830000D02*
X216370000Y-73350000D01*
X208450000Y-74830000D02*
X214890000Y-74830000D01*
X205780000Y-72160000D02*
X208450000Y-74830000D01*
X205780000Y-70600000D02*
X205780000Y-72160000D01*
X204725000Y-69545000D02*
X205780000Y-70600000D01*
X199510000Y-66325000D02*
X199510000Y-69020000D01*
X200035000Y-69545000D02*
X203635000Y-69545000D01*
X199510000Y-69020000D02*
X200035000Y-69545000D01*
X216020000Y-55250000D02*
X216020000Y-61900000D01*
X216020000Y-61900000D02*
X214240000Y-63680000D01*
X199045000Y-61155000D02*
X199045000Y-65860000D01*
X199045000Y-65860000D02*
X199510000Y-66325000D01*
X256300000Y-36270000D02*
X256300000Y-36430000D01*
X244290000Y-74680000D02*
X242660000Y-76310000D01*
X244430000Y-70900000D02*
X244430000Y-71320000D01*
X247350000Y-67980000D02*
X244430000Y-70900000D01*
X247350000Y-65910000D02*
X247350000Y-67980000D01*
X250230000Y-63030000D02*
X247350000Y-65910000D01*
X255380000Y-63030000D02*
X250230000Y-63030000D01*
X257820000Y-60590000D02*
X255380000Y-63030000D01*
X257820000Y-37950000D02*
X257820000Y-60590000D01*
X256300000Y-36430000D02*
X257820000Y-37950000D01*
X242660000Y-76310000D02*
X242660000Y-76500000D01*
X203710000Y-36270000D02*
X203770000Y-36270000D01*
X199570000Y-60630000D02*
X199045000Y-61155000D01*
X199045000Y-61155000D02*
X199040000Y-61160000D01*
X202650000Y-60630000D02*
X199570000Y-60630000D01*
X205110000Y-58170000D02*
X202650000Y-60630000D01*
X205110000Y-37610000D02*
X205110000Y-58170000D01*
X203770000Y-36270000D02*
X205110000Y-37610000D01*
X306190000Y-114300000D02*
X306190000Y-113360000D01*
X320230000Y-112740000D02*
X324550000Y-108420000D01*
X306810000Y-112740000D02*
X320230000Y-112740000D01*
X306190000Y-113360000D02*
X306810000Y-112740000D01*
X324550000Y-108420000D02*
X324550000Y-48570000D01*
X285880000Y-48550000D02*
X285720000Y-48830000D01*
X285720000Y-48830000D02*
X285210000Y-48830000D01*
X286890000Y-43050000D02*
X286890000Y-43090000D01*
X324550000Y-48570000D02*
X313980000Y-36820000D01*
X313980000Y-36820000D02*
X290080000Y-36820000D01*
X290080000Y-36820000D02*
X286890000Y-40010000D01*
X286890000Y-40010000D02*
X286890000Y-43050000D01*
X286890000Y-43090000D02*
X285880000Y-43980000D01*
X285880000Y-43980000D02*
X285880000Y-48550000D01*
X171540000Y-71930000D02*
X171540000Y-72610000D01*
X171540000Y-72610000D02*
X172690000Y-73760000D01*
X176520000Y-72260000D02*
X176520000Y-69150000D01*
X175020000Y-73760000D02*
X176520000Y-72260000D01*
X172690000Y-73760000D02*
X175020000Y-73760000D01*
X179490000Y-66380000D02*
X179490000Y-66670000D01*
X176990000Y-36270000D02*
X179490000Y-38820000D01*
X179490000Y-38820000D02*
X179490000Y-66380000D01*
X177010000Y-69150000D02*
X176520000Y-69150000D01*
X176520000Y-69150000D02*
X174600000Y-69150000D01*
X179490000Y-66670000D02*
X177010000Y-69150000D01*
X132300000Y-97730000D02*
X132300000Y-96690000D01*
X132300000Y-96690000D02*
X134920000Y-94070000D01*
X140820000Y-91780000D02*
X140820000Y-93500000D01*
X140820000Y-93500000D02*
X141390000Y-94070000D01*
X307140000Y-117240000D02*
X306190000Y-117240000D01*
X265400000Y-105830000D02*
X261190000Y-101620000D01*
X272190000Y-105830000D02*
X265400000Y-105830000D01*
X276090000Y-109730000D02*
X272190000Y-105830000D01*
X279550000Y-109730000D02*
X276090000Y-109730000D01*
X286470000Y-116650000D02*
X279550000Y-109730000D01*
X303760000Y-116650000D02*
X286470000Y-116650000D01*
X303790000Y-116680000D02*
X303760000Y-116650000D01*
X306190000Y-117240000D02*
X306050000Y-117100000D01*
X306190000Y-115530000D02*
X306250000Y-115530000D01*
X307140000Y-118280000D02*
X306190000Y-119230000D01*
X307140000Y-116420000D02*
X307140000Y-117240000D01*
X307140000Y-117240000D02*
X307140000Y-118280000D01*
X306250000Y-115530000D02*
X307140000Y-116420000D01*
X283170000Y-83710000D02*
X283170000Y-81650000D01*
X283170000Y-81650000D02*
X286630000Y-78190000D01*
X261190000Y-101620000D02*
X261460000Y-101620000D01*
X257940000Y-104420000D02*
X257070000Y-104420000D01*
X255490000Y-106000000D02*
X253890000Y-106000000D01*
X257070000Y-104420000D02*
X255490000Y-106000000D01*
X261190000Y-101620000D02*
X260740000Y-101620000D01*
X260740000Y-101620000D02*
X257940000Y-104420000D01*
X220895000Y-119695000D02*
X221035000Y-119695000D01*
X223070000Y-110370000D02*
X221200000Y-108500000D01*
X223070000Y-117660000D02*
X223070000Y-110370000D01*
X221035000Y-119695000D02*
X223070000Y-117660000D01*
X242660000Y-76500000D02*
X243140000Y-76500000D01*
X293320000Y-51310000D02*
X287890000Y-51310000D01*
X287890000Y-51310000D02*
X287830000Y-51250000D01*
X282020000Y-45640000D02*
X282020000Y-40200000D01*
X285210000Y-48830000D02*
X282020000Y-45640000D01*
X273170000Y-36320000D02*
X273170000Y-36270000D01*
X278140000Y-36320000D02*
X273170000Y-36320000D01*
X282020000Y-40200000D02*
X278140000Y-36320000D01*
X288570000Y-80130000D02*
X286630000Y-78190000D01*
X300580000Y-80130000D02*
X288570000Y-80130000D01*
X303040000Y-77670000D02*
X300580000Y-80130000D01*
X303040000Y-61030000D02*
X303040000Y-77670000D01*
X293300000Y-51290000D02*
X293320000Y-51310000D01*
X293320000Y-51310000D02*
X303040000Y-61030000D01*
X221200000Y-104700000D02*
X221200000Y-103800000D01*
X221200000Y-103800000D02*
X225700000Y-99300000D01*
X184400000Y-123220000D02*
X184400000Y-121960000D01*
X184400000Y-121960000D02*
X184290000Y-121850000D01*
X242660000Y-76500000D02*
X239760000Y-76500000D01*
X239760000Y-76500000D02*
X239450000Y-76810000D01*
X305190000Y-123220000D02*
X305190000Y-123160000D01*
X218770000Y-123220000D02*
X305190000Y-123220000D01*
X305190000Y-123160000D02*
X306190000Y-122160000D01*
X306190000Y-122160000D02*
X306190000Y-119230000D01*
X299460000Y-99060000D02*
X297400000Y-97000000D01*
X299460000Y-100920000D02*
X299460000Y-99060000D01*
X301250000Y-102710000D02*
X299460000Y-100920000D01*
X303430000Y-102710000D02*
X301250000Y-102710000D01*
X306190000Y-105470000D02*
X303430000Y-102710000D01*
X306190000Y-115530000D02*
X306190000Y-114300000D01*
X306190000Y-114300000D02*
X306190000Y-105470000D01*
X297400000Y-97000000D02*
X295140000Y-97000000D01*
X295140000Y-97000000D02*
X294550000Y-97590000D01*
X171540000Y-71930000D02*
X172130000Y-71930000D01*
X156930000Y-36270000D02*
X157280000Y-36270000D01*
X149310000Y-59630000D02*
X145770000Y-63170000D01*
X149310000Y-53830000D02*
X149310000Y-59630000D01*
X158880000Y-37870000D02*
X158880000Y-42580000D01*
X157280000Y-36270000D02*
X158880000Y-37870000D01*
X145770000Y-63170000D02*
X145040000Y-63170000D01*
X145040000Y-63170000D02*
X145870000Y-63170000D01*
X147300000Y-67140000D02*
X144760000Y-69680000D01*
X147300000Y-64600000D02*
X147300000Y-67140000D01*
X145870000Y-63170000D02*
X147300000Y-64600000D01*
X149900000Y-94070000D02*
X141390000Y-94070000D01*
X141390000Y-94070000D02*
X134920000Y-94070000D01*
X134110000Y-123220000D02*
X134110000Y-122710000D01*
X130600000Y-121000000D02*
X130600000Y-114700000D01*
X130600000Y-114700000D02*
X130200000Y-114300000D01*
X130200000Y-114300000D02*
X126900000Y-114300000D01*
X126900000Y-114300000D02*
X124700000Y-112100000D01*
X124700000Y-112100000D02*
X124700000Y-104600000D01*
X124700000Y-104600000D02*
X126000000Y-103300000D01*
X126000000Y-103300000D02*
X131750000Y-103300000D01*
X132300000Y-102750000D02*
X132300000Y-97730000D01*
X131750000Y-103300000D02*
X132300000Y-102750000D01*
X134110000Y-122710000D02*
X133620000Y-122220000D01*
X218770000Y-123220000D02*
X218770000Y-122070000D01*
X221590000Y-119000000D02*
X221700000Y-119000000D01*
X220700000Y-119890000D02*
X220895000Y-119695000D01*
X220895000Y-119695000D02*
X221590000Y-119000000D01*
X102860000Y-123220000D02*
X134110000Y-123220000D01*
X134110000Y-123220000D02*
X184400000Y-123220000D01*
X184400000Y-123220000D02*
X218770000Y-123220000D01*
X221700000Y-109000000D02*
X221200000Y-108500000D01*
X221400000Y-107900000D02*
X221200000Y-108500000D01*
X229080000Y-98700000D02*
X226300000Y-98700000D01*
X226300000Y-98700000D02*
X225700000Y-99300000D01*
X184300000Y-106300000D02*
X186100000Y-104500000D01*
X184300000Y-110900000D02*
X184300000Y-106300000D01*
X184100000Y-111100000D02*
X184300000Y-110900000D01*
X186100000Y-104500000D02*
X186100000Y-102120000D01*
X186100000Y-102120000D02*
X185700000Y-101720000D01*
X149900000Y-92340000D02*
X149900000Y-94070000D01*
X149900000Y-94070000D02*
X149900000Y-96480000D01*
X149900000Y-96480000D02*
X150120000Y-96700000D01*
D34*
X150120000Y-92560000D02*
X149900000Y-92340000D01*
D35*
X54260000Y-36270000D02*
X120810000Y-36270000D01*
X52275000Y-38255000D02*
X54260000Y-36270000D01*
X120810000Y-36270000D02*
X156930000Y-36270000D01*
X52220002Y-38309998D02*
X52275000Y-38255000D01*
X230080000Y-36270000D02*
X230160000Y-36270000D01*
X230160000Y-36270000D02*
X256300000Y-36270000D01*
X256300000Y-36270000D02*
X273170000Y-36270000D01*
X273170000Y-36270000D02*
X273540000Y-36270000D01*
X230010000Y-36270000D02*
X230080000Y-36270000D01*
X201000000Y-36270000D02*
X203710000Y-36270000D01*
X203710000Y-36270000D02*
X230010000Y-36270000D01*
X201000000Y-36270000D02*
X176990000Y-36270000D01*
X156930000Y-36270000D02*
X176940000Y-36270000D01*
X176940000Y-36270000D02*
X176990000Y-36270000D01*
X124110000Y-61530000D02*
X124110000Y-61950000D01*
X128340000Y-62870000D02*
X131420000Y-65950000D01*
X125030000Y-62870000D02*
X128340000Y-62870000D01*
X124110000Y-61950000D02*
X125030000Y-62870000D01*
X152560000Y-54800000D02*
X152560000Y-52600000D01*
X152560000Y-52600000D02*
X160150000Y-45010000D01*
X160150000Y-37860000D02*
X160150000Y-45010000D01*
X152560000Y-54310000D02*
X152560000Y-54800000D01*
X53240000Y-50740000D02*
X73160000Y-50740000D01*
X78410000Y-62540000D02*
X75860000Y-59990000D01*
X75860000Y-59990000D02*
X75860000Y-53260000D01*
X75860000Y-53260000D02*
X73220000Y-50680000D01*
X78410000Y-62540000D02*
X78410000Y-62640000D01*
X73160000Y-50740000D02*
X73220000Y-50680000D01*
X53240000Y-50680000D02*
X53240000Y-50740000D01*
X53240000Y-50740000D02*
X53240000Y-54520000D01*
X53240000Y-54520000D02*
X58480000Y-59760000D01*
X51240000Y-44730000D02*
X51240000Y-48680000D01*
X51240000Y-48680000D02*
X53240000Y-50680000D01*
X53240000Y-50680000D02*
X53310000Y-50750000D01*
X58480000Y-59760000D02*
X62590000Y-59760000D01*
X62590000Y-59760000D02*
X63280000Y-60450000D01*
X101170000Y-121150000D02*
X101170000Y-113880000D01*
X102260000Y-122240000D02*
X101170000Y-121150000D01*
X131810000Y-122240000D02*
X102260000Y-122240000D01*
X132890000Y-121160000D02*
X131810000Y-122240000D01*
X135000000Y-121160000D02*
X132890000Y-121160000D01*
X136240000Y-122400000D02*
X135000000Y-121160000D01*
X144090000Y-122400000D02*
X136240000Y-122400000D01*
X98130000Y-108070000D02*
X111260000Y-94940000D01*
X111260000Y-94940000D02*
X111260000Y-81480000D01*
X111260000Y-81480000D02*
X102940000Y-73160000D01*
X102940000Y-73160000D02*
X97160000Y-73160000D01*
X97160000Y-73160000D02*
X93210000Y-69210000D01*
X93210000Y-69210000D02*
X93210000Y-65830000D01*
X98170000Y-108030000D02*
X98130000Y-108070000D01*
X98180000Y-108040000D02*
X98170000Y-108030000D01*
X93210000Y-65830000D02*
X81600000Y-65830000D01*
X81600000Y-65830000D02*
X78410000Y-62640000D01*
X79970000Y-73180000D02*
X79580000Y-73180000D01*
X79580000Y-73180000D02*
X78410000Y-72010000D01*
X78410000Y-72010000D02*
X78410000Y-62640000D01*
X58480000Y-59760000D02*
X58480000Y-59390000D01*
X63280000Y-60450000D02*
X63560000Y-60450000D01*
X58610000Y-59890000D02*
X58480000Y-59760000D01*
D34*
X79970000Y-73180000D02*
X79970000Y-72540000D01*
X79970000Y-73180000D02*
X72150000Y-73180000D01*
X72150000Y-73180000D02*
X71510000Y-72540000D01*
D35*
X58480000Y-59760000D02*
X58190000Y-59760000D01*
X205935000Y-77145000D02*
X204695000Y-77145000D01*
X192985000Y-68735000D02*
X192985000Y-66620000D01*
X190490000Y-71230000D02*
X192985000Y-68735000D01*
X190490000Y-74090000D02*
X190490000Y-71230000D01*
X193030000Y-76630000D02*
X190490000Y-74090000D01*
X204180000Y-76630000D02*
X193030000Y-76630000D01*
X204695000Y-77145000D02*
X204180000Y-76630000D01*
X205935000Y-77145000D02*
X205935000Y-79095000D01*
X205935000Y-79095000D02*
X210050000Y-83210000D01*
X118880000Y-37640000D02*
X119390000Y-38150000D01*
X119390000Y-38150000D02*
X119390000Y-45960000D01*
X119390000Y-45960000D02*
X124110000Y-50680000D01*
X124110000Y-50680000D02*
X124110000Y-61530000D01*
X257130000Y-35240000D02*
X273950000Y-35240000D01*
X230700000Y-35240000D02*
X256180000Y-35240000D01*
X258740000Y-38530000D02*
X258740000Y-37710000D01*
X257130000Y-35250000D02*
X257130000Y-35240000D01*
X257140000Y-35240000D02*
X257130000Y-35250000D01*
X257590000Y-35240000D02*
X257140000Y-35240000D01*
X257600000Y-35230000D02*
X257590000Y-35240000D01*
X258740000Y-37710000D02*
X258780000Y-37670000D01*
X248510000Y-68490000D02*
X245730000Y-71270000D01*
X248510000Y-66270000D02*
X248510000Y-68490000D01*
X250730000Y-64050000D02*
X248510000Y-66270000D01*
X256260000Y-64050000D02*
X250730000Y-64050000D01*
X258740000Y-61570000D02*
X256260000Y-64050000D01*
X258740000Y-38200000D02*
X258740000Y-38530000D01*
X258740000Y-38530000D02*
X258740000Y-61570000D01*
X199550000Y-35260000D02*
X200690000Y-35260000D01*
X203510000Y-37770000D02*
X204060000Y-38320000D01*
X204060000Y-38320000D02*
X204060000Y-55830000D01*
X204060000Y-55830000D02*
X200430000Y-59460000D01*
X200430000Y-59460000D02*
X197700000Y-59460000D01*
X197700000Y-59460000D02*
X196330000Y-60830000D01*
X196330000Y-60830000D02*
X196330000Y-63170000D01*
X196330000Y-63170000D02*
X192985000Y-66620000D01*
X305900000Y-118260000D02*
X305450000Y-118260000D01*
X326000000Y-109750000D02*
X318440000Y-117310000D01*
X318440000Y-117310000D02*
X313220000Y-117310000D01*
X313220000Y-117310000D02*
X312460000Y-118070000D01*
X312460000Y-118070000D02*
X308570000Y-118070000D01*
X326000000Y-108660000D02*
X326000000Y-109750000D01*
X305450000Y-118260000D02*
X305100000Y-118610000D01*
X278510000Y-35200000D02*
X314260000Y-35200000D01*
X326000000Y-46940000D02*
X326000000Y-108660000D01*
X314260000Y-35200000D02*
X326000000Y-46940000D01*
X118100000Y-35180000D02*
X159450000Y-35180000D01*
X53440000Y-35180000D02*
X118100000Y-35180000D01*
X51240000Y-37380000D02*
X53440000Y-35180000D01*
X51240000Y-45150000D02*
X51240000Y-44730000D01*
X51240000Y-44730000D02*
X51240000Y-37380000D01*
X239450000Y-79350000D02*
X239450000Y-79600000D01*
X239450000Y-79600000D02*
X239810000Y-79960000D01*
X239810000Y-79960000D02*
X242770000Y-79960000D01*
X205935000Y-77145000D02*
X205935000Y-76945000D01*
X193255000Y-66620000D02*
X192985000Y-66620000D01*
X182560000Y-60880000D02*
X182560000Y-63730000D01*
X182560000Y-63730000D02*
X182220000Y-64070000D01*
X181490000Y-37440000D02*
X182440000Y-37440000D01*
X182560000Y-37560000D02*
X182560000Y-60880000D01*
X182440000Y-37440000D02*
X182560000Y-37560000D01*
X159310000Y-35040000D02*
X159450000Y-35180000D01*
X117960000Y-35040000D02*
X118100000Y-35180000D01*
X131420000Y-64660000D02*
X131420000Y-65950000D01*
X131310000Y-65950000D02*
X131420000Y-65950000D01*
X132100000Y-66630000D02*
X131420000Y-65950000D01*
X245570000Y-105840000D02*
X242190000Y-105840000D01*
X233800000Y-93980000D02*
X236700000Y-91080000D01*
X233800000Y-99350000D02*
X233800000Y-93980000D01*
X234030000Y-99580000D02*
X233800000Y-99350000D01*
X237660000Y-101310000D02*
X236430000Y-101310000D01*
X242190000Y-105840000D02*
X237660000Y-101310000D01*
X239500000Y-90100000D02*
X237680000Y-90100000D01*
X237680000Y-90100000D02*
X236700000Y-91080000D01*
X248600000Y-122400000D02*
X248600000Y-111020000D01*
X245570000Y-107990000D02*
X245570000Y-105840000D01*
X248600000Y-111020000D02*
X245570000Y-107990000D01*
X305100000Y-115630000D02*
X287150000Y-115630000D01*
X266380000Y-96430000D02*
X268810000Y-94000000D01*
X266380000Y-102820000D02*
X266380000Y-96430000D01*
X267940000Y-104380000D02*
X266380000Y-102820000D01*
X272180000Y-104380000D02*
X267940000Y-104380000D01*
X276210000Y-108410000D02*
X272180000Y-104380000D01*
X279930000Y-108410000D02*
X276210000Y-108410000D01*
X287150000Y-115630000D02*
X279930000Y-108410000D01*
X286330000Y-85410000D02*
X286330000Y-83960000D01*
X286330000Y-83960000D02*
X286930000Y-83360000D01*
X261080000Y-89490000D02*
X261080000Y-89290000D01*
X261080000Y-89290000D02*
X261740000Y-88630000D01*
X261740000Y-88630000D02*
X266770000Y-88630000D01*
X266770000Y-88630000D02*
X268890000Y-90750000D01*
X167090000Y-89610000D02*
X167090000Y-91380000D01*
X167090000Y-91380000D02*
X167410000Y-91700000D01*
X242770000Y-79960000D02*
X243110000Y-79960000D01*
X243110000Y-79960000D02*
X245900000Y-77170000D01*
X245900000Y-77170000D02*
X245900000Y-74600000D01*
X293590000Y-50240000D02*
X288350000Y-50240000D01*
X286630000Y-83360000D02*
X286930000Y-83360000D01*
X286930000Y-83360000D02*
X293830000Y-83360000D01*
X296040000Y-81150000D02*
X293830000Y-83360000D01*
X302670000Y-81150000D02*
X296040000Y-81150000D01*
X304300000Y-79520000D02*
X302670000Y-81150000D01*
X304300000Y-60950000D02*
X304300000Y-79520000D01*
X293590000Y-50240000D02*
X304300000Y-60950000D01*
X273950000Y-35200000D02*
X273950000Y-35240000D01*
X279060000Y-35200000D02*
X278510000Y-35200000D01*
X278510000Y-35200000D02*
X273950000Y-35200000D01*
X283200000Y-39340000D02*
X279060000Y-35200000D01*
X283200000Y-45150000D02*
X283200000Y-39340000D01*
X284920000Y-46850000D02*
X283200000Y-45150000D01*
X288350000Y-50240000D02*
X287950000Y-49840000D01*
X152560000Y-54800000D02*
X152580000Y-58010000D01*
X152580000Y-58010000D02*
X152660000Y-58090000D01*
X230680000Y-35260000D02*
X230700000Y-35240000D01*
X199550000Y-35260000D02*
X230680000Y-35260000D01*
X256180000Y-35240000D02*
X257130000Y-35240000D01*
X273950000Y-35240000D02*
X274400000Y-35240000D01*
X274400000Y-35240000D02*
X274420000Y-35260000D01*
X199050000Y-35260000D02*
X199550000Y-35260000D01*
X192985000Y-66620000D02*
X192985000Y-66070000D01*
X199050000Y-35260000D02*
X199000000Y-35210000D01*
X199000000Y-35210000D02*
X179300000Y-35210000D01*
X180580000Y-122400000D02*
X180770000Y-122400000D01*
X185490000Y-120840000D02*
X187050000Y-122400000D01*
X182330000Y-120840000D02*
X185490000Y-120840000D01*
X180770000Y-122400000D02*
X182330000Y-120840000D01*
X286630000Y-80730000D02*
X286630000Y-83360000D01*
X286630000Y-80730000D02*
X286470000Y-80730000D01*
X304039995Y-122409550D02*
X304160450Y-122409550D01*
X305100000Y-121470000D02*
X305100000Y-118610000D01*
X304160450Y-122409550D02*
X305100000Y-121470000D01*
X248600000Y-122400000D02*
X249100000Y-122400000D01*
X249100000Y-122400000D02*
X304039995Y-122409550D01*
X305100000Y-118610000D02*
X305100000Y-118260000D01*
X305100000Y-118260000D02*
X305100000Y-115630000D01*
X300780000Y-103770000D02*
X297440000Y-100430000D01*
X302980000Y-103770000D02*
X300780000Y-103770000D01*
X305100000Y-105890000D02*
X302980000Y-103770000D01*
X305100000Y-115630000D02*
X305100000Y-105890000D01*
X294550000Y-100130000D02*
X297140000Y-100130000D01*
X297140000Y-100130000D02*
X297440000Y-100430000D01*
X268890000Y-90750000D02*
X268890000Y-93920000D01*
X268890000Y-93920000D02*
X268810000Y-94000000D01*
X182400000Y-61040000D02*
X182560000Y-60880000D01*
X159450000Y-35180000D02*
X179160000Y-35180000D01*
X179160000Y-35180000D02*
X179300000Y-35210000D01*
X141300000Y-106900000D02*
X141300000Y-110400000D01*
X143790000Y-112890000D02*
X143790000Y-122270000D01*
X143790000Y-122270000D02*
X143790000Y-122400000D01*
X141300000Y-110400000D02*
X143790000Y-112890000D01*
X219160000Y-120340000D02*
X221220000Y-122400000D01*
X218370000Y-120340000D02*
X219160000Y-120340000D01*
X216310000Y-122400000D02*
X218370000Y-120340000D01*
X221220000Y-122400000D02*
X248600000Y-122400000D01*
X143790000Y-122400000D02*
X144090000Y-122400000D01*
X144090000Y-122400000D02*
X180580000Y-122400000D01*
X187050000Y-122400000D02*
X216310000Y-122400000D01*
X134850000Y-108100000D02*
X135500000Y-108100000D01*
X135500000Y-108100000D02*
X139100000Y-104300000D01*
X239500000Y-90100000D02*
X239500000Y-90200000D01*
X236500000Y-90880000D02*
X236700000Y-91080000D01*
X177300000Y-90700000D02*
X177300000Y-93320000D01*
X177300000Y-93320000D02*
X178080000Y-94100000D01*
X161700000Y-91700000D02*
X167410000Y-91700000D01*
X167410000Y-91700000D02*
X168900000Y-91700000D01*
X152300000Y-106900000D02*
X156500000Y-102700000D01*
X156500000Y-102700000D02*
X158300000Y-102700000D01*
X158300000Y-102700000D02*
X159900000Y-101100000D01*
X159900000Y-101100000D02*
X159900000Y-98700000D01*
X159900000Y-98700000D02*
X160700000Y-97900000D01*
X160700000Y-97900000D02*
X160700000Y-92300000D01*
X160700000Y-92300000D02*
X161700000Y-91700000D01*
X141300000Y-106900000D02*
X152300000Y-106900000D01*
X171800000Y-88800000D02*
X174300000Y-88800000D01*
X168900000Y-91700000D02*
X171800000Y-88800000D01*
X139100000Y-104300000D02*
X139100000Y-104800000D01*
X142500000Y-104320000D02*
X141300000Y-104320000D01*
X141300000Y-104320000D02*
X139120000Y-104320000D01*
X139120000Y-104320000D02*
X139100000Y-104300000D01*
X141300000Y-106900000D02*
X141300000Y-104320000D01*
X135500000Y-105220000D02*
X133210000Y-105220000D01*
X132230000Y-106200000D02*
X127900000Y-106200000D01*
X133210000Y-105220000D02*
X132230000Y-106200000D01*
X138900000Y-101700000D02*
X138900000Y-101820000D01*
X138900000Y-101820000D02*
X135500000Y-105220000D01*
X142500000Y-99240000D02*
X141960000Y-99240000D01*
X141960000Y-99240000D02*
X139500000Y-101700000D01*
X151700000Y-109300000D02*
X153900000Y-109300000D01*
X147900000Y-113100000D02*
X151700000Y-109300000D01*
X159300000Y-105100000D02*
X162700000Y-101700000D01*
X158100000Y-105100000D02*
X159300000Y-105100000D01*
X153900000Y-109300000D02*
X158100000Y-105100000D01*
X162700000Y-101700000D02*
X162700000Y-101300000D01*
X147900000Y-113700000D02*
X147900000Y-113100000D01*
X147900000Y-113700000D02*
X147900000Y-113500000D01*
X147900000Y-113700000D02*
X147900000Y-114500000D01*
X147900000Y-114500000D02*
X152900000Y-118900000D01*
X152900000Y-118900000D02*
X159280000Y-118900000D01*
X177900000Y-112300000D02*
X177410000Y-112300000D01*
X177900000Y-112300000D02*
X186100000Y-112300000D01*
X186100000Y-112300000D02*
X189900000Y-108500000D01*
X189900000Y-108500000D02*
X189900000Y-103480000D01*
X191480000Y-101900000D02*
X189900000Y-103480000D01*
X175300000Y-114410000D02*
X175300000Y-116500000D01*
X177410000Y-112300000D02*
X175300000Y-114410000D01*
X175300000Y-116500000D02*
X175300000Y-115300000D01*
X175300000Y-116500000D02*
X175300000Y-116100000D01*
X169280000Y-113900000D02*
X172080000Y-113900000D01*
X172080000Y-113900000D02*
X174900000Y-116720000D01*
X175300000Y-116500000D02*
X174920000Y-116700000D01*
X174920000Y-116700000D02*
X174900000Y-116720000D01*
D34*
X48100000Y-116800000D02*
X48100000Y-119900000D01*
X48100000Y-119900000D02*
X48400000Y-120200000D01*
X33300000Y-97800000D02*
X33300000Y-98000000D01*
X33300000Y-98000000D02*
X36000000Y-100700000D01*
X45220000Y-110800000D02*
X48500000Y-113300000D01*
X38500000Y-110800000D02*
X45220000Y-110800000D01*
X36000000Y-108300000D02*
X38500000Y-110800000D01*
X36000000Y-100700000D02*
X36000000Y-108300000D01*
X40780000Y-120200000D02*
X42200000Y-120200000D01*
X43800000Y-116980000D02*
X48500000Y-113300000D01*
X43800000Y-118600000D02*
X43800000Y-116980000D01*
X42200000Y-120200000D02*
X43800000Y-118600000D01*
X34500000Y-97800000D02*
X33300000Y-97800000D01*
X40480000Y-116800000D02*
X40480000Y-113720000D01*
X40480000Y-113720000D02*
X40900000Y-113300000D01*
X40900000Y-113300000D02*
X37680000Y-113300000D01*
X34560000Y-104140000D02*
X33300000Y-102880000D01*
X34560000Y-110180000D02*
X34560000Y-104140000D01*
X37680000Y-113300000D02*
X34560000Y-110180000D01*
X41380000Y-113780000D02*
X40900000Y-113300000D01*
X48340000Y-73750000D02*
X48340000Y-71240000D01*
X50620000Y-68960000D02*
X51780000Y-68960000D01*
X48340000Y-71240000D02*
X50620000Y-68960000D01*
X48340000Y-73750000D02*
X46720000Y-73750000D01*
X44540000Y-101720000D02*
X48500000Y-105680000D01*
X44540000Y-75930000D02*
X44540000Y-101720000D01*
X46720000Y-73750000D02*
X44540000Y-75930000D01*
X33700000Y-89960000D02*
X34460000Y-89960000D01*
X34460000Y-89960000D02*
X37700000Y-93200000D01*
X37700000Y-93200000D02*
X37700000Y-106700000D01*
X37700000Y-106700000D02*
X39400000Y-108400000D01*
X39400000Y-108400000D02*
X44760000Y-108400000D01*
X44760000Y-108400000D02*
X48500000Y-105680000D01*
X71320000Y-116430000D02*
X71320000Y-118330000D01*
X53460000Y-117960000D02*
X53460000Y-117870000D01*
X55055000Y-116365000D02*
X53460000Y-117960000D01*
X55055000Y-116275000D02*
X55055000Y-116365000D01*
X59070000Y-120290000D02*
X55055000Y-116275000D01*
X69360000Y-120290000D02*
X59070000Y-120290000D01*
X71320000Y-118330000D02*
X69360000Y-120290000D01*
X51970000Y-120440000D02*
X51970000Y-119360000D01*
X55710000Y-115620000D02*
X55710000Y-112880000D01*
X51970000Y-119360000D02*
X53460000Y-117870000D01*
X53460000Y-117870000D02*
X55240000Y-116090000D01*
X55240000Y-116090000D02*
X55710000Y-115620000D01*
X55710000Y-112880000D02*
X55710000Y-112830000D01*
X94490000Y-93410000D02*
X94490000Y-91200000D01*
X94490000Y-91200000D02*
X95330000Y-90360000D01*
X86110000Y-98850000D02*
X86110000Y-97460000D01*
X90160000Y-93410000D02*
X94490000Y-93410000D01*
X86110000Y-97460000D02*
X90160000Y-93410000D01*
D35*
X275820000Y-113050000D02*
X275820000Y-116690000D01*
X278030000Y-118900000D02*
X292340000Y-118900000D01*
X275820000Y-116690000D02*
X278030000Y-118900000D01*
X297340000Y-118900000D02*
X292340000Y-118900000D01*
X183380000Y-78500000D02*
X183380000Y-77960000D01*
X183380000Y-77960000D02*
X182190000Y-76280000D01*
X165620000Y-81230000D02*
X165620000Y-84660000D01*
X167580000Y-79270000D02*
X165620000Y-81230000D01*
X170320000Y-79270000D02*
X167580000Y-79270000D01*
X173180000Y-76280000D02*
X170320000Y-79270000D01*
X182190000Y-76280000D02*
X173180000Y-76280000D01*
X183380000Y-78500000D02*
X183050000Y-78500000D01*
X186000000Y-82900000D02*
X186000000Y-81120000D01*
X186000000Y-81120000D02*
X183380000Y-78500000D01*
X157300000Y-92100000D02*
X157300000Y-87190000D01*
X159830000Y-84660000D02*
X165620000Y-84660000D01*
X157300000Y-87190000D02*
X159830000Y-84660000D01*
X199300000Y-105300000D02*
X198100000Y-105300000D01*
X198100000Y-105300000D02*
X196800000Y-104000000D01*
X196800000Y-104000000D02*
X196800000Y-94600000D01*
X196800000Y-94600000D02*
X192800000Y-90600000D01*
X192800000Y-90600000D02*
X189500000Y-90600000D01*
X189500000Y-90600000D02*
X186000000Y-87300000D01*
X186000000Y-87300000D02*
X186000000Y-82900000D01*
X153500000Y-94900000D02*
X153500000Y-95860000D01*
X153500000Y-95860000D02*
X150120000Y-99240000D01*
X204100000Y-104100000D02*
X200500000Y-104100000D01*
X200500000Y-104100000D02*
X199300000Y-105300000D01*
X150120000Y-99240000D02*
X150560000Y-99240000D01*
X153500000Y-94900000D02*
X154300000Y-94900000D01*
X154300000Y-94900000D02*
X157300000Y-92100000D01*
X153500000Y-94900000D02*
X153260000Y-94900000D01*
X172500000Y-92800000D02*
X169900000Y-92800000D01*
X178300000Y-87000000D02*
X172500000Y-92800000D01*
X169900000Y-92800000D02*
X167700000Y-95000000D01*
X185700000Y-94100000D02*
X188000000Y-94100000D01*
X188000000Y-94100000D02*
X189400000Y-92700000D01*
X185100000Y-90800000D02*
X185100000Y-93500000D01*
X185100000Y-93500000D02*
X185700000Y-94100000D01*
X178300000Y-86100000D02*
X178300000Y-86300000D01*
X178300000Y-86300000D02*
X180800000Y-88800000D01*
X183100000Y-88800000D02*
X185100000Y-90800000D01*
X180800000Y-88800000D02*
X183100000Y-88800000D01*
X178300000Y-86100000D02*
X178300000Y-87000000D01*
X196100000Y-111100000D02*
X195400000Y-111100000D01*
X195400000Y-111100000D02*
X194600000Y-110300000D01*
X194600000Y-110300000D02*
X194600000Y-96000000D01*
X194600000Y-96000000D02*
X191300000Y-92700000D01*
X191300000Y-92700000D02*
X189400000Y-92700000D01*
X178300000Y-86100000D02*
X178100000Y-86100000D01*
X167700000Y-102500000D02*
X167700000Y-95000000D01*
X169900000Y-104700000D02*
X167700000Y-102500000D01*
X196100000Y-111100000D02*
X195900000Y-111100000D01*
X185300000Y-90600000D02*
X185100000Y-90800000D01*
X170120000Y-104700000D02*
X169900000Y-104700000D01*
X185100000Y-90800000D02*
X185100000Y-90000000D01*
X170320000Y-97900000D02*
X171200000Y-97900000D01*
X178350000Y-99450000D02*
X180620000Y-101720000D01*
X172750000Y-99450000D02*
X178350000Y-99450000D01*
X171200000Y-97900000D02*
X172750000Y-99450000D01*
X180620000Y-101720000D02*
X180620000Y-101780000D01*
X180620000Y-101780000D02*
X177500000Y-105300000D01*
X180620000Y-101720000D02*
X180620000Y-100780000D01*
X182900000Y-98500000D02*
X191500000Y-98500000D01*
X180620000Y-100780000D02*
X182900000Y-98500000D01*
X180620000Y-102420000D02*
X180620000Y-101720000D01*
X265020000Y-116290000D02*
X254440000Y-116290000D01*
X252300000Y-104360000D02*
X254510000Y-102150000D01*
X252300000Y-114150000D02*
X252300000Y-104360000D01*
X254440000Y-116290000D02*
X252300000Y-114150000D01*
X302340000Y-118900000D02*
X302340000Y-119830000D01*
X302340000Y-119830000D02*
X301300000Y-120870000D01*
X273040000Y-116290000D02*
X265020000Y-116290000D01*
X265020000Y-116290000D02*
X264930000Y-116290000D01*
X277620000Y-120870000D02*
X273040000Y-116290000D01*
X301300000Y-120870000D02*
X277620000Y-120870000D01*
X257770000Y-102060000D02*
X254600000Y-102060000D01*
X254600000Y-102060000D02*
X254510000Y-102150000D01*
X257770000Y-102060000D02*
X257770000Y-100790000D01*
X259480000Y-99080000D02*
X261190000Y-99080000D01*
X257770000Y-100790000D02*
X259480000Y-99080000D01*
X302340000Y-119060000D02*
X302340000Y-118900000D01*
X261860000Y-118900000D02*
X253280000Y-118900000D01*
X251260000Y-97780000D02*
X254510000Y-94530000D01*
X251260000Y-116880000D02*
X251260000Y-97780000D01*
X253280000Y-118900000D02*
X251260000Y-116880000D01*
X254510000Y-94530000D02*
X254510000Y-95250000D01*
X257770000Y-97060000D02*
X260670000Y-97060000D01*
X260670000Y-97060000D02*
X261190000Y-96540000D01*
X254510000Y-94530000D02*
X254510000Y-95530000D01*
X254510000Y-95530000D02*
X256040000Y-97060000D01*
X256040000Y-97060000D02*
X257770000Y-97060000D01*
X266860000Y-118900000D02*
X266300000Y-118900000D01*
X266860000Y-118900000D02*
X264860000Y-118900000D01*
X264860000Y-118900000D02*
X261860000Y-118900000D01*
X261700000Y-118900000D02*
X261700000Y-119700000D01*
X111190000Y-63090000D02*
X111790000Y-63090000D01*
X111790000Y-63090000D02*
X113500000Y-64800000D01*
X124590000Y-83220000D02*
X127170000Y-85800000D01*
X124590000Y-77010000D02*
X124590000Y-83220000D01*
X120880000Y-73300000D02*
X124590000Y-77010000D01*
X115850000Y-73300000D02*
X120880000Y-73300000D01*
X113500000Y-70950000D02*
X115850000Y-73300000D01*
X113500000Y-64800000D02*
X113500000Y-70950000D01*
X111190000Y-63090000D02*
X110480000Y-63090000D01*
X111190000Y-63090000D02*
X110540000Y-63090000D01*
X111190000Y-70690000D02*
X111530000Y-70690000D01*
X111530000Y-70690000D02*
X117090000Y-76250000D01*
X117090000Y-76250000D02*
X117090000Y-81530000D01*
X111190000Y-70690000D02*
X111190000Y-71130000D01*
X111190000Y-70690000D02*
X111920000Y-70690000D01*
X111190000Y-70690000D02*
X111345000Y-70690000D01*
X132750000Y-104300000D02*
X127100000Y-104300000D01*
X127100000Y-104300000D02*
X125900000Y-105500000D01*
X125900000Y-105500000D02*
X125900000Y-111400000D01*
X125900000Y-111400000D02*
X127700000Y-112700000D01*
X148530000Y-101780000D02*
X150120000Y-101780000D01*
X146550000Y-99800000D02*
X148530000Y-101780000D01*
X146550000Y-96550000D02*
X146550000Y-99800000D01*
X145250000Y-95250000D02*
X146550000Y-96550000D01*
X135150000Y-95250000D02*
X145250000Y-95250000D01*
X133300000Y-97100000D02*
X135150000Y-95250000D01*
X133300000Y-103750000D02*
X133300000Y-97100000D01*
X132750000Y-104300000D02*
X133300000Y-103750000D01*
X153500000Y-99900000D02*
X152000000Y-99900000D01*
X152000000Y-99900000D02*
X150120000Y-101780000D01*
X157300000Y-99720000D02*
X153520000Y-99920000D01*
X153520000Y-99920000D02*
X153500000Y-99900000D01*
X153500000Y-99900000D02*
X153500000Y-100500000D01*
X150400000Y-101500000D02*
X150120000Y-101780000D01*
X173010000Y-84400000D02*
X169200000Y-84400000D01*
X169200000Y-84400000D02*
X168900000Y-84700000D01*
X159100000Y-92050000D02*
X159100000Y-88630000D01*
X167270000Y-86330000D02*
X168900000Y-84700000D01*
X161400000Y-86330000D02*
X167270000Y-86330000D01*
X159100000Y-88630000D02*
X161400000Y-86330000D01*
X181180000Y-84400000D02*
X183380000Y-86100000D01*
X173010000Y-84400000D02*
X181180000Y-84400000D01*
X204100000Y-100300000D02*
X203900000Y-100300000D01*
X203900000Y-100300000D02*
X202300000Y-101900000D01*
X202300000Y-101900000D02*
X199100000Y-101900000D01*
X138900000Y-96700000D02*
X136400000Y-96700000D01*
X136400000Y-96700000D02*
X135500000Y-97600000D01*
X199100000Y-101900000D02*
X198700000Y-101900000D01*
X198700000Y-101900000D02*
X197700000Y-100900000D01*
X189800000Y-89600000D02*
X188200000Y-87900000D01*
X193800000Y-89600000D02*
X189800000Y-89600000D01*
X197700000Y-93400000D02*
X193800000Y-89600000D01*
X197700000Y-100900000D02*
X197700000Y-93400000D01*
X168900000Y-84700000D02*
X168880000Y-84700000D01*
X146500000Y-105900000D02*
X151100000Y-105900000D01*
X159100000Y-100100000D02*
X159100000Y-92050000D01*
X157300000Y-101700000D02*
X159100000Y-100100000D01*
X153500000Y-101700000D02*
X157300000Y-101700000D01*
X151900000Y-103300000D02*
X153500000Y-101700000D01*
X151900000Y-105100000D02*
X151900000Y-103300000D01*
X151100000Y-105900000D02*
X151900000Y-105100000D01*
X143500000Y-96700000D02*
X142500000Y-96700000D01*
X144700000Y-97900000D02*
X143500000Y-96700000D01*
X144700000Y-104100000D02*
X144700000Y-97900000D01*
X146500000Y-105900000D02*
X144700000Y-104100000D01*
X135900000Y-98000000D02*
X135500000Y-97600000D01*
X139500000Y-96700000D02*
X142500000Y-96700000D01*
X149900000Y-108300000D02*
X153300000Y-108300000D01*
X146900000Y-118700000D02*
X145700000Y-117500000D01*
X145700000Y-117500000D02*
X145700000Y-112500000D01*
X145700000Y-112500000D02*
X149900000Y-108300000D01*
X147900000Y-118700000D02*
X146900000Y-118700000D01*
X160900000Y-99700000D02*
X162700000Y-97900000D01*
X160900000Y-101700000D02*
X160900000Y-99700000D01*
X158900000Y-103700000D02*
X160900000Y-101700000D01*
X157900000Y-103700000D02*
X158900000Y-103700000D01*
X153300000Y-108300000D02*
X157900000Y-103700000D01*
X147900000Y-118700000D02*
X147100000Y-118700000D01*
X164280000Y-118900000D02*
X164280000Y-119920000D01*
X164280000Y-119920000D02*
X163500000Y-120700000D01*
X150500000Y-120700000D02*
X147900000Y-118700000D01*
X163500000Y-120700000D02*
X150500000Y-120700000D01*
X179100000Y-119100000D02*
X177500000Y-120700000D01*
X177500000Y-120700000D02*
X177500000Y-120900000D01*
X177500000Y-120900000D02*
X166280000Y-120900000D01*
X166280000Y-120900000D02*
X164280000Y-118900000D01*
X179100000Y-114100000D02*
X187100000Y-114100000D01*
X191680000Y-109520000D02*
X191680000Y-105300000D01*
X187100000Y-114100000D02*
X191680000Y-109520000D01*
X179100000Y-114100000D02*
X179100000Y-113300000D01*
X169280000Y-118900000D02*
X175500000Y-118900000D01*
X179100000Y-115900000D02*
X179100000Y-114100000D01*
X178300000Y-116700000D02*
X179100000Y-115900000D01*
X177700000Y-116700000D02*
X178300000Y-116700000D01*
X175500000Y-118900000D02*
X177700000Y-116700000D01*
X169300000Y-118920000D02*
X169280000Y-118900000D01*
X162700000Y-94700000D02*
X164700000Y-96700000D01*
X164280000Y-108920000D02*
X164280000Y-113900000D01*
X164700000Y-108500000D02*
X164280000Y-108920000D01*
X164700000Y-96700000D02*
X164700000Y-108500000D01*
X175300000Y-111500000D02*
X166680000Y-111500000D01*
X166680000Y-111500000D02*
X164280000Y-113900000D01*
X153700000Y-112100000D02*
X156100000Y-112100000D01*
X156100000Y-112100000D02*
X156900000Y-111300000D01*
X156900000Y-111300000D02*
X161680000Y-111300000D01*
X161680000Y-111300000D02*
X164280000Y-113900000D01*
X163100000Y-94700000D02*
X162700000Y-94700000D01*
X164280000Y-113900000D02*
X164500000Y-113900000D01*
X162500000Y-104700000D02*
X162500000Y-105300000D01*
X162500000Y-105300000D02*
X161300000Y-106500000D01*
X161300000Y-106500000D02*
X158500000Y-106500000D01*
X153700000Y-117100000D02*
X153700000Y-116500000D01*
X153700000Y-116500000D02*
X151500000Y-114300000D01*
X151500000Y-114300000D02*
X151500000Y-111300000D01*
X151500000Y-111300000D02*
X152700000Y-110100000D01*
X152700000Y-110100000D02*
X154900000Y-110100000D01*
X154900000Y-110100000D02*
X158500000Y-106500000D01*
X159280000Y-113900000D02*
X159280000Y-113920000D01*
X159280000Y-113920000D02*
X156100000Y-117100000D01*
X156100000Y-117100000D02*
X153700000Y-117100000D01*
X159280000Y-113900000D02*
X158700000Y-113900000D01*
X202460000Y-118900000D02*
X191300000Y-118900000D01*
X191300000Y-118900000D02*
X190900000Y-119300000D01*
X185000000Y-85610000D02*
X185000000Y-85200000D01*
X185000000Y-85200000D02*
X178300000Y-78500000D01*
X192300000Y-91700000D02*
X189300000Y-91700000D01*
X198300000Y-112500000D02*
X198300000Y-110300000D01*
X197700000Y-113100000D02*
X198300000Y-112500000D01*
X195100000Y-113100000D02*
X197700000Y-113100000D01*
X193248908Y-111248908D02*
X195100000Y-113100000D01*
X193248908Y-111248908D02*
X193233188Y-111248908D01*
X198300000Y-110300000D02*
X197000000Y-109000000D01*
X197000000Y-109000000D02*
X196100000Y-109000000D01*
X196100000Y-109000000D02*
X195700000Y-108600000D01*
X195700000Y-108600000D02*
X195700000Y-95100000D01*
X195700000Y-95100000D02*
X192300000Y-91700000D01*
X189200000Y-91600000D02*
X185000000Y-87800000D01*
X185000000Y-87800000D02*
X185000000Y-85610000D01*
X189300000Y-91700000D02*
X189200000Y-91600000D01*
X183160000Y-101720000D02*
X183160000Y-104240000D01*
X183160000Y-104240000D02*
X182500000Y-105300000D01*
X182500000Y-105300000D02*
X181900000Y-105300000D01*
X181900000Y-105300000D02*
X180100000Y-107300000D01*
X173700000Y-101300000D02*
X170320000Y-101300000D01*
X174700000Y-102300000D02*
X173700000Y-101300000D01*
X174700000Y-104300000D02*
X174700000Y-102300000D01*
X177100000Y-107300000D02*
X174700000Y-104300000D01*
X180100000Y-107300000D02*
X177100000Y-107300000D01*
X183160000Y-101720000D02*
X183160000Y-100440000D01*
X193500000Y-110900000D02*
X193233188Y-111248908D01*
X193233188Y-111248908D02*
X190900000Y-114300000D01*
X193500000Y-101500000D02*
X193500000Y-110900000D01*
X192100000Y-100100000D02*
X193500000Y-101500000D01*
X183500000Y-100100000D02*
X192100000Y-100100000D01*
X183160000Y-100440000D02*
X183500000Y-100100000D01*
X182500000Y-105300000D02*
X182900000Y-105300000D01*
X209100000Y-104100000D02*
X209100000Y-104700000D01*
X209100000Y-104700000D02*
X209600000Y-105600000D01*
X209600000Y-105600000D02*
X209600000Y-116440000D01*
X209600000Y-116440000D02*
X212460000Y-118900000D01*
X212860000Y-119300000D02*
X212460000Y-118900000D01*
X202460000Y-113900000D02*
X199500000Y-113900000D01*
X199500000Y-113900000D02*
X196100000Y-116100000D01*
X212460000Y-113900000D02*
X211500000Y-113900000D01*
X211500000Y-113900000D02*
X210500000Y-112900000D01*
X210500000Y-101700000D02*
X209100000Y-100300000D01*
X210500000Y-112900000D02*
X210500000Y-101700000D01*
X184075000Y-97475000D02*
X173095000Y-97475000D01*
X173095000Y-97475000D02*
X170320000Y-94700000D01*
X180100000Y-90800000D02*
X180100000Y-91040000D01*
X180100000Y-91040000D02*
X183160000Y-94100000D01*
X183160000Y-94100000D02*
X183160000Y-96560000D01*
X183160000Y-96560000D02*
X184075000Y-97475000D01*
X184075000Y-97475000D02*
X184100000Y-97500000D01*
X190800000Y-96000000D02*
X190800000Y-96200000D01*
X190800000Y-96000000D02*
X191500000Y-95300000D01*
X190800000Y-96200000D02*
X189500000Y-97500000D01*
X189500000Y-97500000D02*
X184100000Y-97500000D01*
X286930000Y-100130000D02*
X285860000Y-100130000D01*
X285860000Y-100130000D02*
X285620000Y-99890000D01*
X278540000Y-99890000D02*
X276130000Y-97480000D01*
X285620000Y-99890000D02*
X278540000Y-99890000D01*
X268810000Y-101620000D02*
X269650000Y-101620000D01*
X272630000Y-98640000D02*
X272630000Y-97560000D01*
X269650000Y-101620000D02*
X272630000Y-98640000D01*
X276360000Y-97480000D02*
X276130000Y-97480000D01*
X276130000Y-97480000D02*
X272740000Y-97450000D01*
X272740000Y-97450000D02*
X272630000Y-97560000D01*
X282640000Y-94770000D02*
X282640000Y-92340000D01*
X297180000Y-83020000D02*
X298130000Y-83020000D01*
X290400000Y-89800000D02*
X297180000Y-83020000D01*
X285180000Y-89800000D02*
X290400000Y-89800000D01*
X282640000Y-92340000D02*
X285180000Y-89800000D01*
X282640000Y-94770000D02*
X283900000Y-94770000D01*
X285120000Y-95990000D02*
X285120000Y-99390000D01*
X283900000Y-94770000D02*
X285120000Y-95990000D01*
X285120000Y-99390000D02*
X285860000Y-100130000D01*
X276130000Y-102480000D02*
X279650000Y-102480000D01*
X293710000Y-105270000D02*
X302340000Y-113900000D01*
X282440000Y-105270000D02*
X293710000Y-105270000D01*
X279650000Y-102480000D02*
X282440000Y-105270000D01*
X275820000Y-105430000D02*
X275820000Y-102790000D01*
X275820000Y-102790000D02*
X276130000Y-102480000D01*
X276130000Y-102480000D02*
X272710000Y-102480000D01*
X272710000Y-102480000D02*
X272630000Y-102560000D01*
X275820000Y-102790000D02*
X276130000Y-102480000D01*
X302340000Y-113900000D02*
X302340000Y-112800000D01*
X302340000Y-113900000D02*
X301700000Y-113900000D01*
X268810000Y-96540000D02*
X269030000Y-96540000D01*
X269030000Y-96540000D02*
X272330000Y-93240000D01*
X272330000Y-93240000D02*
X278260000Y-93240000D01*
X278260000Y-93240000D02*
X279520000Y-94500000D01*
X279520000Y-94500000D02*
X279520000Y-97520000D01*
X282900000Y-97600000D02*
X279600000Y-97600000D01*
X279600000Y-97600000D02*
X279520000Y-97520000D01*
X216260000Y-92470000D02*
X216260000Y-88460000D01*
X216980000Y-87740000D02*
X216980000Y-87810000D01*
X216260000Y-88460000D02*
X216980000Y-87740000D01*
X222880000Y-96330000D02*
X222880000Y-95400000D01*
X219950000Y-92470000D02*
X216260000Y-92470000D01*
X222880000Y-95400000D02*
X219950000Y-92470000D01*
X231830000Y-79350000D02*
X231830000Y-81710000D01*
X231830000Y-81710000D02*
X235060000Y-84940000D01*
X235060000Y-84940000D02*
X249430000Y-84940000D01*
X249430000Y-84940000D02*
X252380000Y-87890000D01*
X252380000Y-87890000D02*
X252380000Y-89440000D01*
X252380000Y-89440000D02*
X251770000Y-90050000D01*
X251770000Y-90050000D02*
X247660000Y-90050000D01*
X247660000Y-90050000D02*
X245620000Y-88010000D01*
X245620000Y-88010000D02*
X228220000Y-88010000D01*
X228220000Y-88010000D02*
X227080000Y-86870000D01*
X227080000Y-86870000D02*
X217920000Y-86870000D01*
X217920000Y-86870000D02*
X216980000Y-87810000D01*
X216980000Y-87810000D02*
X216770000Y-88020000D01*
X222880000Y-96330000D02*
X222880000Y-96010000D01*
X226100000Y-95300000D02*
X223720000Y-95300000D01*
X223720000Y-95300000D02*
X222880000Y-96330000D01*
X226960000Y-96160000D02*
X226100000Y-95300000D01*
X229080000Y-96160000D02*
X226960000Y-96160000D01*
X226100000Y-90300000D02*
X224300000Y-90300000D01*
X219540000Y-88740000D02*
X219520000Y-88720000D01*
X222880000Y-88710000D02*
X219540000Y-88740000D01*
X226100000Y-90640000D02*
X229080000Y-93620000D01*
X226100000Y-90300000D02*
X226100000Y-90640000D01*
X224300000Y-90300000D02*
X222880000Y-88710000D01*
X249340000Y-96480000D02*
X244500000Y-101320000D01*
X249340000Y-92060000D02*
X249340000Y-96480000D01*
X249920000Y-91480000D02*
X249340000Y-92060000D01*
X252990000Y-91480000D02*
X249920000Y-91480000D01*
X253330000Y-91140000D02*
X252990000Y-91480000D01*
X253330000Y-90500000D02*
X253330000Y-91140000D01*
X253330000Y-90500000D02*
X253330000Y-88070000D01*
X244500000Y-101320000D02*
X244500000Y-101280000D01*
X254760000Y-86640000D02*
X275260000Y-86640000D01*
X253330000Y-88070000D02*
X254760000Y-86640000D01*
X253330000Y-90630000D02*
X253330000Y-90500000D01*
X279010000Y-84350000D02*
X279010000Y-80730000D01*
X276720000Y-86640000D02*
X279010000Y-84350000D01*
X274890000Y-86640000D02*
X275260000Y-86640000D01*
X275260000Y-86640000D02*
X276720000Y-86640000D01*
X272300000Y-89230000D02*
X274890000Y-86640000D01*
X272300000Y-91550000D02*
X272300000Y-89230000D01*
X272150000Y-91550000D02*
X272300000Y-91550000D01*
X272300000Y-91550000D02*
X272520000Y-91550000D01*
X240300000Y-100300000D02*
X238300000Y-100300000D01*
X242520000Y-101320000D02*
X241500000Y-100300000D01*
X244500000Y-101320000D02*
X242520000Y-101320000D01*
X241500000Y-100300000D02*
X240300000Y-100300000D01*
X238300000Y-100300000D02*
X236700000Y-98700000D01*
X244500000Y-101320000D02*
X244500000Y-101200000D01*
X244500000Y-101320000D02*
X244500000Y-100900000D01*
X244500000Y-93700000D02*
X243300000Y-94900000D01*
X247800000Y-93770000D02*
X244680000Y-93880000D01*
X244680000Y-93880000D02*
X244500000Y-93700000D01*
X239240000Y-96160000D02*
X236700000Y-96160000D01*
X240100000Y-95300000D02*
X239240000Y-96160000D01*
X240300000Y-95300000D02*
X240100000Y-95300000D01*
X240700000Y-94900000D02*
X240300000Y-95300000D01*
X243300000Y-94900000D02*
X240700000Y-94900000D01*
D34*
X48500000Y-95520000D02*
X51910000Y-98930000D01*
X46100000Y-81040000D02*
X46100000Y-94800000D01*
X47120000Y-95520000D02*
X48500000Y-95520000D01*
X46100000Y-94800000D02*
X47120000Y-95520000D01*
X51780000Y-76090000D02*
X47920000Y-76090000D01*
X48340000Y-82980000D02*
X48340000Y-83910000D01*
X46100000Y-81040000D02*
X48340000Y-82980000D01*
X46440000Y-77570000D02*
X46100000Y-81040000D01*
X47920000Y-76090000D02*
X46440000Y-77570000D01*
X48290000Y-95310000D02*
X48500000Y-95520000D01*
X48400000Y-95420000D02*
X48500000Y-95520000D01*
X40830000Y-91360000D02*
X40830000Y-95450000D01*
X40830000Y-95450000D02*
X40900000Y-95520000D01*
X40960000Y-87450000D02*
X40960000Y-91230000D01*
X40960000Y-91230000D02*
X40830000Y-91360000D01*
X40960000Y-87450000D02*
X40960000Y-84130000D01*
X40960000Y-84130000D02*
X40740000Y-83910000D01*
X40800000Y-95420000D02*
X40900000Y-95520000D01*
X40900000Y-105680000D02*
X41090000Y-105680000D01*
X41090000Y-105680000D02*
X42780000Y-103990000D01*
X42780000Y-103990000D02*
X42780000Y-81979998D01*
X42780000Y-81979998D02*
X42890000Y-81869998D01*
X42890000Y-81869998D02*
X42890000Y-75900000D01*
X42890000Y-75900000D02*
X40740000Y-73750000D01*
X40740000Y-73750000D02*
X40740000Y-72020000D01*
X53260000Y-72640000D02*
X51560000Y-72640000D01*
X54870000Y-71030000D02*
X53260000Y-72640000D01*
X54870000Y-67830000D02*
X54870000Y-71030000D01*
X53590000Y-66550000D02*
X54870000Y-67830000D01*
X50410000Y-66550000D02*
X53590000Y-66550000D01*
X48510000Y-68450000D02*
X50410000Y-66550000D01*
X44310000Y-68450000D02*
X48510000Y-68450000D01*
X40740000Y-72020000D02*
X44310000Y-68450000D01*
X33700000Y-79800000D02*
X34690000Y-79800000D01*
X34690000Y-79800000D02*
X40740000Y-73750000D01*
D35*
X34140000Y-80240000D02*
X33700000Y-79800000D01*
D34*
X84670000Y-117500000D02*
X83100000Y-117500000D01*
X83100000Y-117500000D02*
X80810000Y-119790000D01*
D35*
X98290000Y-65830000D02*
X98290000Y-64770000D01*
X98290000Y-64770000D02*
X95890000Y-62370000D01*
X84730000Y-62370000D02*
X82260000Y-59900000D01*
X95890000Y-62370000D02*
X84730000Y-62370000D01*
X82260000Y-59900000D02*
X82260000Y-59320000D01*
X98290000Y-65830000D02*
X98710000Y-65830000D01*
X98710000Y-65830000D02*
X103570000Y-70690000D01*
X98290000Y-64530000D02*
X98290000Y-65830000D01*
X233140000Y-53340000D02*
X233140000Y-56720000D01*
X233140000Y-56720000D02*
X232180000Y-57680000D01*
X229330000Y-53340000D02*
X229330000Y-58670000D01*
X234520000Y-59550000D02*
X236490000Y-57580000D01*
X230210000Y-59550000D02*
X234520000Y-59550000D01*
X229330000Y-58670000D02*
X230210000Y-59550000D01*
X271240000Y-53340000D02*
X271240000Y-56470000D01*
X274510000Y-59740000D02*
X279290000Y-59740000D01*
X271240000Y-56470000D02*
X274510000Y-59740000D01*
X284090000Y-59660000D02*
X283660000Y-59660000D01*
X283660000Y-59660000D02*
X281740000Y-61580000D01*
X267430000Y-57770000D02*
X267430000Y-53340000D01*
X271240000Y-61580000D02*
X267430000Y-57770000D01*
X281740000Y-61580000D02*
X271240000Y-61580000D01*
X267430000Y-53340000D02*
X267430000Y-52760000D01*
X284420000Y-59330000D02*
X284090000Y-59660000D01*
X308720000Y-86720000D02*
X308720000Y-86490000D01*
X309880000Y-59180000D02*
X309880000Y-53340000D01*
X311480000Y-61170000D02*
X309880000Y-59180000D01*
X311480000Y-83460000D02*
X311480000Y-61170000D01*
X308720000Y-86490000D02*
X311480000Y-83460000D01*
X307890000Y-86720000D02*
X308720000Y-86720000D01*
X309880000Y-54740000D02*
X309880000Y-53340000D01*
X309880000Y-53340000D02*
X309880000Y-52620000D01*
X306070000Y-53340000D02*
X306070000Y-47650000D01*
X312460000Y-86440000D02*
X307920000Y-90980000D01*
X312460000Y-75630000D02*
X312460000Y-86440000D01*
X317790000Y-70300000D02*
X312460000Y-75630000D01*
X317790000Y-52030000D02*
X317790000Y-70300000D01*
X310830000Y-45070000D02*
X317790000Y-52030000D01*
X308650000Y-45070000D02*
X310830000Y-45070000D01*
X306070000Y-47650000D02*
X308650000Y-45070000D01*
X306070000Y-53340000D02*
X306070000Y-53880000D01*
X125770000Y-52530000D02*
X125770000Y-50710000D01*
X125770000Y-50710000D02*
X127670000Y-48810000D01*
X127670000Y-48810000D02*
X132990000Y-48810000D01*
X132990000Y-48810000D02*
X134620000Y-47180000D01*
X134620000Y-42180000D02*
X134620000Y-42960000D01*
X134620000Y-42960000D02*
X130820000Y-46760000D01*
X130820000Y-46760000D02*
X125350000Y-46760000D01*
X125770000Y-59590000D02*
X128050000Y-57310000D01*
X149630000Y-49950000D02*
X152400000Y-47180000D01*
X129350000Y-49950000D02*
X149630000Y-49950000D01*
X128050000Y-51250000D02*
X129350000Y-49950000D01*
X128050000Y-57310000D02*
X128050000Y-51250000D01*
X125770000Y-60130000D02*
X125770000Y-59590000D01*
X152400000Y-42180000D02*
X152130000Y-42180000D01*
X152130000Y-42180000D02*
X147730000Y-46580000D01*
X147730000Y-46580000D02*
X142950000Y-46580000D01*
X69320000Y-47590000D02*
X63910000Y-47590000D01*
X63910000Y-47590000D02*
X63500000Y-47180000D01*
X67120000Y-47590000D02*
X69320000Y-47590000D01*
X69320000Y-47590000D02*
X74710000Y-47590000D01*
X74710000Y-47590000D02*
X78710000Y-44390000D01*
X78710000Y-44390000D02*
X84240000Y-44390000D01*
X84240000Y-44390000D02*
X88430000Y-48580000D01*
X88430000Y-48580000D02*
X88430000Y-57610000D01*
X88430000Y-57610000D02*
X86250000Y-59790000D01*
X86250000Y-59790000D02*
X86250000Y-60510000D01*
X63500000Y-42180000D02*
X63330000Y-42180000D01*
X63330000Y-42180000D02*
X60970000Y-44540000D01*
X57550000Y-44540000D02*
X55490000Y-46600000D01*
X60970000Y-44540000D02*
X57550000Y-44540000D01*
X63500000Y-42180000D02*
X63500000Y-42680000D01*
X81280000Y-47180000D02*
X83790000Y-47180000D01*
X86250000Y-49640000D02*
X86250000Y-52190000D01*
X83790000Y-47180000D02*
X86250000Y-49640000D01*
X81280000Y-47180000D02*
X81280000Y-47220000D01*
X72220000Y-45880000D02*
X72280000Y-43050000D01*
X79410000Y-40310000D02*
X81280000Y-42180000D01*
X75020000Y-40310000D02*
X79410000Y-40310000D01*
X72280000Y-43050000D02*
X75020000Y-40310000D01*
X72220000Y-45880000D02*
X72440000Y-45880000D01*
X91330000Y-59790000D02*
X91330000Y-59020000D01*
X91330000Y-59020000D02*
X89650000Y-57340000D01*
X97620000Y-48620000D02*
X99060000Y-47180000D01*
X91550000Y-48620000D02*
X97620000Y-48620000D01*
X89650000Y-50520000D02*
X91550000Y-48620000D01*
X89650000Y-57340000D02*
X89650000Y-50520000D01*
X91330000Y-59790000D02*
X91330000Y-59250000D01*
X99060000Y-42180000D02*
X98580000Y-42180000D01*
X98580000Y-42180000D02*
X93990000Y-46770000D01*
X93990000Y-46770000D02*
X89800000Y-46770000D01*
X91330000Y-52190000D02*
X91330000Y-51840000D01*
X91330000Y-51840000D02*
X93160000Y-50010000D01*
X93160000Y-50010000D02*
X105280000Y-50010000D01*
X105280000Y-50010000D02*
X106340000Y-48950000D01*
X106340000Y-48950000D02*
X115070000Y-48950000D01*
X115070000Y-48950000D02*
X116840000Y-47180000D01*
X107860000Y-46630000D02*
X112390000Y-46630000D01*
X112390000Y-46630000D02*
X116840000Y-42180000D01*
D34*
X47950000Y-47830000D02*
X47950000Y-49250000D01*
X47950000Y-49250000D02*
X50860000Y-52160000D01*
X47950000Y-47830000D02*
X48950000Y-47830000D01*
X50940000Y-52400000D02*
X50860000Y-52160000D01*
X34480000Y-44310000D02*
X35800000Y-42200000D01*
X45900000Y-40600000D02*
X47950000Y-41830000D01*
X37400000Y-40600000D02*
X45900000Y-40600000D01*
X35800000Y-42200000D02*
X37400000Y-40600000D01*
X34420000Y-56100000D02*
X47200000Y-56100000D01*
X47200000Y-56100000D02*
X50860000Y-59760000D01*
X50860000Y-59760000D02*
X50940000Y-59800000D01*
X40700000Y-59760000D02*
X35840000Y-59760000D01*
X35840000Y-59760000D02*
X34420000Y-61180000D01*
D35*
X40700000Y-59760000D02*
X40950000Y-59760000D01*
D34*
X34900000Y-60700000D02*
X34420000Y-61180000D01*
D35*
X120080000Y-112700000D02*
X120080000Y-113760000D01*
X111500000Y-116780000D02*
X109380000Y-118900000D01*
X115530000Y-116780000D02*
X111500000Y-116780000D01*
X117130000Y-118380000D02*
X115530000Y-116780000D01*
X121340000Y-118380000D02*
X117130000Y-118380000D01*
X121770000Y-117950000D02*
X121340000Y-118380000D01*
X121770000Y-115450000D02*
X121770000Y-117950000D01*
X120080000Y-113760000D02*
X121770000Y-115450000D01*
X120180000Y-109400000D02*
X120180000Y-112600000D01*
X120180000Y-112600000D02*
X120080000Y-112700000D01*
X120280000Y-109500000D02*
X120180000Y-109400000D01*
X109380000Y-118900000D02*
X109380000Y-118820000D01*
X109380000Y-118900000D02*
X109380000Y-118300000D01*
X120080000Y-112200000D02*
X120230000Y-112350000D01*
X175535000Y-75335000D02*
X170645000Y-75335000D01*
X170645000Y-75335000D02*
X168900000Y-77080000D01*
X175535000Y-75335000D02*
X177100000Y-73770000D01*
X218850000Y-86000000D02*
X217160000Y-86000000D01*
X197500000Y-83900000D02*
X186860000Y-73770000D01*
X201630000Y-83900000D02*
X197500000Y-83900000D01*
X204560000Y-86830000D02*
X201630000Y-83900000D01*
X216330000Y-86830000D02*
X204560000Y-86830000D01*
X217160000Y-86000000D02*
X216330000Y-86830000D01*
X253780000Y-121100000D02*
X251100000Y-121100000D01*
X250130000Y-89120000D02*
X250130000Y-87130000D01*
X250250000Y-92570000D02*
X250240000Y-92560000D01*
X250240000Y-120240000D02*
X250250000Y-92570000D01*
X251100000Y-121100000D02*
X250240000Y-120240000D01*
X177100000Y-73770000D02*
X186860000Y-73770000D01*
X249000000Y-86000000D02*
X250130000Y-87130000D01*
X218450000Y-86000000D02*
X218850000Y-86000000D01*
X218850000Y-86000000D02*
X248080000Y-86000000D01*
X248080000Y-86000000D02*
X249000000Y-86000000D01*
X168900000Y-77080000D02*
X165660000Y-77080000D01*
X165660000Y-77080000D02*
X165620000Y-77040000D01*
X268860000Y-121100000D02*
X271860000Y-118900000D01*
X268860000Y-121100000D02*
X253780000Y-121100000D01*
X207460000Y-118900000D02*
X207460000Y-118460000D01*
X207460000Y-118460000D02*
X205100000Y-116100000D01*
X199720000Y-97900000D02*
X199120000Y-98500000D01*
X204500000Y-97900000D02*
X199720000Y-97900000D01*
X205900000Y-99300000D02*
X204500000Y-97900000D01*
X205900000Y-108300000D02*
X205900000Y-99300000D01*
X205100000Y-109100000D02*
X205900000Y-108300000D01*
X205100000Y-116100000D02*
X205100000Y-109100000D01*
X207460000Y-118900000D02*
X206700000Y-118900000D01*
X199120000Y-95300000D02*
X204100000Y-95300000D01*
X207300000Y-98500000D02*
X207300000Y-113740000D01*
X204100000Y-95300000D02*
X207300000Y-98500000D01*
X207300000Y-113740000D02*
X207460000Y-113900000D01*
X292340000Y-113900000D02*
X288890000Y-113900000D01*
X288890000Y-113900000D02*
X279520000Y-105140000D01*
X297340000Y-113900000D02*
X297340000Y-113060000D01*
X296700000Y-113260000D02*
X297340000Y-113900000D01*
X297340000Y-113900000D02*
X292340000Y-113900000D01*
X120690000Y-52530000D02*
X120690000Y-52990000D01*
X120690000Y-52990000D02*
X119020000Y-54660000D01*
X119020000Y-54660000D02*
X119020000Y-68360000D01*
X119020000Y-68360000D02*
X121350000Y-70690000D01*
X120690000Y-60130000D02*
X120690000Y-62430000D01*
X120690000Y-62430000D02*
X121350000Y-63090000D01*
X96410000Y-59790000D02*
X96790000Y-59790000D01*
X96790000Y-59790000D02*
X100200000Y-56380000D01*
X114720000Y-69140000D02*
X116270000Y-70690000D01*
X114720000Y-61860000D02*
X114720000Y-69140000D01*
X114780000Y-61800000D02*
X114720000Y-61860000D01*
X114780000Y-58960000D02*
X114780000Y-61800000D01*
X112200000Y-56380000D02*
X114780000Y-58960000D01*
X100200000Y-56380000D02*
X112200000Y-56380000D01*
X96410000Y-59790000D02*
X96410000Y-60340000D01*
X96410000Y-52190000D02*
X96410000Y-53830000D01*
X116270000Y-58270000D02*
X116270000Y-63090000D01*
X112710000Y-54710000D02*
X116270000Y-58270000D01*
X97290000Y-54710000D02*
X112710000Y-54710000D01*
X96410000Y-53830000D02*
X97290000Y-54710000D01*
D34*
X34480000Y-49390000D02*
X37930000Y-49390000D01*
X37930000Y-49390000D02*
X40700000Y-52160000D01*
D35*
X40700000Y-52160000D02*
X41220000Y-52160000D01*
X115900000Y-120100000D02*
X120200000Y-120100000D01*
X114700000Y-118900000D02*
X115900000Y-120100000D01*
X113745000Y-118900000D02*
X114700000Y-118900000D01*
X120050000Y-119950000D02*
X120200000Y-120100000D01*
X117030000Y-116550000D02*
X114380000Y-113900000D01*
X120180000Y-116900000D02*
X117030000Y-116550000D01*
X145040000Y-65710000D02*
X140870000Y-65710000D01*
X138410000Y-63250000D02*
X138410000Y-61920000D01*
X140870000Y-65710000D02*
X138410000Y-63250000D01*
X138410000Y-59420000D02*
X138410000Y-59180000D01*
X138410000Y-59180000D02*
X139500000Y-58090000D01*
X139500000Y-58090000D02*
X145040000Y-58090000D01*
X136150000Y-53870000D02*
X136150000Y-57160000D01*
X136150000Y-57160000D02*
X138410000Y-59420000D01*
X174600000Y-71690000D02*
X173840000Y-71690000D01*
X173840000Y-71690000D02*
X170740000Y-67560000D01*
X170740000Y-67560000D02*
X168290000Y-67560000D01*
X168290000Y-65060000D02*
X165840000Y-65060000D01*
X165840000Y-65060000D02*
X162460000Y-68440000D01*
X168290000Y-65060000D02*
X168890000Y-65060000D01*
X168890000Y-65060000D02*
X169880000Y-64070000D01*
X169880000Y-64070000D02*
X174600000Y-64070000D01*
X138690000Y-53870000D02*
X143890000Y-53870000D01*
X146630000Y-59040000D02*
X145040000Y-60630000D01*
X146630000Y-56610000D02*
X146630000Y-59040000D01*
X143890000Y-53870000D02*
X146630000Y-56610000D01*
X138690000Y-53870000D02*
X138690000Y-53190000D01*
X138690000Y-53190000D02*
X137190000Y-51690000D01*
X137190000Y-51690000D02*
X131690000Y-51690000D01*
X131690000Y-51690000D02*
X130850000Y-52530000D01*
X144060000Y-71860000D02*
X143330000Y-71860000D01*
X143330000Y-71860000D02*
X131600000Y-60130000D01*
X131600000Y-60130000D02*
X130850000Y-60130000D01*
X174600000Y-66610000D02*
X175470000Y-65480000D01*
X160900000Y-69420000D02*
X162460000Y-70980000D01*
X160900000Y-65980000D02*
X160900000Y-69420000D01*
X165730000Y-61150000D02*
X160900000Y-65980000D01*
X175300000Y-61150000D02*
X165730000Y-61150000D01*
X176210000Y-62060000D02*
X175300000Y-61150000D01*
X176210000Y-64740000D02*
X176210000Y-62060000D01*
X175470000Y-65480000D02*
X176210000Y-64740000D01*
X155870000Y-71860000D02*
X161580000Y-71860000D01*
X161580000Y-71860000D02*
X162460000Y-70980000D01*
X143810000Y-71860000D02*
X144060000Y-71860000D01*
X144060000Y-71860000D02*
X155870000Y-71860000D01*
X121930000Y-97110000D02*
X121930000Y-93530000D01*
X121930000Y-93530000D02*
X121960000Y-93500000D01*
X127800000Y-116900000D02*
X125700000Y-116900000D01*
X122210000Y-113410000D02*
X122210000Y-99890000D01*
X125700000Y-116900000D02*
X122210000Y-113410000D01*
X122210000Y-99890000D02*
X121930000Y-99610000D01*
X127700000Y-116800000D02*
X127800000Y-116900000D01*
X155780000Y-60390000D02*
X155780000Y-58150000D01*
X171490000Y-50710000D02*
X175490000Y-50710000D01*
X168500000Y-53700000D02*
X171490000Y-50710000D01*
X160230000Y-53700000D02*
X168500000Y-53700000D01*
X155780000Y-58150000D02*
X160230000Y-53700000D01*
X175490000Y-50710000D02*
X176380000Y-49820000D01*
X155780000Y-60390000D02*
X152900000Y-60390000D01*
X152900000Y-60390000D02*
X152660000Y-60630000D01*
X184820000Y-64460000D02*
X185210000Y-64460000D01*
X185210000Y-64460000D02*
X194040000Y-55630000D01*
X197730000Y-49880000D02*
X201530000Y-49880000D01*
X194040000Y-53570000D02*
X197730000Y-49880000D01*
X194040000Y-55630000D02*
X194040000Y-53570000D01*
X184820000Y-64460000D02*
X184700000Y-64460000D01*
X184700000Y-64460000D02*
X182220000Y-66610000D01*
X182200000Y-66830000D02*
X182080000Y-66950000D01*
X155830000Y-63740000D02*
X156510000Y-63740000D01*
X156510000Y-63740000D02*
X158080000Y-62170000D01*
X170680000Y-55280000D02*
X172330000Y-53630000D01*
X161850000Y-55280000D02*
X170680000Y-55280000D01*
X158080000Y-59050000D02*
X161850000Y-55280000D01*
X158080000Y-62170000D02*
X158080000Y-59050000D01*
X152660000Y-63170000D02*
X155260000Y-63170000D01*
X155260000Y-63170000D02*
X155830000Y-63740000D01*
X184850000Y-67980000D02*
X186240000Y-67980000D01*
X187900000Y-63920000D02*
X197480000Y-54340000D01*
X187900000Y-66320000D02*
X187900000Y-63920000D01*
X186240000Y-67980000D02*
X187900000Y-66320000D01*
X197480000Y-54340000D02*
X197480000Y-53690000D01*
X197480000Y-53690000D02*
X197480000Y-54090000D01*
X185610000Y-67980000D02*
X184850000Y-67980000D01*
X184850000Y-67980000D02*
X184850000Y-68230000D01*
X184850000Y-68230000D02*
X183930000Y-69150000D01*
X183930000Y-69150000D02*
X182220000Y-69150000D01*
X184850000Y-67980000D02*
X184850000Y-67900000D01*
X109380000Y-113900000D02*
X109380000Y-112590000D01*
X118760000Y-107720000D02*
X120280000Y-106200000D01*
X118760000Y-109000000D02*
X118760000Y-107720000D01*
X116090000Y-111670000D02*
X118760000Y-109000000D01*
X110300000Y-111670000D02*
X116090000Y-111670000D01*
X109380000Y-112590000D02*
X110300000Y-111670000D01*
X120280000Y-106200000D02*
X120280000Y-103380000D01*
X120280000Y-103380000D02*
X119900000Y-103000000D01*
X109380000Y-113900000D02*
X109380000Y-112820000D01*
X109380000Y-113900000D02*
X109380000Y-112970000D01*
X109380000Y-113900000D02*
X109380000Y-112900000D01*
X109380000Y-113900000D02*
X109380000Y-113100000D01*
X109380000Y-113900000D02*
X109380000Y-113500000D01*
X233200000Y-104400000D02*
X233900000Y-104400000D01*
X233900000Y-104400000D02*
X234900000Y-103400000D01*
X232900000Y-113900000D02*
X234900000Y-111900000D01*
X236420000Y-93900000D02*
X236700000Y-93620000D01*
X234900000Y-111900000D02*
X234900000Y-103400000D01*
X234900000Y-103400000D02*
X234900000Y-95420000D01*
X234900000Y-95420000D02*
X236700000Y-93620000D01*
X232860000Y-113900000D02*
X232900000Y-113900000D01*
X225580000Y-104400000D02*
X225580000Y-106220000D01*
X225580000Y-106220000D02*
X224700000Y-107100000D01*
X204074863Y-93124335D02*
X199124335Y-93124335D01*
X222300000Y-106700000D02*
X224300000Y-106700000D01*
X224300000Y-106700000D02*
X224700000Y-107100000D01*
X224700000Y-107100000D02*
X225200000Y-107600000D01*
X225200000Y-107600000D02*
X225200000Y-111240000D01*
X227860000Y-113900000D02*
X225200000Y-111240000D01*
X218200000Y-106800000D02*
X204074863Y-93124335D01*
X222300000Y-106700000D02*
X218200000Y-106800000D01*
X190760000Y-88400000D02*
X188460000Y-86100000D01*
X194400000Y-88400000D02*
X190760000Y-88400000D01*
X199124335Y-93124335D02*
X194400000Y-88400000D01*
X188460000Y-86100000D02*
X188460000Y-85740000D01*
X188460000Y-86100000D02*
X188700000Y-86100000D01*
X232860000Y-118900000D02*
X232860000Y-117640000D01*
X241000000Y-116500000D02*
X244900000Y-112600000D01*
X234000000Y-116500000D02*
X241000000Y-116500000D01*
X232860000Y-117640000D02*
X234000000Y-116500000D01*
X229880000Y-91080000D02*
X230700000Y-92300000D01*
X230700000Y-116340000D02*
X232860000Y-118900000D01*
X230700000Y-92300000D02*
X230700000Y-116340000D01*
X229080000Y-91080000D02*
X229880000Y-91080000D01*
X237860000Y-118900000D02*
X243580000Y-118900000D01*
X243580000Y-118900000D02*
X244900000Y-120220000D01*
X218800000Y-105700000D02*
X223600000Y-105700000D01*
X194000000Y-87500000D02*
X188460000Y-81960000D01*
X188460000Y-78500000D02*
X188460000Y-81960000D01*
X199753845Y-91246155D02*
X194970000Y-87490000D01*
X194970000Y-87490000D02*
X194000000Y-87500000D01*
X204253502Y-91246155D02*
X199753845Y-91246155D01*
X204253502Y-91246155D02*
X218800000Y-105700000D01*
X229700000Y-103900000D02*
X229700000Y-119700000D01*
X227900000Y-102100000D02*
X229700000Y-103900000D01*
X225100000Y-102100000D02*
X227900000Y-102100000D01*
X224000000Y-103200000D02*
X225100000Y-102100000D01*
X224000000Y-105300000D02*
X224000000Y-103200000D01*
X223600000Y-105700000D02*
X224000000Y-105300000D01*
X235700000Y-120900000D02*
X230900000Y-120900000D01*
X230900000Y-120900000D02*
X229700000Y-119700000D01*
X237700000Y-118900000D02*
X235700000Y-120900000D01*
X237860000Y-118900000D02*
X237700000Y-118900000D01*
X188500000Y-78500000D02*
X188460000Y-78500000D01*
X199510000Y-73945000D02*
X196260000Y-73945000D01*
X203685000Y-72745000D02*
X203260000Y-72745000D01*
X203260000Y-72745000D02*
X201685000Y-73945000D01*
X201685000Y-73945000D02*
X199510000Y-73945000D01*
X199240000Y-73675000D02*
X199510000Y-73945000D01*
X208475000Y-77145000D02*
X208475000Y-77110000D01*
X208475000Y-77110000D02*
X206860000Y-75295000D01*
X206860000Y-75295000D02*
X203160000Y-75295000D01*
X203160000Y-75295000D02*
X202165002Y-75864998D01*
X202165002Y-75864998D02*
X194284998Y-75864998D01*
X194284998Y-75864998D02*
X192985000Y-74240000D01*
X196260000Y-66325000D02*
X196260000Y-67795000D01*
X192985000Y-71070000D02*
X192985000Y-74240000D01*
X196260000Y-67795000D02*
X192985000Y-71070000D01*
D34*
X68780000Y-116430000D02*
X68780000Y-118000000D01*
X56670000Y-109820000D02*
X51740000Y-109820000D01*
X58330000Y-111480000D02*
X56670000Y-109820000D01*
X58330000Y-115900000D02*
X58330000Y-111480000D01*
X61080000Y-118650000D02*
X58330000Y-115900000D01*
X68130000Y-118650000D02*
X61080000Y-118650000D01*
X68780000Y-118000000D02*
X68130000Y-118650000D01*
X59440000Y-104780000D02*
X59440000Y-105190000D01*
X59440000Y-105190000D02*
X58170000Y-106460000D01*
X58170000Y-106460000D02*
X56160000Y-106460000D01*
X51740000Y-109820000D02*
X51740000Y-108140000D01*
X53410000Y-106470000D02*
X56160000Y-106460000D01*
X51740000Y-108140000D02*
X53410000Y-106470000D01*
X51970000Y-112820000D02*
X51970000Y-110050000D01*
X51970000Y-110050000D02*
X51740000Y-109820000D01*
D35*
X69460000Y-122350000D02*
X69490000Y-122350000D01*
X70490000Y-121350000D02*
X93920000Y-121350000D01*
X69490000Y-122350000D02*
X70490000Y-121350000D01*
X58170000Y-122350000D02*
X69460000Y-122350000D01*
X39340000Y-122350000D02*
X58170000Y-122350000D01*
X58170000Y-122350000D02*
X59200000Y-122350000D01*
X32710000Y-110890000D02*
X37830000Y-116010000D01*
X37830000Y-116010000D02*
X37830000Y-120840000D01*
X37830000Y-120840000D02*
X39340000Y-122350000D01*
X32490000Y-110890000D02*
X32710000Y-110890000D01*
X93920000Y-121350000D02*
X97400000Y-117870000D01*
X97400000Y-113000000D02*
X97400000Y-117870000D01*
X104855000Y-108740000D02*
X101660000Y-108740000D01*
X101660000Y-108740000D02*
X97400000Y-113000000D01*
X103806989Y-109473011D02*
X104380000Y-108900000D01*
X104380000Y-108300000D02*
X103980000Y-108300000D01*
X104380000Y-108300000D02*
X104380000Y-108900000D01*
X70370000Y-123330000D02*
X70370000Y-123260000D01*
X71210000Y-122250000D02*
X94560000Y-122250000D01*
X70370000Y-123260000D02*
X71210000Y-122250000D01*
X70370000Y-123330000D02*
X63010000Y-123330000D01*
X63010000Y-123330000D02*
X62980000Y-123300000D01*
X108400000Y-108740000D02*
X107750000Y-109390000D01*
X107750000Y-109390000D02*
X107750000Y-109460000D01*
X107750000Y-109460000D02*
X106210000Y-111000000D01*
X106210000Y-111000000D02*
X101100000Y-111000000D01*
X98400000Y-113700000D02*
X98400000Y-118580000D01*
X101100000Y-111000000D02*
X98400000Y-113700000D01*
X113745000Y-108740000D02*
X108400000Y-108740000D01*
X94560000Y-122250000D02*
X98400000Y-118580000D01*
X37580000Y-123300000D02*
X62980000Y-123300000D01*
X28900000Y-110870000D02*
X28900000Y-113020000D01*
X36580000Y-122300000D02*
X37580000Y-123300000D01*
X37580000Y-123300000D02*
X37610000Y-123330000D01*
X36580000Y-116970000D02*
X36580000Y-122300000D01*
X33190000Y-113580000D02*
X36580000Y-116970000D01*
X29460000Y-113580000D02*
X33190000Y-113580000D01*
X28900000Y-113020000D02*
X29460000Y-113580000D01*
X114380000Y-108900000D02*
X114100000Y-108900000D01*
X114380000Y-108900000D02*
X114060000Y-108900000D01*
X114380000Y-108900000D02*
X114380000Y-109180000D01*
X114380000Y-108900000D02*
X113580000Y-108900000D01*
X314260000Y-89740000D02*
X314260000Y-92000000D01*
X305750000Y-92620000D02*
X305750000Y-83020000D01*
X306930000Y-93800000D02*
X305750000Y-92620000D01*
X312460000Y-93800000D02*
X306930000Y-93800000D01*
X314260000Y-92000000D02*
X312460000Y-93800000D01*
X305750000Y-83020000D02*
X305460000Y-83020000D01*
X289560000Y-47180000D02*
X292890000Y-47180000D01*
X310530000Y-81050000D02*
X308630000Y-82950000D01*
X310530000Y-64820000D02*
X310530000Y-81050000D01*
X292890000Y-47180000D02*
X310530000Y-64820000D01*
X308630000Y-82950000D02*
X305820000Y-82950000D01*
X305820000Y-82950000D02*
X305750000Y-83020000D01*
X311480000Y-100200000D02*
X311480000Y-100210000D01*
X298000000Y-86720000D02*
X311480000Y-100200000D01*
X315280000Y-107010000D02*
X318090000Y-109820000D01*
X315280000Y-104010000D02*
X315280000Y-107010000D01*
X311480000Y-100210000D02*
X315280000Y-104010000D01*
X298000000Y-86720000D02*
X297730000Y-86720000D01*
X297730000Y-86720000D02*
X295500000Y-86720000D01*
X290170000Y-92050000D02*
X287390000Y-92050000D01*
X295500000Y-86720000D02*
X290170000Y-92050000D01*
X287390000Y-92050000D02*
X286930000Y-92510000D01*
X286930000Y-95050000D02*
X286930000Y-92510000D01*
X305500000Y-102380000D02*
X305500000Y-102460000D01*
X305500000Y-102380000D02*
X305500000Y-97460000D01*
X305500000Y-97460000D02*
X299350000Y-91310000D01*
X298090000Y-91310000D02*
X299350000Y-91310000D01*
X310490000Y-107450000D02*
X310490000Y-109820000D01*
X305500000Y-102460000D02*
X310490000Y-107450000D01*
X298090000Y-91310000D02*
X297760000Y-90980000D01*
X297760000Y-90980000D02*
X296080000Y-90980000D01*
X296080000Y-90980000D02*
X294550000Y-92510000D01*
X294550000Y-95050000D02*
X294550000Y-92510000D01*
X251510000Y-77060000D02*
X251510000Y-78400000D01*
X236320000Y-77400000D02*
X239450000Y-74270000D01*
X236320000Y-81750000D02*
X236320000Y-77400000D01*
X237380000Y-82810000D02*
X236320000Y-81750000D01*
X247100000Y-82810000D02*
X237380000Y-82810000D01*
X251510000Y-78400000D02*
X247100000Y-82810000D01*
X251510000Y-76210000D02*
X251510000Y-77060000D01*
X239450000Y-71730000D02*
X239450000Y-74270000D01*
X236490000Y-67740000D02*
X236490000Y-68770000D01*
X236490000Y-68770000D02*
X239450000Y-71730000D01*
X239450000Y-74270000D02*
X239450000Y-73580000D01*
X239450000Y-73580000D02*
X239560000Y-73690000D01*
X299300000Y-70500000D02*
X299030000Y-70500000D01*
X299030000Y-70500000D02*
X296720000Y-72810000D01*
X296720000Y-72810000D02*
X291310000Y-72810000D01*
X291310000Y-72810000D02*
X288320000Y-69820000D01*
X288320000Y-69820000D02*
X284090000Y-69820000D01*
X284090000Y-69820000D02*
X284090000Y-70570000D01*
X284090000Y-70570000D02*
X286630000Y-73110000D01*
X286630000Y-73110000D02*
X286630000Y-75650000D01*
X279290000Y-69900000D02*
X279290000Y-68340000D01*
X288980000Y-67780000D02*
X291700000Y-70500000D01*
X279850000Y-67780000D02*
X288980000Y-67780000D01*
X279290000Y-68340000D02*
X279850000Y-67780000D01*
X279290000Y-69900000D02*
X279290000Y-72830000D01*
X279290000Y-72830000D02*
X279010000Y-73110000D01*
X279010000Y-73110000D02*
X279010000Y-75650000D01*
X259110000Y-77060000D02*
X259110000Y-77230000D01*
X259110000Y-77230000D02*
X255430000Y-80910000D01*
X233800000Y-76240000D02*
X231830000Y-74270000D01*
X233800000Y-81800000D02*
X233800000Y-76240000D01*
X235760000Y-83760000D02*
X233800000Y-81800000D01*
X247830000Y-83760000D02*
X235760000Y-83760000D01*
X250680000Y-80910000D02*
X247830000Y-83760000D01*
X255430000Y-80910000D02*
X250680000Y-80910000D01*
X232180000Y-67840000D02*
X232850000Y-67840000D01*
X231830000Y-71730000D02*
X231830000Y-74270000D01*
X232180000Y-67840000D02*
X232180000Y-71380000D01*
X232180000Y-71380000D02*
X231830000Y-71730000D01*
X232410000Y-71150000D02*
X231830000Y-71730000D01*
X231520000Y-71420000D02*
X231830000Y-71730000D01*
X227545000Y-45375000D02*
X234585000Y-45375000D01*
X236420000Y-47210000D02*
X251750000Y-47210000D01*
X234585000Y-45375000D02*
X236420000Y-47210000D01*
X251747521Y-47207521D02*
X251750000Y-47210000D01*
X272300000Y-83930000D02*
X271800000Y-83930000D01*
X271800000Y-83930000D02*
X261740000Y-73870000D01*
X228440000Y-64150000D02*
X228270000Y-63980000D01*
X230560000Y-64150000D02*
X228440000Y-64150000D01*
X231230000Y-64820000D02*
X230560000Y-64150000D01*
X238450000Y-64820000D02*
X231230000Y-64820000D01*
X242410000Y-68780000D02*
X238450000Y-64820000D01*
X242410000Y-71080000D02*
X242410000Y-68780000D01*
X243690000Y-72360000D02*
X242410000Y-71080000D01*
X249330000Y-72360000D02*
X243690000Y-72360000D01*
X250840000Y-73870000D02*
X249330000Y-72360000D01*
X261740000Y-73870000D02*
X250840000Y-73870000D01*
X222690000Y-68060000D02*
X222690000Y-66960000D01*
X225670000Y-63980000D02*
X228270000Y-63980000D01*
X222690000Y-66960000D02*
X225670000Y-63980000D01*
X226760000Y-71420000D02*
X223780000Y-71420000D01*
X223780000Y-71420000D02*
X222690000Y-70330000D01*
X222690000Y-70330000D02*
X222690000Y-68060000D01*
X222690000Y-68060000D02*
X222690000Y-50230000D01*
X222690000Y-50230000D02*
X227545000Y-45375000D01*
X227545000Y-45375000D02*
X227580000Y-45340000D01*
X226040000Y-71420000D02*
X226760000Y-71420000D01*
X227010000Y-71670000D02*
X226760000Y-71420000D01*
X275540000Y-83910000D02*
X272320000Y-83910000D01*
X272320000Y-83910000D02*
X272300000Y-83930000D01*
X218310000Y-50710000D02*
X214910000Y-47310000D01*
X218310000Y-57530000D02*
X218310000Y-50710000D01*
X217320000Y-58520000D02*
X218310000Y-57530000D01*
X217320000Y-73960000D02*
X217320000Y-58520000D01*
X217320000Y-73960000D02*
X217320000Y-73260000D01*
X216260000Y-84850000D02*
X216350000Y-84850000D01*
X216350000Y-84850000D02*
X217320000Y-83880000D01*
X217320000Y-73260000D02*
X219160000Y-71420000D01*
X217320000Y-83880000D02*
X217320000Y-73960000D01*
X216070000Y-47310000D02*
X214910000Y-47310000D01*
X216260000Y-84850000D02*
X216260000Y-84845000D01*
X219160000Y-71420000D02*
X219135000Y-71420000D01*
X219160000Y-71420000D02*
X218635000Y-71420000D01*
X219980000Y-83600000D02*
X217410000Y-83575000D01*
X217410000Y-83575000D02*
X216260000Y-84850000D01*
X219050000Y-71530000D02*
X219160000Y-71420000D01*
X215960000Y-48360000D02*
X214910000Y-47310000D01*
X214120000Y-76810000D02*
X211350000Y-76810000D01*
X211350000Y-76810000D02*
X211015000Y-77145000D01*
D34*
X94490000Y-101030000D02*
X94490000Y-102270000D01*
X81030000Y-102100000D02*
X81030000Y-98850000D01*
X82980000Y-104050000D02*
X81030000Y-102100000D01*
X92710000Y-104050000D02*
X82980000Y-104050000D01*
X94490000Y-102270000D02*
X92710000Y-104050000D01*
X73150000Y-92310000D02*
X73150000Y-89230000D01*
X73150000Y-89230000D02*
X73310000Y-89070000D01*
X81030000Y-98850000D02*
X76450000Y-98850000D01*
X73150000Y-95550000D02*
X73150000Y-92310000D01*
X76450000Y-98850000D02*
X73150000Y-95550000D01*
X71510000Y-85240000D02*
X71510000Y-87270000D01*
X71510000Y-87270000D02*
X73310000Y-89070000D01*
X73310000Y-89070000D02*
X73310000Y-89090000D01*
D35*
X199800000Y-78490000D02*
X199800000Y-79550000D01*
X199800000Y-79550000D02*
X203460000Y-83210000D01*
X203460000Y-83210000D02*
X204970000Y-83210000D01*
X199800000Y-78490000D02*
X196090000Y-78490000D01*
X196090000Y-78490000D02*
X196080000Y-78500000D01*
X199900000Y-78600000D02*
X199900000Y-79100000D01*
X196180000Y-78600000D02*
X196080000Y-78500000D01*
X196280000Y-78300000D02*
X196080000Y-78500000D01*
D34*
X196280000Y-78300000D02*
X196080000Y-78500000D01*
D35*
X123100000Y-63950000D02*
X123100000Y-65370000D01*
X123680000Y-65950000D02*
X126340000Y-65950000D01*
X123100000Y-65370000D02*
X123680000Y-65950000D01*
X108180000Y-52340000D02*
X104180000Y-52340000D01*
X104180000Y-52340000D02*
X104030000Y-52190000D01*
X113070000Y-52530000D02*
X108370000Y-52530000D01*
X108370000Y-52530000D02*
X108180000Y-52340000D01*
X108370000Y-52530000D02*
X108180000Y-52340000D01*
X114690000Y-50910000D02*
X113070000Y-52530000D01*
X121430000Y-50910000D02*
X114690000Y-50910000D01*
X123100000Y-52580000D02*
X121430000Y-50910000D01*
X123100000Y-64090000D02*
X123100000Y-63950000D01*
X123100000Y-63950000D02*
X123100000Y-52580000D01*
X321860000Y-97360000D02*
X321860000Y-98430000D01*
X321860000Y-98430000D02*
X318090000Y-102200000D01*
X298590000Y-44510000D02*
X298610000Y-44510000D01*
X319070000Y-94570000D02*
X321860000Y-97360000D01*
X319070000Y-45400000D02*
X319070000Y-94570000D01*
X315350000Y-41680000D02*
X319070000Y-45400000D01*
X301440000Y-41680000D02*
X315350000Y-41680000D01*
X298610000Y-44510000D02*
X301440000Y-41680000D01*
X286910000Y-45380000D02*
X287780000Y-44510000D01*
X287780000Y-44510000D02*
X298590000Y-44510000D01*
X298590000Y-44510000D02*
X298650000Y-44510000D01*
X286910000Y-45780000D02*
X286910000Y-45380000D01*
X213480000Y-55250000D02*
X213480000Y-50480000D01*
X213480000Y-50480000D02*
X209455000Y-46455000D01*
X207060000Y-63620000D02*
X207060000Y-62610000D01*
X211240000Y-44670000D02*
X212310000Y-44670000D01*
X208560000Y-47350000D02*
X209455000Y-46455000D01*
X209455000Y-46455000D02*
X211240000Y-44670000D01*
X208560000Y-61110000D02*
X208560000Y-47350000D01*
X207060000Y-62610000D02*
X208560000Y-61110000D01*
X221180000Y-59680000D02*
X221180000Y-48710000D01*
X221180000Y-59680000D02*
X221180000Y-76330000D01*
X223890000Y-79040000D02*
X226760000Y-79040000D01*
X221180000Y-76330000D02*
X223890000Y-79040000D01*
X217390000Y-44670000D02*
X212310000Y-44670000D01*
X221180000Y-48710000D02*
X217390000Y-44670000D01*
X212310000Y-44670000D02*
X211750000Y-44670000D01*
X211305000Y-72745000D02*
X208255000Y-72745000D01*
X207060000Y-71550000D02*
X207060000Y-63620000D01*
X208255000Y-72745000D02*
X207060000Y-71550000D01*
X207060000Y-63620000D02*
X207060000Y-63610000D01*
X201800000Y-62690000D02*
X206130000Y-62690000D01*
X206130000Y-62690000D02*
X207060000Y-63620000D01*
X210575000Y-72745000D02*
X211305000Y-72745000D01*
X211305000Y-72745000D02*
X210935000Y-72745000D01*
X273870000Y-85330000D02*
X259760000Y-85330000D01*
X259760000Y-85330000D02*
X259110000Y-84680000D01*
X248050000Y-73150000D02*
X242630000Y-73150000D01*
X241180000Y-71700000D02*
X241180000Y-69180000D01*
X242630000Y-73150000D02*
X241180000Y-71700000D01*
X241180000Y-69180000D02*
X237660000Y-65660000D01*
X259110000Y-84680000D02*
X259150000Y-84680000D01*
X259150000Y-84680000D02*
X261460000Y-82370000D01*
X231010000Y-65660000D02*
X228830000Y-67840000D01*
X237660000Y-65660000D02*
X231010000Y-65660000D01*
X248220000Y-73150000D02*
X248050000Y-73150000D01*
X250010000Y-74940000D02*
X248220000Y-73150000D01*
X260520000Y-74940000D02*
X250010000Y-74940000D01*
X261460000Y-75880000D02*
X260520000Y-74940000D01*
X261460000Y-82370000D02*
X261460000Y-75880000D01*
X294250000Y-62690000D02*
X294250000Y-59270000D01*
X294250000Y-59270000D02*
X286910000Y-51990000D01*
X286910000Y-45740000D02*
X286910000Y-45780000D01*
X286910000Y-45780000D02*
X286910000Y-51990000D01*
X280200000Y-62690000D02*
X294250000Y-62690000D01*
X275880000Y-67010000D02*
X280200000Y-62690000D01*
X275880000Y-80410000D02*
X275880000Y-67010000D01*
X277670000Y-82200000D02*
X275880000Y-80410000D01*
X277670000Y-84430000D02*
X277670000Y-82200000D01*
X276770000Y-85330000D02*
X277670000Y-84430000D01*
X273700000Y-85330000D02*
X273870000Y-85330000D01*
X273870000Y-85330000D02*
X276770000Y-85330000D01*
X226760000Y-79040000D02*
X227400000Y-79040000D01*
X227400000Y-79040000D02*
X228830000Y-77610000D01*
X228830000Y-77610000D02*
X228830000Y-67840000D01*
X259330000Y-84900000D02*
X259110000Y-84680000D01*
X226760000Y-79040000D02*
X226760000Y-78420000D01*
X226760000Y-79040000D02*
X226760000Y-78430000D01*
X294250000Y-65310000D02*
X294250000Y-62690000D01*
X300050000Y-78120000D02*
X301220000Y-76950000D01*
X301220000Y-76950000D02*
X301220000Y-69840000D01*
X301220000Y-69840000D02*
X299160000Y-67780000D01*
X299160000Y-67780000D02*
X296720000Y-67780000D01*
X296720000Y-67780000D02*
X294250000Y-65310000D01*
X299300000Y-78120000D02*
X300050000Y-78120000D01*
X321860000Y-97360000D02*
X321860000Y-96860000D01*
X318200000Y-102090000D02*
X318090000Y-102200000D01*
X72280000Y-58790000D02*
X72280000Y-61800000D01*
X72280000Y-61800000D02*
X74520000Y-64040000D01*
X59400000Y-68960000D02*
X63370000Y-68960000D01*
X68290000Y-64040000D02*
X74520000Y-64040000D01*
X63370000Y-68960000D02*
X68290000Y-64040000D01*
X59400000Y-68960000D02*
X59400000Y-68880000D01*
X59180000Y-72640000D02*
X59180000Y-73090000D01*
D34*
X59400000Y-68960000D02*
X59400000Y-68620000D01*
X59180000Y-72640000D02*
X59180000Y-69180000D01*
X59180000Y-69180000D02*
X59400000Y-68960000D01*
D35*
X214120000Y-69190000D02*
X211610000Y-69190000D01*
X211610000Y-69190000D02*
X211255000Y-69545000D01*
X210940000Y-55250000D02*
X210940000Y-62880000D01*
X210940000Y-62880000D02*
X211740000Y-63680000D01*
X211740000Y-63680000D02*
X211740000Y-63740000D01*
X211740000Y-63740000D02*
X211255000Y-64225000D01*
X211255000Y-64225000D02*
X211255000Y-69545000D01*
X32490000Y-108350000D02*
X32490000Y-107110000D01*
X31820000Y-72880000D02*
X34200000Y-72880000D01*
X29280000Y-75420000D02*
X31820000Y-72880000D01*
X29280000Y-104690000D02*
X29280000Y-75420000D01*
X30730000Y-106140000D02*
X29280000Y-104690000D01*
X31520000Y-106140000D02*
X30730000Y-106140000D01*
X32490000Y-107110000D02*
X31520000Y-106140000D01*
X40740000Y-66130000D02*
X40740000Y-65540000D01*
X40740000Y-65540000D02*
X42070000Y-64210000D01*
X42070000Y-64210000D02*
X51470000Y-64210000D01*
D34*
X40740000Y-66130000D02*
X38810000Y-66130000D01*
X37890000Y-69190000D02*
X34200000Y-72880000D01*
X37890000Y-67050000D02*
X37890000Y-69190000D01*
X38810000Y-66130000D02*
X37890000Y-67050000D01*
X35330000Y-72880000D02*
X34200000Y-72880000D01*
D35*
X34460000Y-72620000D02*
X34200000Y-72880000D01*
X28900000Y-108330000D02*
X28900000Y-107880000D01*
X28900000Y-107880000D02*
X28080000Y-107060000D01*
X28080000Y-107060000D02*
X28080000Y-69560000D01*
X28080000Y-69560000D02*
X29840000Y-67800000D01*
X29840000Y-67800000D02*
X34200000Y-67800000D01*
X61820000Y-64040000D02*
X61820000Y-63010000D01*
X61820000Y-63010000D02*
X60420000Y-61610000D01*
X34200000Y-67800000D02*
X34200000Y-66420000D01*
X34200000Y-66420000D02*
X39010000Y-61610000D01*
X39010000Y-61610000D02*
X60420000Y-61610000D01*
X34200000Y-67800000D02*
X34630000Y-67800000D01*
D34*
X34200000Y-67800000D02*
X34410000Y-67800000D01*
X34880000Y-67800000D02*
X34200000Y-67800000D01*
D35*
X236950000Y-53340000D02*
X238620000Y-53340000D01*
X242890000Y-57610000D02*
X242890000Y-59020000D01*
X238620000Y-53340000D02*
X242890000Y-57610000D01*
X233140000Y-48260000D02*
X234380000Y-48260000D01*
X234380000Y-48260000D02*
X236950000Y-50830000D01*
X236950000Y-50830000D02*
X236950000Y-53340000D01*
X275050000Y-53340000D02*
X279820000Y-53340000D01*
X279820000Y-53340000D02*
X282750000Y-56270000D01*
X275050000Y-53340000D02*
X275050000Y-52070000D01*
X275050000Y-52070000D02*
X271240000Y-48260000D01*
X314660000Y-61800000D02*
X314660000Y-54310000D01*
X314660000Y-54310000D02*
X313690000Y-53340000D01*
X313690000Y-53340000D02*
X313690000Y-52070000D01*
X313690000Y-52070000D02*
X309880000Y-48260000D01*
X159410000Y-51700000D02*
X165760000Y-51700000D01*
X165760000Y-51700000D02*
X168280000Y-49180000D01*
X168280000Y-49180000D02*
X168280000Y-47660000D01*
X168280000Y-47660000D02*
X164080000Y-43460000D01*
X189230000Y-43520000D02*
X189230000Y-45040000D01*
X189230000Y-45040000D02*
X193430000Y-49240000D01*
X186040000Y-55440000D02*
X187230000Y-55440000D01*
X187230000Y-55440000D02*
X193430000Y-49240000D01*
X127250000Y-81530000D02*
X129030000Y-81530000D01*
X132550000Y-85050000D02*
X132550000Y-88840000D01*
X129030000Y-81530000D02*
X132550000Y-85050000D01*
X127250000Y-81530000D02*
X127830000Y-81530000D01*
X128090000Y-91060000D02*
X130330000Y-91060000D01*
X130330000Y-91060000D02*
X132550000Y-88840000D01*
X127940000Y-97120000D02*
X127940000Y-93710000D01*
X127940000Y-93710000D02*
X128090000Y-93560000D01*
X117010000Y-85800000D02*
X117010000Y-89990000D01*
X117010000Y-89990000D02*
X117520000Y-90500000D01*
X121960000Y-91000000D02*
X118020000Y-91000000D01*
X118020000Y-91000000D02*
X117520000Y-90500000D01*
X118020000Y-91000000D02*
X117520000Y-90500000D01*
X123500000Y-104240000D02*
X123500000Y-104060000D01*
X123500000Y-104060000D02*
X127940000Y-99620000D01*
X123500000Y-112300000D02*
X123500000Y-104240000D01*
X126200000Y-115300000D02*
X123500000Y-112300000D01*
X128700000Y-119800000D02*
X129300000Y-119200000D01*
X129300000Y-119200000D02*
X129300000Y-115700000D01*
X129300000Y-115700000D02*
X128600000Y-115300000D01*
X128600000Y-115300000D02*
X126200000Y-115300000D01*
X127820000Y-120100000D02*
X128700000Y-119800000D01*
X275020000Y-94770000D02*
X273030000Y-94770000D01*
X270150000Y-99080000D02*
X268810000Y-99080000D01*
X270790000Y-98440000D02*
X270150000Y-99080000D01*
X270790000Y-97010000D02*
X270790000Y-98440000D01*
X273030000Y-94770000D02*
X270790000Y-97010000D01*
X275020000Y-94770000D02*
X275240000Y-94770000D01*
M02*
