G04 #@! TF.FileFunction,Soldermask,Bot*
%FSLAX46Y46*%
G04 Gerber Fmt 4.6, Leading zero omitted, Abs format (unit mm)*
G04 Created by KiCad (PCBNEW 4.0.7) date 03/17/21 00:05:14*
%MOMM*%
%LPD*%
G01*
G04 APERTURE LIST*
%ADD10C,0.100000*%
%ADD11C,2.000000*%
%ADD12O,2.000000X2.000000*%
%ADD13C,2.200000*%
%ADD14R,2.400000X2.400000*%
%ADD15C,2.400000*%
%ADD16R,2.000000X2.000000*%
%ADD17R,2.600000X2.600000*%
%ADD18O,2.600000X2.600000*%
%ADD19R,3.400000X3.400000*%
%ADD20C,3.400000*%
%ADD21R,2.200000X2.200000*%
%ADD22O,2.200000X2.200000*%
%ADD23C,3.500000*%
%ADD24R,3.900000X3.900000*%
%ADD25C,2.900000*%
%ADD26O,2.400000X2.400000*%
%ADD27O,3.900000X2.900000*%
%ADD28O,2.900000X3.900000*%
G04 APERTURE END LIST*
D10*
D11*
X133200000Y-63800000D03*
D12*
X133200000Y-71420000D03*
D13*
X99440000Y-64400000D03*
X109600000Y-64400000D03*
X104520000Y-64400000D03*
X104520000Y-72000000D03*
X99440000Y-72000000D03*
X109600000Y-72000000D03*
X91820000Y-64400000D03*
X91820000Y-72000000D03*
D14*
X17600000Y-95400000D03*
D15*
X17600000Y-90400000D03*
D14*
X40000000Y-54000000D03*
D15*
X40000000Y-59000000D03*
D11*
X99000000Y-75600000D03*
X104000000Y-75600000D03*
D16*
X69000000Y-86000000D03*
D11*
X69000000Y-83500000D03*
D16*
X56800000Y-79000000D03*
D11*
X56800000Y-76500000D03*
X91200000Y-76000000D03*
X86200000Y-76000000D03*
X139200000Y-73400000D03*
X144200000Y-73400000D03*
X114800000Y-101400000D03*
X114800000Y-96400000D03*
X146000000Y-101800000D03*
X146000000Y-96800000D03*
X120600000Y-94800000D03*
X120600000Y-99800000D03*
X142200000Y-94200000D03*
X142200000Y-99200000D03*
X157800000Y-102000000D03*
X157800000Y-97000000D03*
D17*
X11800000Y-55200000D03*
D18*
X19420000Y-55200000D03*
D17*
X25800000Y-98600000D03*
D18*
X25800000Y-90980000D03*
D17*
X29800000Y-91000000D03*
D18*
X29800000Y-98620000D03*
D17*
X11800000Y-51600000D03*
D18*
X19420000Y-51600000D03*
D17*
X38200000Y-98600000D03*
D18*
X38200000Y-90980000D03*
D17*
X34000000Y-91000000D03*
D18*
X34000000Y-98620000D03*
D17*
X56200000Y-90200000D03*
D18*
X63820000Y-90200000D03*
D17*
X40600000Y-66600000D03*
D18*
X40600000Y-74220000D03*
D17*
X15600000Y-72600000D03*
D18*
X15600000Y-64980000D03*
D19*
X35750000Y-39100000D03*
D20*
X30670000Y-39100000D03*
X25590000Y-39100000D03*
D19*
X18600000Y-41800000D03*
D20*
X18600000Y-46880000D03*
D11*
X99400000Y-85400000D03*
D12*
X91780000Y-85400000D03*
D11*
X56000000Y-83400000D03*
D12*
X63620000Y-83400000D03*
D11*
X45200000Y-63400000D03*
D12*
X37580000Y-63400000D03*
D11*
X63600000Y-86800000D03*
D12*
X55980000Y-86800000D03*
D11*
X44000000Y-66600000D03*
D12*
X44000000Y-74220000D03*
D11*
X99200000Y-81800000D03*
D12*
X91580000Y-81800000D03*
D11*
X124200000Y-74800000D03*
D12*
X124200000Y-82420000D03*
D11*
X102000000Y-79000000D03*
D12*
X102000000Y-86620000D03*
D11*
X136400000Y-63800000D03*
D12*
X136400000Y-71420000D03*
D11*
X276800000Y-75400000D03*
D12*
X276800000Y-67780000D03*
D11*
X129600000Y-84000000D03*
D12*
X137220000Y-84000000D03*
D11*
X166200000Y-88000000D03*
D12*
X158580000Y-88000000D03*
D11*
X129400000Y-87400000D03*
D12*
X137020000Y-87400000D03*
D11*
X166000000Y-84600000D03*
D12*
X158380000Y-84600000D03*
D11*
X129600000Y-80600000D03*
D12*
X137220000Y-80600000D03*
D11*
X158400000Y-81200000D03*
D12*
X166020000Y-81200000D03*
D11*
X158400000Y-78000000D03*
D12*
X166020000Y-78000000D03*
D11*
X234000000Y-82400000D03*
D12*
X234000000Y-74780000D03*
D11*
X253600000Y-97400000D03*
D12*
X253600000Y-89780000D03*
D11*
X274600000Y-93600000D03*
D12*
X274600000Y-85980000D03*
D11*
X215200000Y-84200000D03*
D12*
X215200000Y-76580000D03*
D11*
X185800000Y-79000000D03*
D12*
X185800000Y-71380000D03*
D13*
X32900000Y-54740000D03*
X32900000Y-64900000D03*
X32900000Y-59820000D03*
X25300000Y-59820000D03*
X25300000Y-54740000D03*
X25300000Y-64900000D03*
X32900000Y-47120000D03*
X25300000Y-47120000D03*
D21*
X51200000Y-96200000D03*
D22*
X48660000Y-96200000D03*
X46120000Y-96200000D03*
D21*
X41200000Y-84200000D03*
D22*
X43740000Y-84200000D03*
X46280000Y-84200000D03*
D16*
X109400000Y-79400000D03*
D12*
X117020000Y-87020000D03*
X109400000Y-81940000D03*
X117020000Y-84480000D03*
X109400000Y-84480000D03*
X117020000Y-81940000D03*
X109400000Y-87020000D03*
X117020000Y-79400000D03*
D11*
X171000000Y-86800000D03*
X176000000Y-86800000D03*
X153000000Y-87200000D03*
X153000000Y-92200000D03*
X106000000Y-92000000D03*
X106000000Y-87000000D03*
X163000000Y-98800000D03*
X163000000Y-93800000D03*
X171000000Y-83000000D03*
X176000000Y-83000000D03*
X152000000Y-73500000D03*
X147000000Y-73500000D03*
X149400000Y-88000000D03*
X144400000Y-88000000D03*
X244200000Y-67200000D03*
X249200000Y-67200000D03*
D19*
X14800000Y-84000000D03*
D20*
X14800000Y-78920000D03*
D11*
X211400000Y-76400000D03*
D12*
X211400000Y-84020000D03*
D11*
X189600000Y-71400000D03*
D12*
X189600000Y-79020000D03*
D11*
X254000000Y-67200000D03*
D12*
X254000000Y-74820000D03*
D11*
X194800000Y-60600000D03*
D12*
X194800000Y-68220000D03*
D11*
X251600000Y-50400000D03*
D12*
X259220000Y-50400000D03*
D11*
X178400000Y-61000000D03*
D12*
X178400000Y-68620000D03*
D11*
X191600000Y-68200000D03*
D12*
X191600000Y-60580000D03*
D11*
X175200000Y-68600000D03*
D12*
X175200000Y-60980000D03*
D11*
X264000000Y-77200000D03*
D12*
X264000000Y-69580000D03*
D11*
X201400000Y-68200000D03*
D12*
X201400000Y-60580000D03*
D11*
X184800000Y-68600000D03*
D12*
X184800000Y-60980000D03*
D11*
X252800000Y-63400000D03*
D12*
X252800000Y-55780000D03*
D16*
X152600000Y-76800000D03*
D12*
X144980000Y-84420000D03*
X150060000Y-76800000D03*
X147520000Y-84420000D03*
X147520000Y-76800000D03*
X150060000Y-84420000D03*
X144980000Y-76800000D03*
X152600000Y-84420000D03*
D11*
X198200000Y-60600000D03*
D12*
X198200000Y-68220000D03*
D11*
X181600000Y-68600000D03*
D12*
X181600000Y-60980000D03*
D11*
X241800000Y-87800000D03*
X241800000Y-82800000D03*
X237800000Y-79600000D03*
X237800000Y-74600000D03*
D23*
X290000000Y-36000000D03*
X13000000Y-102000000D03*
X13000000Y-36000000D03*
X290000000Y-102000000D03*
D11*
X120400000Y-77600000D03*
X120400000Y-82600000D03*
X105800000Y-79400000D03*
X105800000Y-84400000D03*
X258600000Y-80000000D03*
X258600000Y-85000000D03*
X253800000Y-80000000D03*
X253800000Y-85000000D03*
X269600000Y-82400000D03*
X274600000Y-82400000D03*
X206400000Y-72800000D03*
X211400000Y-72800000D03*
X192600000Y-82000000D03*
X187600000Y-82000000D03*
X193000000Y-78000000D03*
X193000000Y-73000000D03*
X207200000Y-83000000D03*
X207200000Y-78000000D03*
X271800000Y-57800000D03*
X276800000Y-57800000D03*
X221800000Y-71600000D03*
X226800000Y-71600000D03*
X259800000Y-69600000D03*
X259800000Y-74600000D03*
X231600000Y-69200000D03*
X231600000Y-64200000D03*
X256800000Y-57000000D03*
X256800000Y-62000000D03*
X215400000Y-65000000D03*
X215400000Y-60000000D03*
X222000000Y-55200000D03*
X227000000Y-55200000D03*
D17*
X11800000Y-58800000D03*
D18*
X19420000Y-58800000D03*
D17*
X19400000Y-64800000D03*
D18*
X19400000Y-72420000D03*
D21*
X281600000Y-100800000D03*
D13*
X279060000Y-100800000D03*
D17*
X167800000Y-61000000D03*
D18*
X167800000Y-68620000D03*
D17*
X109800000Y-52000000D03*
D18*
X109800000Y-59620000D03*
D17*
X87400000Y-64600000D03*
D18*
X87400000Y-72220000D03*
D17*
X63200000Y-75400000D03*
D18*
X70820000Y-75400000D03*
D20*
X204000000Y-48620000D03*
X207810000Y-48620000D03*
D15*
X200190000Y-34650000D03*
X207810000Y-39730000D03*
D20*
X200190000Y-48620000D03*
X204000000Y-43540000D03*
X242000000Y-48620000D03*
X245810000Y-48620000D03*
D15*
X238190000Y-34650000D03*
X245810000Y-39730000D03*
D20*
X238190000Y-48620000D03*
X242000000Y-43540000D03*
X280000000Y-48620000D03*
X283810000Y-48620000D03*
D15*
X276190000Y-34650000D03*
X283810000Y-39730000D03*
D20*
X276190000Y-48620000D03*
X280000000Y-43540000D03*
D24*
X47000000Y-48800000D03*
X47000000Y-42800000D03*
X42300000Y-45800000D03*
D19*
X55400000Y-59200000D03*
D20*
X55400000Y-54120000D03*
D19*
X55400000Y-70800000D03*
D20*
X55400000Y-65720000D03*
D11*
X11800000Y-62000000D03*
D12*
X11800000Y-74700000D03*
D11*
X129600000Y-77400000D03*
D12*
X137220000Y-77400000D03*
D11*
X157800000Y-53200000D03*
D12*
X170500000Y-53200000D03*
D11*
X235800000Y-61800000D03*
D12*
X235800000Y-69420000D03*
D11*
X211800000Y-57400000D03*
D12*
X211800000Y-65020000D03*
D11*
X231400000Y-50200000D03*
D12*
X231400000Y-57820000D03*
D11*
X270000000Y-69600000D03*
D12*
X270000000Y-77220000D03*
D11*
X261800000Y-52400000D03*
D12*
X269420000Y-52400000D03*
D11*
X205800000Y-65000000D03*
D12*
X205800000Y-57380000D03*
D11*
X147400000Y-38800000D03*
D12*
X147400000Y-46420000D03*
D11*
X179000000Y-39600000D03*
D12*
X179000000Y-47220000D03*
D11*
X71400000Y-40000000D03*
D12*
X71400000Y-47620000D03*
D11*
X101800000Y-39800000D03*
D12*
X101800000Y-47420000D03*
D11*
X132200000Y-40200000D03*
D12*
X132200000Y-47820000D03*
D11*
X162800000Y-38200000D03*
D12*
X162800000Y-45820000D03*
D11*
X56400000Y-40200000D03*
D12*
X56400000Y-47820000D03*
D11*
X86800000Y-40000000D03*
D12*
X86800000Y-47620000D03*
D11*
X114800000Y-64600000D03*
D12*
X114800000Y-51900000D03*
D11*
X81800000Y-63400000D03*
D12*
X81800000Y-76100000D03*
D11*
X74600000Y-63000000D03*
D12*
X74600000Y-75700000D03*
D13*
X32900000Y-76740000D03*
X32900000Y-86900000D03*
X32900000Y-81820000D03*
X25300000Y-81820000D03*
X25300000Y-76740000D03*
X25300000Y-86900000D03*
X32900000Y-69120000D03*
X25300000Y-69120000D03*
X155360000Y-68800000D03*
X145200000Y-68800000D03*
X150280000Y-68800000D03*
X150280000Y-61200000D03*
X155360000Y-61200000D03*
X145200000Y-61200000D03*
X162980000Y-68800000D03*
X162980000Y-61200000D03*
X127640000Y-51200000D03*
X137800000Y-51200000D03*
X132720000Y-51200000D03*
X132720000Y-58800000D03*
X127640000Y-58800000D03*
X137800000Y-58800000D03*
X120020000Y-51200000D03*
X120020000Y-58800000D03*
X97160000Y-59600000D03*
X87000000Y-59600000D03*
X92080000Y-59600000D03*
X92080000Y-52000000D03*
X97160000Y-52000000D03*
X87000000Y-52000000D03*
X104780000Y-59600000D03*
X104780000Y-52000000D03*
X61400000Y-63760000D03*
X61400000Y-53600000D03*
X61400000Y-58680000D03*
X69000000Y-58680000D03*
X69000000Y-63760000D03*
X69000000Y-53600000D03*
X61400000Y-71380000D03*
X69000000Y-71380000D03*
D25*
X82920000Y-101600000D03*
X77920000Y-101600000D03*
X87920000Y-101600000D03*
X87920000Y-96600000D03*
X82920000Y-96600000D03*
X77920000Y-96600000D03*
X87920000Y-91600000D03*
X77920000Y-91600000D03*
X131180000Y-101600000D03*
X126180000Y-101600000D03*
X136180000Y-101600000D03*
X136180000Y-96600000D03*
X131180000Y-96600000D03*
X126180000Y-96600000D03*
X136180000Y-91600000D03*
X126180000Y-91600000D03*
X174360000Y-101600000D03*
X169360000Y-101600000D03*
X179360000Y-101600000D03*
X179360000Y-96600000D03*
X174360000Y-96600000D03*
X169360000Y-96600000D03*
X179360000Y-91600000D03*
X169360000Y-91600000D03*
X199760000Y-101600000D03*
X194760000Y-101600000D03*
X204760000Y-101600000D03*
X204760000Y-96600000D03*
X199760000Y-96600000D03*
X194760000Y-96600000D03*
X204760000Y-91600000D03*
X194760000Y-91600000D03*
X264240000Y-101600000D03*
X259240000Y-101600000D03*
X269240000Y-101600000D03*
X269240000Y-96600000D03*
X264240000Y-96600000D03*
X259240000Y-96600000D03*
X269240000Y-91600000D03*
X259240000Y-91600000D03*
X233760000Y-101600000D03*
X228760000Y-101600000D03*
X238760000Y-101600000D03*
X238760000Y-96600000D03*
X233760000Y-96600000D03*
X228760000Y-96600000D03*
X238760000Y-91600000D03*
X228760000Y-91600000D03*
D19*
X148400000Y-56000000D03*
D20*
X148400000Y-50920000D03*
D19*
X122400000Y-65400000D03*
D20*
X127480000Y-65400000D03*
D19*
X80000000Y-54600000D03*
D20*
X74920000Y-54600000D03*
D16*
X203600000Y-81400000D03*
D12*
X195980000Y-73780000D03*
X203600000Y-78860000D03*
X195980000Y-76320000D03*
X203600000Y-76320000D03*
X195980000Y-78860000D03*
X203600000Y-73780000D03*
X195980000Y-81400000D03*
D16*
X249400000Y-79600000D03*
D12*
X241780000Y-71980000D03*
X249400000Y-77060000D03*
X241780000Y-74520000D03*
X249400000Y-74520000D03*
X241780000Y-77060000D03*
X249400000Y-71980000D03*
X241780000Y-79600000D03*
D16*
X227200000Y-67800000D03*
D12*
X219580000Y-60180000D03*
X227200000Y-65260000D03*
X219580000Y-62720000D03*
X227200000Y-62720000D03*
X219580000Y-65260000D03*
X227200000Y-60180000D03*
X219580000Y-67800000D03*
D16*
X260800000Y-58000000D03*
D12*
X268420000Y-65620000D03*
X260800000Y-60540000D03*
X268420000Y-63080000D03*
X260800000Y-63080000D03*
X268420000Y-60540000D03*
X260800000Y-65620000D03*
X268420000Y-58000000D03*
D11*
X116800000Y-75800000D03*
X111800000Y-75800000D03*
D16*
X116200000Y-70200000D03*
D11*
X113700000Y-70200000D03*
D16*
X151200000Y-100200000D03*
D11*
X153700000Y-100200000D03*
D16*
X100000000Y-90800000D03*
D11*
X102500000Y-90800000D03*
D16*
X212200000Y-88000000D03*
D11*
X209700000Y-88000000D03*
D16*
X192000000Y-86600000D03*
D11*
X189500000Y-86600000D03*
D16*
X273000000Y-63400000D03*
D11*
X275500000Y-63400000D03*
D16*
X225600000Y-76400000D03*
D11*
X223100000Y-76400000D03*
D16*
X243600000Y-61800000D03*
D11*
X246100000Y-61800000D03*
D16*
X223800000Y-50600000D03*
D11*
X226300000Y-50600000D03*
D26*
X104960000Y-35860000D03*
X113960000Y-35860000D03*
D27*
X109460000Y-39360000D03*
D28*
X109460000Y-44360000D03*
D26*
X89720000Y-35860000D03*
X98720000Y-35860000D03*
D27*
X94220000Y-39360000D03*
D28*
X94220000Y-44360000D03*
D26*
X74480000Y-35860000D03*
X83480000Y-35860000D03*
D27*
X78980000Y-39360000D03*
D28*
X78980000Y-44360000D03*
D26*
X59240000Y-35860000D03*
X68240000Y-35860000D03*
D27*
X63740000Y-39360000D03*
D28*
X63740000Y-44360000D03*
D26*
X165920000Y-35860000D03*
X174920000Y-35860000D03*
D27*
X170420000Y-39360000D03*
D28*
X170420000Y-44360000D03*
D26*
X150680000Y-35860000D03*
X159680000Y-35860000D03*
D27*
X155180000Y-39360000D03*
D28*
X155180000Y-44360000D03*
D26*
X135440000Y-35860000D03*
X144440000Y-35860000D03*
D27*
X139940000Y-39360000D03*
D28*
X139940000Y-44360000D03*
D26*
X120200000Y-35860000D03*
X129200000Y-35860000D03*
D27*
X124700000Y-39360000D03*
D28*
X124700000Y-44360000D03*
D26*
X181900000Y-36000000D03*
X190900000Y-36000000D03*
D27*
X186400000Y-39500000D03*
D28*
X186400000Y-44500000D03*
D26*
X218500000Y-36500000D03*
X227500000Y-36500000D03*
D27*
X223000000Y-40000000D03*
D28*
X223000000Y-45000000D03*
D26*
X256140000Y-36140000D03*
X265140000Y-36140000D03*
D27*
X260640000Y-39640000D03*
D28*
X260640000Y-44640000D03*
M02*
