M48
;DRILL file {KiCad 4.0.7} date 05/04/21 11:15:45
;FORMAT={-:-/ absolute / metric / decimal}
FMAT,2
METRIC,TZ
T1C0.400
T2C0.800
T3C0.900
T4C1.000
T5C1.100
T6C1.200
T7C1.500
T8C1.520
T9C2.000
%
G90
G05
M71
T1
X53.42Y-44.98
X53.62Y-47.58
X53.84Y-43.17
X54.2Y-41.35
X54.94Y-40.36
X55.01Y-48.39
X56.66Y-48.53
X59.01Y-48.92
X60.74Y-65.99
X61.1Y-48.87
X61.69Y-67.61
X62.08Y-70.13
X64.26Y-69.85
X66.33Y-69.68
X67.45Y-72.31
X67.5Y-48.64
X68.51Y-73.82
X69.63Y-48.73
X69.63Y-75.21
X71.81Y-75.94
X72.14Y-48.67
X74.15Y-76.5
X74.77Y-48.78
X76.67Y-76.78
X76.78Y-48.7
X78.76Y-49.26
X79.97Y-78.18
X80.36Y-50.24
X82.32Y-77.61
X84.27Y-53.25
X84.52Y-58.62
X84.55Y-60.38
X84.57Y-55.27
X84.63Y-56.89
X85.52Y-61.5
X86.5Y-76.1
X87.37Y-61.33
X89.3Y-61.41
X89.97Y-117.46
X91.31Y-115.5
X91.62Y-61.44
X92.59Y-114.
X92.72Y-76.19
X93.63Y-61.27
X93.82Y-110.81
X94.1Y-113.38
X94.88Y-109.19
X95.12Y-78.59
X95.72Y-107.62
X95.83Y-61.5
X96.01Y-112.13
X96.67Y-106.
X97.57Y-61.5
X98.18Y-108.04
X98.32Y-81.34
X98.35Y-104.5
X99.44Y-61.75
X99.63Y-115.82
X100.03Y-102.99
X100.9Y-83.3
X101.17Y-113.88
X101.37Y-101.25
X101.76Y-61.66
X103.3Y-85.08
X103.32Y-99.58
X103.94Y-65.66
X104.5Y-115.84
X104.75Y-116.9
X104.89Y-98.01
X105.44Y-87.21
X105.84Y-67.5
X106.4Y-96.67
X106.51Y-69.4
X106.56Y-71.08
X106.79Y-112.01
X107.23Y-72.92
X107.29Y-89.69
X107.39Y-89.97
X107.62Y-92.59
X107.79Y-95.16
X107.79Y-95.28
X107.99Y-110.95
X109.25Y-74.88
X109.5Y-110.73
X110.81Y-110.67
X111.09Y-76.5
X112.12Y-110.84
X113.35Y-85.08
X113.44Y-98.57
X113.46Y-77.91
X113.46Y-82.49
X113.53Y-90.68
X113.54Y-80.24
X113.6Y-96.28
X113.69Y-110.78
X113.7Y-93.08
X113.73Y-88.09
X113.88Y-100.81
X114.22Y-103.65
X115.14Y-110.75
X115.6Y-104.39
X116.23Y-110.11
X116.36Y-105.65
X116.74Y-107.29
X116.93Y-108.88
X118.1Y-35.18
X118.88Y-37.64
X130.6Y-121.
X133.62Y-122.22
X159.45Y-35.18
X160.15Y-37.86
X174.3Y-88.8
X179.3Y-35.21
X181.49Y-37.44
X184.1Y-111.1
X184.29Y-121.85
X188.2Y-87.9
X200.69Y-35.26
X203.51Y-37.77
X218.77Y-122.07
X220.7Y-119.89
X221.2Y-104.7
X234.03Y-99.58
X236.43Y-101.31
X244.29Y-74.68
X244.43Y-71.32
X245.73Y-71.27
X245.9Y-74.6
X250.13Y-89.12
X250.24Y-92.56
X257.6Y-35.23
X258.78Y-37.67
X284.92Y-46.85
X285.21Y-48.83
X287.83Y-51.25
X287.95Y-49.84
X303.79Y-116.68
X305.9Y-118.26
X306.05Y-117.1
X308.57Y-118.07
T2
X51.97Y-112.82
X51.97Y-120.44
X55.49Y-38.98
X55.49Y-46.6
X55.71Y-112.88
X55.71Y-120.5
X56.16Y-93.76
X56.16Y-106.46
X59.44Y-99.78
X59.44Y-104.78
X61.82Y-64.04
X71.51Y-72.54
X71.51Y-85.24
X72.22Y-38.26
X72.22Y-45.88
X73.15Y-92.31
X74.52Y-64.04
X78.15Y-92.31
X80.81Y-112.17
X80.81Y-119.79
X89.8Y-39.15
X89.8Y-46.77
X94.44Y-83.37
X94.44Y-90.99
X94.49Y-93.41
X94.49Y-101.03
X107.86Y-39.01
X107.86Y-46.63
X112.28Y-103.
X117.01Y-85.8
X117.09Y-81.53
X117.52Y-90.5
X117.52Y-95.5
X119.9Y-103.
X120.08Y-112.7
X120.18Y-109.4
X120.18Y-116.9
X120.2Y-120.1
X120.28Y-106.2
X121.93Y-99.61
X121.96Y-93.5
X125.35Y-39.14
X125.35Y-46.76
X127.17Y-85.8
X127.25Y-81.53
X127.7Y-112.7
X127.8Y-109.4
X127.8Y-116.9
X127.82Y-120.1
X127.9Y-106.2
X127.94Y-97.12
X128.09Y-91.06
X132.55Y-88.84
X132.55Y-93.84
X134.85Y-108.1
X134.85Y-110.6
X135.5Y-97.6
X135.5Y-105.22
X138.41Y-59.42
X138.41Y-61.92
X138.9Y-96.7
X138.9Y-101.7
X139.1Y-104.3
X139.1Y-109.3
X140.82Y-89.28
X140.82Y-91.78
X142.5Y-96.7
X142.5Y-99.24
X142.5Y-101.78
X142.5Y-104.32
X142.95Y-38.96
X142.95Y-46.58
X144.76Y-69.68
X144.9Y-92.34
X145.04Y-58.09
X145.04Y-60.63
X145.04Y-63.17
X145.04Y-65.71
X147.56Y-54.8
X147.9Y-113.7
X147.9Y-118.7
X149.76Y-69.68
X149.9Y-92.34
X150.12Y-96.7
X150.12Y-99.24
X150.12Y-101.78
X150.12Y-104.32
X152.56Y-54.8
X152.66Y-58.09
X152.66Y-60.63
X152.66Y-63.17
X152.66Y-65.71
X153.5Y-94.9
X153.5Y-99.9
X153.7Y-112.1
X153.7Y-117.1
X155.78Y-60.39
X155.83Y-63.74
X157.3Y-92.1
X157.3Y-99.72
X160.78Y-60.39
X160.83Y-63.74
X162.5Y-104.7
X162.7Y-94.7
X162.7Y-97.9
X162.7Y-101.3
X164.59Y-89.61
X165.62Y-77.04
X165.62Y-84.66
X166.54Y-71.93
X167.09Y-89.61
X168.29Y-65.06
X168.29Y-67.56
X168.9Y-77.08
X168.9Y-84.7
X170.12Y-104.7
X170.32Y-94.7
X170.32Y-97.9
X170.32Y-101.3
X171.54Y-71.93
X172.3Y-90.7
X174.6Y-64.07
X174.6Y-66.61
X174.6Y-69.15
X174.6Y-71.69
X175.3Y-111.5
X175.3Y-116.5
X177.3Y-90.7
X177.5Y-105.3
X177.56Y-60.88
X178.08Y-94.1
X178.08Y-101.72
X179.1Y-114.1
X179.1Y-119.1
X180.1Y-90.8
X180.62Y-94.1
X180.62Y-101.72
X182.22Y-64.07
X182.22Y-66.61
X182.22Y-69.15
X182.22Y-71.69
X182.5Y-105.3
X182.56Y-60.88
X183.16Y-94.1
X183.16Y-101.72
X184.3Y-117.5
X184.82Y-64.46
X184.85Y-67.98
X185.1Y-90.8
X185.7Y-94.1
X185.7Y-101.72
X186.1Y-104.5
X186.1Y-109.5
X186.8Y-117.5
X189.82Y-64.46
X189.85Y-67.98
X190.9Y-114.3
X190.9Y-119.3
X191.48Y-101.9
X191.5Y-95.3
X191.5Y-98.5
X191.68Y-105.3
X192.985Y-66.62
X192.985Y-74.24
X196.1Y-111.1
X196.1Y-116.1
X199.1Y-101.9
X199.12Y-95.3
X199.12Y-98.5
X199.3Y-105.3
X199.51Y-66.325
X199.51Y-73.945
X203.635Y-69.545
X203.685Y-72.745
X204.1Y-100.3
X204.1Y-104.1
X205.935Y-77.145
X207.06Y-58.62
X207.06Y-63.62
X208.475Y-77.145
X209.1Y-100.3
X209.1Y-104.1
X211.015Y-77.145
X211.255Y-69.545
X211.305Y-72.745
X211.74Y-63.68
X214.12Y-69.19
X214.12Y-76.81
X214.24Y-63.68
X216.26Y-84.85
X216.26Y-92.47
X218.7Y-108.5
X219.52Y-88.72
X219.52Y-96.34
X219.98Y-83.6
X220.7Y-99.3
X221.2Y-108.5
X222.88Y-88.71
X222.88Y-96.33
X225.58Y-104.4
X225.7Y-99.3
X226.1Y-90.3
X226.1Y-95.3
X227.6Y-83.6
X229.08Y-91.08
X229.08Y-93.62
X229.08Y-96.16
X229.08Y-98.7
X231.83Y-71.73
X231.83Y-74.27
X231.83Y-76.81
X231.83Y-79.35
X232.18Y-57.68
X232.18Y-67.84
X233.2Y-104.4
X236.49Y-57.58
X236.49Y-67.74
X236.7Y-91.08
X236.7Y-93.62
X236.7Y-96.16
X236.7Y-98.7
X239.45Y-71.73
X239.45Y-74.27
X239.45Y-76.81
X239.45Y-79.35
X239.5Y-90.1
X240.3Y-95.3
X240.3Y-100.3
X242.66Y-76.5
X242.77Y-79.96
X244.5Y-90.1
X244.5Y-93.7
X244.5Y-101.32
X244.9Y-112.6
X244.9Y-120.22
X245.57Y-105.84
X247.66Y-76.5
X247.77Y-79.96
X247.8Y-93.77
X247.8Y-101.39
X248.07Y-105.84
X253.89Y-106.
X253.89Y-108.5
X254.51Y-94.53
X254.51Y-102.15
X257.77Y-97.06
X257.77Y-102.06
X257.94Y-104.42
X257.94Y-109.42
X258.58Y-89.49
X261.08Y-89.49
X261.19Y-94.
X261.19Y-96.54
X261.19Y-99.08
X261.19Y-101.62
X263.89Y-90.75
X268.81Y-94.
X268.81Y-96.54
X268.81Y-99.08
X268.81Y-101.62
X268.89Y-90.75
X272.3Y-83.93
X272.3Y-91.55
X272.63Y-97.56
X272.63Y-102.56
X275.02Y-94.77
X275.54Y-83.91
X275.54Y-91.53
X275.82Y-105.43
X275.82Y-113.05
X276.13Y-97.48
X276.13Y-102.48
X279.01Y-73.11
X279.01Y-75.65
X279.01Y-78.19
X279.01Y-80.73
X279.29Y-59.74
X279.29Y-69.9
X279.52Y-97.52
X279.52Y-105.14
X282.64Y-94.77
X282.9Y-97.6
X282.9Y-102.6
X283.17Y-83.71
X283.17Y-88.71
X284.09Y-59.66
X284.09Y-69.82
X286.33Y-85.41
X286.63Y-73.11
X286.63Y-75.65
X286.63Y-78.19
X286.63Y-80.73
X286.93Y-92.51
X286.93Y-95.05
X286.93Y-97.59
X286.93Y-100.13
X291.33Y-85.41
X294.55Y-92.51
X294.55Y-95.05
X294.55Y-97.59
X294.55Y-100.13
X297.4Y-97.
X297.44Y-100.43
X297.73Y-86.72
X297.76Y-90.98
X298.13Y-83.02
X302.4Y-97.
X302.44Y-100.43
X305.75Y-83.02
X307.89Y-86.72
X307.92Y-90.98
X308.63Y-75.33
X308.63Y-82.95
T3
X84.67Y-117.5
X87.21Y-117.5
T4
X28.9Y-108.33
X28.9Y-110.87
X32.49Y-108.35
X32.49Y-110.89
X64.88Y-105.61
X66.24Y-116.43
X68.78Y-116.43
X69.88Y-105.61
X71.32Y-116.43
X72.28Y-53.79
X72.28Y-58.79
X81.03Y-98.85
X83.57Y-98.85
X86.11Y-98.85
X99.1Y-93.54
X104.1Y-93.54
X121.93Y-97.11
X121.96Y-91.
X127.94Y-99.62
X128.09Y-93.56
X136.15Y-53.87
X138.69Y-53.87
X156.87Y-51.7
X159.41Y-51.7
X162.46Y-68.44
X162.46Y-70.98
X186.04Y-55.44
X186.04Y-57.98
X210.94Y-55.25
X213.48Y-55.25
X216.02Y-55.25
X242.89Y-59.02
X242.89Y-61.56
X282.75Y-56.27
X285.29Y-56.27
X314.66Y-61.8
X314.66Y-64.34
T5
X40.48Y-116.8
X40.7Y-52.16
X40.7Y-59.76
X40.74Y-66.13
X40.74Y-73.75
X40.74Y-78.83
X40.74Y-83.91
X40.78Y-120.2
X40.83Y-91.36
X40.9Y-95.52
X40.9Y-100.6
X40.9Y-105.68
X40.9Y-113.3
X40.96Y-87.45
X45.78Y-52.16
X45.78Y-59.76
X48.1Y-116.8
X48.34Y-66.13
X48.34Y-73.75
X48.34Y-78.83
X48.34Y-83.91
X48.4Y-120.2
X48.45Y-91.36
X48.5Y-95.52
X48.5Y-100.6
X48.5Y-105.68
X48.5Y-113.3
X48.58Y-87.45
X50.86Y-52.16
X50.86Y-59.76
X51.47Y-64.21
X51.56Y-72.64
X51.74Y-102.2
X51.74Y-109.82
X51.78Y-68.96
X51.78Y-76.09
X51.78Y-83.71
X51.91Y-91.31
X51.91Y-98.93
X58.48Y-52.16
X58.48Y-59.76
X59.09Y-64.21
X59.18Y-72.64
X59.4Y-68.96
X63.28Y-52.83
X63.28Y-60.45
X73.31Y-89.07
X80.93Y-89.07
X82.26Y-51.7
X82.26Y-59.32
X86.25Y-52.19
X86.25Y-59.79
X91.33Y-52.19
X91.33Y-59.79
X96.41Y-52.19
X96.41Y-59.79
X103.57Y-63.09
X103.57Y-70.69
X104.03Y-52.19
X104.03Y-59.79
X108.18Y-52.34
X108.18Y-59.96
X111.19Y-63.09
X111.19Y-70.69
X113.07Y-52.53
X113.07Y-60.13
X116.27Y-63.09
X116.27Y-70.69
X120.69Y-52.53
X120.69Y-60.13
X121.35Y-63.09
X121.35Y-70.69
X125.77Y-52.53
X125.77Y-60.13
X130.85Y-52.53
X130.85Y-60.13
X178.3Y-78.5
X178.3Y-86.1
X183.38Y-78.5
X183.38Y-86.1
X188.46Y-78.5
X188.46Y-86.1
X194.18Y-62.69
X196.08Y-78.5
X196.08Y-86.1
X196.26Y-66.325
X196.26Y-73.945
X199.8Y-78.49
X199.8Y-86.11
X201.8Y-62.69
X219.16Y-61.26
X219.16Y-66.34
X219.16Y-71.42
X219.16Y-79.04
X226.76Y-61.26
X226.76Y-66.34
X226.76Y-71.42
X226.76Y-79.04
X251.51Y-66.9
X251.51Y-71.98
X251.51Y-77.06
X251.51Y-84.68
X259.11Y-66.9
X259.11Y-71.98
X259.11Y-77.06
X259.11Y-84.68
X291.7Y-60.34
X291.7Y-65.42
X291.7Y-70.5
X291.7Y-78.12
X299.3Y-60.34
X299.3Y-65.42
X299.3Y-70.5
X299.3Y-78.12
X310.49Y-102.2
X310.49Y-109.82
X310.49Y-114.9
X310.49Y-119.98
X314.26Y-79.58
X314.26Y-84.66
X314.26Y-89.74
X314.26Y-97.36
X318.09Y-102.2
X318.09Y-109.82
X318.09Y-114.9
X318.09Y-119.98
X321.86Y-79.58
X321.86Y-84.66
X321.86Y-89.74
X321.86Y-97.36
T6
X60.91Y-83.12
X60.91Y-88.12
X79.97Y-73.18
X79.97Y-78.18
X109.38Y-113.9
X109.38Y-118.9
X159.28Y-108.9
X159.28Y-113.9
X159.28Y-118.9
X164.28Y-113.9
X164.28Y-118.9
X169.28Y-108.9
X169.28Y-113.9
X169.28Y-118.9
X202.46Y-108.9
X202.46Y-113.9
X202.46Y-118.9
X207.46Y-113.9
X207.46Y-118.9
X212.46Y-108.9
X212.46Y-113.9
X212.46Y-118.9
X227.86Y-108.9
X227.86Y-113.9
X227.86Y-118.9
X232.86Y-113.9
X232.86Y-118.9
X237.86Y-108.9
X237.86Y-113.9
X237.86Y-118.9
X261.86Y-108.9
X261.86Y-113.9
X261.86Y-118.9
X266.86Y-113.9
X266.86Y-118.9
X271.86Y-108.9
X271.86Y-113.9
X271.86Y-118.9
X292.34Y-108.9
X292.34Y-113.9
X292.34Y-118.9
X297.34Y-113.9
X297.34Y-118.9
X302.34Y-108.9
X302.34Y-113.9
X302.34Y-118.9
T8
X33.3Y-97.8
X33.3Y-102.88
X33.7Y-79.8
X33.7Y-84.88
X33.7Y-89.96
X34.2Y-67.8
X34.2Y-72.88
X34.42Y-56.1
X34.42Y-61.18
X34.48Y-44.31
X34.48Y-49.39
X93.21Y-65.83
X98.29Y-65.83
X126.34Y-65.95
X131.42Y-65.95
X204.97Y-83.21
X210.05Y-83.21
T9
X164.08Y-43.46
X168.28Y-49.18
X172.33Y-53.63
X176.38Y-49.82
X189.23Y-43.52
X193.43Y-49.24
X197.48Y-53.69
X201.53Y-49.88
X229.33Y-53.34
X233.14Y-48.26
X233.14Y-53.34
X236.95Y-53.34
X267.43Y-53.34
X271.24Y-48.26
X271.24Y-53.34
X275.05Y-53.34
X306.07Y-53.34
X309.88Y-48.26
X309.88Y-53.34
X313.69Y-53.34
T4
X43.25Y-43.83G85X43.25Y-45.83
G05
X48.95Y-41.83G85X46.95Y-41.83
G05
X48.95Y-47.83G85X46.95Y-47.83
G05
T6
X105.505Y-108.74G85X104.205Y-108.74
G05
X105.505Y-113.82G85X104.205Y-113.82
G05
X105.505Y-118.9G85X104.205Y-118.9
G05
X114.395Y-108.74G85X113.095Y-108.74
G05
X114.395Y-113.82G85X113.095Y-113.82
G05
X114.395Y-118.9G85X113.095Y-118.9
G05
T7
X63.Y-42.18G85X64.Y-42.18
G05
X63.5Y-46.68G85X63.5Y-47.68
G05
X80.78Y-42.18G85X81.78Y-42.18
G05
X81.28Y-46.68G85X81.28Y-47.68
G05
X98.56Y-42.18G85X99.56Y-42.18
G05
X99.06Y-46.68G85X99.06Y-47.68
G05
X116.34Y-42.18G85X117.34Y-42.18
G05
X116.84Y-46.68G85X116.84Y-47.68
G05
X134.12Y-42.18G85X135.12Y-42.18
G05
X134.62Y-46.68G85X134.62Y-47.68
G05
X151.9Y-42.18G85X152.9Y-42.18
G05
X152.4Y-46.68G85X152.4Y-47.68
G05
X214.41Y-42.31G85X215.41Y-42.31
G05
X214.91Y-46.81G85X214.91Y-47.81
G05
X251.25Y-42.21G85X252.25Y-42.21
G05
X251.75Y-46.71G85X251.75Y-47.71
G05
X289.06Y-42.18G85X290.06Y-42.18
G05
X289.56Y-46.68G85X289.56Y-47.68
G05
T0
M30
