M48
;DRILL file {KiCad 4.0.7} date 05/23/21 23:09:56
;FORMAT={-:-/ absolute / inch / decimal}
FMAT,2
INCH,TZ
T1C0.016
T2C0.031
T3C0.035
T4C0.039
T5C0.043
T6C0.047
T7C0.059
T8C0.060
T9C0.079
%
G90
G05
M72
T1
X2.1031Y-1.7709
X2.111Y-1.8732
X2.1197Y-1.6996
X2.1339Y-1.628
X2.163Y-1.589
X2.1657Y-1.9051
X2.2307Y-1.9106
X2.3232Y-1.926
X2.3913Y-2.598
X2.4055Y-1.924
X2.4287Y-2.6618
X2.4441Y-2.761
X2.5299Y-2.75
X2.6114Y-2.7433
X2.6555Y-2.8469
X2.6575Y-1.915
X2.6972Y-2.9063
X2.7413Y-1.9185
X2.7413Y-2.961
X2.8272Y-2.9898
X2.8402Y-1.9161
X2.9193Y-3.0118
X2.9437Y-1.9205
X3.0185Y-3.0228
X3.0228Y-1.9173
X3.1008Y-1.9394
X3.1484Y-3.078
X3.1638Y-1.978
X3.2409Y-3.0555
X3.3177Y-2.0965
X3.3276Y-2.3079
X3.3287Y-2.3772
X3.3295Y-2.176
X3.3319Y-2.2398
X3.3669Y-2.4213
X3.4055Y-2.9961
X3.4398Y-2.4146
X3.5157Y-2.4177
X3.5421Y-4.6244
X3.5949Y-4.5472
X3.6071Y-2.4189
X3.6453Y-4.4882
X3.6504Y-2.9996
X3.6862Y-2.4122
X3.6937Y-4.3626
X3.7047Y-4.4638
X3.7354Y-4.2988
X3.7449Y-3.0941
X3.7685Y-4.237
X3.7728Y-2.4213
X3.7799Y-4.4146
X3.8059Y-4.1732
X3.8413Y-2.4213
X3.8654Y-4.2535
X3.8709Y-3.2024
X3.872Y-4.1142
X3.915Y-2.4311
X3.9224Y-4.5598
X3.9382Y-4.0547
X3.9724Y-3.2795
X3.9831Y-4.4835
X3.9909Y-3.9862
X4.0063Y-2.4276
X4.0669Y-3.3496
X4.0677Y-3.9205
X4.0921Y-2.585
X4.1142Y-4.5606
X4.124Y-4.6024
X4.1295Y-3.8587
X4.1512Y-3.4335
X4.1669Y-2.6575
X4.189Y-3.8059
X4.1933Y-2.7323
X4.1953Y-2.7984
X4.2043Y-4.4098
X4.2217Y-2.8709
X4.224Y-3.5311
X4.228Y-3.5421
X4.237Y-3.6453
X4.2437Y-3.7465
X4.2437Y-3.7512
X4.2516Y-4.3681
X4.3012Y-2.948
X4.311Y-4.3594
X4.3626Y-4.3571
X4.3736Y-3.0118
X4.4142Y-4.3638
X4.4626Y-3.3496
X4.4661Y-3.8807
X4.4669Y-3.0673
X4.4669Y-3.2476
X4.4697Y-3.5701
X4.4701Y-3.1591
X4.4724Y-3.7906
X4.476Y-4.3614
X4.4764Y-3.6646
X4.4776Y-3.4681
X4.4835Y-3.9689
X4.4969Y-4.0807
X4.5331Y-4.3602
X4.5512Y-4.1098
X4.576Y-4.335
X4.5811Y-4.1594
X4.5961Y-4.224
X4.6035Y-4.2866
X4.6496Y-1.385
X4.6803Y-1.4819
X5.1417Y-4.7638
X5.2606Y-4.8118
X6.2776Y-1.385
X6.3051Y-1.4906
X6.8622Y-3.4961
X7.0591Y-1.3862
X7.1453Y-1.474
X7.248Y-4.374
X7.2555Y-4.7972
X7.4094Y-3.4606
X7.9012Y-1.3882
X8.0122Y-1.487
X8.613Y-4.8059
X8.689Y-4.7201
X8.7087Y-4.122
X9.2138Y-3.9205
X9.3083Y-3.9886
X9.6177Y-2.9402
X9.6232Y-2.8079
X9.6744Y-2.8059
X9.6811Y-2.937
X9.8476Y-3.5087
X9.852Y-3.6441
X10.1417Y-1.387
X10.1882Y-1.4831
X11.2173Y-1.8445
X11.2287Y-1.9224
X11.3319Y-2.0177
X11.3366Y-1.9622
X11.9602Y-4.5937
X12.0433Y-4.6559
X12.0492Y-4.6102
X12.1484Y-4.6484
T2
X2.0461Y-4.4417
X2.0461Y-4.7417
X2.1846Y-1.5346
X2.1846Y-1.8346
X2.1869Y-4.1226
X2.1869Y-4.3194
X2.1933Y-4.4441
X2.1933Y-4.7441
X2.2169Y-3.5126
X2.2169Y-4.0126
X2.4339Y-2.5213
X2.8154Y-2.8559
X2.8154Y-3.3559
X2.8433Y-1.5063
X2.8433Y-1.8063
X2.8799Y-3.6343
X2.9339Y-2.5213
X3.0768Y-3.6343
X3.1815Y-4.4161
X3.1815Y-4.7161
X3.5354Y-1.5413
X3.5354Y-1.8413
X3.7181Y-3.2823
X3.7181Y-3.5823
X3.7201Y-3.6776
X3.7201Y-3.9776
X4.2465Y-1.5358
X4.2465Y-1.8358
X4.4205Y-4.0551
X4.6067Y-3.378
X4.6098Y-3.2098
X4.6268Y-3.563
X4.6268Y-3.7598
X4.7205Y-4.0551
X4.7276Y-4.437
X4.7315Y-4.3071
X4.7315Y-4.6024
X4.7323Y-4.7283
X4.7354Y-4.1811
X4.8004Y-3.9217
X4.8069Y-3.5826
X4.935Y-1.5409
X4.935Y-1.8409
X5.0067Y-3.378
X5.0098Y-3.2098
X5.0276Y-4.437
X5.0315Y-4.3071
X5.0315Y-4.6024
X5.0323Y-4.7283
X5.0354Y-4.1811
X5.0369Y-3.9226
X5.0429Y-3.585
X5.2185Y-3.4976
X5.2185Y-3.6945
X5.3091Y-4.2559
X5.3091Y-4.3543
X5.3346Y-3.8425
X5.3346Y-4.1425
X5.4492Y-2.3394
X5.4492Y-2.4378
X5.4685Y-3.8071
X5.4685Y-4.0039
X5.4764Y-4.1063
X5.4764Y-4.3031
X5.5441Y-3.515
X5.5441Y-3.6134
X5.6102Y-3.8071
X5.6102Y-3.9071
X5.6102Y-4.0071
X5.6102Y-4.1071
X5.628Y-1.5339
X5.628Y-1.8339
X5.6992Y-2.7433
X5.7047Y-3.6354
X5.7102Y-2.287
X5.7102Y-2.387
X5.7102Y-2.487
X5.7102Y-2.587
X5.8094Y-2.1575
X5.8228Y-4.4764
X5.8228Y-4.6732
X5.8961Y-2.7433
X5.9016Y-3.6354
X5.9102Y-3.8071
X5.9102Y-3.9071
X5.9102Y-4.0071
X5.9102Y-4.1071
X6.0063Y-2.1575
X6.0102Y-2.287
X6.0102Y-2.387
X6.0102Y-2.487
X6.0102Y-2.587
X6.0433Y-3.7362
X6.0433Y-3.9331
X6.0512Y-4.4134
X6.0512Y-4.6102
X6.1331Y-2.3776
X6.135Y-2.5094
X6.1929Y-3.626
X6.1929Y-3.926
X6.3299Y-2.3776
X6.3319Y-2.5094
X6.3976Y-4.122
X6.4055Y-3.7283
X6.4055Y-3.8543
X6.4055Y-3.9882
X6.4799Y-3.528
X6.5205Y-3.0331
X6.5205Y-3.3331
X6.5567Y-2.8319
X6.5783Y-3.528
X6.6256Y-2.5614
X6.6256Y-2.6598
X6.6496Y-3.0346
X6.6496Y-3.3346
X6.6976Y-4.122
X6.7055Y-3.7283
X6.7055Y-3.8543
X6.7055Y-3.9882
X6.7535Y-2.8319
X6.7835Y-3.5709
X6.874Y-2.5224
X6.874Y-2.6224
X6.874Y-2.7224
X6.874Y-2.8224
X6.9016Y-4.3898
X6.9016Y-4.5866
X6.9803Y-3.5709
X6.9882Y-4.1457
X6.9906Y-2.3969
X7.011Y-3.7047
X7.011Y-4.0047
X7.0512Y-4.4921
X7.0512Y-4.689
X7.0906Y-3.5748
X7.111Y-3.7047
X7.111Y-4.0047
X7.174Y-2.5224
X7.174Y-2.6224
X7.174Y-2.7224
X7.174Y-2.8224
X7.185Y-4.1457
X7.1874Y-2.3969
X7.211Y-3.7047
X7.211Y-4.0047
X7.2559Y-4.626
X7.2764Y-2.5378
X7.2776Y-2.6764
X7.2874Y-3.5748
X7.311Y-3.7047
X7.311Y-4.0047
X7.3268Y-4.1142
X7.3268Y-4.311
X7.3543Y-4.626
X7.4732Y-2.5378
X7.4744Y-2.6764
X7.5157Y-4.5
X7.5157Y-4.6969
X7.5386Y-4.0118
X7.5394Y-3.752
X7.5394Y-3.878
X7.5465Y-4.1457
X7.5978Y-2.6228
X7.5978Y-2.9228
X7.7205Y-4.374
X7.7205Y-4.5709
X7.8386Y-4.0118
X7.8394Y-3.752
X7.8394Y-3.878
X7.8465Y-4.1457
X7.8547Y-2.6112
X7.8547Y-2.9112
X7.9769Y-2.6026
X8.0171Y-2.738
X8.0191Y-2.864
X8.0354Y-3.9488
X8.0354Y-4.0984
X8.1077Y-3.0372
X8.1738Y-2.6026
X8.2077Y-3.0372
X8.2323Y-3.9488
X8.2323Y-4.0984
X8.3077Y-3.0372
X8.3171Y-2.738
X8.3191Y-2.864
X8.3362Y-2.5071
X8.4299Y-2.724
X8.4299Y-3.024
X8.4346Y-2.5071
X8.4569Y-3.4626
X8.4569Y-3.7626
X8.4869Y-3.2526
X8.4869Y-3.351
X8.6102Y-4.2717
X8.6469Y-3.5426
X8.6469Y-3.8426
X8.6701Y-3.9626
X8.7069Y-3.2542
X8.7069Y-3.3526
X8.7087Y-4.2717
X8.7769Y-3.5426
X8.7769Y-3.8426
X8.8669Y-3.9626
X8.8769Y-3.3626
X8.8811Y-4.1102
X8.8969Y-3.6457
X8.8969Y-3.8426
X9.0189Y-3.5858
X9.0189Y-3.6858
X9.0189Y-3.7858
X9.0189Y-3.8858
X9.1272Y-2.824
X9.1272Y-2.924
X9.1272Y-3.024
X9.1272Y-3.124
X9.1409Y-2.2709
X9.1409Y-2.6709
X9.1769Y-3.3626
X9.1811Y-4.1102
X9.3106Y-2.2669
X9.3106Y-2.6669
X9.3189Y-3.5858
X9.3189Y-3.6858
X9.3189Y-3.7858
X9.3189Y-3.8858
X9.4272Y-2.824
X9.4272Y-2.924
X9.4272Y-3.024
X9.4272Y-3.124
X9.4291Y-3.5472
X9.4606Y-3.752
X9.4606Y-3.9488
X9.5535Y-3.0118
X9.5579Y-3.148
X9.626Y-3.5472
X9.626Y-3.689
X9.626Y-3.989
X9.6417Y-4.4331
X9.6417Y-4.7331
X9.6681Y-4.1669
X9.7504Y-3.0118
X9.7547Y-3.148
X9.7559Y-3.6917
X9.7559Y-3.9917
X9.7665Y-4.1669
X9.9957Y-4.1732
X9.9957Y-4.2717
X10.0201Y-3.7217
X10.0201Y-4.0217
X10.1484Y-3.8213
X10.1484Y-4.0181
X10.1551Y-4.111
X10.1551Y-4.3079
X10.1803Y-3.5232
X10.2787Y-3.5232
X10.2831Y-3.7008
X10.2831Y-3.8008
X10.2831Y-3.9008
X10.2831Y-4.0008
X10.3894Y-3.5728
X10.4669Y-2.8126
X10.5369Y-2.9426
X10.5369Y-3.041
X10.5369Y-3.1742
X10.5369Y-3.2726
X10.5831Y-3.7008
X10.5831Y-3.8008
X10.5831Y-3.9008
X10.5831Y-4.0008
X10.5862Y-3.5728
X10.7269Y-3.3026
X10.7269Y-3.6026
X10.7335Y-3.8409
X10.7335Y-4.0378
X10.7669Y-2.8126
X10.8276Y-3.7311
X10.8591Y-4.1508
X10.8591Y-4.4508
X10.8713Y-3.8378
X10.8713Y-4.0346
X10.9846Y-2.8783
X10.9846Y-2.9783
X10.9846Y-3.0783
X10.9846Y-3.1783
X10.9957Y-2.352
X10.9957Y-2.752
X11.0047Y-3.8394
X11.0047Y-4.1394
X11.1276Y-3.7311
X11.1378Y-3.8425
X11.1378Y-4.0394
X11.1484Y-3.2957
X11.1484Y-3.4925
X11.1846Y-2.3488
X11.1846Y-2.7488
X11.2728Y-3.3626
X11.2846Y-2.8783
X11.2846Y-2.9783
X11.2846Y-3.0783
X11.2846Y-3.1783
X11.2965Y-3.6421
X11.2965Y-3.7421
X11.2965Y-3.8421
X11.2965Y-3.9421
X11.4697Y-3.3626
X11.5965Y-3.6421
X11.5965Y-3.7421
X11.5965Y-3.8421
X11.5965Y-3.9421
X11.7087Y-3.8189
X11.7102Y-3.9539
X11.7217Y-3.4142
X11.7228Y-3.5819
X11.7369Y-3.2626
X11.9055Y-3.8189
X11.9071Y-3.9539
X12.0369Y-3.2626
X12.1217Y-3.4142
X12.1228Y-3.5819
X12.3169Y-3.8926
X12.3269Y-3.6126
X12.3269Y-3.711
X12.5569Y-3.6126
X12.5569Y-3.711
X12.6169Y-3.8926
T3
X3.3335Y-4.626
X3.4335Y-4.626
T4
X1.1378Y-4.265
X1.1378Y-4.365
X1.2791Y-4.2657
X1.2791Y-4.3657
X2.4269Y-3.7226
X2.5969Y-4.3126
X2.6238Y-3.7226
X2.6969Y-4.3126
X2.7969Y-4.3126
X2.8457Y-2.1177
X2.8457Y-2.3146
X3.1902Y-3.8917
X3.2902Y-3.8917
X3.3902Y-3.8917
X3.9016Y-3.6827
X4.0984Y-3.6827
X4.8004Y-3.8232
X4.8069Y-3.681
X5.0369Y-3.8242
X5.0429Y-3.6835
X5.3602Y-2.1209
X5.4602Y-2.1209
X6.176Y-2.0354
X6.276Y-2.0354
X6.3961Y-2.6945
X6.3961Y-2.7945
X7.3244Y-2.1827
X7.3244Y-2.2827
X8.3269Y-2.1626
X8.4269Y-2.1626
X8.5269Y-2.1626
X9.5626Y-2.3236
X9.5626Y-2.4236
X11.1319Y-2.2154
X11.2319Y-2.2154
X12.3882Y-2.4331
X12.3882Y-2.5331
T5
X1.5937Y-4.5984
X1.6024Y-2.0535
X1.6024Y-2.3528
X1.6039Y-2.6035
X1.6039Y-2.9035
X1.6039Y-3.1035
X1.6039Y-3.3035
X1.6055Y-4.7323
X1.6075Y-3.5969
X1.6102Y-3.7606
X1.6102Y-3.9606
X1.6102Y-4.1606
X1.6102Y-4.4606
X1.6126Y-3.4429
X1.8024Y-2.0535
X1.8024Y-2.3528
X1.8937Y-4.5984
X1.9031Y-2.6035
X1.9031Y-2.9035
X1.9031Y-3.1035
X1.9031Y-3.3035
X1.9055Y-4.7323
X1.9075Y-3.5969
X1.9094Y-3.7606
X1.9094Y-3.9606
X1.9094Y-4.1606
X1.9094Y-4.4606
X1.9126Y-3.4429
X2.0024Y-2.0535
X2.0024Y-2.3528
X2.0264Y-2.528
X2.0299Y-2.8598
X2.037Y-4.0236
X2.037Y-4.3236
X2.0386Y-2.715
X2.0386Y-2.9957
X2.0386Y-3.2957
X2.0437Y-3.5949
X2.0437Y-3.8949
X2.3024Y-2.0535
X2.3024Y-2.3528
X2.3264Y-2.528
X2.3299Y-2.8598
X2.3386Y-2.715
X2.4913Y-2.0799
X2.4913Y-2.3799
X2.8862Y-3.5067
X3.1862Y-3.5067
X3.2386Y-2.0354
X3.2386Y-2.3354
X3.3957Y-2.0547
X3.3957Y-2.3539
X3.5957Y-2.0547
X3.5957Y-2.3539
X3.7957Y-2.0547
X3.7957Y-2.3539
X4.0776Y-2.4839
X4.0776Y-2.7831
X4.0957Y-2.0547
X4.0957Y-2.3539
X4.2591Y-2.0606
X4.2591Y-2.3606
X4.3776Y-2.4839
X4.3776Y-2.7831
X4.4516Y-2.0681
X4.4516Y-2.3673
X4.5776Y-2.4839
X4.5776Y-2.7831
X4.7516Y-2.0681
X4.7516Y-2.3673
X4.7776Y-2.4839
X4.7776Y-2.7831
X4.9516Y-2.0681
X4.9516Y-2.3673
X5.1516Y-2.0681
X5.1516Y-2.3673
X7.0197Y-3.0906
X7.0197Y-3.3898
X7.2197Y-3.0906
X7.2197Y-3.3898
X7.4197Y-3.0906
X7.4197Y-3.3898
X7.6449Y-2.4681
X7.7197Y-3.0906
X7.7197Y-3.3898
X7.7268Y-2.6112
X7.7268Y-2.9112
X7.8661Y-3.0902
X7.8661Y-3.3902
X7.9449Y-2.4681
X8.6283Y-2.4118
X8.6283Y-2.6118
X8.6283Y-2.8118
X8.6283Y-3.1118
X8.9276Y-2.4118
X8.9276Y-2.6118
X8.9276Y-2.8118
X8.9276Y-3.1118
X9.902Y-2.6339
X9.902Y-2.8339
X9.902Y-3.0339
X9.902Y-3.3339
X10.2012Y-2.6339
X10.2012Y-2.8339
X10.2012Y-3.0339
X10.2012Y-3.3339
X11.4843Y-2.3756
X11.4843Y-2.5756
X11.4843Y-2.7756
X11.4843Y-3.0756
X11.7835Y-2.3756
X11.7835Y-2.5756
X11.7835Y-2.7756
X11.7835Y-3.0756
X12.224Y-4.0236
X12.224Y-4.3236
X12.224Y-4.5236
X12.224Y-4.7236
X12.3973Y-2.7363
X12.3973Y-2.9363
X12.3973Y-3.1363
X12.3973Y-3.4363
X12.5232Y-4.0236
X12.5232Y-4.3236
X12.5232Y-4.5236
X12.5232Y-4.7236
X12.6965Y-2.7363
X12.6965Y-2.9363
X12.6965Y-3.1363
X12.6965Y-3.4363
T6
X2.3769Y-3.0957
X2.3769Y-3.2926
X3.1484Y-2.8811
X3.1484Y-3.078
X4.3063Y-4.4843
X4.3063Y-4.6811
X6.2709Y-4.2874
X6.2709Y-4.4843
X6.2709Y-4.6811
X6.4677Y-4.4843
X6.4677Y-4.6811
X6.6646Y-4.2874
X6.6646Y-4.4843
X6.6646Y-4.6811
X7.9709Y-4.2874
X7.9709Y-4.4843
X7.9709Y-4.6811
X8.1677Y-4.4843
X8.1677Y-4.6811
X8.3646Y-4.2874
X8.3646Y-4.4843
X8.3646Y-4.6811
X8.9709Y-4.2874
X8.9709Y-4.4843
X8.9709Y-4.6811
X9.1677Y-4.4843
X9.1677Y-4.6811
X9.3646Y-4.2874
X9.3646Y-4.4843
X9.3646Y-4.6811
X10.3094Y-4.2874
X10.3094Y-4.4843
X10.3094Y-4.6811
X10.5063Y-4.4843
X10.5063Y-4.6811
X10.7031Y-4.2874
X10.7031Y-4.4843
X10.7031Y-4.6811
X11.5094Y-4.2874
X11.5094Y-4.4843
X11.5094Y-4.6811
X11.7063Y-4.4843
X11.7063Y-4.6811
X11.9031Y-4.2874
X11.9031Y-4.4843
X11.9031Y-4.6811
T8
X1.311Y-3.8504
X1.311Y-4.0504
X1.3268Y-3.1417
X1.3268Y-3.3417
X1.3268Y-3.5417
X1.3465Y-2.6693
X1.3465Y-2.8693
X1.3551Y-2.2087
X1.3551Y-2.4087
X1.3575Y-1.7445
X1.3575Y-1.9445
X3.6697Y-2.5917
X3.8697Y-2.5917
X4.974Y-2.5965
X5.174Y-2.5965
X8.0697Y-3.276
X8.2697Y-3.276
T9
X6.4205Y-1.711
X6.5858Y-1.9362
X6.7453Y-2.1114
X6.9047Y-1.9614
X7.4106Y-1.7134
X7.576Y-1.9386
X7.7354Y-2.1138
X7.8949Y-1.9638
X9.0287Y-2.1
X9.1787Y-1.9
X9.1787Y-2.1
X9.3287Y-2.1
X10.5287Y-2.1
X10.6787Y-1.9
X10.6787Y-2.1
X10.8287Y-2.1
X12.05Y-2.1
X12.2Y-1.9
X12.2Y-2.1
X12.35Y-2.1
T4
X1.7028Y-1.7256G85X1.7028Y-1.8043
G05
X1.9272Y-1.6469G85X1.8484Y-1.6469
G05
X1.9272Y-1.8831G85X1.8484Y-1.8831
G05
T6
X4.1537Y-4.2811G85X4.1026Y-4.2811
G05
X4.1537Y-4.4811G85X4.1026Y-4.4811
G05
X4.1537Y-4.6811G85X4.1026Y-4.6811
G05
X4.5037Y-4.2811G85X4.4526Y-4.2811
G05
X4.5037Y-4.4811G85X4.4526Y-4.4811
G05
X4.5037Y-4.6811G85X4.4526Y-4.6811
G05
T7
X2.4803Y-1.6606G85X2.5197Y-1.6606
G05
X2.5Y-1.8378G85X2.5Y-1.8772
G05
X3.1803Y-1.6606G85X3.2197Y-1.6606
G05
X3.2Y-1.8378G85X3.2Y-1.8772
G05
X3.8803Y-1.6606G85X3.9197Y-1.6606
G05
X3.9Y-1.8378G85X3.9Y-1.8772
G05
X4.5803Y-1.6606G85X4.6197Y-1.6606
G05
X4.6Y-1.8378G85X4.6Y-1.8772
G05
X5.2803Y-1.6606G85X5.3197Y-1.6606
G05
X5.3Y-1.8378G85X5.3Y-1.8772
G05
X5.9803Y-1.6606G85X6.0197Y-1.6606
G05
X6.Y-1.8378G85X6.Y-1.8772
G05
X8.4413Y-1.6657G85X8.4807Y-1.6657
G05
X8.461Y-1.8429G85X8.461Y-1.8823
G05
X9.8917Y-1.6618G85X9.9311Y-1.6618
G05
X9.9114Y-1.839G85X9.9114Y-1.8783
G05
X11.3803Y-1.6606G85X11.4197Y-1.6606
G05
X11.4Y-1.8378G85X11.4Y-1.8772
G05
T0
M30
