M48
;DRILL file {KiCad 4.0.7} date 05/04/21 11:15:45
;FORMAT={-:-/ absolute / metric / decimal}
FMAT,2
METRIC,TZ
T1C2.000
T2C3.100
%
G90
G05
M71
T1
X168.52Y-40.29
X176.14Y-45.37
X193.67Y-40.35
X201.29Y-45.43
X229.33Y-39.37
X236.95Y-44.45
X267.43Y-39.37
X275.05Y-44.45
X306.07Y-39.37
X313.69Y-44.45
T2
X31.Y-38.
X31.1Y-119.3
X137.19Y-72.81
X137.8Y-116.96
X219.47Y-116.06
X252.73Y-57.28
X323.Y-38.
X323.1Y-119.3
T1
X59.Y-38.68G85X59.Y-38.68
G05
X59.Y-41.855G85X59.Y-41.855
G05
X68.Y-38.68G85X68.Y-38.68
G05
X68.Y-41.855G85X68.Y-41.855
G05
X76.78Y-38.68G85X76.78Y-38.68
G05
X76.78Y-41.855G85X76.78Y-41.855
G05
X85.78Y-38.68G85X85.78Y-38.68
G05
X85.78Y-41.855G85X85.78Y-41.855
G05
X94.56Y-38.68G85X94.56Y-38.68
G05
X94.56Y-41.855G85X94.56Y-41.855
G05
X103.56Y-38.68G85X103.56Y-38.68
G05
X103.56Y-41.855G85X103.56Y-41.855
G05
X112.34Y-38.68G85X112.34Y-38.68
G05
X112.34Y-41.855G85X112.34Y-41.855
G05
X121.34Y-38.68G85X121.34Y-38.68
G05
X121.34Y-41.855G85X121.34Y-41.855
G05
X130.12Y-38.68G85X130.12Y-38.68
G05
X130.12Y-41.855G85X130.12Y-41.855
G05
X139.12Y-38.68G85X139.12Y-38.68
G05
X139.12Y-41.855G85X139.12Y-41.855
G05
X147.9Y-38.68G85X147.9Y-38.68
G05
X147.9Y-41.855G85X147.9Y-41.855
G05
X156.9Y-38.68G85X156.9Y-38.68
G05
X156.9Y-41.855G85X156.9Y-41.855
G05
X210.41Y-38.81G85X210.41Y-38.81
G05
X210.41Y-41.985G85X210.41Y-41.985
G05
X219.41Y-38.81G85X219.41Y-38.81
G05
X219.41Y-41.985G85X219.41Y-41.985
G05
X247.25Y-38.71G85X247.25Y-38.71
G05
X247.25Y-41.885G85X247.25Y-41.885
G05
X256.25Y-38.71G85X256.25Y-38.71
G05
X256.25Y-41.885G85X256.25Y-41.885
G05
X285.06Y-38.68G85X285.06Y-38.68
G05
X285.06Y-41.855G85X285.06Y-41.855
G05
X294.06Y-38.68G85X294.06Y-38.68
G05
X294.06Y-41.855G85X294.06Y-41.855
G05
T0
M30
