G04 #@! TF.FileFunction,Soldermask,Top*
%FSLAX46Y46*%
G04 Gerber Fmt 4.6, Leading zero omitted, Abs format (unit mm)*
G04 Created by KiCad (PCBNEW 4.0.7) date 06/12/21 10:13:34*
%MOMM*%
%LPD*%
G01*
G04 APERTURE LIST*
%ADD10C,0.100000*%
%ADD11C,2.000000*%
%ADD12O,2.000000X2.000000*%
%ADD13R,2.800000X2.800000*%
%ADD14C,2.800000*%
%ADD15R,2.600000X2.600000*%
%ADD16O,2.600000X2.600000*%
%ADD17R,2.000000X2.000000*%
%ADD18C,3.400000*%
%ADD19C,2.400000*%
%ADD20C,2.200000*%
%ADD21O,2.400000X2.400000*%
%ADD22O,3.900000X2.900000*%
%ADD23O,2.900000X3.900000*%
%ADD24R,2.200000X2.200000*%
%ADD25O,2.200000X2.200000*%
%ADD26R,3.400000X3.400000*%
%ADD27C,3.500000*%
%ADD28R,3.900000X3.900000*%
%ADD29C,2.900000*%
%ADD30R,2.100000X2.100000*%
%ADD31O,2.100000X2.100000*%
%ADD32R,2.400000X2.400000*%
%ADD33C,1.920000*%
%ADD34R,1.920000X1.920000*%
G04 APERTURE END LIST*
D10*
D11*
X281862000Y-115128000D03*
D12*
X281862000Y-107508000D03*
D13*
X79970000Y-78180000D03*
D14*
X79970000Y-73180000D03*
D15*
X82260000Y-51700000D03*
D16*
X82260000Y-59320000D03*
D17*
X128090000Y-91060000D03*
D11*
X128090000Y-93560000D03*
D18*
X196480000Y-53690000D03*
X192430000Y-49240000D03*
D19*
X192670000Y-40350000D03*
X200290000Y-45430000D03*
D18*
X200530000Y-49880000D03*
X188230000Y-43520000D03*
D11*
X107860000Y-46630000D03*
D12*
X107860000Y-39010000D03*
D15*
X59400000Y-68960000D03*
D16*
X51780000Y-68960000D03*
D15*
X48450000Y-91360000D03*
D16*
X40830000Y-91360000D03*
D20*
X314892000Y-79662000D03*
X314892000Y-69502000D03*
X314892000Y-74582000D03*
X322492000Y-74582000D03*
X322492000Y-79662000D03*
X322492000Y-69502000D03*
X314892000Y-87282000D03*
X322492000Y-87282000D03*
D21*
X76780000Y-41855000D03*
X85780000Y-41855000D03*
X76780000Y-38680000D03*
X85780000Y-38680000D03*
D22*
X81280000Y-42180000D03*
D23*
X81280000Y-47180000D03*
D24*
X86110000Y-98850000D03*
D25*
X83570000Y-98850000D03*
X81030000Y-98850000D03*
D20*
X120690000Y-52530000D03*
X130850000Y-52530000D03*
X125770000Y-52530000D03*
X125770000Y-60130000D03*
X120690000Y-60130000D03*
X130850000Y-60130000D03*
X113070000Y-52530000D03*
X113070000Y-60130000D03*
D21*
X59000000Y-41855000D03*
X68000000Y-41855000D03*
X59000000Y-38680000D03*
X68000000Y-38680000D03*
D22*
X63500000Y-42180000D03*
D23*
X63500000Y-47180000D03*
D18*
X171330000Y-53630000D03*
X167280000Y-49180000D03*
D19*
X167520000Y-40290000D03*
X175140000Y-45370000D03*
D18*
X175380000Y-49820000D03*
X163080000Y-43460000D03*
D17*
X236700000Y-98700000D03*
D12*
X229080000Y-91080000D03*
X236700000Y-96160000D03*
X229080000Y-93620000D03*
X236700000Y-93620000D03*
X229080000Y-96160000D03*
X236700000Y-91080000D03*
X229080000Y-98700000D03*
D11*
X312850000Y-98872000D03*
D12*
X320470000Y-98872000D03*
D17*
X286930000Y-92510000D03*
D12*
X294550000Y-100130000D03*
X286930000Y-95050000D03*
X294550000Y-97590000D03*
X286930000Y-97590000D03*
X294550000Y-95050000D03*
X286930000Y-100130000D03*
X294550000Y-92510000D03*
D11*
X165620000Y-77040000D03*
D12*
X165620000Y-84660000D03*
D20*
X111190000Y-63090000D03*
X121350000Y-63090000D03*
X116270000Y-63090000D03*
X116270000Y-70690000D03*
X111190000Y-70690000D03*
X121350000Y-70690000D03*
X103570000Y-63090000D03*
X103570000Y-70690000D03*
D11*
X132550000Y-93840000D03*
X132550000Y-88840000D03*
X117520000Y-95500000D03*
X117520000Y-90500000D03*
X172300000Y-90700000D03*
X177300000Y-90700000D03*
X147900000Y-118700000D03*
X147900000Y-113700000D03*
X179100000Y-119100000D03*
X179100000Y-114100000D03*
X153700000Y-112100000D03*
X153700000Y-117100000D03*
X175300000Y-111500000D03*
X175300000Y-116500000D03*
X190900000Y-119300000D03*
X190900000Y-114300000D03*
D15*
X48400000Y-120200000D03*
D16*
X40780000Y-120200000D03*
D15*
X51910000Y-91310000D03*
D16*
X51910000Y-98930000D03*
D15*
X51780000Y-76090000D03*
D16*
X51780000Y-83710000D03*
D15*
X48100000Y-116800000D03*
D16*
X40480000Y-116800000D03*
D15*
X40960000Y-87450000D03*
D16*
X48580000Y-87450000D03*
D15*
X51740000Y-102200000D03*
D16*
X51740000Y-109820000D03*
D15*
X73310000Y-89070000D03*
D16*
X80930000Y-89070000D03*
D15*
X59180000Y-72640000D03*
D16*
X51560000Y-72640000D03*
D26*
X33700000Y-79800000D03*
D18*
X33700000Y-84880000D03*
X33700000Y-89960000D03*
D26*
X33300000Y-97800000D03*
D18*
X33300000Y-102880000D03*
D11*
X127700000Y-112700000D03*
D12*
X120080000Y-112700000D03*
D11*
X55710000Y-112880000D03*
D12*
X55710000Y-120500000D03*
D11*
X94440000Y-83370000D03*
D12*
X94440000Y-90990000D03*
D11*
X51970000Y-112820000D03*
D12*
X51970000Y-120440000D03*
D11*
X94490000Y-101030000D03*
D12*
X94490000Y-93410000D03*
D11*
X127900000Y-106200000D03*
D12*
X120280000Y-106200000D03*
D11*
X157300000Y-92100000D03*
D12*
X157300000Y-99720000D03*
D11*
X135500000Y-97600000D03*
D12*
X135500000Y-105220000D03*
D11*
X168900000Y-77080000D03*
D12*
X168900000Y-84700000D03*
D11*
X80810000Y-119790000D03*
D12*
X80810000Y-112170000D03*
D11*
X162700000Y-101300000D03*
D12*
X170320000Y-101300000D03*
D11*
X199300000Y-105300000D03*
D12*
X191680000Y-105300000D03*
D11*
X162500000Y-104700000D03*
D12*
X170120000Y-104700000D03*
D11*
X199100000Y-101900000D03*
D12*
X191480000Y-101900000D03*
D11*
X162700000Y-97900000D03*
D12*
X170320000Y-97900000D03*
D11*
X191500000Y-98500000D03*
D12*
X199120000Y-98500000D03*
D11*
X191500000Y-95300000D03*
D12*
X199120000Y-95300000D03*
D11*
X254510000Y-102150000D03*
D12*
X254510000Y-94530000D03*
D11*
X275512000Y-105476000D03*
D12*
X275512000Y-97856000D03*
D11*
X247800000Y-101390000D03*
D12*
X247800000Y-93770000D03*
D11*
X219632000Y-97602000D03*
D12*
X219632000Y-89982000D03*
D20*
X40900000Y-105680000D03*
X40900000Y-95520000D03*
X40900000Y-100600000D03*
X48500000Y-100600000D03*
X48500000Y-105680000D03*
X48500000Y-95520000D03*
X40900000Y-113300000D03*
X48500000Y-113300000D03*
D24*
X71042000Y-109540000D03*
D25*
X68502000Y-109540000D03*
X65962000Y-109540000D03*
D11*
X204100000Y-104100000D03*
X209100000Y-104100000D03*
X186100000Y-104500000D03*
X186100000Y-109500000D03*
X139100000Y-109300000D03*
X139100000Y-104300000D03*
X196100000Y-116100000D03*
X196100000Y-111100000D03*
X204100000Y-100300000D03*
X209100000Y-100300000D03*
X185100000Y-90800000D03*
X180100000Y-90800000D03*
X182500000Y-105300000D03*
X177500000Y-105300000D03*
X268890000Y-90750000D03*
X263890000Y-90750000D03*
D26*
X34200000Y-67800000D03*
D18*
X34200000Y-72880000D03*
D11*
X244500000Y-93700000D03*
D12*
X244500000Y-101320000D03*
D11*
X222934000Y-89982000D03*
D12*
X222934000Y-97602000D03*
D11*
X298118000Y-82870000D03*
D12*
X305738000Y-82870000D03*
D11*
X272464000Y-91506000D03*
D12*
X272464000Y-83886000D03*
D11*
X214806000Y-87950000D03*
D12*
X214806000Y-95570000D03*
D11*
X273480000Y-71440000D03*
D12*
X265860000Y-71440000D03*
D11*
X233094000Y-85410000D03*
D12*
X225474000Y-85410000D03*
D11*
X257940000Y-109420000D03*
X257940000Y-104420000D03*
X257770000Y-102060000D03*
X257770000Y-97060000D03*
D27*
X323000000Y-38000000D03*
X31100000Y-119300000D03*
X31000000Y-38000000D03*
X323100000Y-119300000D03*
D11*
X153500000Y-94900000D03*
X153500000Y-99900000D03*
X138900000Y-96700000D03*
X138900000Y-101700000D03*
X282624000Y-99888000D03*
X282624000Y-104888000D03*
X279068000Y-99888000D03*
X279068000Y-104888000D03*
X280846000Y-90998000D03*
X275846000Y-90998000D03*
X239500000Y-90100000D03*
X244500000Y-90100000D03*
X225220000Y-100650000D03*
X220220000Y-100650000D03*
X225982000Y-97602000D03*
X225982000Y-92602000D03*
X240300000Y-100300000D03*
X240300000Y-95300000D03*
X283170000Y-88710000D03*
X283170000Y-83710000D03*
D15*
X51470000Y-64210000D03*
D16*
X59090000Y-64210000D03*
D24*
X87210000Y-117500000D03*
D20*
X84670000Y-117500000D03*
D15*
X199800000Y-86110000D03*
D16*
X199800000Y-78490000D03*
D15*
X108180000Y-59960000D03*
D16*
X108180000Y-52340000D03*
D18*
X233140000Y-53340000D03*
X236950000Y-53340000D03*
D19*
X229330000Y-39370000D03*
X236950000Y-44450000D03*
D18*
X229330000Y-53340000D03*
X233140000Y-48260000D03*
X271240000Y-53340000D03*
X275050000Y-53340000D03*
D19*
X267430000Y-39370000D03*
X275050000Y-44450000D03*
D18*
X267430000Y-53340000D03*
X271240000Y-48260000D03*
X309880000Y-53340000D03*
X313690000Y-53340000D03*
D19*
X306070000Y-39370000D03*
X313690000Y-44450000D03*
D18*
X306070000Y-53340000D03*
X309880000Y-48260000D03*
D28*
X47950000Y-47830000D03*
X47950000Y-41830000D03*
X43250000Y-44830000D03*
D26*
X34480000Y-44310000D03*
D18*
X34480000Y-49390000D03*
D26*
X34420000Y-56100000D03*
D18*
X34420000Y-61180000D03*
D11*
X74520000Y-64040000D03*
D12*
X61820000Y-64040000D03*
D11*
X162700000Y-94700000D03*
D12*
X170320000Y-94700000D03*
D11*
X142950000Y-46580000D03*
D12*
X142950000Y-38960000D03*
D11*
X72220000Y-45880000D03*
D12*
X72220000Y-38260000D03*
D11*
X125350000Y-46760000D03*
D12*
X125350000Y-39140000D03*
D11*
X55490000Y-46600000D03*
D12*
X55490000Y-38980000D03*
D11*
X89800000Y-46770000D03*
D12*
X89800000Y-39150000D03*
D20*
X48340000Y-73750000D03*
X48340000Y-83910000D03*
X48340000Y-78830000D03*
X40740000Y-78830000D03*
X40740000Y-73750000D03*
X40740000Y-83910000D03*
X48340000Y-66130000D03*
X40740000Y-66130000D03*
X188460000Y-86100000D03*
X178300000Y-86100000D03*
X183380000Y-86100000D03*
X183380000Y-78500000D03*
X188460000Y-78500000D03*
X178300000Y-78500000D03*
X196080000Y-86100000D03*
X196080000Y-78500000D03*
X96410000Y-59790000D03*
X86250000Y-59790000D03*
X91330000Y-59790000D03*
X91330000Y-52190000D03*
X96410000Y-52190000D03*
X86250000Y-52190000D03*
X104030000Y-59790000D03*
X104030000Y-52190000D03*
X50860000Y-59760000D03*
X40700000Y-59760000D03*
X45780000Y-59760000D03*
X45780000Y-52160000D03*
X50860000Y-52160000D03*
X40700000Y-52160000D03*
X58480000Y-59760000D03*
X58480000Y-52160000D03*
D29*
X164280000Y-118900000D03*
X159280000Y-118900000D03*
X169280000Y-118900000D03*
X169280000Y-113900000D03*
X164280000Y-113900000D03*
X159280000Y-113900000D03*
X169280000Y-108900000D03*
X159280000Y-108900000D03*
X207460000Y-118900000D03*
X202460000Y-118900000D03*
X212460000Y-118900000D03*
X212460000Y-113900000D03*
X207460000Y-113900000D03*
X202460000Y-113900000D03*
X212460000Y-108900000D03*
X202460000Y-108900000D03*
X232860000Y-118900000D03*
X227860000Y-118900000D03*
X237860000Y-118900000D03*
X237860000Y-113900000D03*
X232860000Y-113900000D03*
X227860000Y-113900000D03*
X237860000Y-108900000D03*
X227860000Y-108900000D03*
X297340000Y-118900000D03*
X292340000Y-118900000D03*
X302340000Y-118900000D03*
X302340000Y-113900000D03*
X297340000Y-113900000D03*
X292340000Y-113900000D03*
X302340000Y-108900000D03*
X292340000Y-108900000D03*
X266860000Y-118900000D03*
X261860000Y-118900000D03*
X271860000Y-118900000D03*
X271860000Y-113900000D03*
X266860000Y-113900000D03*
X261860000Y-113900000D03*
X271860000Y-108900000D03*
X261860000Y-108900000D03*
D26*
X210050000Y-83210000D03*
D18*
X204970000Y-83210000D03*
D26*
X126340000Y-65950000D03*
D18*
X131420000Y-65950000D03*
D26*
X98290000Y-65830000D03*
D18*
X93210000Y-65830000D03*
D11*
X149900000Y-92340000D03*
X144900000Y-92340000D03*
D17*
X140820000Y-91780000D03*
D11*
X140820000Y-89280000D03*
D17*
X184300000Y-117500000D03*
D11*
X186800000Y-117500000D03*
D17*
X134850000Y-110600000D03*
D11*
X134850000Y-108100000D03*
D17*
X248070000Y-105840000D03*
D11*
X245570000Y-105840000D03*
D17*
X221200000Y-108500000D03*
D11*
X218700000Y-108500000D03*
X302440000Y-100430000D03*
X297440000Y-100430000D03*
X291330000Y-85410000D03*
X286330000Y-85410000D03*
X302400000Y-97000000D03*
X297400000Y-97000000D03*
X247770000Y-79960000D03*
X242770000Y-79960000D03*
X247660000Y-76500000D03*
X242660000Y-76500000D03*
X307920000Y-90980000D03*
D12*
X297760000Y-90980000D03*
D11*
X236490000Y-67740000D03*
D12*
X236490000Y-57580000D03*
D11*
X284090000Y-69820000D03*
D12*
X284090000Y-59660000D03*
D11*
X307890000Y-86720000D03*
D12*
X297730000Y-86720000D03*
D11*
X279290000Y-59740000D03*
D12*
X279290000Y-69900000D03*
D11*
X232180000Y-57680000D03*
D12*
X232180000Y-67840000D03*
D17*
X142500000Y-96700000D03*
D12*
X150120000Y-104320000D03*
X142500000Y-99240000D03*
X150120000Y-101780000D03*
X142500000Y-101780000D03*
X150120000Y-99240000D03*
X142500000Y-104320000D03*
X150120000Y-96700000D03*
D17*
X185700000Y-94100000D03*
D12*
X178080000Y-101720000D03*
X183160000Y-94100000D03*
X180620000Y-101720000D03*
X180620000Y-94100000D03*
X183160000Y-101720000D03*
X178080000Y-94100000D03*
X185700000Y-101720000D03*
D17*
X268810000Y-101620000D03*
D12*
X261190000Y-94000000D03*
X268810000Y-99080000D03*
X261190000Y-96540000D03*
X268810000Y-96540000D03*
X261190000Y-99080000D03*
X268810000Y-94000000D03*
X261190000Y-101620000D03*
D17*
X231830000Y-71730000D03*
D12*
X239450000Y-79350000D03*
X231830000Y-74270000D03*
X239450000Y-76810000D03*
X231830000Y-76810000D03*
X239450000Y-74270000D03*
X231830000Y-79350000D03*
X239450000Y-71730000D03*
D17*
X279010000Y-73110000D03*
D12*
X286630000Y-80730000D03*
X279010000Y-75650000D03*
X286630000Y-78190000D03*
X279010000Y-78190000D03*
X286630000Y-75650000D03*
X279010000Y-80730000D03*
X286630000Y-73110000D03*
D27*
X252730000Y-57280000D03*
X219470000Y-116060000D03*
X137190000Y-72810000D03*
X137800000Y-116960000D03*
D11*
X120200000Y-120100000D03*
D12*
X127820000Y-120100000D03*
D11*
X127800000Y-116900000D03*
D12*
X120180000Y-116900000D03*
D11*
X147560000Y-54800000D03*
X152560000Y-54800000D03*
X177560000Y-60880000D03*
X182560000Y-60880000D03*
X166540000Y-71930000D03*
X171540000Y-71930000D03*
X149760000Y-69680000D03*
X144760000Y-69680000D03*
D17*
X138410000Y-61920000D03*
D11*
X138410000Y-59420000D03*
D17*
X168290000Y-67560000D03*
D11*
X168290000Y-65060000D03*
D30*
X138690000Y-53870000D03*
D31*
X136150000Y-53870000D03*
D30*
X162460000Y-70980000D03*
D31*
X162460000Y-68440000D03*
D17*
X152660000Y-65710000D03*
D12*
X145040000Y-58090000D03*
X152660000Y-63170000D03*
X145040000Y-60630000D03*
X152660000Y-60630000D03*
X145040000Y-63170000D03*
X152660000Y-58090000D03*
X145040000Y-65710000D03*
D17*
X182220000Y-71690000D03*
D12*
X174600000Y-64070000D03*
X182220000Y-69150000D03*
X174600000Y-66610000D03*
X182220000Y-66610000D03*
X174600000Y-69150000D03*
X182220000Y-64070000D03*
X174600000Y-71690000D03*
D17*
X121930000Y-99610000D03*
D11*
X121930000Y-97110000D03*
X155830000Y-63740000D03*
X160830000Y-63740000D03*
X184850000Y-67980000D03*
X189850000Y-67980000D03*
X160780000Y-60390000D03*
X155780000Y-60390000D03*
X189820000Y-64460000D03*
X184820000Y-64460000D03*
D17*
X122096000Y-90998000D03*
D11*
X122096000Y-93498000D03*
D17*
X127938000Y-99634000D03*
D11*
X127938000Y-97134000D03*
D29*
X109380000Y-118900000D03*
D22*
X104855000Y-118900000D03*
X113745000Y-118900000D03*
X113745000Y-113820000D03*
D29*
X109380000Y-113900000D03*
D22*
X104855000Y-113820000D03*
X113745000Y-108740000D03*
X104855000Y-108740000D03*
D21*
X247250000Y-41885000D03*
X256250000Y-41885000D03*
X247250000Y-38710000D03*
X256250000Y-38710000D03*
D22*
X251750000Y-42210000D03*
D23*
X251750000Y-47210000D03*
D21*
X210410000Y-41985000D03*
X219410000Y-41985000D03*
X210410000Y-38810000D03*
X219410000Y-38810000D03*
D22*
X214910000Y-42310000D03*
D23*
X214910000Y-47310000D03*
D21*
X130120000Y-41855000D03*
X139120000Y-41855000D03*
X130120000Y-38680000D03*
X139120000Y-38680000D03*
D22*
X134620000Y-42180000D03*
D23*
X134620000Y-47180000D03*
D21*
X147900000Y-41855000D03*
X156900000Y-41855000D03*
X147900000Y-38680000D03*
X156900000Y-38680000D03*
D22*
X152400000Y-42180000D03*
D23*
X152400000Y-47180000D03*
D21*
X94560000Y-41855000D03*
X103560000Y-41855000D03*
X94560000Y-38680000D03*
X103560000Y-38680000D03*
D22*
X99060000Y-42180000D03*
D23*
X99060000Y-47180000D03*
D21*
X112340000Y-41855000D03*
X121340000Y-41855000D03*
X112340000Y-38680000D03*
X121340000Y-38680000D03*
D22*
X116840000Y-42180000D03*
D23*
X116840000Y-47180000D03*
D21*
X285060000Y-41855000D03*
X294060000Y-41855000D03*
X285060000Y-38680000D03*
X294060000Y-38680000D03*
D22*
X289560000Y-42180000D03*
D23*
X289560000Y-47180000D03*
D11*
X127800000Y-109400000D03*
D12*
X120180000Y-109400000D03*
D11*
X119900000Y-103000000D03*
D12*
X112280000Y-103000000D03*
D11*
X233200000Y-104400000D03*
D12*
X225580000Y-104400000D03*
D11*
X244900000Y-112600000D03*
D12*
X244900000Y-120220000D03*
D32*
X61644000Y-94554000D03*
D19*
X66644000Y-94554000D03*
D32*
X104100000Y-93540000D03*
D19*
X99100000Y-93540000D03*
D15*
X201800000Y-62690000D03*
D16*
X194180000Y-62690000D03*
D33*
X208475000Y-77145000D03*
X211015000Y-77145000D03*
D34*
X205935000Y-77145000D03*
D11*
X199510000Y-73945000D03*
D12*
X199510000Y-66325000D03*
D11*
X192985000Y-66620000D03*
D12*
X192985000Y-74240000D03*
D15*
X196260000Y-73945000D03*
D16*
X196260000Y-66325000D03*
D24*
X211504000Y-54930000D03*
D25*
X214044000Y-54930000D03*
X216584000Y-54930000D03*
D20*
X318090000Y-109820000D03*
X318090000Y-119980000D03*
X318090000Y-114900000D03*
X310490000Y-114900000D03*
X310490000Y-109820000D03*
X310490000Y-119980000D03*
X318090000Y-102200000D03*
X310490000Y-102200000D03*
X219160000Y-71420000D03*
X219160000Y-61260000D03*
X219160000Y-66340000D03*
X226760000Y-66340000D03*
X226760000Y-71420000D03*
X226760000Y-61260000D03*
X219160000Y-79040000D03*
X226760000Y-79040000D03*
X251510000Y-77060000D03*
X251510000Y-66900000D03*
X251510000Y-71980000D03*
X259110000Y-71980000D03*
X259110000Y-77060000D03*
X259110000Y-66900000D03*
X251510000Y-84680000D03*
X259110000Y-84680000D03*
X291700000Y-70500000D03*
X291700000Y-60340000D03*
X291700000Y-65420000D03*
X299300000Y-65420000D03*
X299300000Y-70500000D03*
X299300000Y-60340000D03*
X291700000Y-78120000D03*
X299300000Y-78120000D03*
D11*
X214120000Y-76810000D03*
D12*
X214120000Y-69190000D03*
D15*
X63280000Y-52830000D03*
D16*
X63280000Y-60450000D03*
D11*
X55548000Y-104714000D03*
X55548000Y-109714000D03*
X73150000Y-92310000D03*
X78150000Y-92310000D03*
X56310000Y-89220000D03*
D12*
X56310000Y-101920000D03*
D11*
X71510000Y-72540000D03*
D12*
X71510000Y-85240000D03*
D13*
X60374000Y-83632000D03*
D14*
X60374000Y-78632000D03*
D17*
X164590000Y-89610000D03*
D11*
X167090000Y-89610000D03*
D17*
X253890000Y-106000000D03*
D11*
X253890000Y-108500000D03*
D17*
X258580000Y-89490000D03*
D11*
X261080000Y-89490000D03*
X203635000Y-69545000D03*
D12*
X211255000Y-69545000D03*
D11*
X202614000Y-66106000D03*
X207614000Y-66106000D03*
X203685000Y-72745000D03*
D12*
X211305000Y-72745000D03*
D32*
X72280000Y-58790000D03*
D19*
X72280000Y-53790000D03*
D17*
X214240000Y-63680000D03*
D11*
X211740000Y-63680000D03*
D30*
X28900000Y-110870000D03*
D31*
X28900000Y-108330000D03*
D30*
X32490000Y-110890000D03*
D31*
X32490000Y-108350000D03*
D30*
X314660000Y-61800000D03*
D31*
X314660000Y-64340000D03*
D30*
X242890000Y-59020000D03*
D31*
X242890000Y-61560000D03*
D30*
X282750000Y-56270000D03*
D31*
X285290000Y-56270000D03*
D30*
X186040000Y-55440000D03*
D31*
X186040000Y-57980000D03*
D30*
X159410000Y-51700000D03*
D31*
X156870000Y-51700000D03*
D11*
X117010000Y-85800000D03*
D12*
X127170000Y-85800000D03*
D11*
X127250000Y-81530000D03*
D12*
X117090000Y-81530000D03*
D11*
X282370000Y-94554000D03*
D12*
X274750000Y-94554000D03*
D17*
X313104000Y-91760000D03*
D11*
X313104000Y-94260000D03*
D17*
X318946000Y-91760000D03*
D11*
X318946000Y-94260000D03*
D17*
X267638000Y-83124000D03*
D11*
X267638000Y-80624000D03*
D17*
X267638000Y-74742000D03*
D11*
X267638000Y-77242000D03*
D17*
X221156000Y-85156000D03*
D11*
X221156000Y-82656000D03*
D17*
X215568000Y-82616000D03*
D11*
X215568000Y-85116000D03*
X271910000Y-104870000D03*
X271910000Y-99870000D03*
M02*
