M48
;DRILL file {KiCad 4.0.7} date 03/18/21 13:43:31
;FORMAT={-:-/ absolute / metric / decimal}
FMAT,2
METRIC,TZ
T1C2.000
T2C3.100
%
G90
G05
M71
T1
X151.89Y-34.87
X159.51Y-39.95
X173.84Y-34.67
X181.46Y-39.75
X206.09Y-34.85
X213.71Y-39.93
X241.69Y-34.45
X249.31Y-39.53
X276.19Y-34.65
X283.81Y-39.73
T2
X13.Y-36.
X13.Y-102.
X107.Y-98.
X114.5Y-49.
X185.Y-98.
X236.3Y-54.4
X290.Y-36.
X290.Y-102.
T1
X54.9Y-35.9G85X54.9Y-35.9
G05
X63.9Y-35.9G85X63.9Y-35.9
G05
X70.6Y-35.8G85X70.6Y-35.8
G05
X79.6Y-35.8G85X79.6Y-35.8
G05
X86.5Y-35.8G85X86.5Y-35.8
G05
X95.5Y-35.8G85X95.5Y-35.8
G05
X101.2Y-35.8G85X101.2Y-35.8
G05
X110.2Y-35.8G85X110.2Y-35.8
G05
X115.9Y-35.9G85X115.9Y-35.9
G05
X124.9Y-35.9G85X124.9Y-35.9
G05
X132.Y-35.8G85X132.Y-35.8
G05
X141.Y-35.8G85X141.Y-35.8
G05
X188.3Y-35.8G85X188.3Y-35.8
G05
X197.3Y-35.8G85X197.3Y-35.8
G05
X223.7Y-36.3G85X223.7Y-36.3
G05
X232.7Y-36.3G85X232.7Y-36.3
G05
X257.9Y-36.1G85X257.9Y-36.1
G05
X266.9Y-36.1G85X266.9Y-36.1
G05
T0
M30
