M48
;DRILL file {KiCad 4.0.7} date 04/06/21 20:17:06
;FORMAT={-:-/ absolute / metric / decimal}
FMAT,2
METRIC,TZ
T1C0.400
T2C0.800
T3C0.900
T4C1.000
T5C1.100
T6C1.200
T7C1.500
T8C1.520
T9C2.000
%
G90
G05
M71
T1
X99.58Y-114.89
X101.31Y-113.69
X101.38Y-105.32
X130.6Y-121.
X133.62Y-122.22
X159.45Y-35.18
X160.15Y-37.86
X174.3Y-88.8
X179.3Y-35.21
X181.49Y-37.44
X184.1Y-111.1
X184.29Y-121.85
X186.Y-78.9
X188.2Y-87.9
X199.05Y-35.26
X202.29Y-38.17
X218.77Y-122.07
X220.7Y-119.89
X221.2Y-104.7
X230.7Y-35.24
X232.94Y-37.19
X233.7Y-100.5
X236.1Y-102.1
X244.36Y-71.14
X244.53Y-74.66
X245.73Y-71.27
X245.9Y-74.6
X251.29Y-88.29
X251.5Y-94.43
X285.21Y-48.83
X285.32Y-47.27
X287.83Y-51.25
X287.95Y-49.84
T2
X55.49Y-38.98
X55.49Y-46.6
X62.7Y-63.91
X62.7Y-76.61
X72.28Y-39.13
X72.28Y-46.75
X76.33Y-111.98
X76.33Y-119.6
X79.91Y-111.96
X79.91Y-119.58
X83.21Y-111.98
X83.21Y-119.6
X89.8Y-39.15
X89.8Y-46.77
X91.36Y-95.94
X91.36Y-99.44
X93.65Y-108.42
X93.65Y-110.92
X93.79Y-104.01
X98.79Y-104.01
X98.98Y-95.94
X98.98Y-99.44
X103.37Y-87.1
X103.37Y-89.6
X103.49Y-93.71
X103.49Y-98.71
X107.86Y-39.01
X107.86Y-46.63
X110.9Y-90.56
X111.25Y-82.6
X111.25Y-85.1
X111.29Y-76.67
X111.29Y-79.17
X112.28Y-103.
X115.9Y-90.56
X119.02Y-76.52
X119.02Y-79.02
X119.02Y-82.52
X119.02Y-85.02
X119.9Y-103.
X119.94Y-90.45
X120.08Y-112.7
X120.18Y-109.4
X120.18Y-116.9
X120.2Y-120.1
X120.28Y-106.2
X124.94Y-90.45
X125.35Y-39.14
X125.35Y-46.76
X127.19Y-96.58
X127.7Y-112.7
X127.8Y-109.4
X127.8Y-116.9
X127.82Y-120.1
X127.9Y-106.2
X129.69Y-96.58
X134.85Y-108.1
X134.85Y-110.6
X135.5Y-97.6
X135.5Y-105.22
X138.41Y-59.42
X138.41Y-61.92
X138.9Y-96.7
X138.9Y-101.7
X139.1Y-104.3
X139.1Y-109.3
X142.5Y-96.7
X142.5Y-99.24
X142.5Y-101.78
X142.5Y-104.32
X142.95Y-38.96
X142.95Y-46.58
X144.76Y-69.68
X144.9Y-92.34
X145.04Y-58.09
X145.04Y-60.63
X145.04Y-63.17
X145.04Y-65.71
X147.56Y-54.8
X147.9Y-113.7
X147.9Y-118.7
X149.76Y-69.68
X149.9Y-92.34
X150.12Y-96.7
X150.12Y-99.24
X150.12Y-101.78
X150.12Y-104.32
X152.56Y-54.8
X152.66Y-58.09
X152.66Y-60.63
X152.66Y-63.17
X152.66Y-65.71
X153.5Y-94.9
X153.5Y-99.9
X153.7Y-112.1
X153.7Y-117.1
X155.78Y-60.39
X155.83Y-63.74
X157.3Y-92.1
X157.3Y-99.72
X160.78Y-60.39
X160.83Y-63.74
X162.5Y-104.7
X162.7Y-94.7
X162.7Y-97.9
X162.7Y-101.3
X166.3Y-81.1
X166.3Y-88.72
X166.54Y-71.93
X168.29Y-65.06
X168.29Y-67.56
X169.5Y-81.1
X169.5Y-88.72
X170.12Y-104.7
X170.32Y-94.7
X170.32Y-97.9
X170.32Y-101.3
X171.54Y-71.93
X172.3Y-90.7
X174.5Y-62.94
X174.5Y-65.48
X174.5Y-68.02
X174.5Y-70.56
X175.3Y-111.5
X175.3Y-116.5
X177.28Y-59.47
X177.3Y-90.7
X177.5Y-105.3
X178.08Y-94.1
X178.08Y-101.72
X179.1Y-114.1
X179.1Y-119.1
X180.1Y-90.8
X180.62Y-94.1
X180.62Y-101.72
X182.12Y-62.94
X182.12Y-65.48
X182.12Y-68.02
X182.12Y-70.56
X182.28Y-59.47
X182.5Y-105.3
X183.16Y-94.1
X183.16Y-101.72
X184.3Y-117.5
X185.1Y-90.8
X185.45Y-65.7
X185.47Y-62.25
X185.7Y-94.1
X185.7Y-101.72
X186.1Y-104.5
X186.1Y-109.5
X186.8Y-117.5
X190.45Y-65.7
X190.47Y-62.25
X190.9Y-114.3
X190.9Y-119.3
X191.48Y-101.9
X191.5Y-95.3
X191.5Y-98.5
X191.68Y-105.3
X193.55Y-65.95
X193.55Y-73.57
X196.1Y-111.1
X196.1Y-116.1
X199.1Y-101.9
X199.12Y-95.3
X199.12Y-98.5
X199.3Y-105.3
X200.48Y-66.03
X200.48Y-73.65
X204.1Y-100.3
X204.1Y-104.1
X204.44Y-70.19
X205.89Y-75.51
X208.43Y-75.51
X209.1Y-100.3
X209.1Y-104.1
X210.97Y-75.51
X212.06Y-70.19
X214.41Y-78.06
X214.41Y-85.68
X218.7Y-108.5
X219.52Y-88.72
X219.52Y-96.34
X219.98Y-83.6
X220.7Y-99.3
X221.2Y-108.5
X222.88Y-88.71
X222.88Y-96.33
X225.58Y-104.4
X225.7Y-99.3
X226.1Y-90.3
X226.1Y-95.3
X227.6Y-83.6
X229.08Y-91.08
X229.08Y-93.62
X229.08Y-96.16
X229.08Y-98.7
X231.83Y-71.73
X231.83Y-74.27
X231.83Y-76.81
X231.83Y-79.35
X232.18Y-57.68
X232.18Y-67.84
X233.2Y-104.4
X236.49Y-57.58
X236.49Y-67.74
X236.7Y-91.08
X236.7Y-93.62
X236.7Y-96.16
X236.7Y-98.7
X239.45Y-71.73
X239.45Y-74.27
X239.45Y-76.81
X239.45Y-79.35
X239.5Y-90.1
X240.3Y-95.3
X240.3Y-100.3
X242.66Y-76.5
X242.77Y-79.96
X242.8Y-105.3
X244.5Y-90.1
X244.5Y-93.7
X244.5Y-101.32
X244.9Y-112.6
X244.9Y-120.22
X245.3Y-105.3
X247.66Y-76.5
X247.77Y-79.96
X248.3Y-93.88
X248.3Y-101.5
X254.51Y-94.53
X254.51Y-102.15
X257.77Y-97.06
X257.77Y-102.06
X260.77Y-104.94
X261.19Y-94.
X261.19Y-96.54
X261.19Y-99.08
X261.19Y-101.62
X263.89Y-90.75
X265.77Y-104.94
X268.81Y-94.
X268.81Y-96.54
X268.81Y-99.08
X268.81Y-101.62
X268.89Y-90.75
X272.3Y-83.93
X272.3Y-91.55
X272.3Y-97.26
X272.3Y-102.26
X275.54Y-83.91
X275.54Y-91.53
X275.82Y-97.15
X275.82Y-102.15
X275.82Y-105.43
X275.82Y-113.05
X279.01Y-73.11
X279.01Y-75.65
X279.01Y-78.19
X279.01Y-80.73
X279.29Y-59.74
X279.29Y-69.9
X279.51Y-96.9
X279.51Y-104.52
X279.84Y-87.54
X279.84Y-92.54
X282.85Y-87.51
X282.85Y-92.51
X282.86Y-96.98
X282.86Y-101.98
X284.09Y-59.66
X284.09Y-69.82
X286.63Y-73.11
X286.63Y-75.65
X286.63Y-78.19
X286.63Y-80.73
X286.93Y-92.51
X286.93Y-95.05
X286.93Y-97.59
X286.93Y-100.13
X294.55Y-92.51
X294.55Y-95.05
X294.55Y-97.59
X294.55Y-100.13
X297.4Y-97.
X297.44Y-100.43
X297.73Y-86.72
X297.76Y-90.98
X298.13Y-83.02
X302.4Y-97.
X302.44Y-100.43
X305.75Y-83.02
X307.89Y-86.72
X307.92Y-90.98
X308.63Y-75.33
X308.63Y-82.95
T3
X86.8Y-117.54
X89.34Y-117.54
T4
X59.4Y-92.62
X59.4Y-97.62
X59.78Y-81.34
X59.78Y-86.34
X60.08Y-112.6
X62.62Y-112.6
X65.16Y-112.6
X75.22Y-98.29
X77.76Y-98.29
X80.3Y-98.29
X136.15Y-53.87
X138.69Y-53.87
X166.64Y-59.74
X169.18Y-59.74
X209.21Y-57.56
X209.21Y-60.1
X209.21Y-62.64
T5
X40.48Y-116.8
X40.74Y-66.13
X40.74Y-73.75
X40.74Y-78.83
X40.74Y-83.91
X40.78Y-120.2
X40.83Y-91.36
X40.9Y-95.52
X40.9Y-100.6
X40.9Y-105.68
X40.9Y-113.3
X40.96Y-87.45
X42.32Y-52.02
X42.32Y-59.62
X47.4Y-52.02
X47.4Y-59.62
X48.1Y-116.8
X48.34Y-66.13
X48.34Y-73.75
X48.34Y-78.83
X48.34Y-83.91
X48.4Y-120.2
X48.45Y-91.36
X48.5Y-95.52
X48.5Y-100.6
X48.5Y-105.68
X48.5Y-113.3
X48.58Y-87.45
X51.47Y-64.21
X51.56Y-72.64
X51.78Y-68.96
X51.78Y-76.09
X51.78Y-83.71
X51.91Y-91.31
X51.91Y-98.93
X52.48Y-52.02
X52.48Y-59.62
X55.38Y-102.6
X59.09Y-64.21
X59.18Y-72.64
X59.4Y-68.96
X60.1Y-52.02
X60.1Y-59.62
X63.Y-102.6
X63.97Y-53.3
X63.97Y-60.92
X81.58Y-52.
X81.58Y-59.62
X86.25Y-52.19
X86.25Y-59.79
X91.33Y-52.19
X91.33Y-59.79
X91.48Y-92.43
X96.41Y-52.19
X96.41Y-59.79
X99.1Y-92.43
X101.11Y-63.42
X101.11Y-71.02
X104.03Y-52.19
X104.03Y-59.79
X108.24Y-52.02
X108.24Y-59.64
X108.73Y-63.42
X108.73Y-71.02
X113.07Y-52.53
X113.07Y-60.13
X113.81Y-63.42
X113.81Y-71.02
X118.89Y-63.42
X118.89Y-71.02
X120.69Y-52.53
X120.69Y-60.13
X125.77Y-52.53
X125.77Y-60.13
X130.85Y-52.53
X130.85Y-60.13
X178.3Y-78.5
X178.3Y-86.1
X183.38Y-78.5
X183.38Y-86.1
X188.46Y-78.5
X188.46Y-86.1
X194.11Y-61.08
X196.08Y-78.5
X196.08Y-86.1
X197.13Y-65.76
X197.13Y-73.38
X199.9Y-78.6
X199.9Y-86.22
X201.73Y-61.08
X219.16Y-61.26
X219.16Y-66.34
X219.16Y-71.42
X219.16Y-79.04
X226.76Y-61.26
X226.76Y-66.34
X226.76Y-71.42
X226.76Y-79.04
X251.51Y-66.9
X251.51Y-71.98
X251.51Y-77.06
X251.51Y-84.68
X259.11Y-66.9
X259.11Y-71.98
X259.11Y-77.06
X259.11Y-84.68
X291.7Y-60.34
X291.7Y-65.42
X291.7Y-70.5
X291.7Y-78.12
X299.3Y-60.34
X299.3Y-65.42
X299.3Y-70.5
X299.3Y-78.12
X308.68Y-102.26
X308.68Y-109.88
X308.68Y-114.96
X308.68Y-120.04
X315.8Y-79.9
X315.8Y-84.98
X315.8Y-90.06
X315.8Y-97.68
X316.28Y-102.26
X316.28Y-109.88
X316.28Y-114.96
X316.28Y-120.04
X323.4Y-79.9
X323.4Y-84.98
X323.4Y-90.06
X323.4Y-97.68
T6
X109.38Y-113.9
X109.38Y-118.9
X159.28Y-108.9
X159.28Y-113.9
X159.28Y-118.9
X164.28Y-113.9
X164.28Y-118.9
X169.28Y-108.9
X169.28Y-113.9
X169.28Y-118.9
X202.46Y-108.9
X202.46Y-113.9
X202.46Y-118.9
X207.46Y-113.9
X207.46Y-118.9
X212.46Y-108.9
X212.46Y-113.9
X212.46Y-118.9
X227.86Y-108.9
X227.86Y-113.9
X227.86Y-118.9
X232.86Y-113.9
X232.86Y-118.9
X237.86Y-108.9
X237.86Y-113.9
X237.86Y-118.9
X261.86Y-108.9
X261.86Y-113.9
X261.86Y-118.9
X266.86Y-113.9
X266.86Y-118.9
X271.86Y-108.9
X271.86Y-113.9
X271.86Y-118.9
X292.34Y-108.9
X292.34Y-113.9
X292.34Y-118.9
X297.34Y-113.9
X297.34Y-118.9
X302.34Y-108.9
X302.34Y-113.9
X302.34Y-118.9
T8
X33.3Y-97.8
X33.3Y-102.88
X33.7Y-79.8
X33.7Y-84.88
X33.7Y-89.96
X34.2Y-67.8
X34.2Y-72.88
X34.42Y-56.1
X34.42Y-61.18
X35.8Y-44.3
X35.8Y-49.38
X70.49Y-55.56
X75.57Y-55.56
X123.93Y-67.21
X129.01Y-67.21
X208.62Y-91.9
X213.7Y-91.9
T9
X164.08Y-43.46
X168.28Y-49.18
X172.33Y-53.63
X176.38Y-49.82
X187.33Y-43.81
X191.53Y-49.53
X195.58Y-53.98
X199.63Y-50.17
X227.33Y-53.34
X231.14Y-48.26
X231.14Y-53.34
X234.95Y-53.34
X265.43Y-53.34
X269.24Y-48.26
X269.24Y-53.34
X273.05Y-53.34
X306.07Y-53.34
X309.88Y-48.26
X309.88Y-53.34
X313.69Y-53.34
T4
X43.25Y-43.83G85X43.25Y-45.83
G05
X48.95Y-41.83G85X46.95Y-41.83
G05
X48.95Y-47.83G85X46.95Y-47.83
G05
T6
X105.505Y-108.74G85X104.205Y-108.74
G05
X105.505Y-113.82G85X104.205Y-113.82
G05
X105.505Y-118.9G85X104.205Y-118.9
G05
X114.395Y-108.74G85X113.095Y-108.74
G05
X114.395Y-113.82G85X113.095Y-113.82
G05
X114.395Y-118.9G85X113.095Y-118.9
G05
T7
X63.Y-42.18G85X64.Y-42.18
G05
X63.5Y-46.68G85X63.5Y-47.68
G05
X80.78Y-42.18G85X81.78Y-42.18
G05
X81.28Y-46.68G85X81.28Y-47.68
G05
X98.56Y-42.18G85X99.56Y-42.18
G05
X99.06Y-46.68G85X99.06Y-47.68
G05
X116.34Y-42.18G85X117.34Y-42.18
G05
X116.84Y-46.68G85X116.84Y-47.68
G05
X134.12Y-42.18G85X135.12Y-42.18
G05
X134.62Y-46.68G85X134.62Y-47.68
G05
X151.9Y-42.18G85X152.9Y-42.18
G05
X152.4Y-46.68G85X152.4Y-47.68
G05
X212.86Y-42.18G85X213.86Y-42.18
G05
X213.36Y-46.68G85X213.36Y-47.68
G05
X248.42Y-42.18G85X249.42Y-42.18
G05
X248.92Y-46.68G85X248.92Y-47.68
G05
X289.06Y-42.18G85X290.06Y-42.18
G05
X289.56Y-46.68G85X289.56Y-47.68
G05
T0
M30
