M48
;DRILL file {KiCad 4.0.7} date 04/02/21 16:44:22
;FORMAT={-:-/ absolute / metric / decimal}
FMAT,2
METRIC,TZ
T1C0.400
T2C0.800
T3C0.900
T4C1.000
T5C1.100
T6C1.200
T7C1.500
T8C1.520
T9C2.000
%
G90
G05
M71
T1
X23.9Y-56.
X28.4Y-57.1
X65.9Y-90.4
X68.2Y-95.1
X97.5Y-103.7
X141.2Y-71.5
X151.Y-93.8
X151.4Y-103.6
X152.9Y-61.6
X155.1Y-70.6
X188.1Y-87.4
X188.5Y-104.2
X198.85Y-66.6
X200.6Y-83.2
X203.Y-84.8
X206.7Y-66.75
X218.85Y-70.95
X218.9Y-77.1
X229.85Y-63.95
X272.5Y-103.7
X285.4Y-104.3
T2
X11.Y-64.5
X11.Y-77.2
X35.7Y-65.3
X43.32Y-65.3
X45.1Y-83.
X45.1Y-90.62
X46.1Y-57.9
X46.1Y-65.52
X50.7Y-37.6
X50.7Y-45.22
X51.Y-85.5
X51.Y-88.
X56.6Y-88.9
X60.9Y-85.2
X61.Y-81.1
X62.4Y-74.3
X64.22Y-88.9
X64.9Y-74.3
X66.15Y-39.6
X66.15Y-47.22
X73.6Y-85.2
X73.7Y-81.1
X79.18Y-85.7
X79.6Y-81.3
X81.75Y-38.9
X81.75Y-46.52
X82.1Y-81.3
X85.5Y-82.5
X86.8Y-85.7
X86.98Y-95.4
X87.08Y-92.1
X87.08Y-99.6
X87.1Y-102.8
X87.18Y-88.9
X90.1Y-76.1
X90.1Y-78.6
X90.5Y-82.5
X94.6Y-95.4
X94.7Y-92.1
X94.7Y-99.6
X94.72Y-102.8
X94.8Y-88.9
X95.8Y-81.85
X95.8Y-84.35
X95.85Y-76.05
X95.85Y-78.55
X96.75Y-39.8
X96.75Y-47.42
X100.43Y-47.95
X100.9Y-75.05
X101.75Y-90.8
X101.75Y-93.3
X102.4Y-80.3
X102.4Y-87.92
X105.8Y-79.4
X105.8Y-84.4
X105.9Y-75.05
X106.Y-87.
X106.Y-92.
X108.05Y-47.95
X109.4Y-79.4
X109.4Y-81.94
X109.4Y-84.48
X109.4Y-87.02
X111.8Y-75.8
X113.7Y-70.2
X114.8Y-96.4
X114.8Y-101.4
X116.2Y-70.2
X116.8Y-75.8
X117.02Y-79.4
X117.02Y-81.94
X117.02Y-84.48
X117.02Y-87.02
X120.4Y-77.6
X120.4Y-82.6
X120.6Y-94.8
X120.6Y-99.8
X124.2Y-74.8
X124.2Y-82.42
X126.75Y-39.85
X126.75Y-47.47
X129.4Y-87.4
X129.6Y-77.4
X129.6Y-80.6
X129.6Y-84.
X133.2Y-63.8
X133.2Y-71.42
X136.4Y-63.8
X136.4Y-71.42
X137.02Y-87.4
X137.22Y-77.4
X137.22Y-80.6
X137.22Y-84.
X139.2Y-73.4
X142.2Y-94.2
X142.2Y-99.2
X144.2Y-73.4
X144.4Y-88.
X144.6Y-54.35
X144.98Y-76.8
X144.98Y-84.42
X146.Y-96.8
X146.Y-101.8
X147.Y-73.5
X147.52Y-76.8
X147.52Y-84.42
X149.4Y-88.
X149.6Y-54.35
X150.06Y-76.8
X150.06Y-84.42
X151.2Y-100.2
X152.Y-73.5
X152.6Y-76.8
X152.6Y-84.42
X152.95Y-54.3
X153.Y-87.2
X153.Y-92.2
X153.7Y-100.2
X157.8Y-97.
X157.8Y-102.
X157.95Y-54.3
X158.38Y-84.6
X158.4Y-78.
X158.4Y-81.2
X158.58Y-88.
X163.Y-93.8
X163.Y-98.8
X165.4Y-49.6
X165.4Y-54.6
X166.Y-84.6
X166.02Y-78.
X166.02Y-81.2
X166.2Y-88.
X171.Y-83.
X171.Y-86.8
X176.Y-83.
X176.Y-86.8
X177.1Y-61.1
X177.1Y-63.6
X183.38Y-55.78
X183.38Y-58.32
X183.38Y-60.86
X183.38Y-63.4
X185.6Y-91.2
X185.8Y-71.38
X185.8Y-79.
X185.825Y-42.175
X185.825Y-47.175
X186.5Y-66.4
X187.6Y-82.
X187.8Y-51.45
X188.1Y-91.2
X189.6Y-71.4
X189.6Y-79.02
X191.Y-55.78
X191.Y-58.32
X191.Y-60.86
X191.Y-63.4
X191.5Y-66.4
X192.48Y-87.1
X192.6Y-82.
X192.8Y-51.45
X193.Y-73.
X193.Y-78.
X195.95Y-66.
X195.98Y-73.78
X195.98Y-76.32
X195.98Y-78.86
X195.98Y-81.4
X197.6Y-59.1
X197.6Y-61.6
X200.1Y-87.1
X200.95Y-66.
X203.48Y-57.08
X203.48Y-59.62
X203.48Y-62.16
X203.48Y-64.7
X203.6Y-73.78
X203.6Y-76.32
X203.6Y-78.86
X203.6Y-81.4
X206.4Y-72.8
X207.2Y-78.
X207.2Y-83.
X209.7Y-88.
X211.1Y-57.08
X211.1Y-59.62
X211.1Y-62.16
X211.1Y-64.7
X211.4Y-72.8
X211.4Y-76.4
X211.4Y-84.02
X211.8Y-95.3
X211.8Y-102.92
X212.2Y-88.
X214.5Y-56.
X214.5Y-61.
X215.2Y-76.58
X215.2Y-84.2
X217.75Y-57.73
X217.75Y-65.35
X217.8Y-54.25
X220.9Y-57.65
X220.9Y-65.27
X220.94Y-50.
X225.1Y-59.1
X225.1Y-61.64
X225.1Y-64.18
X225.1Y-66.72
X227.96Y-54.25
X231.1Y-50.
X232.72Y-59.1
X232.72Y-61.64
X232.72Y-64.18
X232.72Y-66.72
X234.Y-74.78
X234.Y-82.4
X236.Y-61.6
X236.Y-64.9
X237.8Y-74.6
X237.8Y-79.6
X241.Y-61.6
X241.Y-64.9
X241.78Y-71.98
X241.78Y-74.52
X241.78Y-77.06
X241.78Y-79.6
X241.8Y-82.8
X241.8Y-87.8
X245.4Y-54.2
X245.75Y-57.63
X245.75Y-65.25
X248.95Y-57.7
X248.95Y-65.32
X249.4Y-71.98
X249.4Y-74.52
X249.4Y-77.06
X249.4Y-79.6
X252.9Y-71.5
X252.9Y-76.5
X253.6Y-89.78
X253.6Y-97.4
X253.8Y-80.
X253.8Y-85.
X255.5Y-58.4
X255.5Y-60.94
X255.5Y-63.48
X255.5Y-66.02
X255.56Y-54.2
X256.44Y-49.5
X258.6Y-80.
X258.6Y-85.
X263.12Y-58.4
X263.12Y-60.94
X263.12Y-63.48
X263.12Y-66.02
X266.Y-65.9
X266.1Y-62.8
X266.6Y-49.5
X267.5Y-76.2
X267.5Y-78.74
X267.5Y-81.28
X267.5Y-83.82
X267.54Y-72.3
X271.Y-65.9
X271.1Y-62.8
X272.9Y-65.
X272.98Y-68.3
X274.6Y-85.98
X274.6Y-93.6
X275.12Y-76.2
X275.12Y-78.74
X275.12Y-81.28
X275.12Y-83.82
X277.7Y-72.3
X278.Y-82.3
X278.1Y-79.3
X278.2Y-86.9
X278.2Y-91.9
X280.52Y-65.
X280.6Y-68.3
X281.7Y-85.58
X281.7Y-93.2
X283.Y-82.3
X283.1Y-79.3
X290.4Y-60.7
X290.4Y-70.86
T3
X279.06Y-100.8
X281.6Y-100.8
T4
X38.9Y-51.8
X38.9Y-56.8
X39.82Y-72.7
X41.82Y-96.6
X42.36Y-72.7
X44.36Y-96.6
X44.9Y-72.7
X46.9Y-96.6
X60.7Y-95.3
X60.7Y-100.3
X176.56Y-56.45
X179.1Y-56.45
X196.96Y-54.3
X199.5Y-54.3
T5
X10.3Y-51.6
X10.4Y-55.1
X10.4Y-60.5
X14.08Y-92.3
X14.08Y-95.8
X14.6Y-68.28
X14.6Y-75.9
X17.92Y-51.6
X18.Y-68.28
X18.Y-75.9
X18.02Y-55.1
X18.02Y-60.5
X21.7Y-92.3
X21.7Y-95.8
X22.7Y-47.4
X22.7Y-52.48
X22.7Y-57.56
X22.7Y-65.18
X22.7Y-70.92
X22.7Y-78.54
X22.7Y-83.62
X22.7Y-88.7
X26.4Y-92.3
X26.4Y-99.92
X30.3Y-47.4
X30.3Y-52.48
X30.3Y-57.56
X30.3Y-65.18
X30.3Y-70.92
X30.3Y-78.54
X30.3Y-83.62
X30.3Y-88.7
X31.Y-92.3
X31.Y-99.92
X35.38Y-61.6
X40.3Y-82.68
X40.3Y-90.3
X43.Y-61.6
X65.7Y-50.4
X65.7Y-55.48
X65.7Y-60.56
X65.7Y-68.18
X73.3Y-50.4
X73.3Y-55.48
X73.3Y-60.56
X73.3Y-68.18
X79.1Y-60.98
X79.1Y-68.6
X88.Y-55.38
X88.Y-63.
X91.82Y-64.4
X91.82Y-72.
X93.9Y-51.3
X93.9Y-58.9
X98.98Y-51.3
X98.98Y-58.9
X99.44Y-64.4
X99.44Y-72.
X104.06Y-51.3
X104.06Y-58.9
X104.52Y-64.4
X104.52Y-72.
X109.6Y-64.4
X109.6Y-72.
X111.68Y-51.3
X111.68Y-58.9
X116.Y-51.2
X116.Y-58.82
X120.22Y-51.1
X120.22Y-58.7
X127.84Y-51.1
X127.84Y-58.7
X132.92Y-51.1
X132.92Y-58.7
X138.Y-51.1
X138.Y-58.7
X145.2Y-61.2
X145.2Y-68.8
X150.28Y-61.2
X150.28Y-68.8
X155.36Y-61.2
X155.36Y-68.8
X162.98Y-61.2
X162.98Y-68.8
X166.8Y-61.3
X166.8Y-68.92
T6
X76.28Y-96.6
X76.28Y-101.6
X126.18Y-91.6
X126.18Y-96.6
X126.18Y-101.6
X131.18Y-96.6
X131.18Y-101.6
X136.18Y-91.6
X136.18Y-96.6
X136.18Y-101.6
X169.36Y-91.6
X169.36Y-96.6
X169.36Y-101.6
X174.36Y-96.6
X174.36Y-101.6
X179.36Y-91.6
X179.36Y-96.6
X179.36Y-101.6
X194.76Y-91.6
X194.76Y-96.6
X194.76Y-101.6
X199.76Y-96.6
X199.76Y-101.6
X204.76Y-91.6
X204.76Y-96.6
X204.76Y-101.6
X228.76Y-91.6
X228.76Y-96.6
X228.76Y-101.6
X233.76Y-96.6
X233.76Y-101.6
X238.76Y-91.6
X238.76Y-96.6
X238.76Y-101.6
X259.24Y-91.6
X259.24Y-96.6
X259.24Y-101.6
X264.24Y-96.6
X264.24Y-101.6
X269.24Y-91.6
X269.24Y-96.6
X269.24Y-101.6
T8
X15.Y-82.02
X15.Y-87.1
X16.1Y-42.1
X16.1Y-47.18
X22.64Y-39.3
X27.72Y-39.3
X32.8Y-39.3
X59.Y-61.92
X59.Y-67.
X59.1Y-50.72
X59.1Y-55.8
X78.22Y-52.3
X83.3Y-52.3
X122.4Y-65.4
X127.48Y-65.4
X175.52Y-74.6
X180.6Y-74.6
T9
X144.75Y-38.09
X148.95Y-43.81
X153.Y-48.26
X157.05Y-44.45
X169.05Y-37.99
X173.25Y-43.71
X177.3Y-48.16
X181.35Y-44.35
X207.19Y-48.62
X211.Y-43.54
X211.Y-48.62
X214.81Y-48.62
X243.19Y-48.62
X247.Y-43.54
X247.Y-48.62
X250.81Y-48.62
X276.19Y-48.62
X280.Y-43.54
X280.Y-48.62
X283.81Y-48.62
T4
X38.8Y-42.3G85X38.8Y-44.3
G05
X44.5Y-40.3G85X42.5Y-40.3
G05
X44.5Y-46.3G85X42.5Y-46.3
G05
T6
X72.405Y-91.44G85X71.105Y-91.44
G05
X72.405Y-96.52G85X71.105Y-96.52
G05
X72.405Y-101.6G85X71.105Y-101.6
G05
X81.295Y-91.44G85X79.995Y-91.44
G05
X81.295Y-96.52G85X79.995Y-96.52
G05
X81.295Y-101.6G85X79.995Y-101.6
G05
T7
X57.92Y-39.64G85X58.92Y-39.64
G05
X58.42Y-44.14G85X58.42Y-45.14
G05
X73.2Y-39.4G85X74.2Y-39.4
G05
X73.7Y-43.9G85X73.7Y-44.9
G05
X88.65Y-39.3G85X89.65Y-39.3
G05
X89.15Y-43.8G85X89.15Y-44.8
G05
X103.4Y-39.3G85X104.4Y-39.3
G05
X103.9Y-43.8G85X103.9Y-44.8
G05
X118.3Y-39.3G85X119.3Y-39.3
G05
X118.8Y-43.8G85X118.8Y-44.8
G05
X133.6Y-39.3G85X134.6Y-39.3
G05
X134.1Y-43.8G85X134.1Y-44.8
G05
X192.3Y-39.3G85X193.3Y-39.3
G05
X192.8Y-43.8G85X192.8Y-44.8
G05
X227.7Y-39.8G85X228.7Y-39.8
G05
X228.2Y-44.3G85X228.2Y-45.3
G05
X261.9Y-39.6G85X262.9Y-39.6
G05
X262.4Y-44.1G85X262.4Y-45.1
G05
T0
M30
