M48
;DRILL file {KiCad 4.0.7} date 04/04/21 23:29:24
;FORMAT={-:-/ absolute / metric / decimal}
FMAT,2
METRIC,TZ
T1C0.400
T2C0.800
T3C0.900
T4C1.000
T5C1.100
T6C1.200
T7C1.500
T8C1.520
T9C2.000
%
G90
G05
M71
T1
X42.Y-73.3
X46.5Y-74.4
X99.75Y-105.75
X101.3Y-112.55
X101.35Y-107.45
X130.6Y-121.
X174.3Y-88.8
X184.1Y-111.1
X184.5Y-120.9
X186.Y-78.9
X188.2Y-87.9
X221.2Y-104.7
X221.6Y-121.5
X231.95Y-83.9
X233.7Y-100.5
X236.1Y-102.1
X239.8Y-84.05
X251.95Y-88.25
X252.Y-94.4
X262.95Y-81.25
X305.6Y-121.
X318.5Y-121.6
T2
X29.1Y-81.8
X29.1Y-94.5
X64.75Y-82.1
X72.37Y-82.1
X75.98Y-83.45
X80.8Y-56.98
X80.8Y-64.6
X82.Y-110.9
X82.Y-118.52
X83.6Y-83.45
X83.7Y-104.
X83.7Y-106.5
X85.6Y-110.88
X85.6Y-118.5
X85.95Y-68.95
X88.45Y-68.95
X89.13Y-108.55
X89.2Y-99.2
X89.2Y-102.7
X92.05Y-86.67
X92.05Y-89.21
X92.05Y-91.75
X96.25Y-57.4
X96.25Y-65.02
X96.75Y-108.55
X96.82Y-99.2
X96.82Y-102.7
X99.7Y-101.4
X102.2Y-101.4
X110.15Y-79.25
X110.15Y-91.95
X111.85Y-56.7
X111.85Y-64.32
X112.28Y-103.
X112.7Y-98.6
X114.Y-79.3
X114.Y-92.
X115.2Y-98.6
X118.6Y-99.8
X119.9Y-103.
X120.08Y-112.7
X120.18Y-109.4
X120.18Y-116.9
X120.2Y-120.1
X120.28Y-106.2
X123.2Y-93.4
X123.2Y-95.9
X123.6Y-99.8
X126.85Y-57.6
X126.85Y-65.22
X127.7Y-112.7
X127.8Y-109.4
X127.8Y-116.9
X127.82Y-120.1
X127.9Y-106.2
X128.9Y-99.15
X128.9Y-101.65
X128.95Y-93.35
X128.95Y-95.85
X134.Y-92.35
X134.85Y-108.1
X134.85Y-110.6
X135.5Y-97.6
X135.5Y-105.22
X137.88Y-65.5
X138.9Y-96.7
X138.9Y-101.7
X139.Y-92.35
X139.1Y-104.3
X139.1Y-109.3
X142.5Y-96.7
X142.5Y-99.24
X142.5Y-101.78
X142.5Y-104.32
X144.9Y-93.1
X145.5Y-65.5
X146.8Y-87.5
X147.9Y-113.7
X147.9Y-118.7
X149.3Y-87.5
X149.9Y-93.1
X150.12Y-96.7
X150.12Y-99.24
X150.12Y-101.78
X150.12Y-104.32
X153.5Y-94.9
X153.5Y-99.9
X153.7Y-112.1
X153.7Y-117.1
X156.85Y-57.65
X156.85Y-65.27
X157.3Y-92.1
X157.3Y-99.72
X162.5Y-104.7
X162.7Y-94.7
X162.7Y-97.9
X162.7Y-101.3
X166.3Y-81.1
X166.3Y-88.72
X169.5Y-81.1
X169.5Y-88.72
X170.12Y-104.7
X170.32Y-94.7
X170.32Y-97.9
X170.32Y-101.3
X172.3Y-90.7
X175.3Y-111.5
X175.3Y-116.5
X177.3Y-90.7
X177.5Y-105.3
X177.7Y-71.65
X178.08Y-94.1
X178.08Y-101.72
X179.1Y-114.1
X179.1Y-119.1
X180.1Y-90.8
X180.62Y-94.1
X180.62Y-101.72
X182.5Y-105.3
X182.7Y-71.65
X183.16Y-94.1
X183.16Y-101.72
X184.3Y-117.5
X185.1Y-90.8
X185.7Y-94.1
X185.7Y-101.72
X186.05Y-71.6
X186.1Y-104.5
X186.1Y-109.5
X186.8Y-117.5
X190.9Y-114.3
X190.9Y-119.3
X191.05Y-71.6
X191.48Y-101.9
X191.5Y-95.3
X191.5Y-98.5
X191.68Y-105.3
X196.1Y-111.1
X196.1Y-116.1
X198.25Y-59.35
X198.25Y-64.35
X198.25Y-66.75
X198.25Y-71.75
X199.1Y-101.9
X199.12Y-95.3
X199.12Y-98.5
X199.3Y-105.3
X204.1Y-100.3
X204.1Y-104.1
X209.1Y-100.3
X209.1Y-104.1
X210.2Y-78.4
X210.2Y-80.9
X216.48Y-73.08
X216.48Y-75.62
X216.48Y-78.16
X216.48Y-80.7
X218.7Y-108.5
X218.9Y-88.68
X218.9Y-96.3
X219.6Y-83.7
X220.7Y-99.3
X220.9Y-68.75
X221.2Y-108.5
X222.7Y-88.7
X222.7Y-96.32
X224.1Y-73.08
X224.1Y-75.62
X224.1Y-78.16
X224.1Y-80.7
X224.6Y-83.7
X225.58Y-104.4
X225.7Y-99.3
X225.9Y-68.75
X226.1Y-90.3
X226.1Y-95.3
X229.05Y-83.3
X229.08Y-91.08
X229.08Y-93.62
X229.08Y-96.16
X229.08Y-98.7
X230.7Y-76.4
X230.7Y-78.9
X233.2Y-104.4
X234.05Y-83.3
X236.58Y-74.38
X236.58Y-76.92
X236.58Y-79.46
X236.58Y-82.
X236.7Y-91.08
X236.7Y-93.62
X236.7Y-96.16
X236.7Y-98.7
X239.5Y-90.1
X240.3Y-95.3
X240.3Y-100.3
X242.8Y-105.3
X244.2Y-74.38
X244.2Y-76.92
X244.2Y-79.46
X244.2Y-82.
X244.5Y-90.1
X244.5Y-93.7
X244.5Y-101.32
X244.9Y-112.6
X244.9Y-120.22
X245.3Y-105.3
X247.6Y-73.3
X247.6Y-78.3
X248.3Y-93.88
X248.3Y-101.5
X250.85Y-75.03
X250.85Y-82.65
X250.9Y-71.55
X254.Y-74.95
X254.Y-82.57
X254.04Y-67.3
X258.2Y-76.4
X258.2Y-78.94
X258.2Y-81.48
X258.2Y-84.02
X261.06Y-71.55
X264.2Y-67.3
X265.82Y-76.4
X265.82Y-78.94
X265.82Y-81.48
X265.82Y-84.02
X267.1Y-92.08
X267.1Y-99.7
X269.1Y-78.9
X269.1Y-82.2
X270.9Y-91.9
X270.9Y-96.9
X274.1Y-78.9
X274.1Y-82.2
X274.88Y-89.28
X274.88Y-91.82
X274.88Y-94.36
X274.88Y-96.9
X274.9Y-100.1
X274.9Y-105.1
X278.5Y-71.5
X278.85Y-74.93
X278.85Y-82.55
X282.05Y-75.
X282.05Y-82.62
X282.5Y-89.28
X282.5Y-91.82
X282.5Y-94.36
X282.5Y-96.9
X286.Y-88.8
X286.Y-93.8
X286.7Y-107.08
X286.7Y-114.7
X286.9Y-97.3
X286.9Y-102.3
X288.6Y-75.7
X288.6Y-78.24
X288.6Y-80.78
X288.6Y-83.32
X288.66Y-71.5
X289.54Y-66.8
X291.7Y-97.3
X291.7Y-102.3
X296.22Y-75.7
X296.22Y-78.24
X296.22Y-80.78
X296.22Y-83.32
X299.1Y-83.2
X299.2Y-80.1
X299.7Y-66.8
X300.6Y-93.5
X300.6Y-96.04
X300.6Y-98.58
X300.6Y-101.12
X300.64Y-89.6
X304.1Y-83.2
X304.2Y-80.1
X306.Y-82.3
X306.08Y-85.6
X307.7Y-103.28
X307.7Y-110.9
X308.22Y-93.5
X308.22Y-96.04
X308.22Y-98.58
X308.22Y-101.12
X310.8Y-89.6
X311.1Y-99.6
X311.2Y-96.6
X311.3Y-104.2
X311.3Y-109.2
X313.62Y-82.3
X313.7Y-85.6
X316.1Y-99.6
X316.2Y-96.6
X323.5Y-78.
X323.5Y-88.16
T3
X89.2Y-116.45
X91.74Y-116.45
T4
X56.5Y-100.3
X56.5Y-105.3
X64.72Y-112.7
X65.72Y-89.45
X67.26Y-112.7
X68.26Y-89.45
X69.8Y-112.7
X70.8Y-89.45
X77.7Y-68.75
X77.7Y-73.75
X209.66Y-73.75
X212.2Y-73.75
X230.06Y-71.6
X232.6Y-71.6
T5
X28.4Y-68.9
X28.5Y-72.4
X28.5Y-77.8
X32.7Y-85.58
X32.7Y-93.2
X33.98Y-113.2
X34.Y-109.7
X36.02Y-68.9
X36.1Y-85.58
X36.1Y-93.2
X36.12Y-72.4
X36.12Y-77.8
X40.8Y-64.7
X40.8Y-69.78
X40.8Y-74.86
X40.8Y-82.48
X40.8Y-88.22
X40.8Y-95.84
X40.8Y-100.92
X40.8Y-106.
X41.6Y-113.2
X41.62Y-109.7
X44.6Y-109.8
X44.7Y-113.3
X48.4Y-64.7
X48.4Y-69.78
X48.4Y-74.86
X48.4Y-82.48
X48.4Y-88.22
X48.4Y-95.84
X48.4Y-100.92
X48.4Y-106.
X52.22Y-109.8
X52.32Y-113.3
X52.67Y-67.8
X52.67Y-75.4
X60.29Y-67.8
X60.29Y-75.4
X63.9Y-104.4
X65.37Y-67.8
X65.37Y-75.4
X70.45Y-67.8
X70.45Y-75.4
X71.52Y-104.4
X75.5Y-78.8
X83.12Y-78.8
X89.4Y-95.35
X97.02Y-95.35
X97.15Y-73.1
X97.15Y-78.18
X97.15Y-83.26
X97.15Y-90.88
X99.2Y-68.
X99.93Y-95.45
X104.75Y-73.1
X104.75Y-78.18
X104.75Y-83.26
X104.75Y-90.88
X106.82Y-68.
X107.55Y-95.45
X121.5Y-68.63
X121.5Y-76.25
X124.92Y-81.7
X124.92Y-89.3
X127.Y-68.6
X127.Y-76.2
X132.08Y-68.6
X132.08Y-76.2
X132.54Y-81.7
X132.54Y-89.3
X137.16Y-68.6
X137.16Y-76.2
X137.62Y-81.7
X137.62Y-89.3
X142.7Y-81.7
X142.7Y-89.3
X144.78Y-68.6
X144.78Y-76.2
X149.1Y-68.5
X149.1Y-76.12
X153.32Y-68.4
X153.32Y-76.
X160.94Y-68.4
X160.94Y-76.
X166.02Y-68.4
X166.02Y-76.
X171.1Y-68.4
X171.1Y-76.
X178.3Y-78.5
X178.3Y-86.1
X183.38Y-78.5
X183.38Y-86.1
X188.46Y-78.5
X188.46Y-86.1
X196.08Y-78.5
X196.08Y-86.1
X199.9Y-78.6
X199.9Y-86.22
T6
X109.38Y-113.9
X109.38Y-118.9
X159.28Y-108.9
X159.28Y-113.9
X159.28Y-118.9
X164.28Y-113.9
X164.28Y-118.9
X169.28Y-108.9
X169.28Y-113.9
X169.28Y-118.9
X202.46Y-108.9
X202.46Y-113.9
X202.46Y-118.9
X207.46Y-113.9
X207.46Y-118.9
X212.46Y-108.9
X212.46Y-113.9
X212.46Y-118.9
X227.86Y-108.9
X227.86Y-113.9
X227.86Y-118.9
X232.86Y-113.9
X232.86Y-118.9
X237.86Y-108.9
X237.86Y-113.9
X237.86Y-118.9
X261.86Y-108.9
X261.86Y-113.9
X261.86Y-118.9
X266.86Y-113.9
X266.86Y-118.9
X271.86Y-108.9
X271.86Y-113.9
X271.86Y-118.9
X292.34Y-108.9
X292.34Y-113.9
X292.34Y-118.9
X297.34Y-113.9
X297.34Y-118.9
X302.34Y-108.9
X302.34Y-113.9
X302.34Y-118.9
T8
X33.1Y-99.32
X33.1Y-104.4
X34.2Y-59.4
X34.2Y-64.48
X40.74Y-56.6
X45.82Y-56.6
X50.9Y-56.6
X53.Y-81.15
X58.08Y-81.15
X69.7Y-57.3
X74.78Y-57.3
X111.32Y-69.6
X116.4Y-69.6
X155.5Y-82.7
X160.58Y-82.7
X208.62Y-91.9
X213.7Y-91.9
T9
X176.4Y-55.19
X180.6Y-60.91
X184.65Y-65.36
X188.7Y-61.55
X202.15Y-55.29
X206.35Y-61.01
X210.4Y-65.46
X214.45Y-61.65
X240.29Y-65.92
X244.1Y-60.84
X244.1Y-65.92
X247.91Y-65.92
X276.29Y-65.92
X280.1Y-60.84
X280.1Y-65.92
X283.91Y-65.92
X309.29Y-65.92
X313.1Y-60.84
X313.1Y-65.92
X316.91Y-65.92
T4
X56.1Y-59.7G85X56.1Y-61.7
G05
X61.8Y-57.7G85X59.8Y-57.7
G05
X61.8Y-63.7G85X59.8Y-63.7
G05
T6
X105.505Y-108.74G85X104.205Y-108.74
G05
X105.505Y-113.82G85X104.205Y-113.82
G05
X105.505Y-118.9G85X104.205Y-118.9
G05
X114.395Y-108.74G85X113.095Y-108.74
G05
X114.395Y-113.82G85X113.095Y-113.82
G05
X114.395Y-118.9G85X113.095Y-118.9
G05
T7
X88.02Y-57.44G85X89.02Y-57.44
G05
X88.52Y-61.94G85X88.52Y-62.94
G05
X103.3Y-57.2G85X104.3Y-57.2
G05
X103.8Y-61.7G85X103.8Y-62.7
G05
X119.05Y-57.25G85X120.05Y-57.25
G05
X119.55Y-61.75G85X119.55Y-62.75
G05
X133.5Y-57.1G85X134.5Y-57.1
G05
X134.Y-61.6G85X134.Y-62.6
G05
X148.4Y-57.1G85X149.4Y-57.1
G05
X148.9Y-61.6G85X148.9Y-62.6
G05
X164.Y-57.G85X165.Y-57.
G05
X164.5Y-61.5G85X164.5Y-62.5
G05
X225.4Y-56.6G85X226.4Y-56.6
G05
X225.9Y-61.1G85X225.9Y-62.1
G05
X260.8Y-57.1G85X261.8Y-57.1
G05
X261.3Y-61.6G85X261.3Y-62.6
G05
X295.Y-56.9G85X296.Y-56.9
G05
X295.5Y-61.4G85X295.5Y-62.4
G05
T0
M30
